<svg xmlns="http://www.w3.org/2000/svg" xmlns:xlink="http://www.w3.org/1999/xlink" width="48" zoomAndPan="magnify" viewBox="0 0 36 36.000001" height="48" preserveAspectRatio="xMidYMid meet" version="1.0"><defs><clipPath id="58015a9cba"><path d="M 0.488281 0 L 35.511719 0 L 35.511719 35.027344 L 0.488281 35.027344 Z M 0.488281 0 " clip-rule="nonzero"/></clipPath></defs><path fill="#dce2e8" d="M 6.035156 20.277344 L 8.800781 20.277344 C 9.1875 20.277344 9.496094 19.964844 9.496094 19.582031 L 9.496094 16.8125 C 9.496094 16.429688 9.1875 16.121094 8.800781 16.121094 L 6.035156 16.121094 C 5.652344 16.121094 5.339844 16.429688 5.339844 16.8125 L 5.339844 19.582031 C 5.339844 19.964844 5.652344 20.277344 6.035156 20.277344 Z M 6.035156 20.277344 " fill-opacity="1" fill-rule="nonzero"/><path fill="#dce2e8" d="M 6.035156 25.996094 L 8.800781 25.996094 C 9.1875 25.996094 9.496094 25.6875 9.496094 25.300781 L 9.496094 22.535156 C 9.496094 22.152344 9.1875 21.839844 8.800781 21.839844 L 6.035156 21.839844 C 5.652344 21.839844 5.339844 22.152344 5.339844 22.535156 L 5.339844 25.300781 C 5.339844 25.6875 5.652344 25.996094 6.035156 25.996094 Z M 6.035156 25.996094 " fill-opacity="1" fill-rule="nonzero"/><path fill="#dce2e8" d="M 6.035156 31.71875 L 8.800781 31.71875 C 9.1875 31.71875 9.496094 31.40625 9.496094 31.023438 L 9.496094 28.257812 C 9.496094 27.871094 9.1875 27.5625 8.800781 27.5625 L 6.035156 27.5625 C 5.652344 27.5625 5.339844 27.871094 5.339844 28.257812 L 5.339844 31.023438 C 5.339844 31.40625 5.652344 31.71875 6.035156 31.71875 Z M 6.035156 31.71875 " fill-opacity="1" fill-rule="nonzero"/><path fill="#dce2e8" d="M 13.011719 20.277344 L 15.78125 20.277344 C 16.164062 20.277344 16.476562 19.964844 16.476562 19.582031 L 16.476562 16.8125 C 16.476562 16.429688 16.164062 16.121094 15.78125 16.121094 L 13.011719 16.121094 C 12.628906 16.121094 12.316406 16.429688 12.316406 16.8125 L 12.316406 19.582031 C 12.316406 19.964844 12.628906 20.277344 13.011719 20.277344 Z M 13.011719 20.277344 " fill-opacity="1" fill-rule="nonzero"/><path fill="#dce2e8" d="M 13.011719 25.996094 L 15.78125 25.996094 C 16.164062 25.996094 16.476562 25.6875 16.476562 25.300781 L 16.476562 22.535156 C 16.476562 22.152344 16.164062 21.839844 15.78125 21.839844 L 13.011719 21.839844 C 12.628906 21.839844 12.316406 22.152344 12.316406 22.535156 L 12.316406 25.300781 C 12.316406 25.6875 12.628906 25.996094 13.011719 25.996094 Z M 13.011719 25.996094 " fill-opacity="1" fill-rule="nonzero"/><path fill="#dce2e8" d="M 13.011719 31.71875 L 15.78125 31.71875 C 16.164062 31.71875 16.476562 31.40625 16.476562 31.023438 L 16.476562 28.257812 C 16.476562 27.871094 16.164062 27.5625 15.78125 27.5625 L 13.011719 27.5625 C 12.628906 27.5625 12.316406 27.871094 12.316406 28.257812 L 12.316406 31.023438 C 12.316406 31.40625 12.628906 31.71875 13.011719 31.71875 Z M 13.011719 31.71875 " fill-opacity="1" fill-rule="nonzero"/><path fill="#dce2e8" d="M 19.992188 20.277344 L 22.757812 20.277344 C 23.144531 20.277344 23.453125 19.964844 23.453125 19.582031 L 23.453125 16.8125 C 23.453125 16.429688 23.144531 16.121094 22.757812 16.121094 L 19.992188 16.121094 C 19.609375 16.121094 19.296875 16.429688 19.296875 16.8125 L 19.296875 19.582031 C 19.296875 19.964844 19.609375 20.277344 19.992188 20.277344 Z M 19.992188 20.277344 " fill-opacity="1" fill-rule="nonzero"/><path fill="#dce2e8" d="M 22.757812 27.5625 L 19.992188 27.5625 C 19.609375 27.5625 19.296875 27.871094 19.296875 28.257812 L 19.296875 31.023438 C 19.296875 31.40625 19.609375 31.71875 19.992188 31.71875 L 22.757812 31.71875 C 23.144531 31.71875 23.453125 31.40625 23.453125 31.023438 L 23.453125 28.257812 C 23.453125 27.871094 23.144531 27.5625 22.757812 27.5625 Z M 22.757812 27.5625 " fill-opacity="1" fill-rule="nonzero"/><path fill="#dce2e8" d="M 26.96875 20.277344 L 29.738281 20.277344 C 30.121094 20.277344 30.433594 19.964844 30.433594 19.582031 L 30.433594 16.8125 C 30.433594 16.429688 30.121094 16.121094 29.738281 16.121094 L 26.96875 16.121094 C 26.585938 16.121094 26.273438 16.429688 26.273438 16.8125 L 26.273438 19.582031 C 26.273438 19.964844 26.585938 20.277344 26.96875 20.277344 Z M 26.96875 20.277344 " fill-opacity="1" fill-rule="nonzero"/><path fill="#dce2e8" d="M 26.96875 25.996094 L 29.738281 25.996094 C 30.121094 25.996094 30.433594 25.6875 30.433594 25.300781 L 30.433594 22.535156 C 30.433594 22.152344 30.121094 21.839844 29.738281 21.839844 L 26.96875 21.839844 C 26.585938 21.839844 26.273438 22.152344 26.273438 22.535156 L 26.273438 25.300781 C 26.273438 25.6875 26.585938 25.996094 26.96875 25.996094 Z M 26.96875 25.996094 " fill-opacity="1" fill-rule="nonzero"/><g clip-path="url(#58015a9cba)"><path fill="#dce2e8" d="M 27.121094 0.00390625 C 26.472656 0.00390625 25.941406 0.53125 25.941406 1.183594 L 25.941406 3.554688 L 9.890625 3.554688 L 9.890625 1.183594 C 9.890625 0.53125 9.363281 0.00390625 8.710938 0.00390625 C 8.058594 0.00390625 7.53125 0.53125 7.53125 1.183594 L 7.53125 3.554688 L 3.808594 3.554688 C 1.976562 3.554688 0.488281 5.042969 0.488281 6.878906 L 0.488281 31.703125 C 0.488281 33.535156 1.976562 35.023438 3.808594 35.023438 L 31.960938 35.023438 C 33.792969 35.023438 35.285156 33.535156 35.285156 31.703125 L 35.285156 6.878906 C 35.285156 5.042969 33.792969 3.554688 31.960938 3.554688 L 28.304688 3.554688 L 28.304688 1.183594 C 28.304688 0.53125 27.773438 0.00390625 27.121094 0.00390625 Z M 7.53125 5.246094 L 7.53125 6.710938 C 7.53125 7.363281 8.058594 7.890625 8.710938 7.890625 C 9.363281 7.890625 9.890625 7.363281 9.890625 6.710938 L 9.890625 5.246094 C 10.316406 5.589844 10.589844 6.121094 10.589844 6.710938 C 10.589844 7.75 9.75 8.59375 8.710938 8.59375 C 7.671875 8.59375 6.828125 7.75 6.828125 6.710938 C 6.828125 6.121094 7.101562 5.589844 7.53125 5.246094 Z M 33.648438 31.703125 C 33.648438 32.632812 32.890625 33.386719 31.960938 33.386719 L 3.808594 33.386719 C 2.878906 33.386719 2.125 32.632812 2.125 31.703125 L 2.125 14.449219 L 33.648438 14.449219 Z M 29.003906 6.710938 C 29.003906 7.75 28.160156 8.59375 27.121094 8.59375 C 26.082031 8.59375 25.242188 7.75 25.242188 6.710938 C 25.242188 6.121094 25.515625 5.589844 25.941406 5.246094 L 25.941406 6.710938 C 25.941406 7.363281 26.472656 7.890625 27.121094 7.890625 C 27.773438 7.890625 28.304688 7.363281 28.304688 6.710938 L 28.304688 5.246094 C 28.730469 5.589844 29.003906 6.121094 29.003906 6.710938 Z M 29.003906 6.710938 " fill-opacity="1" fill-rule="nonzero"/></g><path fill="#dce2e8" d="M 21.15625 26.363281 L 24.453125 23.066406 C 24.773438 22.746094 24.773438 22.230469 24.453125 21.910156 C 24.132812 21.589844 23.617188 21.589844 23.296875 21.910156 L 21.15625 24.046875 L 20.296875 23.1875 C 19.976562 22.871094 19.457031 22.871094 19.140625 23.1875 C 18.820312 23.507812 18.820312 24.027344 19.140625 24.347656 Z M 21.15625 26.363281 " fill-opacity="1" fill-rule="nonzero"/></svg>