<svg xmlns="http://www.w3.org/2000/svg" xmlns:xlink="http://www.w3.org/1999/xlink" width="48" zoomAndPan="magnify" viewBox="0 0 36 36.000001" height="48" preserveAspectRatio="xMidYMid meet" version="1.0"><defs><clipPath id="947a80ecf3"><path d="M 0.488281 21 L 7 21 L 7 33 L 0.488281 33 Z M 0.488281 21 " clip-rule="nonzero"/></clipPath><clipPath id="c9f64c39ea"><path d="M 5 24 L 28 24 L 28 34.777344 L 5 34.777344 Z M 5 24 " clip-rule="nonzero"/></clipPath><clipPath id="5a420e6bf2"><path d="M 29 3 L 35.511719 3 L 35.511719 14 L 29 14 Z M 29 3 " clip-rule="nonzero"/></clipPath><clipPath id="83b47fd1c5"><path d="M 8 0.480469 L 31 0.480469 L 31 11 L 8 11 Z M 8 0.480469 " clip-rule="nonzero"/></clipPath></defs><g clip-path="url(#947a80ecf3)"><path fill="#dce2e8" d="M 5.992188 32.050781 L 1.035156 32.050781 C 0.730469 32.050781 0.488281 31.808594 0.488281 31.503906 L 0.488281 22.496094 C 0.488281 22.195312 0.730469 21.949219 1.035156 21.949219 L 5.992188 21.949219 C 6.296875 21.949219 6.542969 22.195312 6.542969 22.496094 L 6.542969 31.503906 C 6.542969 31.808594 6.296875 32.050781 5.992188 32.050781 Z M 1.582031 30.957031 L 5.445312 30.957031 L 5.445312 23.046875 L 1.582031 23.046875 Z M 1.582031 30.957031 " fill-opacity="1" fill-rule="nonzero"/></g><g clip-path="url(#c9f64c39ea)"><path fill="#dce2e8" d="M 15.867188 34.539062 C 15.511719 34.539062 15.152344 34.476562 14.8125 34.347656 L 5.800781 30.9375 C 5.515625 30.828125 5.375 30.515625 5.480469 30.230469 C 5.589844 29.949219 5.90625 29.804688 6.1875 29.914062 L 15.195312 33.324219 C 15.726562 33.519531 16.316406 33.476562 16.816406 33.195312 L 26.253906 27.355469 C 26.261719 27.351562 26.265625 27.351562 26.273438 27.347656 C 26.507812 27.214844 26.667969 26.996094 26.730469 26.734375 C 26.792969 26.46875 26.742188 26.203125 26.59375 25.976562 C 26.414062 25.714844 26.117188 25.554688 25.796875 25.554688 C 25.65625 25.554688 25.519531 25.585938 25.390625 25.648438 L 20.082031 28.144531 C 19.808594 28.273438 19.480469 28.15625 19.355469 27.882812 C 19.226562 27.609375 19.34375 27.285156 19.617188 27.15625 L 24.925781 24.65625 C 25.199219 24.527344 25.496094 24.460938 25.796875 24.460938 C 26.484375 24.460938 27.121094 24.800781 27.5 25.367188 C 27.820312 25.839844 27.925781 26.429688 27.796875 26.984375 C 27.667969 27.535156 27.3125 28.011719 26.824219 28.292969 L 17.382812 34.132812 C 17.375 34.136719 17.371094 34.136719 17.363281 34.140625 C 16.902344 34.40625 16.386719 34.539062 15.867188 34.539062 Z M 15.867188 34.539062 " fill-opacity="1" fill-rule="nonzero"/></g><path fill="#dce2e8" d="M 12.84375 29.386719 C 12.605469 29.386719 12.382812 29.230469 12.316406 28.988281 C 12.234375 28.695312 12.402344 28.394531 12.695312 28.3125 C 13.566406 28.066406 14.464844 27.941406 15.367188 27.941406 L 18.476562 27.941406 C 18.742188 27.941406 18.992188 27.839844 19.179688 27.652344 C 19.253906 27.578125 19.316406 27.492188 19.363281 27.402344 C 19.4375 27.253906 19.46875 27.140625 19.46875 27 C 19.476562 26.738281 19.375 26.492188 19.1875 26.296875 C 18.992188 26.097656 18.71875 25.984375 18.445312 25.984375 L 14.097656 25.984375 C 13.722656 25.984375 13.351562 25.898438 13.015625 25.730469 L 9.546875 23.992188 C 9.367188 23.902344 9.160156 23.851562 8.957031 23.851562 L 5.992188 23.851562 C 5.691406 23.851562 5.445312 23.605469 5.445312 23.304688 C 5.445312 23.003906 5.691406 22.757812 5.992188 22.757812 L 8.957031 22.757812 C 9.332031 22.757812 9.703125 22.847656 10.039062 23.011719 L 13.507812 24.75 C 13.6875 24.84375 13.894531 24.890625 14.097656 24.890625 L 18.445312 24.890625 C 19.011719 24.890625 19.566406 25.125 19.96875 25.53125 C 20.363281 25.9375 20.574219 26.464844 20.566406 27.023438 C 20.558594 27.328125 20.484375 27.605469 20.335938 27.898438 C 20.238281 28.09375 20.109375 28.269531 19.953125 28.425781 C 19.558594 28.820312 19.03125 29.039062 18.476562 29.039062 L 15.367188 29.039062 C 14.566406 29.039062 13.765625 29.148438 12.992188 29.367188 C 12.941406 29.378906 12.890625 29.386719 12.84375 29.386719 Z M 12.84375 29.386719 " fill-opacity="1" fill-rule="nonzero"/><g clip-path="url(#5a420e6bf2)"><path fill="#dce2e8" d="M 34.964844 13.195312 L 29.980469 13.195312 C 29.675781 13.195312 29.433594 12.949219 29.433594 12.644531 L 29.433594 3.640625 C 29.433594 3.335938 29.675781 3.09375 29.980469 3.09375 L 34.964844 3.09375 C 35.269531 3.09375 35.511719 3.335938 35.511719 3.640625 L 35.511719 12.644531 C 35.511719 12.949219 35.269531 13.195312 34.964844 13.195312 Z M 30.527344 12.097656 L 34.417969 12.097656 L 34.417969 4.1875 L 30.527344 4.1875 Z M 30.527344 12.097656 " fill-opacity="1" fill-rule="nonzero"/></g><g clip-path="url(#83b47fd1c5)"><path fill="#dce2e8" d="M 10.175781 10.683594 C 9.492188 10.683594 8.855469 10.34375 8.472656 9.777344 C 8.152344 9.304688 8.046875 8.714844 8.175781 8.160156 C 8.304688 7.609375 8.660156 7.132812 9.148438 6.851562 L 18.589844 1.011719 C 18.597656 1.007812 18.601562 1.003906 18.609375 1.003906 C 19.390625 0.558594 20.320312 0.484375 21.160156 0.796875 L 30.171875 4.207031 C 30.457031 4.316406 30.597656 4.628906 30.492188 4.914062 C 30.382812 5.195312 30.070312 5.339844 29.785156 5.230469 L 20.777344 1.820312 C 20.246094 1.621094 19.65625 1.667969 19.15625 1.949219 L 9.71875 7.789062 C 9.710938 7.792969 9.707031 7.792969 9.699219 7.796875 C 9.46875 7.929688 9.304688 8.148438 9.242188 8.410156 C 9.179688 8.675781 9.230469 8.941406 9.378906 9.164062 C 9.558594 9.429688 9.855469 9.589844 10.175781 9.589844 C 10.316406 9.589844 10.453125 9.558594 10.582031 9.496094 L 15.890625 7 C 16.164062 6.871094 16.492188 6.988281 16.621094 7.261719 C 16.75 7.535156 16.632812 7.859375 16.359375 7.988281 L 11.050781 10.488281 C 10.773438 10.617188 10.480469 10.683594 10.175781 10.683594 Z M 10.175781 10.683594 " fill-opacity="1" fill-rule="nonzero"/></g><path fill="#dce2e8" d="M 29.980469 12.386719 L 27.015625 12.386719 C 26.640625 12.386719 26.269531 12.296875 25.933594 12.132812 L 22.464844 10.394531 C 22.285156 10.300781 22.082031 10.253906 21.878906 10.253906 L 17.527344 10.253906 C 16.960938 10.253906 16.40625 10.019531 16.003906 9.613281 C 15.609375 9.207031 15.398438 8.679688 15.410156 8.121094 C 15.414062 7.816406 15.488281 7.539062 15.636719 7.246094 C 15.734375 7.050781 15.863281 6.875 16.019531 6.71875 C 16.414062 6.324219 16.941406 6.105469 17.5 6.105469 L 20.605469 6.105469 C 21.410156 6.105469 22.207031 5.996094 22.980469 5.777344 C 23.273438 5.695312 23.574219 5.867188 23.65625 6.15625 C 23.738281 6.449219 23.570312 6.75 23.277344 6.832031 C 22.410156 7.078125 21.507812 7.203125 20.605469 7.203125 L 17.5 7.203125 C 17.234375 7.203125 16.984375 7.304688 16.792969 7.492188 C 16.71875 7.566406 16.660156 7.652344 16.613281 7.742188 C 16.535156 7.890625 16.503906 8.003906 16.503906 8.144531 C 16.496094 8.40625 16.597656 8.652344 16.789062 8.84375 C 16.984375 9.042969 17.253906 9.160156 17.527344 9.160156 L 21.878906 9.160156 C 22.25 9.160156 22.625 9.246094 22.957031 9.414062 L 26.425781 11.152344 C 26.609375 11.242188 26.8125 11.292969 27.015625 11.292969 L 29.980469 11.292969 C 30.28125 11.292969 30.527344 11.535156 30.527344 11.839844 C 30.527344 12.140625 30.28125 12.386719 29.980469 12.386719 Z M 29.980469 12.386719 " fill-opacity="1" fill-rule="nonzero"/><path fill="#dce2e8" d="M 17.199219 23.855469 C 17.054688 23.855469 16.914062 23.796875 16.8125 23.695312 L 11.617188 18.496094 C 10.820312 17.699219 10.378906 16.640625 10.378906 15.511719 C 10.378906 14.382812 10.820312 13.324219 11.617188 12.527344 C 12.414062 11.730469 13.472656 11.289062 14.601562 11.289062 C 15.554688 11.289062 16.460938 11.605469 17.199219 12.183594 C 17.9375 11.605469 18.84375 11.289062 19.796875 11.289062 C 20.925781 11.289062 21.984375 11.730469 22.785156 12.527344 C 23.582031 13.324219 24.019531 14.382812 24.019531 15.511719 C 24.019531 16.640625 23.582031 17.699219 22.785156 18.496094 L 17.585938 23.695312 C 17.484375 23.796875 17.34375 23.855469 17.199219 23.855469 Z M 14.601562 12.382812 C 13.765625 12.382812 12.980469 12.710938 12.390625 13.300781 C 11.171875 14.519531 11.171875 16.503906 12.390625 17.722656 L 17.199219 22.53125 L 22.007812 17.722656 C 22.601562 17.132812 22.925781 16.347656 22.925781 15.511719 C 22.925781 14.675781 22.601562 13.890625 22.007812 13.300781 C 21.417969 12.710938 20.632812 12.382812 19.796875 12.382812 C 18.964844 12.382812 18.179688 12.710938 17.585938 13.300781 C 17.375 13.515625 17.027344 13.515625 16.8125 13.300781 C 16.222656 12.710938 15.4375 12.382812 14.601562 12.382812 Z M 14.601562 12.382812 " fill-opacity="1" fill-rule="nonzero"/></svg>