<svg xmlns="http://www.w3.org/2000/svg" xmlns:xlink="http://www.w3.org/1999/xlink" width="48" zoomAndPan="magnify" viewBox="0 0 36 36.000001" height="48" preserveAspectRatio="xMidYMid meet" version="1.0"><defs><clipPath id="265581721e"><path d="M 0.898438 0.476562 L 35.195312 0.476562 L 35.195312 34.773438 L 0.898438 34.773438 Z M 0.898438 0.476562 " clip-rule="nonzero"/></clipPath></defs><g clip-path="url(#265581721e)"><path fill="#dce2e8" d="M 34.988281 25.375 L 32.5 14.523438 C 32.285156 13.570312 31.328125 12.972656 30.375 13.191406 L 28.378906 13.648438 C 27.421875 13.867188 26.824219 14.820312 27.042969 15.773438 L 27.128906 16.144531 L 26.210938 16.542969 C 25.539062 16.835938 24.835938 16.796875 24.175781 16.429688 C 23.570312 16.089844 23.035156 15.773438 22.558594 15.496094 C 20.394531 14.226562 19.203125 13.527344 17.441406 14.1875 C 16.933594 14.378906 16.417969 14.761719 15.886719 15.273438 L 8.992188 15.273438 C 8.945312 14.503906 8.402344 13.828125 7.617188 13.648438 L 5.617188 13.191406 C 4.664062 12.972656 3.710938 13.570312 3.492188 14.523438 L 1.007812 25.375 C 0.902344 25.835938 0.984375 26.3125 1.234375 26.714844 C 1.488281 27.117188 1.878906 27.394531 2.339844 27.5 L 4.339844 27.957031 C 4.46875 27.988281 4.605469 28.003906 4.734375 28.003906 C 5.066406 28.003906 5.390625 27.910156 5.675781 27.730469 C 6.082031 27.476562 6.359375 27.085938 6.464844 26.625 L 6.472656 26.597656 L 13.871094 33.914062 C 14.277344 34.320312 14.824219 34.546875 15.40625 34.546875 C 15.988281 34.546875 16.53125 34.320312 16.941406 33.914062 C 17.25 33.605469 17.453125 33.21875 17.535156 32.800781 L 18.5 33.765625 C 18.910156 34.175781 19.453125 34.402344 20.035156 34.402344 C 20.617188 34.402344 21.164062 34.175781 21.570312 33.765625 C 21.878906 33.460938 22.082031 33.074219 22.164062 32.65625 L 22.234375 32.722656 C 22.640625 33.132812 23.1875 33.359375 23.769531 33.359375 C 24.351562 33.359375 24.894531 33.132812 25.304688 32.722656 C 25.714844 32.316406 25.9375 31.769531 25.9375 31.1875 C 25.9375 31.046875 25.925781 30.90625 25.898438 30.769531 C 25.917969 30.769531 25.9375 30.773438 25.957031 30.773438 C 26.539062 30.773438 27.085938 30.546875 27.492188 30.136719 C 27.902344 29.730469 28.128906 29.183594 28.128906 28.601562 C 28.128906 28.367188 28.089844 28.136719 28.019531 27.917969 L 29.746094 27.15625 C 29.886719 27.386719 30.082031 27.582031 30.316406 27.730469 C 30.605469 27.910156 30.929688 28.003906 31.257812 28.003906 C 31.390625 28.003906 31.523438 27.988281 31.65625 27.957031 L 33.652344 27.5 C 34.113281 27.394531 34.507812 27.117188 34.757812 26.714844 C 35.011719 26.3125 35.09375 25.835938 34.988281 25.375 Z M 5.523438 26.410156 C 5.476562 26.617188 5.347656 26.796875 5.164062 26.914062 C 4.980469 27.027344 4.761719 27.066406 4.554688 27.019531 L 2.558594 26.558594 C 2.347656 26.511719 2.167969 26.382812 2.054688 26.199219 C 1.9375 26.015625 1.898438 25.800781 1.949219 25.589844 L 4.433594 14.738281 C 4.519531 14.363281 4.855469 14.109375 5.222656 14.109375 C 5.28125 14.109375 5.34375 14.117188 5.402344 14.132812 L 7.402344 14.589844 C 7.835938 14.6875 8.109375 15.125 8.007812 15.558594 Z M 26.8125 29.453125 C 26.585938 29.679688 26.28125 29.804688 25.957031 29.804688 C 25.636719 29.804688 25.332031 29.679688 25.105469 29.457031 L 20.328125 24.675781 C 20.136719 24.488281 19.832031 24.488281 19.644531 24.675781 C 19.457031 24.863281 19.457031 25.171875 19.644531 25.359375 C 19.644531 25.359375 24.601562 30.316406 24.621094 30.335938 C 24.847656 30.5625 24.972656 30.867188 24.972656 31.1875 C 24.972656 31.511719 24.847656 31.816406 24.621094 32.042969 C 24.394531 32.269531 24.09375 32.394531 23.769531 32.394531 C 23.445312 32.394531 23.144531 32.269531 22.917969 32.042969 L 17.777344 26.902344 C 17.585938 26.710938 17.28125 26.710938 17.09375 26.902344 C 16.90625 27.089844 16.90625 27.394531 17.09375 27.582031 L 20.90625 31.398438 C 21.121094 31.621094 21.238281 31.917969 21.238281 32.230469 C 21.238281 32.554688 21.113281 32.859375 20.886719 33.082031 C 20.660156 33.308594 20.359375 33.433594 20.035156 33.433594 C 19.710938 33.433594 19.410156 33.308594 19.183594 33.085938 L 15.007812 28.910156 C 14.820312 28.722656 14.515625 28.722656 14.324219 28.910156 C 14.136719 29.097656 14.136719 29.402344 14.324219 29.59375 L 16.273438 31.539062 C 16.488281 31.761719 16.609375 32.058594 16.609375 32.378906 C 16.609375 32.699219 16.484375 33.003906 16.257812 33.230469 C 16.03125 33.457031 15.730469 33.582031 15.40625 33.582031 C 15.082031 33.582031 14.777344 33.457031 14.550781 33.226562 L 6.726562 25.488281 L 8.84375 16.238281 L 14.96875 16.238281 C 14.632812 16.617188 14.285156 17.03125 13.921875 17.457031 C 12.945312 18.617188 11.933594 19.816406 10.832031 20.738281 C 10.628906 20.910156 10.601562 21.210938 10.769531 21.417969 C 11.773438 22.621094 12.953125 23.125 14.277344 22.910156 C 15.429688 22.722656 16.574219 22.015625 17.636719 21.28125 C 18.578125 20.628906 19.800781 20.738281 20.609375 21.546875 L 26.8125 27.75 C 27.039062 27.976562 27.164062 28.277344 27.164062 28.601562 C 27.164062 28.925781 27.039062 29.230469 26.8125 29.453125 Z M 27.492188 27.066406 L 21.292969 20.863281 C 20.164062 19.738281 18.394531 19.578125 17.085938 20.484375 C 14.847656 22.035156 13.304688 22.613281 11.832031 21.148438 C 12.851562 20.222656 13.808594 19.09375 14.660156 18.082031 C 15.816406 16.710938 16.910156 15.417969 17.78125 15.089844 C 19.113281 14.59375 19.976562 15.101562 22.070312 16.328125 C 22.550781 16.609375 23.089844 16.929688 23.707031 17.273438 C 24.625 17.785156 25.652344 17.839844 26.597656 17.429688 L 27.347656 17.101562 L 29.441406 26.234375 L 27.511719 27.085938 C 27.507812 27.082031 27.5 27.074219 27.492188 27.066406 Z M 33.941406 26.199219 C 33.824219 26.382812 33.648438 26.511719 33.4375 26.558594 L 31.441406 27.019531 C 31.230469 27.066406 31.015625 27.027344 30.828125 26.914062 C 30.644531 26.796875 30.519531 26.617188 30.46875 26.410156 L 27.984375 15.558594 C 27.886719 15.125 28.15625 14.6875 28.59375 14.589844 L 30.589844 14.132812 C 31.027344 14.03125 31.460938 14.304688 31.5625 14.738281 L 34.046875 25.589844 C 34.09375 25.800781 34.054688 26.015625 33.941406 26.199219 Z M 15.421875 10.386719 C 16.035156 10.941406 16.667969 11.511719 17.304688 12.128906 C 17.398438 12.21875 17.519531 12.265625 17.640625 12.265625 C 17.761719 12.265625 17.882812 12.21875 17.976562 12.128906 C 18.609375 11.511719 19.242188 10.941406 19.855469 10.386719 C 22.1875 8.28125 24.199219 6.460938 24.199219 3.914062 C 24.199219 2.019531 22.621094 0.476562 20.679688 0.476562 C 19.183594 0.476562 18.324219 1.144531 17.640625 2.203125 C 16.957031 1.144531 16.09375 0.476562 14.601562 0.476562 C 12.660156 0.476562 11.078125 2.019531 11.078125 3.914062 C 11.078125 6.460938 13.09375 8.28125 15.421875 10.386719 Z M 14.601562 1.441406 C 15.800781 1.441406 16.457031 1.9375 17.210938 3.398438 C 17.292969 3.558594 17.457031 3.660156 17.640625 3.660156 C 17.820312 3.660156 17.984375 3.558594 18.070312 3.398438 C 18.820312 1.9375 19.480469 1.441406 20.679688 1.441406 C 22.085938 1.441406 23.234375 2.550781 23.234375 3.914062 C 23.234375 6.035156 21.457031 7.636719 19.207031 9.671875 C 18.695312 10.132812 18.171875 10.605469 17.640625 11.113281 C 17.109375 10.605469 16.582031 10.132812 16.070312 9.671875 C 13.820312 7.636719 12.042969 6.035156 12.042969 3.914062 C 12.046875 2.550781 13.191406 1.441406 14.601562 1.441406 Z M 14.601562 1.441406 " fill-opacity="1" fill-rule="nonzero"/></g></svg>