<svg xmlns="http://www.w3.org/2000/svg" xmlns:xlink="http://www.w3.org/1999/xlink" width="40" zoomAndPan="magnify" viewBox="0 0 30 44.999999" height="60" preserveAspectRatio="xMidYMid meet" version="1.0"><defs><clipPath id="5f40a5e7e7"><path d="M 0 7.539062 L 30 7.539062 L 30 37.539062 L 0 37.539062 Z M 0 7.539062 " clip-rule="nonzero"/></clipPath></defs><path fill="#1D3557" d="M 5.75 24.179688 L 4.859375 24.988281 L 4.859375 25.964844 L 9.742188 25.964844 L 9.742188 24.636719 L 7.148438 24.636719 L 7.148438 24.617188 L 7.785156 24.082031 C 8.78125 23.191406 9.617188 22.265625 9.617188 21.109375 C 9.617188 19.855469 8.757812 18.941406 7.199219 18.941406 C 6.269531 18.941406 5.460938 19.257812 4.941406 19.652344 L 5.398438 20.8125 C 5.757812 20.535156 6.277344 20.238281 6.871094 20.238281 C 7.667969 20.238281 8.007812 20.683594 8.007812 21.246094 C 7.984375 22.054688 7.253906 22.828125 5.75 24.179688 " fill-opacity="1" fill-rule="nonzero"/><path fill="#1D3557" d="M 12.042969 23.105469 L 12.042969 23.085938 L 12.964844 21.574219 C 13.199219 21.140625 13.378906 20.734375 13.601562 20.289062 L 13.644531 20.289062 C 13.613281 20.734375 13.589844 21.160156 13.589844 21.574219 L 13.589844 23.105469 Z M 15.117188 25.964844 L 15.117188 24.316406 L 15.945312 24.316406 L 15.945312 23.105469 L 15.117188 23.105469 L 15.117188 19.058594 L 13.144531 19.058594 L 10.539062 23.265625 L 10.539062 24.316406 L 13.589844 24.316406 L 13.589844 25.964844 L 15.117188 25.964844 " fill-opacity="1" fill-rule="nonzero"/><path fill="#1D3557" d="M 17.417969 26.390625 L 19.6875 18.683594 L 18.617188 18.683594 L 16.347656 26.390625 L 17.417969 26.390625 " fill-opacity="1" fill-rule="nonzero"/><path fill="#1D3557" d="M 20.523438 25.964844 L 22.230469 25.964844 L 25.070312 20.078125 L 25.070312 19.058594 L 20.203125 19.058594 L 20.203125 20.386719 L 23.363281 20.386719 L 23.363281 20.40625 L 20.523438 25.964844 " fill-opacity="1" fill-rule="nonzero"/><g clip-path="url(#5f40a5e7e7)"><path fill="#1D3557" d="M 29.910156 21.933594 L 27.265625 22.039062 C 27.402344 25.476562 26.089844 28.835938 23.667969 31.265625 C 18.867188 36.082031 11.058594 36.082031 6.257812 31.265625 C 1.457031 26.453125 1.457031 18.621094 6.257812 13.808594 C 11.058594 8.996094 18.867188 8.996094 23.667969 13.808594 L 22.261719 15.21875 L 26.949219 15.21875 L 26.949219 10.519531 L 25.542969 11.929688 C 22.714844 9.097656 18.960938 7.539062 14.964844 7.539062 C 10.96875 7.539062 7.210938 9.097656 4.386719 11.929688 C 1.5625 14.765625 0.00390625 18.53125 0.00390625 22.539062 C 0.00390625 26.542969 1.5625 30.3125 4.386719 33.144531 C 7.210938 35.976562 10.96875 37.539062 14.964844 37.539062 C 18.960938 37.539062 22.714844 35.976562 25.542969 33.144531 C 27.042969 31.636719 28.1875 29.871094 28.9375 27.894531 C 29.664062 25.988281 29.992188 23.980469 29.910156 21.933594 " fill-opacity="1" fill-rule="nonzero"/></g></svg>