<svg xmlns="http://www.w3.org/2000/svg" xmlns:xlink="http://www.w3.org/1999/xlink" width="40" zoomAndPan="magnify" viewBox="0 0 30 44.999999" height="60" preserveAspectRatio="xMidYMid meet" version="1.0"><defs><clipPath id="4453ff9713"><path d="M 0 7.667969 L 30 7.667969 L 30 37 L 0 37 Z M 0 7.667969 " clip-rule="nonzero"/></clipPath></defs><g clip-path="url(#4453ff9713)"><path fill="#1D3557" d="M 17.09375 16.242188 C 17.90625 13.613281 21.648438 11.085938 24.160156 12.101562 C 28.476562 13.832031 24.617188 22.628906 19.441406 20.832031 C 17.234375 20.082031 16.523438 18.128906 17.09375 16.242188 Z M 8.195312 16.980469 C 8.027344 16.355469 7.984375 15.90625 7.144531 14.78125 C 4.074219 10.722656 0 12.304688 0.703125 16.652344 C 1.839844 23.667969 8.964844 22.195312 8.195312 16.980469 Z M 11.421875 17.992188 C 13.988281 18.664062 16.105469 16.714844 16.519531 13.933594 C 16.761719 12.496094 15.589844 7.671875 12.28125 7.925781 C 9.324219 8.164062 7.863281 13.085938 9.222656 15.808594 C 9.710938 16.769531 10.386719 17.734375 11.421875 17.992188 Z M 23.25 21.949219 C 20.46875 23.078125 20.160156 26.691406 22.257812 28.308594 C 25.761719 30.996094 30 27.070312 29.871094 24.316406 C 29.742188 21.828125 26.898438 20.476562 23.25 21.949219 Z M 19.328125 24.914062 C 20.308594 27.453125 21.28125 30.96875 20.367188 33.539062 C 19.128906 36.972656 15.363281 37.671875 12.824219 35.753906 C 9.5 33.25 10.191406 33.714844 6.792969 33.851562 C 1.429688 34.113281 0.3125 28.980469 3.742188 24.863281 C 6.808594 21.191406 13.25 17.589844 16.84375 20.722656 C 18.351562 22.039062 18.832031 23.625 19.328125 24.914062 Z M 16.402344 25.953125 C 15.625 25.363281 14.90625 25.214844 13.621094 25.742188 C 12.878906 26.027344 12.527344 26.542969 12.457031 25.960938 C 12.296875 22.367188 6.617188 22.941406 9.039062 27.410156 C 9.628906 28.5 10.265625 29.601562 10.988281 30.855469 C 11.023438 30.957031 11.199219 30.996094 11.320312 30.964844 C 14.042969 29.328125 16.34375 29.445312 16.910156 27.433594 C 17.046875 26.898438 16.878906 26.351562 16.402344 25.953125 Z M 16.402344 25.953125 " fill-opacity="1" fill-rule="nonzero"/></g></svg>