<svg xmlns="http://www.w3.org/2000/svg" xmlns:xlink="http://www.w3.org/1999/xlink" width="40" zoomAndPan="magnify" viewBox="0 0 30 44.999999" height="60" preserveAspectRatio="xMidYMid meet" version="1.0"><defs><clipPath id="9ce035306e"><path d="M 1 29 L 9 29 L 9 40.15625 L 1 40.15625 Z M 1 29 " clip-rule="nonzero"/></clipPath><clipPath id="93966214dc"><path d="M 0 18 L 30 18 L 30 40.15625 L 0 40.15625 Z M 0 18 " clip-rule="nonzero"/></clipPath></defs><path fill="#000000" d="M 14.9375 32.117188 L 16.328125 38.199219 C 16.566406 39.246094 17.496094 39.953125 18.523438 39.953125 C 18.691406 39.953125 18.859375 39.9375 19.027344 39.898438 C 20.242188 39.617188 21 38.40625 20.722656 37.191406 L 19.835938 33.308594 C 17.996094 33.289062 16.972656 32.859375 16.152344 32.511719 C 15.714844 32.328125 15.351562 32.175781 14.9375 32.117188 Z M 14.9375 32.117188 " fill-opacity="1" fill-rule="nonzero"/><g clip-path="url(#9ce035306e)"><path fill="#000000" d="M 8.292969 30.144531 C 8.097656 29.886719 7.957031 29.621094 7.863281 29.34375 C 7.800781 29.347656 7.730469 29.351562 7.664062 29.351562 C 7.386719 29.351562 7.082031 29.316406 6.714844 29.234375 L 7.09375 30.136719 L 1.898438 36.363281 C 1.101562 37.320312 1.226562 38.746094 2.183594 39.546875 C 2.605469 39.902344 3.117188 40.074219 3.628906 40.074219 C 4.273438 40.074219 4.914062 39.796875 5.359375 39.261719 L 8.113281 35.964844 L 8.652344 34.871094 Z M 8.292969 30.144531 " fill-opacity="1" fill-rule="nonzero"/></g><path fill="#000000" d="M 8.976562 24.78125 C 9.113281 24.695312 9.242188 24.613281 9.371094 24.535156 C 9.488281 24.460938 9.621094 24.382812 9.757812 24.308594 C 9.792969 24.292969 9.828125 24.273438 9.863281 24.253906 C 10.539062 23.917969 11.261719 23.707031 12.023438 23.578125 L 8.53125 19.898438 C 8.328125 19.679688 8.175781 19.417969 8.089844 19.128906 C 7.96875 18.730469 7.332031 16.441406 7.4375 13.992188 L 4.21875 20.566406 C 3.785156 21.183594 3.667969 22 3.980469 22.746094 L 5.230469 25.714844 C 5.539062 25.84375 5.855469 25.90625 6.179688 25.90625 C 7.1875 25.90625 8.136719 25.308594 8.976562 24.78125 Z M 8.976562 24.78125 " fill-opacity="1" fill-rule="nonzero"/><path fill="#000000" d="M 16.25 13.335938 C 18.386719 14.019531 20.671875 12.839844 21.355469 10.703125 C 22.039062 8.5625 20.863281 6.273438 18.726562 5.585938 C 16.59375 4.902344 14.308594 6.082031 13.625 8.21875 C 12.941406 10.359375 14.117188 12.648438 16.25 13.335938 Z M 15.71875 10.53125 C 17.28125 11.691406 19.945312 11.386719 19.945312 11.386719 C 17.152344 14.167969 15.71875 10.53125 15.71875 10.53125 Z M 15.71875 10.53125 " fill-opacity="1" fill-rule="nonzero"/><g clip-path="url(#93966214dc)"><path fill="#000000" d="M 4.472656 27.949219 C 6.613281 28.742188 7.519531 28.949219 8.289062 28.722656 C 8.324219 29.214844 8.558594 29.625 8.816406 29.9375 L 9.195312 34.875 C 9.199219 34.90625 9.203125 34.9375 9.207031 34.972656 L 7.417969 38.585938 C 7.25 38.921875 7.269531 39.320312 7.464844 39.640625 C 7.664062 39.957031 8.011719 40.152344 8.386719 40.152344 L 9.953125 40.152344 C 10.550781 40.152344 11.039062 39.667969 11.039062 39.066406 C 11.039062 38.527344 10.640625 38.078125 10.125 37.996094 L 11.289062 35.648438 L 11.902344 35.035156 C 11.953125 34.984375 12 34.929688 12.039062 34.871094 L 14.226562 31.570312 C 16.375 31.339844 16.714844 33.144531 21.386719 32.695312 C 22.207031 32.617188 22.925781 32.453125 23.5625 32.234375 L 25.054688 39.222656 C 25.152344 39.6875 25.5625 40.011719 26.023438 40.011719 C 26.078125 40.011719 26.128906 40.003906 26.183594 39.996094 C 26.703125 39.914062 27.070312 39.433594 27.011719 38.910156 L 26.128906 30.769531 C 26.441406 30.5 26.695312 30.226562 26.90625 29.976562 C 27.472656 30.359375 28.195312 30.59375 28.050781 30.328125 C 27.972656 30.179688 27.925781 29.757812 27.902344 29.277344 C 27.898438 29.175781 27.894531 29.074219 27.890625 28.972656 C 27.949219 29.015625 28.011719 29.058594 28.074219 29.097656 C 28.4375 29.328125 28.789062 29.445312 28.695312 29.257812 C 28.628906 29.121094 28.585938 28.71875 28.5625 28.269531 C 28.542969 27.988281 28.535156 27.691406 28.527344 27.433594 L 29.25 26.195312 L 29.515625 23.398438 C 29.289062 23.539062 29.03125 23.648438 28.839844 23.722656 C 28.410156 23.886719 27.324219 23.261719 27.644531 22.839844 C 27.863281 23.171875 28.515625 23.464844 28.824219 23.34375 C 29.195312 23.203125 29.820312 22.933594 29.964844 22.546875 C 30 22.453125 30.007812 22.347656 29.972656 22.238281 C 29.832031 21.796875 29.53125 21.082031 28.867188 20.71875 C 28.703125 20.628906 28.515625 20.558594 28.304688 20.523438 C 28.304688 20.523438 28.300781 20.582031 28.296875 20.675781 C 28.011719 20.261719 27.699219 19.914062 27.402344 19.765625 C 26.386719 19.25 25.625 18.957031 25.625 18.957031 L 24.476562 19.460938 L 21.339844 18.4375 L 21.152344 19.246094 C 21.152344 19.246094 21.601562 20.460938 21.9375 20.625 C 22.238281 20.773438 23.296875 21.464844 23.511719 21.773438 C 22.707031 21.40625 21.222656 20.859375 20.234375 21.25 C 20.164062 21.277344 20.097656 21.308594 20.03125 21.34375 C 19.902344 21.417969 19.859375 21.585938 19.933594 21.714844 C 19.996094 21.824219 20.125 21.875 20.242188 21.839844 C 20.265625 21.832031 20.285156 21.824219 20.300781 21.816406 C 20.414062 21.75 20.546875 21.707031 20.6875 21.679688 C 20.695312 21.8125 20.703125 21.917969 20.703125 21.917969 C 20.703125 21.917969 21.964844 22.980469 22.390625 23.082031 C 22.8125 23.183594 23.824219 23.648438 23.839844 23.792969 C 23.859375 23.929688 23.671875 26.121094 23.734375 26.917969 C 23.476562 27.035156 23.304688 27.125 23.304688 27.125 C 23.230469 26.675781 23.289062 25.597656 23.359375 24.441406 C 23.367188 24.277344 23.378906 24.113281 23.386719 23.992188 C 23.128906 23.84375 22.558594 23.585938 22.285156 23.523438 C 22.117188 23.480469 21.890625 23.359375 21.648438 23.203125 L 21.183594 23.507812 C 19.914062 23.746094 18.6875 23.832031 17.523438 23.863281 L 18.191406 24.566406 C 18.910156 25.324219 18.878906 26.527344 18.121094 27.25 C 17.769531 27.585938 17.304688 27.769531 16.816406 27.769531 C 16.300781 27.769531 15.800781 27.554688 15.445312 27.179688 L 12.476562 24.054688 C 11.625 24.171875 10.832031 24.375 10.109375 24.738281 C 10.078125 24.753906 10.042969 24.773438 10.011719 24.789062 C 9.890625 24.855469 9.769531 24.921875 9.652344 24.996094 C 8.28125 25.832031 6.339844 27.351562 4.203125 25.738281 C 1.519531 23.71875 1.875 22.089844 0.945312 22.351562 C 0.015625 22.617188 1.367188 26.800781 4.472656 27.949219 Z M 25.457031 20.46875 C 25.398438 20.640625 25.214844 20.730469 25.042969 20.671875 C 24.875 20.609375 24.785156 20.425781 24.84375 20.253906 C 24.902344 20.085938 25.085938 19.996094 25.257812 20.054688 C 25.425781 20.113281 25.515625 20.296875 25.457031 20.46875 Z M 25.457031 20.46875 " fill-opacity="1" fill-rule="nonzero"/></g><path fill="#000000" d="M 8.523438 19 C 8.585938 19.21875 8.703125 19.421875 8.859375 19.585938 L 15.769531 26.871094 C 16.054688 27.167969 16.4375 27.320312 16.816406 27.320312 C 17.175781 27.320312 17.53125 27.1875 17.8125 26.921875 C 18.390625 26.371094 18.414062 25.457031 17.863281 24.875 L 11.203125 17.855469 C 10.980469 16.988281 10.707031 15.453125 10.773438 14.054688 L 11.214844 14.265625 C 11.191406 15.460938 11.402344 16.773438 11.609375 17.632812 L 14.855469 21.050781 L 16.980469 16.703125 L 18.238281 18.945312 C 18.511719 19.429688 19.039062 19.714844 19.59375 19.679688 C 19.957031 19.652344 20.335938 19.632812 20.714844 19.613281 C 20.691406 19.554688 20.667969 19.5 20.644531 19.433594 L 20.585938 19.28125 L 20.945312 17.738281 L 24.449219 18.878906 L 25.609375 18.367188 L 25.820312 18.449219 C 25.851562 18.460938 26.617188 18.757812 27.644531 19.28125 C 27.863281 19.390625 28.082031 19.570312 28.308594 19.816406 C 28.417969 19.746094 28.523438 19.664062 28.613281 19.5625 C 29.148438 18.96875 29.101562 18.054688 28.507812 17.519531 C 28.148438 17.191406 27.210938 16.347656 20.3125 16.734375 L 18.675781 13.820312 C 18.296875 13.925781 17.898438 13.980469 17.492188 13.980469 C 17.023438 13.980469 16.5625 13.910156 16.113281 13.765625 C 14.453125 13.230469 13.316406 11.820312 13.042969 10.210938 L 11.273438 9.339844 C 11.140625 9.273438 11.007812 9.234375 10.871094 9.210938 C 10.367188 9.074219 9.808594 9.214844 9.429688 9.625 C 8.632812 10.492188 8.210938 11.597656 8.015625 12.75 C 7.542969 15.523438 8.386719 18.542969 8.523438 19 Z M 8.523438 19 " fill-opacity="1" fill-rule="nonzero"/></svg>