<svg xmlns="http://www.w3.org/2000/svg" xmlns:xlink="http://www.w3.org/1999/xlink" width="40" zoomAndPan="magnify" viewBox="0 0 30 44.999999" height="60" preserveAspectRatio="xMidYMid meet" version="1.0"><defs><clipPath id="7d59a78518"><path d="M 7 8.492188 L 14 8.492188 L 14 15 L 7 15 Z M 7 8.492188 " clip-rule="nonzero"/></clipPath></defs><g clip-path="url(#7d59a78518)"><path fill="#1D3557" d="M 13.214844 11.433594 C 13.214844 11.820312 13.140625 12.195312 12.992188 12.558594 C 12.839844 12.917969 12.625 13.234375 12.347656 13.511719 C 12.070312 13.785156 11.75 14 11.386719 14.148438 C 11.023438 14.296875 10.644531 14.371094 10.25 14.371094 C 9.855469 14.371094 9.480469 14.296875 9.117188 14.148438 C 8.753906 14 8.429688 13.785156 8.152344 13.511719 C 7.875 13.234375 7.660156 12.917969 7.511719 12.558594 C 7.359375 12.195312 7.285156 11.820312 7.285156 11.433594 C 7.285156 11.042969 7.359375 10.667969 7.511719 10.308594 C 7.660156 9.949219 7.875 9.628906 8.152344 9.355469 C 8.429688 9.078125 8.753906 8.867188 9.117188 8.71875 C 9.480469 8.566406 9.855469 8.492188 10.25 8.492188 C 10.644531 8.492188 11.023438 8.566406 11.386719 8.71875 C 11.75 8.867188 12.070312 9.078125 12.347656 9.355469 C 12.625 9.628906 12.839844 9.949219 12.992188 10.308594 C 13.140625 10.667969 13.214844 11.042969 13.214844 11.433594 Z M 13.214844 11.433594 " fill-opacity="1" fill-rule="nonzero"/></g><path fill="#1D3557" d="M 20.613281 29.175781 L 19.488281 28.285156 C 18.886719 27.800781 18.171875 28.730469 18.773438 29.175781 L 19.898438 30.105469 L 19.898438 32.5625 C 19.898438 32.597656 18.921875 34.53125 18.921875 34.53125 C 18.546875 35.203125 19.597656 35.722656 19.9375 35.054688 L 20.949219 33.15625 L 22.078125 35.089844 C 22.488281 35.761719 23.503906 35.164062 23.128906 34.496094 L 22.113281 32.820312 L 25.792969 32.820312 L 25.792969 34.792969 C 25.792969 35.574219 26.957031 35.574219 26.957031 34.792969 C 26.957031 33.453125 26.957031 32.078125 26.957031 30.738281 L 24.21875 29.175781 Z M 20.613281 29.175781 " fill-opacity="1" fill-rule="evenodd"/><path fill="#1D3557" d="M 28.496094 27.984375 C 28.046875 27.578125 27.972656 27.167969 27.371094 26.832031 C 27.257812 26.757812 27.371094 26.347656 27.371094 26.199219 C 27.445312 25.417969 26.542969 24.933594 26.28125 25.941406 C 26.058594 26.796875 25.082031 28.023438 24.515625 28.839844 L 27.109375 30.292969 C 27.109375 30.292969 27.597656 29.734375 27.671875 29.769531 C 28.460938 30.105469 29.886719 30.292969 29.960938 29.140625 C 30 28.542969 28.609375 28.097656 28.496094 27.984375 Z M 28.496094 27.984375 " fill-opacity="1" fill-rule="evenodd"/><path fill="#1D3557" d="M 23.765625 28.691406 L 24.21875 28.285156 C 22.789062 26.722656 18.433594 21.625 16.746094 20.804688 C 16.296875 20.546875 15.882812 20.472656 15.507812 20.695312 C 13.292969 20.398438 12.839844 19.355469 12.128906 17.832031 C 11.226562 15.894531 10.25 13.960938 7.734375 14.257812 C 4.09375 14.78125 2.515625 17.421875 0.789062 20.285156 C 0 21.585938 1.992188 22.742188 2.78125 21.476562 C 3.492188 20.25 4.320312 18.835938 5.371094 17.832031 L 4.394531 22.332031 C 4.242188 22.964844 4.429688 23.558594 4.769531 24.042969 L 4.46875 28.542969 L 2.589844 33.417969 C 1.878906 35.203125 4.617188 36.242188 5.332031 34.457031 L 7.285156 29.398438 C 7.511719 28.878906 7.511719 27.019531 7.585938 26.347656 L 9.3125 29.066406 L 10.738281 34.273438 C 11.265625 36.132812 14.082031 35.386719 13.59375 33.527344 L 12.089844 28.097656 C 11.902344 27.425781 10.027344 24.75 9.539062 23.96875 C 9.914062 23.222656 10.289062 20.769531 10.511719 19.800781 C 11.226562 21.140625 12.316406 22.441406 14.832031 22.890625 C 14.832031 23.074219 14.832031 23.296875 14.832031 23.484375 L 15.46875 23.484375 C 15.433594 23.296875 15.433594 23.113281 15.433594 22.964844 C 15.996094 22.925781 16.445312 22.515625 16.519531 21.996094 C 16.558594 21.738281 16.484375 21.476562 16.371094 21.253906 C 17.796875 21.921875 22.488281 27.316406 23.765625 28.691406 Z M 23.765625 28.691406 " fill-opacity="1" fill-rule="evenodd"/></svg>