<svg xmlns="http://www.w3.org/2000/svg" xmlns:xlink="http://www.w3.org/1999/xlink" width="40" zoomAndPan="magnify" viewBox="0 0 30 44.999999" height="60" preserveAspectRatio="xMidYMid meet" version="1.0"><defs><clipPath id="e75e1ffd65"><path d="M 23 29 L 27 29 L 27 37.5 L 23 37.5 Z M 23 29 " clip-rule="nonzero"/></clipPath><clipPath id="95d4f6f1b8"><path d="M 21 28 L 25 28 L 25 37.5 L 21 37.5 Z M 21 28 " clip-rule="nonzero"/></clipPath><clipPath id="81a112b56b"><path d="M 21 7.5 L 28 7.5 L 28 13 L 21 13 Z M 21 7.5 " clip-rule="nonzero"/></clipPath><clipPath id="5c9cf70ed9"><path d="M 20.023438 13 L 28.292969 13 L 28.292969 29.144531 L 20.023438 29.144531 Z M 20.023438 13 " clip-rule="nonzero"/></clipPath><clipPath id="c1565f69ad"><path d="M 2.042969 19 L 13 19 L 13 35 L 2.042969 35 Z M 2.042969 19 " clip-rule="nonzero"/></clipPath></defs><path fill="#1D3557" d="M 16.683594 15.945312 L 19.875 16.734375 C 20.066406 16.78125 20.300781 16.78125 20.488281 16.6875 L 21.472656 16.226562 L 21.472656 14.511719 C 21.472656 14.414062 21.472656 14.324219 21.519531 14.230469 L 20.015625 14.925781 L 17.152344 14.230469 C 16.683594 14.089844 16.167969 14.414062 16.070312 14.878906 C 15.929688 15.34375 16.210938 15.808594 16.683594 15.945312 " fill-opacity="1" fill-rule="nonzero"/><g clip-path="url(#e75e1ffd65)"><path fill="#1D3557" d="M 26.265625 29.300781 C 25.375 29.578125 24.480469 29.625 23.539062 29.484375 C 23.398438 32.082031 23.636719 34.355469 24.242188 36.300781 C 24.480469 36.949219 25.183594 37.414062 25.9375 37.183594 C 26.640625 36.949219 27.015625 36.210938 26.828125 35.515625 C 26.265625 33.75 26.074219 31.710938 26.265625 29.300781 " fill-opacity="1" fill-rule="nonzero"/></g><g clip-path="url(#95d4f6f1b8)"><path fill="#1D3557" d="M 23.117188 29.390625 C 22.695312 29.300781 22.320312 29.160156 21.898438 28.976562 C 21.660156 31.804688 21.898438 34.214844 22.554688 36.300781 C 22.742188 36.859375 23.257812 37.226562 23.820312 37.226562 C 23.964844 37.226562 24.101562 37.226562 24.242188 37.183594 C 23.164062 36.070312 22.976562 31.523438 23.117188 29.390625 " fill-opacity="1" fill-rule="nonzero"/></g><g clip-path="url(#81a112b56b)"><path fill="#1D3557" d="M 27.15625 10.152344 C 27.15625 11.585938 25.980469 12.746094 24.527344 12.746094 C 23.074219 12.746094 21.898438 11.585938 21.898438 10.152344 C 21.898438 8.714844 23.074219 7.554688 24.527344 7.554688 C 25.980469 7.554688 27.15625 8.714844 27.15625 10.152344 " fill-opacity="1" fill-rule="nonzero"/></g><g clip-path="url(#5c9cf70ed9)"><path fill="#1D3557" d="M 27.109375 19.332031 L 27.109375 14.511719 C 27.109375 14.277344 27.015625 14.089844 26.828125 13.953125 C 25.277344 12.980469 23.730469 12.980469 22.175781 13.953125 C 22.035156 14.089844 21.898438 14.277344 21.898438 14.511719 L 21.898438 16.640625 L 23.398438 15.34375 C 23.964844 14.835938 24.808594 14.925781 25.277344 15.433594 C 25.796875 15.992188 25.699219 16.828125 25.183594 17.289062 L 21.753906 20.257812 L 20.671875 27.492188 C 20.671875 27.582031 20.722656 27.722656 20.765625 27.769531 C 23.164062 29.53125 25.890625 29.53125 28.234375 27.769531 C 28.332031 27.722656 28.378906 27.582031 28.332031 27.492188 L 27.109375 19.332031 " fill-opacity="1" fill-rule="nonzero"/></g><path fill="#1D3557" d="M 24.902344 17.015625 C 25.277344 16.6875 25.324219 16.132812 24.996094 15.757812 C 24.664062 15.390625 24.101562 15.34375 23.730469 15.667969 L 20.203125 18.726562 L 16.964844 17.289062 C 16.496094 17.105469 15.976562 17.289062 15.789062 17.707031 C 15.601562 18.171875 15.789062 18.683594 16.210938 18.867188 L 19.96875 20.582031 C 20.300781 20.722656 20.671875 20.675781 20.957031 20.441406 L 24.902344 17.015625 " fill-opacity="1" fill-rule="nonzero"/><g clip-path="url(#c1565f69ad)"><path fill="#1D3557" d="M 11.75 23.921875 L 11 24.199219 C 11 24.199219 11.042969 23.320312 10.574219 23.042969 C 10.574219 23.042969 10.199219 21.648438 10.765625 21.324219 C 10.765625 21.324219 11.75 20.816406 11.75 20.257812 C 11.75 20.257812 11.796875 20.074219 11.796875 19.886719 C 11.796875 19.75 11.609375 19.65625 11.464844 19.703125 C 10.667969 19.933594 10.714844 19.980469 10.574219 19.980469 C 10.152344 19.933594 10.105469 19.886719 9.824219 19.933594 C 9.589844 19.980469 9.261719 20.074219 9.121094 20.257812 C 9.121094 20.257812 8.835938 20.167969 8.792969 20.257812 C 8.792969 20.257812 8.414062 20.675781 8.601562 21.046875 L 7.851562 24.246094 C 7.851562 24.246094 7.472656 26.054688 5.128906 28.371094 C 5.128906 28.371094 3.953125 29.207031 3.0625 28.1875 C 3.0625 28.1875 3.296875 27.445312 4.09375 27.074219 C 4.09375 27.074219 2.074219 27.121094 2.261719 28.789062 C 2.261719 28.789062 2.636719 29.808594 5.363281 29.300781 C 5.363281 29.300781 5.597656 30.644531 6.394531 31.386719 C 6.394531 31.386719 6.582031 31.941406 6.160156 32.636719 C 6.160156 32.636719 6.019531 32.871094 6.300781 33.335938 L 6.960938 34.492188 C 6.960938 34.492188 7.335938 34.957031 7.945312 34.816406 L 8.132812 34.585938 C 8.132812 34.585938 7.945312 34.308594 7.566406 34.214844 C 7.566406 34.214844 7.097656 33.796875 7.003906 33.242188 C 7.003906 33.242188 7.429688 34.121094 7.945312 34.03125 C 7.945312 34.03125 8.273438 34.214844 8.507812 34.03125 C 8.507812 34.03125 8.882812 33.796875 8.132812 33.566406 C 8.132812 33.566406 7.382812 33.148438 7.332031 32.5 C 7.332031 32.5 7.523438 31.570312 7.992188 31.105469 C 7.992188 31.105469 8.320312 30.179688 7.898438 29.300781 C 7.898438 29.300781 7.898438 28.558594 8.976562 27.910156 L 10.246094 26.5625 L 10.765625 25.542969 L 10.996094 25.542969 C 10.996094 25.542969 10.621094 26.519531 10.859375 26.796875 C 10.859375 26.796875 11.09375 27.121094 11.28125 26.707031 L 11.609375 25.359375 C 11.609375 25.359375 11.609375 24.898438 11.375 24.800781 C 11.375 24.800781 11.9375 24.527344 11.703125 24.988281 C 11.703125 24.988281 11.558594 25.960938 12.171875 25.871094 C 12.171875 25.871094 12.40625 25.960938 12.3125 24.898438 C 12.453125 24.941406 12.640625 23.734375 11.75 23.921875 " fill-opacity="1" fill-rule="nonzero"/></g><path fill="#1D3557" d="M 12.96875 16.550781 C 12.3125 16.550781 11.796875 17.058594 11.796875 17.707031 C 11.796875 18.359375 12.3125 18.867188 12.96875 18.867188 C 13.628906 18.867188 14.144531 18.359375 14.144531 17.707031 C 14.144531 17.058594 13.628906 16.550781 12.96875 16.550781 " fill-opacity="1" fill-rule="nonzero"/></svg>