<svg xmlns="http://www.w3.org/2000/svg" xmlns:xlink="http://www.w3.org/1999/xlink" width="40" zoomAndPan="magnify" viewBox="0 0 30 44.999999" height="60" preserveAspectRatio="xMidYMid meet" version="1.0"><defs><clipPath id="30e9199f00"><path d="M 0 7.5 L 30 7.5 L 30 37.5 L 0 37.5 Z M 0 7.5 " clip-rule="nonzero"/></clipPath></defs><g clip-path="url(#30e9199f00)"><path fill="#000000" d="M 28.125 22.5 L 26.875 22.5 C 25.8125 22.5 25 23.3125 25 24.375 L 25 28.125 L 23.75 28.125 L 23.75 24.375 C 23.75 23.3125 22.9375 22.5 21.875 22.5 L 21.1875 22.5 C 21.0625 22.0625 20.875 21.625 20.625 21.25 C 21 20.75 21.25 20.0625 21.25 19.375 L 21.25 14.6875 C 21.8125 14.875 22.4375 15 23.125 15 C 23.5 15 23.75 14.75 23.75 14.375 L 23.75 9.375 C 23.75 8.3125 22.9375 7.5 21.875 7.5 L 8.125 7.5 C 7.0625 7.5 6.25 8.3125 6.25 9.375 L 6.25 14.375 C 6.25 14.75 6.5 15 6.875 15 C 7.5625 15 8.1875 14.875 8.75 14.6875 L 8.75 19.375 C 8.75 20.0625 9 20.75 9.375 21.25 C 9.125 21.625 8.875 22.0625 8.8125 22.5 L 8.125 22.5 C 7.0625 22.5 6.25 23.3125 6.25 24.375 L 6.25 28.125 L 5 28.125 L 5 24.375 C 5 23.3125 4.1875 22.5 3.125 22.5 L 1.875 22.5 C 0.8125 22.5 0 23.3125 0 24.375 L 0 36.875 C 0 37.25 0.25 37.5 0.625 37.5 L 4.375 37.5 C 4.75 37.5 5 37.25 5 36.875 L 5 31.875 L 6.25 31.875 L 6.25 36.875 C 6.25 37.25 6.5 37.5 6.875 37.5 L 23.125 37.5 C 23.5 37.5 23.75 37.25 23.75 36.875 L 23.75 31.875 L 25 31.875 L 25 36.875 C 25 37.25 25.25 37.5 25.625 37.5 L 29.375 37.5 C 29.75 37.5 30 37.25 30 36.875 L 30 24.375 C 30 23.3125 29.1875 22.5 28.125 22.5 Z M 11.875 22.5 L 14.375 22.5 C 13.3125 22.5 12.5 23.3125 12.5 24.375 L 12.5 28.125 L 11.25 28.125 L 11.25 24.375 C 11.25 23.5625 10.75 22.9375 10.0625 22.625 C 10.125 22.4375 10.1875 22.25 10.3125 22.0625 C 10.8125 22.3125 11.3125 22.5 11.875 22.5 Z M 19.6875 22.0625 C 19.8125 22.25 19.875 22.4375 19.9375 22.625 C 19.25 22.9375 18.75 23.5625 18.75 24.375 L 18.75 28.125 L 17.5 28.125 L 17.5 24.375 C 17.5 23.3125 16.6875 22.5 15.625 22.5 L 18.125 22.5 C 18.6875 22.5 19.1875 22.3125 19.6875 22.0625 Z M 11.25 31.875 L 12.5 31.875 L 12.5 36.25 L 11.25 36.25 Z M 17.5 31.875 L 18.75 31.875 L 18.75 36.25 L 17.5 36.25 Z M 12.5 9.375 L 12.5 8.75 L 17.5 8.75 L 17.5 9.375 C 17.5 11.3125 18.5 13.0625 20 14.0625 L 20 19.375 C 20 20.4375 19.1875 21.25 18.125 21.25 L 11.875 21.25 C 10.8125 21.25 10 20.4375 10 19.375 L 10 14.0625 C 11.5 13.0625 12.5 11.3125 12.5 9.375 Z M 12.5 9.375 " fill-opacity="1" fill-rule="nonzero"/></g><path fill="#000000" d="M 14.0625 19.625 C 14.3125 19.875 14.6875 20 15 20 C 15.3125 20 15.6875 19.875 15.9375 19.625 L 17.0625 18.5 C 17.4375 18.125 17.5625 17.5625 17.375 17.0625 C 17.1875 16.5625 16.6875 16.25 16.125 16.25 L 13.8125 16.25 C 13.25 16.25 12.75 16.5625 12.5625 17.0625 C 12.375 17.5625 12.5 18.125 12.875 18.5 Z M 14.0625 19.625 " fill-opacity="1" fill-rule="nonzero"/></svg>