<svg xmlns="http://www.w3.org/2000/svg" xmlns:xlink="http://www.w3.org/1999/xlink" width="48" zoomAndPan="magnify" viewBox="0 0 36 36.000001" height="48" preserveAspectRatio="xMidYMid meet" version="1.0"><defs><clipPath id="ff5f6e0557"><path d="M 1.054688 15 L 26 15 L 26 35.027344 L 1.054688 35.027344 Z M 1.054688 15 " clip-rule="nonzero"/></clipPath><clipPath id="a4012714bc"><path d="M 26 22 L 35.511719 22 L 35.511719 32 L 26 32 Z M 26 22 " clip-rule="nonzero"/></clipPath><clipPath id="7d871263dc"><path d="M 1.054688 0 L 35.511719 0 L 35.511719 16 L 1.054688 16 Z M 1.054688 0 " clip-rule="nonzero"/></clipPath></defs><g clip-path="url(#ff5f6e0557)"><path fill="#dce2e8" d="M 1.636719 35.027344 L 3.972656 35.027344 C 4.296875 35.027344 4.558594 34.765625 4.558594 34.441406 L 4.558594 32.691406 L 22.070312 32.691406 L 22.070312 34.441406 C 22.070312 34.765625 22.332031 35.027344 22.65625 35.027344 L 24.988281 35.027344 C 25.3125 35.027344 25.574219 34.765625 25.574219 34.441406 L 25.574219 25.101562 C 25.574219 23.695312 24.570312 22.515625 23.238281 22.242188 L 23.238281 16.929688 C 23.238281 15.964844 22.453125 15.179688 21.488281 15.179688 L 5.140625 15.179688 C 4.175781 15.179688 3.390625 15.964844 3.390625 16.929688 L 3.390625 22.242188 C 2.058594 22.515625 1.054688 23.695312 1.054688 25.101562 L 1.054688 34.441406 C 1.054688 34.765625 1.316406 35.027344 1.636719 35.027344 Z M 24.40625 33.859375 L 23.238281 33.859375 L 23.238281 32.109375 C 23.238281 31.785156 22.976562 31.523438 22.65625 31.523438 L 3.972656 31.523438 C 3.652344 31.523438 3.390625 31.785156 3.390625 32.109375 L 3.390625 33.859375 L 2.222656 33.859375 L 2.222656 29.1875 L 24.40625 29.1875 Z M 4.558594 16.929688 C 4.558594 16.609375 4.820312 16.347656 5.140625 16.347656 L 21.488281 16.347656 C 21.808594 16.347656 22.070312 16.609375 22.070312 16.929688 L 22.070312 22.183594 L 20.902344 22.183594 L 20.902344 19.847656 C 20.902344 18.882812 20.117188 18.097656 19.152344 18.097656 L 15.648438 18.097656 C 14.683594 18.097656 13.898438 18.882812 13.898438 19.847656 L 13.898438 22.183594 L 12.730469 22.183594 L 12.730469 19.847656 C 12.730469 18.882812 11.945312 18.097656 10.980469 18.097656 L 7.476562 18.097656 C 6.511719 18.097656 5.726562 18.882812 5.726562 19.847656 L 5.726562 22.183594 L 4.558594 22.183594 Z M 19.734375 22.183594 L 15.066406 22.183594 L 15.066406 19.847656 C 15.066406 19.527344 15.328125 19.265625 15.648438 19.265625 L 19.152344 19.265625 C 19.472656 19.265625 19.734375 19.527344 19.734375 19.847656 Z M 11.5625 22.183594 L 6.890625 22.183594 L 6.890625 19.847656 C 6.890625 19.527344 7.15625 19.265625 7.476562 19.265625 L 10.980469 19.265625 C 11.300781 19.265625 11.5625 19.527344 11.5625 19.847656 Z M 2.222656 25.101562 C 2.222656 24.136719 3.007812 23.351562 3.972656 23.351562 L 22.65625 23.351562 C 23.621094 23.351562 24.40625 24.136719 24.40625 25.101562 L 24.40625 28.023438 L 2.222656 28.023438 Z M 2.222656 25.101562 " fill-opacity="1" fill-rule="nonzero"/></g><g clip-path="url(#a4012714bc)"><path fill="#dce2e8" d="M 35.496094 22.183594 L 27.324219 22.183594 C 27.003906 22.183594 26.742188 22.445312 26.742188 22.765625 L 26.742188 31.523438 L 27.910156 31.523438 L 27.910156 28.023438 L 34.914062 28.023438 L 34.914062 31.523438 L 36.082031 31.523438 L 36.082031 22.765625 C 36.082031 22.445312 35.820312 22.183594 35.496094 22.183594 Z M 27.910156 26.855469 L 27.910156 23.351562 L 34.914062 23.351562 L 34.914062 26.855469 Z M 27.910156 26.855469 " fill-opacity="1" fill-rule="nonzero"/></g><path fill="#dce2e8" d="M 30.242188 24.519531 L 32.578125 24.519531 L 32.578125 25.6875 L 30.242188 25.6875 Z M 30.242188 24.519531 " fill-opacity="1" fill-rule="nonzero"/><path fill="#dce2e8" d="M 33.746094 18.097656 C 33.933594 18.097656 34.109375 18.007812 34.21875 17.855469 C 34.328125 17.703125 34.359375 17.507812 34.300781 17.328125 L 33.132812 13.824219 C 33.054688 13.585938 32.832031 13.425781 32.578125 13.425781 L 30.242188 13.425781 C 29.992188 13.425781 29.769531 13.585938 29.691406 13.828125 L 28.523438 17.328125 C 28.460938 17.507812 28.492188 17.703125 28.601562 17.855469 C 28.710938 18.007812 28.890625 18.097656 29.078125 18.097656 L 30.828125 18.097656 L 30.828125 19.847656 L 29.660156 19.847656 L 29.660156 21.015625 L 33.164062 21.015625 L 33.164062 19.847656 L 31.996094 19.847656 L 31.996094 18.097656 Z M 30.664062 14.59375 L 32.160156 14.59375 L 32.9375 16.929688 L 29.886719 16.929688 Z M 30.664062 14.59375 " fill-opacity="1" fill-rule="nonzero"/><g clip-path="url(#7d871263dc)"><path fill="#dce2e8" d="M 35.738281 7.640625 L 18.808594 0.0507812 C 18.65625 -0.015625 18.480469 -0.015625 18.328125 0.0507812 L 1.398438 7.640625 C 1.191406 7.734375 1.054688 7.941406 1.054688 8.171875 L 1.054688 15.179688 L 2.222656 15.179688 L 2.222656 8.550781 L 18.566406 1.222656 L 34.914062 8.550781 L 34.914062 15.179688 L 36.082031 15.179688 L 36.082031 8.171875 C 36.082031 7.941406 35.945312 7.734375 35.738281 7.640625 Z M 35.738281 7.640625 " fill-opacity="1" fill-rule="nonzero"/></g><path fill="#dce2e8" d="M 14.480469 8.757812 C 14.480469 11.011719 16.316406 12.84375 18.566406 12.84375 C 20.820312 12.84375 22.65625 11.011719 22.65625 8.757812 C 22.65625 8.527344 22.636719 8.300781 22.597656 8.074219 L 21.445312 8.269531 C 21.472656 8.429688 21.488281 8.59375 21.488281 8.757812 C 21.488281 10.367188 20.175781 11.675781 18.566406 11.675781 C 16.957031 11.675781 15.648438 10.367188 15.648438 8.757812 C 15.648438 7.148438 16.957031 5.835938 18.566406 5.835938 C 18.902344 5.835938 19.230469 5.894531 19.542969 6.003906 L 19.929688 4.902344 C 19.492188 4.75 19.035156 4.671875 18.566406 4.671875 C 16.316406 4.671875 14.480469 6.503906 14.480469 8.757812 Z M 14.480469 8.757812 " fill-opacity="1" fill-rule="nonzero"/><path fill="#dce2e8" d="M 17.8125 7.761719 L 16.988281 8.585938 L 18.15625 9.753906 C 18.269531 9.867188 18.417969 9.925781 18.566406 9.925781 C 18.71875 9.925781 18.867188 9.867188 18.980469 9.753906 L 23.066406 5.667969 L 22.242188 4.839844 L 18.566406 8.515625 Z M 17.8125 7.761719 " fill-opacity="1" fill-rule="nonzero"/></svg>