<svg xmlns="http://www.w3.org/2000/svg" xmlns:xlink="http://www.w3.org/1999/xlink" width="48" zoomAndPan="magnify" viewBox="0 0 36 36.000001" height="48" preserveAspectRatio="xMidYMid meet" version="1.0"><defs><clipPath id="d5f063ebcc"><path d="M 19 7 L 35.511719 7 L 35.511719 30.980469 L 19 30.980469 Z M 19 7 " clip-rule="nonzero"/></clipPath><clipPath id="d5aee00ab5"><path d="M 13 3.980469 L 35 3.980469 L 35 9 L 13 9 Z M 13 3.980469 " clip-rule="nonzero"/></clipPath><clipPath id="ae70a416fd"><path d="M 0.488281 26 L 5 26 L 5 30.980469 L 0.488281 30.980469 Z M 0.488281 26 " clip-rule="nonzero"/></clipPath><clipPath id="8c3f1ae515"><path d="M 7 26 L 23 26 L 23 30.980469 L 7 30.980469 Z M 7 26 " clip-rule="nonzero"/></clipPath><clipPath id="614e3d96d4"><path d="M 5 30 L 7 30 L 7 30.980469 L 5 30.980469 Z M 5 30 " clip-rule="nonzero"/></clipPath></defs><g clip-path="url(#d5f063ebcc)"><path fill="#dce2e8" d="M 33.164062 31.039062 L 20.058594 31.039062 C 19.773438 31.039062 19.542969 30.808594 19.542969 30.523438 C 19.542969 30.238281 19.773438 30.007812 20.058594 30.007812 L 33.164062 30.007812 C 33.882812 30.007812 34.464844 29.425781 34.464844 28.707031 C 34.464844 28.359375 34.328125 28.03125 34.082031 27.789062 C 33.835938 27.539062 33.511719 27.40625 33.164062 27.40625 C 32.523438 27.40625 32.066406 26.773438 32.285156 26.15625 C 33.335938 23.285156 33.871094 20.285156 33.871094 17.234375 C 33.875 13.960938 33.273438 10.753906 32.078125 7.707031 C 31.976562 7.445312 32.105469 7.144531 32.371094 7.042969 C 32.636719 6.9375 32.933594 7.070312 33.039062 7.332031 C 34.277344 10.5 34.90625 13.832031 34.902344 17.234375 C 34.898438 20.363281 34.359375 23.4375 33.300781 26.378906 C 34.503906 26.449219 35.492188 27.445312 35.492188 28.707031 C 35.492188 29.992188 34.449219 31.039062 33.164062 31.039062 Z M 33.164062 31.039062 " fill-opacity="1" fill-rule="nonzero"/></g><path fill="#dce2e8" d="M 14.457031 15.265625 C 14.175781 15.238281 13.964844 14.988281 13.992188 14.703125 C 14.292969 11.519531 15.105469 8.9375 15.734375 7.332031 C 15.839844 7.070312 16.136719 6.9375 16.402344 7.042969 C 16.667969 7.144531 16.796875 7.445312 16.695312 7.710938 C 16.089844 9.25 15.308594 11.734375 15.019531 14.800781 C 14.992188 15.082031 14.742188 15.292969 14.457031 15.265625 Z M 14.457031 15.265625 " fill-opacity="1" fill-rule="nonzero"/><g clip-path="url(#d5aee00ab5)"><path fill="#dce2e8" d="M 32.859375 8.035156 L 29.851562 8.035156 C 29.566406 8.035156 29.335938 7.804688 29.335938 7.519531 C 29.335938 7.238281 29.566406 7.007812 29.851562 7.007812 L 32.859375 7.007812 C 33.410156 7.007812 33.859375 6.5625 33.859375 6.007812 C 33.859375 5.457031 33.410156 5.007812 32.859375 5.007812 L 15.910156 5.007812 C 15.363281 5.007812 14.914062 5.453125 14.914062 6.007812 C 14.914062 6.558594 15.359375 7.007812 15.910156 7.007812 L 25.734375 7.007812 C 26.019531 7.007812 26.25 7.238281 26.25 7.519531 C 26.25 7.804688 26.019531 8.035156 25.734375 8.035156 L 15.910156 8.035156 C 14.792969 8.035156 13.882812 7.125 13.882812 6.007812 C 13.882812 4.882812 14.796875 3.980469 15.910156 3.980469 L 32.859375 3.980469 C 33.980469 3.980469 34.890625 4.890625 34.890625 6.007812 C 34.890625 7.128906 33.980469 8.035156 32.859375 8.035156 Z M 32.859375 8.035156 " fill-opacity="1" fill-rule="nonzero"/></g><g clip-path="url(#ae70a416fd)"><path fill="#dce2e8" d="M 4.363281 31.039062 L 2.5625 31.039062 C 1.429688 31.039062 0.507812 30.113281 0.507812 28.980469 C 0.507812 27.84375 1.425781 26.921875 2.5625 26.921875 L 2.59375 26.921875 C 2.878906 26.921875 3.109375 27.152344 3.109375 27.4375 C 3.109375 27.71875 2.878906 27.949219 2.59375 27.949219 C 2.578125 27.953125 2.171875 27.917969 1.835938 28.253906 C 1.640625 28.445312 1.535156 28.707031 1.535156 28.980469 C 1.535156 29.546875 1.996094 30.007812 2.5625 30.007812 L 4.363281 30.007812 C 4.648438 30.007812 4.878906 30.238281 4.878906 30.523438 C 4.878906 30.808594 4.648438 31.039062 4.363281 31.039062 Z M 4.363281 31.039062 " fill-opacity="1" fill-rule="nonzero"/></g><g clip-path="url(#8c3f1ae515)"><path fill="#dce2e8" d="M 20.058594 31.039062 L 8.480469 31.039062 C 8.195312 31.039062 7.96875 30.808594 7.96875 30.523438 C 7.96875 30.238281 8.195312 30.007812 8.480469 30.007812 L 20.058594 30.007812 C 20.625 30.007812 21.085938 29.550781 21.085938 28.980469 C 21.085938 28.414062 20.625 27.949219 20.058594 27.949219 L 20.027344 27.949219 C 19.746094 27.949219 19.515625 27.71875 19.515625 27.4375 C 19.515625 27.152344 19.746094 26.921875 20.027344 26.921875 L 20.058594 26.921875 C 21.191406 26.921875 22.117188 27.84375 22.117188 28.980469 C 22.117188 29.527344 21.902344 30.046875 21.511719 30.433594 C 21.121094 30.824219 20.605469 31.039062 20.058594 31.039062 Z M 20.058594 31.039062 " fill-opacity="1" fill-rule="nonzero"/></g><path fill="#dce2e8" d="M 20.027344 27.949219 L 2.59375 27.949219 C 2.285156 27.949219 2.042969 27.679688 2.082031 27.371094 L 3.109375 19.378906 C 3.273438 18.105469 4.367188 17.144531 5.652344 17.144531 L 16.972656 17.144531 C 18.253906 17.144531 19.347656 18.105469 19.511719 19.378906 L 20.539062 27.371094 C 20.578125 27.679688 20.339844 27.949219 20.027344 27.949219 Z M 3.179688 26.921875 L 19.445312 26.921875 L 18.492188 19.511719 C 18.390625 18.75 17.738281 18.175781 16.972656 18.175781 L 5.652344 18.175781 C 4.882812 18.175781 4.230469 18.75 4.132812 19.511719 Z M 3.179688 26.921875 " fill-opacity="1" fill-rule="nonzero"/><path fill="#dce2e8" d="M 12.867188 24.121094 C 12.859375 24.105469 12.84375 24.09375 12.828125 24.09375 L 9.792969 24.09375 C 9.777344 24.09375 9.761719 24.105469 9.757812 24.121094 C 9.484375 24.929688 8.734375 25.464844 7.886719 25.464844 C 7.871094 25.464844 7.855469 25.464844 7.84375 25.464844 C 6.816406 25.441406 5.96875 24.625 5.910156 23.597656 C 5.890625 23.238281 5.96875 22.882812 6.136719 22.566406 C 6.140625 22.554688 6.140625 22.539062 6.136719 22.527344 C 5.96875 22.214844 5.890625 21.859375 5.910156 21.5 C 5.96875 20.472656 6.816406 19.652344 7.84375 19.632812 C 8.710938 19.617188 9.480469 20.15625 9.757812 20.976562 C 9.761719 20.992188 9.777344 21.003906 9.792969 21.003906 L 12.828125 21.003906 C 12.84375 21.003906 12.859375 20.992188 12.867188 20.976562 C 13.140625 20.164062 13.902344 19.617188 14.777344 19.632812 C 15.804688 19.652344 16.65625 20.472656 16.710938 21.5 C 16.730469 21.859375 16.652344 22.214844 16.484375 22.53125 C 16.480469 22.542969 16.480469 22.554688 16.484375 22.566406 C 16.652344 22.882812 16.730469 23.238281 16.710938 23.597656 C 16.65625 24.625 15.804688 25.441406 14.777344 25.464844 C 13.929688 25.484375 13.148438 24.957031 12.867188 24.121094 Z M 9.792969 23.0625 L 12.828125 23.0625 C 13.285156 23.0625 13.691406 23.355469 13.839844 23.789062 C 13.972656 24.183594 14.34375 24.441406 14.757812 24.433594 C 15.25 24.425781 15.65625 24.03125 15.683594 23.542969 C 15.691406 23.367188 15.65625 23.199219 15.574219 23.046875 C 15.410156 22.734375 15.410156 22.363281 15.574219 22.050781 C 15.65625 21.898438 15.691406 21.726562 15.683594 21.554688 C 15.65625 21.0625 15.25 20.671875 14.757812 20.660156 C 14.339844 20.652344 13.972656 20.914062 13.839844 21.304688 C 13.691406 21.742188 13.285156 22.035156 12.828125 22.035156 L 9.792969 22.035156 C 9.335938 22.035156 8.929688 21.742188 8.78125 21.304688 C 8.652344 20.917969 8.292969 20.660156 7.882812 20.660156 C 7.875 20.660156 7.871094 20.660156 7.863281 20.660156 C 7.371094 20.671875 6.964844 21.0625 6.9375 21.554688 C 6.929688 21.726562 6.964844 21.898438 7.046875 22.050781 C 7.210938 22.363281 7.210938 22.734375 7.046875 23.046875 C 6.964844 23.199219 6.929688 23.367188 6.9375 23.542969 C 6.964844 24.03125 7.371094 24.425781 7.863281 24.433594 C 8.28125 24.441406 8.648438 24.183594 8.78125 23.792969 C 8.929688 23.355469 9.335938 23.0625 9.792969 23.0625 Z M 9.792969 23.0625 " fill-opacity="1" fill-rule="nonzero"/><path fill="#dce2e8" d="M 26.457031 24.9375 L 22.953125 24.9375 C 21.933594 24.9375 21.105469 24.109375 21.105469 23.089844 C 21.105469 22.300781 21.234375 21.523438 21.496094 20.78125 C 21.757812 20.035156 22.140625 19.347656 22.632812 18.734375 C 23.6875 17.414062 25.710938 17.398438 26.777344 18.730469 C 27.269531 19.347656 27.652344 20.035156 27.914062 20.78125 C 28.175781 21.527344 28.308594 22.300781 28.308594 23.089844 C 28.308594 23.582031 28.113281 24.046875 27.765625 24.398438 C 27.414062 24.746094 26.949219 24.9375 26.457031 24.9375 Z M 23.433594 19.375 C 23.015625 19.898438 22.691406 20.488281 22.46875 21.121094 C 22.246094 21.753906 22.132812 22.417969 22.132812 23.089844 C 22.132812 23.542969 22.5 23.910156 22.953125 23.910156 L 26.457031 23.910156 C 26.675781 23.910156 26.882812 23.824219 27.039062 23.667969 C 27.191406 23.515625 27.277344 23.308594 27.277344 23.089844 C 27.277344 22.417969 27.164062 21.753906 26.941406 21.121094 C 26.722656 20.488281 26.394531 19.898438 25.976562 19.375 C 25.320312 18.558594 24.082031 18.566406 23.433594 19.375 Z M 23.433594 19.375 " fill-opacity="1" fill-rule="nonzero"/><path fill="#dce2e8" d="M 24.707031 16.707031 C 23.855469 16.707031 23.160156 15.898438 23.160156 14.90625 C 23.160156 13.914062 23.855469 13.105469 24.707031 13.105469 C 25.554688 13.105469 26.25 13.914062 26.25 14.90625 C 26.25 15.898438 25.554688 16.707031 24.707031 16.707031 Z M 24.707031 14.132812 C 24.429688 14.132812 24.191406 14.496094 24.191406 14.90625 C 24.191406 15.316406 24.429688 15.679688 24.707031 15.679688 C 24.980469 15.679688 25.21875 15.316406 25.21875 14.90625 C 25.21875 14.496094 24.980469 14.132812 24.707031 14.132812 Z M 24.707031 14.132812 " fill-opacity="1" fill-rule="nonzero"/><path fill="#dce2e8" d="M 28.160156 18.25 C 27.914062 18.25 27.675781 18.1875 27.457031 18.058594 C 26.726562 17.621094 26.546875 16.574219 27.054688 15.722656 C 27.5625 14.867188 28.570312 14.527344 29.300781 14.964844 C 30.035156 15.398438 30.214844 16.449219 29.707031 17.300781 C 29.347656 17.902344 28.742188 18.25 28.160156 18.25 Z M 27.9375 16.246094 C 27.726562 16.601562 27.75 17.035156 27.984375 17.175781 C 28.222656 17.316406 28.613281 17.128906 28.824219 16.773438 C 29.03125 16.421875 29.011719 15.988281 28.773438 15.847656 C 28.503906 15.6875 28.117188 15.949219 27.9375 16.246094 Z M 27.9375 16.246094 " fill-opacity="1" fill-rule="nonzero"/><path fill="#dce2e8" d="M 21.25 18.25 C 20.667969 18.25 20.0625 17.902344 19.703125 17.300781 C 19.195312 16.449219 19.378906 15.398438 20.109375 14.964844 C 20.839844 14.527344 21.847656 14.867188 22.355469 15.722656 C 22.882812 16.601562 22.667969 17.632812 21.953125 18.058594 C 21.734375 18.1875 21.496094 18.25 21.25 18.25 Z M 20.589844 16.773438 C 20.800781 17.128906 21.191406 17.316406 21.425781 17.175781 C 21.695312 17.015625 21.652344 16.550781 21.472656 16.246094 C 21.261719 15.894531 20.871094 15.707031 20.636719 15.847656 C 20.398438 15.988281 20.378906 16.421875 20.589844 16.773438 Z M 20.589844 16.773438 " fill-opacity="1" fill-rule="nonzero"/><path fill="#dce2e8" d="M 16.421875 17.761719 C 16.320312 17.257812 15.988281 16.832031 15.554688 16.652344 C 15.046875 16.441406 14.652344 16.070312 14.445312 15.609375 C 13.957031 14.519531 12.777344 14.167969 11.917969 14.855469 C 11.308594 15.34375 10.453125 15.449219 9.738281 15.117188 C 9.1875 14.867188 8.546875 15.085938 8.199219 15.695312 C 7.957031 16.125 7.558594 16.453125 7.082031 16.628906 C 6.613281 16.800781 6.292969 17.261719 6.199219 17.757812 C 6.144531 18.035156 5.878906 18.21875 5.597656 18.164062 C 5.320312 18.113281 5.136719 17.84375 5.1875 17.5625 C 5.359375 16.664062 5.960938 15.945312 6.726562 15.664062 C 6.976562 15.570312 7.183594 15.402344 7.304688 15.183594 C 7.929688 14.097656 9.144531 13.714844 10.164062 14.183594 C 10.53125 14.351562 10.964844 14.300781 11.273438 14.054688 C 12.355469 13.1875 13.902344 13.277344 14.894531 14.414062 C 15.089844 14.640625 15.257812 14.902344 15.386719 15.1875 C 15.484375 15.410156 15.683594 15.589844 15.949219 15.699219 C 16.691406 16.011719 17.261719 16.722656 17.429688 17.558594 C 17.488281 17.835938 17.304688 18.109375 17.027344 18.164062 C 16.75 18.222656 16.476562 18.042969 16.421875 17.761719 Z M 16.421875 17.761719 " fill-opacity="1" fill-rule="nonzero"/><path fill="#dce2e8" d="M 28.308594 7.519531 C 28.308594 7.664062 28.257812 7.785156 28.15625 7.886719 C 28.054688 7.984375 27.933594 8.035156 27.792969 8.035156 C 27.648438 8.035156 27.527344 7.984375 27.429688 7.886719 C 27.328125 7.785156 27.277344 7.664062 27.277344 7.519531 C 27.277344 7.378906 27.328125 7.257812 27.429688 7.15625 C 27.527344 7.058594 27.648438 7.007812 27.792969 7.007812 C 27.933594 7.007812 28.054688 7.058594 28.15625 7.15625 C 28.257812 7.257812 28.308594 7.378906 28.308594 7.519531 Z M 28.308594 7.519531 " fill-opacity="1" fill-rule="nonzero"/><g clip-path="url(#614e3d96d4)"><path fill="#dce2e8" d="M 6.9375 30.523438 C 6.9375 30.664062 6.886719 30.785156 6.785156 30.886719 C 6.6875 30.988281 6.566406 31.039062 6.421875 31.039062 C 6.28125 31.039062 6.160156 30.988281 6.058594 30.886719 C 5.957031 30.785156 5.910156 30.664062 5.910156 30.523438 C 5.910156 30.382812 5.957031 30.261719 6.058594 30.160156 C 6.160156 30.058594 6.28125 30.007812 6.421875 30.007812 C 6.566406 30.007812 6.6875 30.058594 6.785156 30.160156 C 6.886719 30.261719 6.9375 30.382812 6.9375 30.523438 Z M 6.9375 30.523438 " fill-opacity="1" fill-rule="nonzero"/></g></svg>