<svg xmlns="http://www.w3.org/2000/svg" xmlns:xlink="http://www.w3.org/1999/xlink" width="48" zoomAndPan="magnify" viewBox="0 0 36 36.000001" height="48" preserveAspectRatio="xMidYMid meet" version="1.0"><defs><clipPath id="cbadf6b6be"><path d="M 24 6.367188 L 32.792969 6.367188 L 32.792969 25.273438 L 24 25.273438 Z M 24 6.367188 " clip-rule="nonzero"/></clipPath></defs><path fill="#dce2e8" d="M 19.742188 9.863281 L 23.421875 10.78125 C 23.640625 10.839844 23.910156 10.839844 24.125 10.726562 L 25.261719 10.1875 L 25.261719 8.183594 C 25.261719 8.074219 25.261719 7.96875 25.316406 7.859375 L 23.585938 8.671875 L 20.28125 7.859375 C 19.742188 7.695312 19.148438 8.074219 19.035156 8.617188 C 18.875 9.15625 19.199219 9.699219 19.742188 9.863281 " fill-opacity="1" fill-rule="nonzero"/><path fill="#dce2e8" d="M 30.785156 25.453125 C 29.757812 25.777344 28.726562 25.832031 27.644531 25.667969 C 27.484375 28.699219 27.753906 31.351562 28.457031 33.628906 C 28.726562 34.382812 29.539062 34.925781 30.40625 34.65625 C 31.214844 34.382812 31.648438 33.519531 31.433594 32.707031 C 30.785156 30.648438 30.566406 28.265625 30.785156 25.453125 " fill-opacity="1" fill-rule="nonzero"/><path fill="#dce2e8" d="M 27.15625 25.558594 C 26.671875 25.453125 26.238281 25.292969 25.75 25.074219 C 25.480469 28.375 25.75 31.191406 26.507812 33.628906 C 26.722656 34.277344 27.320312 34.707031 27.96875 34.707031 C 28.132812 34.707031 28.292969 34.707031 28.457031 34.65625 C 27.210938 33.355469 26.992188 28.046875 27.15625 25.558594 " fill-opacity="1" fill-rule="nonzero"/><path fill="#dce2e8" d="M 31.8125 3.097656 C 31.8125 4.769531 30.457031 6.125 28.78125 6.125 C 27.109375 6.125 25.75 4.769531 25.75 3.097656 C 25.75 1.421875 27.109375 0.0664062 28.78125 0.0664062 C 30.457031 0.0664062 31.8125 1.421875 31.8125 3.097656 " fill-opacity="1" fill-rule="nonzero"/><g clip-path="url(#cbadf6b6be)"><path fill="#dce2e8" d="M 31.757812 13.8125 L 31.757812 8.183594 C 31.757812 7.914062 31.648438 7.695312 31.433594 7.535156 C 29.644531 6.398438 27.863281 6.398438 26.074219 7.535156 C 25.910156 7.695312 25.75 7.914062 25.75 8.183594 L 25.75 10.675781 L 27.484375 9.15625 C 28.132812 8.5625 29.105469 8.671875 29.644531 9.265625 C 30.242188 9.917969 30.132812 10.890625 29.539062 11.433594 L 25.585938 14.898438 L 24.339844 23.339844 C 24.339844 23.449219 24.398438 23.609375 24.449219 23.667969 C 27.210938 25.722656 30.351562 25.722656 33.054688 23.667969 C 33.167969 23.609375 33.21875 23.449219 33.167969 23.339844 L 31.757812 13.8125 " fill-opacity="1" fill-rule="nonzero"/></g><path fill="#dce2e8" d="M 29.214844 11.109375 C 29.644531 10.726562 29.703125 10.078125 29.324219 9.644531 C 28.941406 9.214844 28.292969 9.15625 27.863281 9.535156 L 23.800781 13.109375 L 20.066406 11.433594 C 19.527344 11.214844 18.929688 11.433594 18.714844 11.917969 C 18.496094 12.460938 18.714844 13.054688 19.199219 13.273438 L 23.527344 15.273438 C 23.910156 15.4375 24.339844 15.382812 24.667969 15.113281 L 29.214844 11.109375 " fill-opacity="1" fill-rule="nonzero"/><path fill="#dce2e8" d="M 14.058594 19.175781 L 13.191406 19.496094 C 13.191406 19.496094 13.246094 18.46875 12.703125 18.144531 C 12.703125 18.144531 12.273438 16.519531 12.921875 16.144531 C 12.921875 16.144531 14.058594 15.546875 14.058594 14.898438 C 14.058594 14.898438 14.113281 14.679688 14.113281 14.460938 C 14.113281 14.304688 13.894531 14.191406 13.730469 14.246094 C 12.8125 14.519531 12.867188 14.570312 12.703125 14.570312 C 12.21875 14.519531 12.160156 14.460938 11.839844 14.519531 C 11.566406 14.570312 11.191406 14.679688 11.027344 14.898438 C 11.027344 14.898438 10.699219 14.789062 10.648438 14.898438 C 10.648438 14.898438 10.214844 15.382812 10.429688 15.816406 L 9.566406 19.550781 C 9.566406 19.550781 9.132812 21.664062 6.425781 24.367188 C 6.425781 24.367188 5.070312 25.34375 4.042969 24.152344 C 4.042969 24.152344 4.316406 23.285156 5.234375 22.855469 C 5.234375 22.855469 2.90625 22.90625 3.125 24.859375 C 3.125 24.859375 3.554688 26.046875 6.695312 25.453125 C 6.695312 25.453125 6.96875 27.019531 7.886719 27.886719 C 7.886719 27.886719 8.101562 28.539062 7.617188 29.351562 C 7.617188 29.351562 7.453125 29.621094 7.777344 30.164062 L 8.539062 31.515625 C 8.539062 31.515625 8.972656 32.058594 9.671875 31.894531 L 9.890625 31.625 C 9.890625 31.625 9.671875 31.296875 9.238281 31.191406 C 9.238281 31.191406 8.695312 30.703125 8.589844 30.054688 C 8.589844 30.054688 9.078125 31.082031 9.671875 30.976562 C 9.671875 30.976562 10.050781 31.191406 10.320312 30.976562 C 10.320312 30.976562 10.753906 30.703125 9.886719 30.433594 C 9.886719 30.433594 9.023438 29.945312 8.96875 29.1875 C 8.96875 29.1875 9.1875 28.105469 9.726562 27.5625 C 9.726562 27.5625 10.105469 26.480469 9.617188 25.453125 C 9.617188 25.453125 9.617188 24.585938 10.863281 23.828125 L 12.324219 22.257812 L 12.921875 21.066406 L 13.191406 21.066406 C 13.191406 21.066406 12.757812 22.203125 13.03125 22.53125 C 13.03125 22.53125 13.300781 22.90625 13.515625 22.421875 L 13.894531 20.851562 C 13.894531 20.851562 13.894531 20.3125 13.625 20.203125 C 13.625 20.203125 14.273438 19.878906 14.003906 20.421875 C 14.003906 20.421875 13.839844 21.554688 14.542969 21.449219 C 14.542969 21.449219 14.816406 21.554688 14.707031 20.3125 C 14.871094 20.363281 15.085938 18.957031 14.058594 19.175781 " fill-opacity="1" fill-rule="nonzero"/><path fill="#dce2e8" d="M 15.464844 10.566406 C 14.707031 10.566406 14.109375 11.160156 14.109375 11.917969 C 14.109375 12.679688 14.707031 13.273438 15.464844 13.273438 C 16.222656 13.273438 16.816406 12.679688 16.816406 11.917969 C 16.816406 11.160156 16.222656 10.566406 15.464844 10.566406 " fill-opacity="1" fill-rule="nonzero"/></svg>