<svg xmlns="http://www.w3.org/2000/svg" xmlns:xlink="http://www.w3.org/1999/xlink" width="48" zoomAndPan="magnify" viewBox="0 0 36 36.000001" height="48" preserveAspectRatio="xMidYMid meet" version="1.0"><defs><clipPath id="8144c8bf86"><path d="M 2.195312 0 L 33.574219 0 L 33.574219 35 L 2.195312 35 Z M 2.195312 0 " clip-rule="nonzero"/></clipPath></defs><g clip-path="url(#8144c8bf86)"><path fill="#dce2e8" d="M 30.414062 14.570312 C 29.269531 18.832031 27.742188 22.351562 25.878906 25.035156 C 22.15625 30.402344 19.175781 32.382812 17.996094 33.011719 C 16.816406 32.382812 13.839844 30.402344 10.117188 25.035156 C 8.253906 22.351562 6.726562 18.832031 5.578125 14.570312 C 4.726562 11.414062 4.320312 8.675781 4.152344 7.355469 C 9.894531 2.269531 17.421875 1.910156 17.996094 1.890625 C 18.265625 1.902344 20.25 1.996094 22.855469 2.691406 C 25.308594 3.34375 28.824219 4.683594 31.839844 7.355469 C 31.675781 8.675781 31.265625 11.414062 30.414062 14.570312 Z M 33.386719 6.214844 C 26.820312 0.160156 17.996094 0.0078125 17.996094 0.0078125 C 17.996094 0.0078125 9.171875 0.160156 2.605469 6.214844 C 2.332031 6.46875 2.195312 6.835938 2.238281 7.207031 C 2.519531 9.671875 3.902344 19.386719 8.566406 26.109375 C 12.839844 32.269531 16.273438 34.300781 17.507812 34.875 C 17.816406 35.019531 18.175781 35.019531 18.488281 34.875 C 19.722656 34.300781 23.152344 32.269531 27.425781 26.109375 C 32.09375 19.386719 33.472656 9.671875 33.757812 7.207031 C 33.800781 6.835938 33.664062 6.46875 33.386719 6.214844 " fill-opacity="1" fill-rule="nonzero"/></g><path fill="#dce2e8" d="M 18.914062 19.355469 C 18.957031 19.539062 18.816406 19.71875 18.625 19.71875 L 17.371094 19.71875 C 17.179688 19.71875 17.039062 19.539062 17.078125 19.355469 L 17.558594 17.234375 C 17.226562 17.070312 16.996094 16.730469 16.996094 16.335938 C 16.996094 15.761719 17.484375 15.296875 18.070312 15.339844 C 18.5625 15.375 18.960938 15.769531 18.996094 16.261719 C 19.027344 16.6875 18.789062 17.0625 18.4375 17.234375 Z M 22.074219 12.035156 L 13.921875 12.035156 C 13.351562 12.035156 12.886719 12.5 12.886719 13.070312 L 12.886719 20.402344 C 12.886719 20.976562 13.351562 21.4375 13.921875 21.4375 L 22.074219 21.4375 C 22.644531 21.4375 23.109375 20.976562 23.109375 20.402344 L 23.109375 13.070312 C 23.109375 12.5 22.644531 12.035156 22.074219 12.035156 " fill-opacity="1" fill-rule="nonzero"/><path fill="#dce2e8" d="M 15.503906 10.566406 C 15.503906 9.191406 16.621094 8.074219 17.996094 8.074219 C 19.371094 8.074219 20.488281 9.191406 20.488281 10.566406 L 20.488281 11.597656 L 21.640625 11.597656 L 21.640625 10.566406 C 21.640625 8.558594 20.007812 6.921875 17.996094 6.921875 C 15.988281 6.921875 14.351562 8.558594 14.351562 10.566406 L 14.351562 11.597656 L 15.503906 11.597656 L 15.503906 10.566406 " fill-opacity="1" fill-rule="nonzero"/><path fill="#dce2e8" d="M 14.644531 22.304688 L 21.351562 22.304688 C 21.609375 22.304688 21.828125 22.121094 21.882812 21.875 L 14.113281 21.875 C 14.164062 22.121094 14.382812 22.304688 14.644531 22.304688 " fill-opacity="1" fill-rule="nonzero"/></svg>