<svg xmlns="http://www.w3.org/2000/svg" xmlns:xlink="http://www.w3.org/1999/xlink" width="48" zoomAndPan="magnify" viewBox="0 0 36 36.000001" height="48" preserveAspectRatio="xMidYMid meet" version="1.0"><defs><clipPath id="a9cdee9c3b"><path d="M 0.859375 0 L 35 0 L 35 35.027344 L 0.859375 35.027344 Z M 0.859375 0 " clip-rule="nonzero"/></clipPath></defs><g clip-path="url(#a9cdee9c3b)"><path fill="#dce2e8" d="M 32.601562 3.46875 C 31.359375 1.875 29.542969 1.09375 27.34375 1.199219 C 26.644531 -0.0117188 25.183594 0.648438 24.46875 0.980469 C 24.386719 1.019531 24.304688 1.058594 24.230469 1.089844 C 24.136719 1.128906 24.042969 1.167969 23.941406 1.207031 C 23.351562 1.453125 22.609375 1.757812 22.335938 2.460938 C 22.164062 2.902344 22.210938 3.417969 22.476562 3.996094 L 22.511719 4.070312 C 22.78125 4.660156 23.152344 5.019531 23.601562 5.136719 C 23.71875 5.167969 23.828125 5.179688 23.941406 5.179688 C 24.539062 5.179688 25.089844 4.785156 25.546875 4.460938 C 25.636719 4.398438 25.71875 4.339844 25.804688 4.28125 C 25.871094 4.234375 25.949219 4.1875 26.023438 4.132812 C 26.5625 3.777344 27.449219 3.195312 27.601562 2.359375 C 29.335938 2.328125 30.703125 2.941406 31.675781 4.1875 C 33.582031 6.632812 33.496094 10.816406 32.609375 13.667969 C 31.871094 16.046875 30.640625 17.941406 29.757812 19.085938 C 29.257812 18.953125 28.699219 19.101562 28.332031 19.519531 C 26.738281 21.332031 22.796875 23.628906 20.78125 24.703125 C 18.777344 23.628906 14.882812 21.332031 13.289062 19.519531 C 12.929688 19.109375 12.386719 18.957031 11.894531 19.078125 C 11.011719 17.929688 9.785156 16.039062 9.050781 13.667969 C 8.15625 10.789062 8.078125 6.589844 10.015625 4.148438 C 10.960938 2.960938 12.273438 2.359375 13.921875 2.355469 C 14.070312 3.191406 14.960938 3.777344 15.496094 4.128906 C 15.574219 4.179688 15.652344 4.226562 15.71875 4.277344 C 15.804688 4.335938 15.890625 4.398438 15.976562 4.457031 C 16.429688 4.78125 16.984375 5.175781 17.578125 5.175781 C 17.691406 5.175781 17.804688 5.160156 17.917969 5.132812 C 18.375 5.015625 18.742188 4.65625 19.011719 4.070312 L 19.050781 3.992188 C 19.316406 3.414062 19.363281 2.898438 19.191406 2.457031 C 18.917969 1.75 18.175781 1.449219 17.582031 1.203125 C 17.488281 1.160156 17.390625 1.121094 17.296875 1.085938 C 17.21875 1.050781 17.140625 1.015625 17.054688 0.976562 C 16.34375 0.648438 14.882812 -0.015625 14.183594 1.191406 C 12.0625 1.125 10.3125 1.894531 9.097656 3.421875 C 7.503906 5.433594 6.519531 9.488281 7.929688 14.019531 C 8.730469 16.585938 10.03125 18.589844 10.976562 19.816406 C 10.722656 20.3125 10.785156 20.9375 11.175781 21.382812 C 13.683594 24.242188 19.878906 27.421875 20.140625 27.554688 L 20.226562 27.601562 C 20.425781 30.082031 19.765625 32.054688 18.34375 33.117188 C 17.195312 33.976562 15.714844 34.089844 14.382812 33.421875 C 12.425781 32.441406 11.261719 30.003906 11.257812 26.894531 C 11.257812 26.886719 11.257812 26.882812 11.257812 26.878906 C 11.257812 26.878906 11.257812 26.875 11.257812 26.875 C 11.253906 24.6875 10.402344 22.972656 8.917969 22.164062 C 7.828125 21.578125 6.589844 21.609375 5.605469 22.25 C 4.558594 22.933594 3.984375 24.199219 3.980469 25.769531 C 2.234375 26.058594 0.898438 27.578125 0.898438 29.40625 C 0.898438 31.441406 2.554688 33.09375 4.589844 33.09375 C 6.621094 33.09375 8.277344 31.4375 8.277344 29.40625 C 8.277344 27.5625 6.917969 26.035156 5.152344 25.761719 C 5.15625 24.597656 5.542969 23.691406 6.246094 23.230469 C 6.863281 22.832031 7.652344 22.816406 8.355469 23.199219 C 9.449219 23.789062 10.078125 25.128906 10.078125 26.878906 C 10.078125 30.503906 11.453125 33.269531 13.847656 34.472656 C 14.578125 34.839844 15.359375 35.019531 16.132812 35.019531 C 17.167969 35.019531 18.183594 34.695312 19.039062 34.058594 C 20.78125 32.753906 21.609375 30.429688 21.394531 27.5625 L 21.40625 27.554688 C 21.671875 27.421875 27.9375 24.242188 30.449219 21.382812 C 30.832031 20.949219 30.894531 20.339844 30.664062 19.847656 C 31.609375 18.625 32.925781 16.605469 33.730469 14.019531 C 35.128906 9.527344 34.167969 5.480469 32.601562 3.46875 Z M 26.367188 1.867188 L 26.394531 1.921875 C 26.550781 2.253906 26.3125 2.542969 25.378906 3.15625 C 25.296875 3.207031 25.214844 3.261719 25.144531 3.3125 C 25.050781 3.371094 24.960938 3.441406 24.863281 3.507812 C 24.558594 3.722656 24.105469 4.054688 23.90625 4 C 23.832031 3.980469 23.710938 3.859375 23.578125 3.570312 L 23.542969 3.5 C 23.453125 3.3125 23.367188 3.050781 23.429688 2.886719 C 23.523438 2.652344 23.984375 2.460938 24.394531 2.292969 C 24.5 2.25 24.605469 2.203125 24.703125 2.160156 C 24.785156 2.128906 24.871094 2.085938 24.960938 2.046875 C 26.011719 1.5625 26.242188 1.59375 26.359375 1.839844 M 15.125 1.917969 L 15.152344 1.847656 C 15.207031 1.738281 15.28125 1.667969 15.4375 1.667969 C 15.636719 1.667969 15.96875 1.78125 16.554688 2.050781 C 16.644531 2.09375 16.730469 2.132812 16.8125 2.164062 C 16.910156 2.210938 17.019531 2.253906 17.121094 2.296875 C 17.527344 2.464844 17.988281 2.65625 18.082031 2.890625 C 18.148438 3.054688 18.058594 3.316406 17.96875 3.503906 L 17.933594 3.578125 C 17.804688 3.863281 17.679688 3.984375 17.605469 4.003906 C 17.40625 4.054688 16.953125 3.722656 16.648438 3.511719 C 16.550781 3.441406 16.460938 3.375 16.367188 3.316406 C 16.292969 3.265625 16.210938 3.210938 16.132812 3.160156 C 15.203125 2.542969 14.96875 2.257812 15.125 1.917969 Z M 7.105469 29.40625 C 7.105469 30.789062 5.976562 31.921875 4.589844 31.921875 C 3.203125 31.921875 2.070312 30.789062 2.070312 29.40625 C 2.070312 28.019531 3.203125 26.886719 4.589844 26.886719 C 5.976562 26.886719 7.105469 28.019531 7.105469 29.40625 Z M 7.105469 29.40625 " fill-opacity="1" fill-rule="nonzero"/></g><path fill="#dce2e8" d="M 21.925781 11.472656 C 22.453125 11.667969 22.914062 11.511719 23.308594 11.148438 C 23.867188 10.632812 24.085938 9.976562 23.992188 9.226562 C 23.9375 8.769531 23.746094 8.371094 23.339844 8.125 C 23.183594 8.027344 22.988281 7.996094 22.808594 7.929688 C 22.738281 7.929688 22.671875 7.929688 22.597656 7.929688 C 22.578125 7.9375 22.558594 7.945312 22.542969 7.949219 C 22.285156 7.984375 22.058594 8.085938 21.863281 8.242188 C 21.1875 8.765625 20.878906 9.730469 21.125 10.546875 C 21.253906 10.96875 21.496094 11.3125 21.925781 11.472656 Z M 21.925781 11.472656 " fill-opacity="1" fill-rule="nonzero"/><path fill="#dce2e8" d="M 18.6875 7.929688 C 18.617188 7.929688 18.550781 7.929688 18.476562 7.929688 C 18.464844 7.933594 18.449219 7.945312 18.4375 7.945312 C 18.082031 7.988281 17.804688 8.164062 17.597656 8.449219 C 17.308594 8.855469 17.222656 9.3125 17.289062 9.792969 C 17.378906 10.441406 17.664062 10.980469 18.234375 11.339844 C 18.824219 11.714844 19.523438 11.589844 19.921875 11.027344 C 20.253906 10.5625 20.308594 10.039062 20.1875 9.496094 C 20.050781 8.878906 19.738281 8.375 19.15625 8.082031 C 19.011719 8.011719 18.84375 7.980469 18.6875 7.929688 Z M 18.6875 7.929688 " fill-opacity="1" fill-rule="nonzero"/><path fill="#dce2e8" d="M 17.929688 13.777344 C 18.257812 12.878906 17.828125 11.742188 16.992188 11.269531 C 16.257812 10.851562 15.460938 11.113281 15.144531 11.875 C 15.085938 12.027344 15.058594 12.191406 15.011719 12.351562 C 15.011719 12.488281 15.011719 12.617188 15.011719 12.75 C 15.019531 12.777344 15.027344 12.804688 15.03125 12.832031 C 15.113281 13.394531 15.351562 13.878906 15.789062 14.246094 C 16.085938 14.503906 16.429688 14.660156 16.828125 14.636719 C 17.382812 14.601562 17.742188 14.285156 17.929688 13.777344 Z M 17.929688 13.777344 " fill-opacity="1" fill-rule="nonzero"/><path fill="#dce2e8" d="M 19.203125 12.835938 C 19.011719 13.117188 18.914062 13.441406 18.839844 13.769531 C 18.746094 14.230469 18.589844 14.664062 18.289062 15.027344 C 18.0625 15.296875 17.804688 15.546875 17.550781 15.792969 C 17.160156 16.167969 16.878906 16.601562 16.824219 17.152344 C 16.785156 17.535156 16.882812 17.875 17.191406 18.125 C 17.605469 18.46875 18.101562 18.570312 18.617188 18.472656 C 19.472656 18.308594 20.328125 18.210938 21.195312 18.269531 C 21.703125 18.304688 22.210938 18.367188 22.714844 18.453125 C 23.105469 18.523438 23.476562 18.511719 23.847656 18.375 C 24.382812 18.1875 24.675781 17.769531 24.644531 17.222656 C 24.628906 16.871094 24.527344 16.539062 24.308594 16.261719 C 24.121094 16.019531 23.917969 15.792969 23.691406 15.59375 C 23.132812 15.085938 22.753906 14.484375 22.617188 13.730469 C 22.582031 13.550781 22.527344 13.375 22.460938 13.203125 C 22.1875 12.46875 21.523438 12.011719 20.742188 12.011719 C 20.089844 12.015625 19.570312 12.292969 19.203125 12.835938 Z M 19.203125 12.835938 " fill-opacity="1" fill-rule="nonzero"/><path fill="#dce2e8" d="M 23.683594 14.304688 C 24.082031 14.703125 24.710938 14.746094 25.242188 14.425781 C 25.964844 13.996094 26.390625 13.058594 26.238281 12.234375 C 26.171875 11.847656 26.007812 11.507812 25.671875 11.285156 C 25.207031 10.964844 24.722656 11.003906 24.261719 11.289062 C 23.574219 11.710938 23.273438 12.359375 23.238281 13.066406 C 23.246094 13.585938 23.367188 13.984375 23.683594 14.304688 Z M 23.683594 14.304688 " fill-opacity="1" fill-rule="nonzero"/><path fill="#dce2e8" d="M 5.660156 29.40625 C 5.660156 29.546875 5.632812 29.683594 5.582031 29.816406 C 5.527344 29.945312 5.449219 30.0625 5.347656 30.164062 C 5.246094 30.265625 5.128906 30.339844 5 30.394531 C 4.867188 30.449219 4.730469 30.476562 4.589844 30.476562 C 4.445312 30.476562 4.308594 30.449219 4.179688 30.394531 C 4.046875 30.339844 3.929688 30.265625 3.828125 30.164062 C 3.730469 30.0625 3.652344 29.945312 3.597656 29.816406 C 3.542969 29.683594 3.515625 29.546875 3.515625 29.40625 C 3.515625 29.261719 3.542969 29.125 3.597656 28.992188 C 3.652344 28.863281 3.730469 28.746094 3.828125 28.644531 C 3.929688 28.542969 4.046875 28.46875 4.179688 28.414062 C 4.308594 28.359375 4.445312 28.332031 4.589844 28.332031 C 4.730469 28.332031 4.867188 28.359375 5 28.414062 C 5.128906 28.46875 5.246094 28.542969 5.347656 28.644531 C 5.449219 28.746094 5.527344 28.863281 5.582031 28.992188 C 5.632812 29.125 5.660156 29.261719 5.660156 29.40625 Z M 5.660156 29.40625 " fill-opacity="1" fill-rule="nonzero"/></svg>