<svg xmlns="http://www.w3.org/2000/svg" xmlns:xlink="http://www.w3.org/1999/xlink" width="500" zoomAndPan="magnify" viewBox="0 0 375 374.999991" height="500" preserveAspectRatio="xMidYMid meet" version="1.0"><path fill="#1d3557" d="M 374.058594 151.246094 C 372.46875 99.894531 351.214844 74.640625 333.667969 62.496094 C 299.722656 38.996094 259.742188 49.550781 252.074219 51.902344 C 219.0625 62.015625 201.15625 89.128906 194.910156 100.488281 C 188 89.242188 168.390625 62.035156 135.328125 51.902344 C 127.660156 49.546875 87.675781 39 53.738281 62.496094 C 36.1875 74.640625 14.933594 99.894531 13.339844 151.257812 L 13.328125 151.714844 C 4.902344 157.433594 -0.0664062 168.945312 0 177.421875 C 0.152344 196.402344 13.496094 211.265625 13.953125 211.765625 C 14.648438 212.613281 22.652344 222.113281 40.09375 231.183594 C 57.3125 255.933594 82.882812 280.085938 114.222656 301.25 C 113.355469 302.839844 113.09375 304.382812 113.09375 305.652344 C 113.09375 308.539062 114.222656 311.109375 116.449219 313.289062 C 118.238281 315.039062 120.777344 316.523438 124.027344 317.753906 C 123.964844 318.191406 123.855469 318.617188 123.855469 319.070312 C 123.855469 322.097656 125.089844 324.769531 127.523438 327.011719 C 135.207031 334.082031 154.6875 335.570312 169.695312 335.570312 C 178.785156 335.570312 186.230469 335.023438 188.429688 334.847656 C 191.21875 334.984375 216.917969 336.074219 229.679688 329.859375 C 230.527344 329.878906 231.378906 329.894531 232.222656 329.894531 C 262.726562 329.894531 289.667969 318.832031 310.296875 297.796875 C 330.785156 276.910156 338.933594 246.972656 340.148438 242.132812 C 363.25 212.527344 374.980469 181.121094 374.058594 151.246094 Z M 18.457031 207.890625 C 18.332031 207.753906 6.070312 194.042969 5.9375 177.378906 C 5.886719 170.769531 9.773438 161.429688 16.238281 156.816406 C 24.441406 161.726562 61.835938 180.402344 144.019531 171.46875 C 142.285156 182.964844 137.992188 216.972656 143.804688 240.773438 C 54.300781 250.144531 18.90625 208.4375 18.457031 207.890625 Z M 51.234375 236.308594 C 67.359375 242.839844 89.191406 248.117188 117.746094 248.117188 C 126.949219 248.117188 136.871094 247.5625 147.496094 246.332031 L 152.890625 247.171875 C 157.160156 250.28125 163.371094 252.519531 169.492188 254.691406 C 170.394531 255.007812 171.3125 255.339844 172.230469 255.667969 C 153.210938 254.488281 121.257812 254.019531 111.246094 263.023438 C 108.9375 265.097656 107.714844 267.691406 107.714844 270.515625 C 107.714844 273.644531 108.996094 276.410156 111.515625 278.734375 C 112.765625 279.882812 114.335938 280.875 116.109375 281.753906 C 111.566406 284.566406 110.40625 287.96875 110.40625 290.683594 C 110.40625 290.945312 110.46875 291.183594 110.488281 291.441406 C 86.480469 274.394531 66.28125 255.613281 51.234375 236.308594 Z M 189.738281 175.1875 C 190.335938 176.175781 191.429688 176.738281 192.59375 176.605469 C 209.453125 174.800781 255.476562 172.171875 265.878906 181.519531 C 267.371094 182.859375 267.542969 184.035156 267.542969 184.800781 C 267.542969 186.332031 266.90625 187.632812 265.546875 188.882812 C 255.710938 197.933594 217.570312 196.933594 203.703125 195.785156 C 202.015625 195.605469 200.632812 196.863281 200.5 198.496094 C 200.363281 200.132812 201.578125 201.566406 203.210938 201.699219 C 205.277344 201.875 213.621094 202.507812 223.855469 202.507812 C 234.277344 202.507812 246.652344 201.839844 256.40625 199.363281 C 259.8125 200.390625 264.746094 202.4375 264.746094 205.75 C 264.746094 207.171875 264.160156 208.375 262.890625 209.539062 C 253.550781 218.136719 217.234375 217.167969 204.027344 216.078125 C 202.359375 215.890625 200.960938 217.15625 200.824219 218.789062 C 200.6875 220.425781 201.898438 221.859375 203.535156 221.992188 C 205.507812 222.160156 213.453125 222.765625 223.210938 222.765625 C 235.339844 222.765625 250.25 221.8125 260.015625 217.941406 C 261.710938 219.277344 261.953125 220.464844 261.953125 221.292969 C 261.953125 222.640625 261.421875 223.789062 260.285156 224.90625 C 254.992188 230.078125 238.347656 232.761719 214.695312 232.257812 C 214.671875 232.257812 214.652344 232.257812 214.632812 232.257812 C 213.023438 232.257812 211.703125 233.546875 211.664062 235.164062 C 211.628906 236.804688 212.933594 238.164062 214.574219 238.195312 C 216.410156 238.234375 218.296875 238.257812 220.21875 238.257812 C 230.546875 238.257812 241.800781 237.605469 250.753906 235.46875 C 250.464844 240.824219 240.464844 244.5625 223.152344 245.792969 C 215.738281 240.042969 203.792969 232.652344 191.398438 232.652344 C 184.679688 232.652344 178.015625 231.257812 172.140625 230.023438 C 161.867188 227.878906 152.160156 225.863281 148.496094 234.085938 C 144.253906 209.285156 149.371094 175.527344 150.34375 169.546875 C 153.746094 166.355469 170.4375 151.535156 186.695312 151.535156 C 194.300781 151.535156 201.542969 150.019531 207.933594 148.679688 C 219.175781 146.324219 224.257812 145.714844 225.847656 149.671875 C 226.460938 151.195312 226.179688 152.148438 225.914062 152.734375 C 224.09375 156.757812 214.84375 160.035156 207.417969 162.667969 C 199.425781 165.5 192.527344 167.941406 189.8125 172.007812 C 189.167969 172.957031 189.140625 174.203125 189.738281 175.1875 Z M 188.550781 328.902344 C 188.421875 328.894531 188.277344 328.894531 188.140625 328.90625 C 175.4375 329.960938 140.507812 330.890625 131.546875 322.636719 C 130.480469 321.660156 129.949219 320.640625 129.839844 319.492188 C 137.132812 321.21875 146.777344 322.09375 158.765625 322.09375 C 160.585938 322.09375 162.46875 322.074219 164.394531 322.03125 C 166.035156 321.996094 167.335938 320.636719 167.300781 319 C 167.265625 317.359375 165.972656 316.15625 164.269531 316.09375 C 141.554688 316.570312 125.660156 313.996094 120.601562 309.042969 C 119.527344 307.992188 119.027344 306.914062 119.027344 305.644531 C 119.027344 304.882812 119.257812 303.785156 120.808594 302.542969 C 130.238281 306.261719 144.578125 307.171875 156.242188 307.171875 C 165.636719 307.171875 173.277344 306.589844 175.179688 306.429688 C 176.8125 306.292969 178.027344 304.859375 177.890625 303.226562 C 177.757812 301.589844 176.371094 300.339844 174.6875 300.515625 C 161.988281 301.566406 127.0625 302.496094 118.09375 294.246094 C 116.898438 293.144531 116.339844 292.011719 116.339844 290.675781 C 116.339844 287.566406 121.019531 285.625 124.261719 284.644531 C 133.664062 287.023438 145.578125 287.667969 155.613281 287.667969 C 165.46875 287.667969 173.496094 287.054688 175.492188 286.886719 C 177.125 286.753906 178.339844 285.316406 178.203125 283.683594 C 178.066406 282.050781 176.65625 280.804688 175 280.972656 C 161.660156 282.074219 124.980469 283.050781 115.535156 274.359375 C 114.25 273.175781 113.648438 271.949219 113.648438 270.507812 C 113.648438 269.792969 113.8125 268.691406 115.210938 267.433594 C 125.191406 258.460938 169.472656 260.996094 185.6875 262.722656 C 186.863281 262.84375 187.949219 262.292969 188.546875 261.308594 C 189.140625 260.320312 189.113281 259.078125 188.476562 258.121094 C 185.839844 254.179688 179.183594 251.820312 171.46875 249.089844 C 164.335938 246.558594 155.453125 243.414062 153.71875 239.582031 C 153.453125 238.992188 153.222656 238.132812 153.789062 236.714844 C 155.285156 232.980469 160.15625 233.578125 170.910156 235.828125 C 177.070312 237.121094 184.054688 238.582031 191.382812 238.582031 C 206.929688 238.582031 222.621094 252.855469 225.832031 255.941406 C 226.925781 262.25 233.136719 300.800781 226.554688 324.753906 C 214.578125 330.238281 188.824219 328.914062 188.550781 328.902344 Z M 306.058594 293.632812 C 282.058594 318.105469 253.695312 323.808594 232.910156 323.945312 C 238.28125 301.144531 233.972656 269.023438 232.1875 257.875 C 285.601562 263.496094 314.875 253.0625 332.902344 245.839844 C 329.707031 256.054688 321.511719 277.878906 306.058594 293.632812 Z M 229.941406 251.640625 C 229.792969 251.492188 229.644531 251.355469 229.453125 251.171875 C 247.761719 249.09375 256.714844 243.859375 256.714844 235.230469 C 256.714844 234.71875 256.664062 234.222656 256.589844 233.730469 C 259.828125 232.519531 262.53125 231.015625 264.4375 229.144531 C 266.726562 226.902344 267.890625 224.257812 267.890625 221.289062 C 267.890625 219.523438 267.375 217.246094 265.5 215.03125 C 266 214.671875 266.480469 214.300781 266.910156 213.902344 C 269.417969 211.597656 270.6875 208.855469 270.6875 205.742188 C 270.6875 202.921875 269.460938 199.375 264.636719 196.457031 C 266.550781 195.527344 268.234375 194.472656 269.566406 193.25 C 272.160156 190.859375 273.476562 188.015625 273.476562 184.796875 C 273.476562 181.894531 272.222656 179.230469 269.84375 177.097656 C 259.339844 167.65625 225.449219 168.28125 205.808594 169.542969 C 207.003906 169.105469 208.214844 168.675781 209.398438 168.257812 C 218.769531 164.933594 228.460938 161.503906 231.324219 155.171875 C 232.421875 152.742188 232.433594 150.144531 231.355469 147.453125 C 227.75 138.449219 217.527344 140.589844 206.714844 142.859375 C 200.605469 144.140625 193.679688 145.589844 186.691406 145.589844 C 168.074219 145.589844 150.09375 161.59375 146.253906 165.230469 C 64.046875 174.6875 26.421875 155.859375 19.269531 151.679688 L 19.277344 151.429688 C 20.792969 102.558594 40.6875 78.746094 57.113281 67.375 C 88.792969 45.441406 126.367188 55.363281 133.585938 57.574219 C 172.363281 69.460938 192.230469 107.707031 192.421875 108.09375 C 192.945312 109.117188 194.027344 109.726562 195.15625 109.714844 C 196.304688 109.683594 197.328125 108.992188 197.789062 107.941406 C 197.960938 107.558594 215.050781 69.457031 253.808594 57.578125 C 261.023438 55.367188 298.601562 45.445312 330.28125 67.378906 C 346.707031 78.746094 366.601562 102.558594 368.121094 151.441406 C 369 179.871094 357.726562 209.914062 335.542969 238.375 L 333.507812 239.195312 C 315.972656 246.292969 286.664062 258.125 229.941406 251.640625 Z M 229.941406 251.640625 " fill-opacity="1" fill-rule="nonzero"/></svg>