<svg xmlns="http://www.w3.org/2000/svg" xmlns:xlink="http://www.w3.org/1999/xlink" width="500" zoomAndPan="magnify" viewBox="0 0 375 374.999991" height="500" preserveAspectRatio="xMidYMid meet" version="1.0"><path fill="#1d3557" d="M 373.148438 367.578125 C 360.820312 359.566406 349.261719 350.753906 337.019531 341.425781 C 311.171875 321.730469 284.449219 301.363281 250.605469 289.601562 C 240.046875 285.925781 219.773438 281.429688 204.839844 278.339844 C 244.566406 265.828125 278.425781 234.953125 299.660156 215.5625 C 303.386719 212.160156 306.722656 209.113281 309.628906 206.589844 C 316.945312 200.242188 322.6875 194.308594 327.179688 188.664062 C 334.023438 192.84375 351.578125 203.496094 368.9375 213.417969 C 369.574219 213.785156 370.265625 213.953125 370.957031 213.953125 C 372.363281 213.953125 373.738281 213.21875 374.492188 211.90625 C 375.605469 209.953125 374.929688 207.472656 372.972656 206.355469 C 356.132812 196.734375 339.101562 186.414062 331.949219 182.046875 C 339.355469 170.230469 340.183594 159.839844 334.527344 150.320312 C 330.535156 143.597656 326.550781 139.835938 323.347656 137.675781 C 329.265625 130.414062 329.328125 121.878906 323.40625 111.746094 C 320.496094 106.765625 316.789062 101.625 311.957031 98.773438 C 314.554688 94.742188 315.621094 88.980469 314.753906 82.472656 C 313.625 74.046875 309.042969 63.453125 299.542969 58.992188 C 298.230469 58.375 296.6875 58.019531 295.058594 57.78125 C 297.71875 51.648438 298.839844 42.929688 293.386719 33.339844 C 282.574219 14.332031 256.375 18.019531 237.835938 22.6875 C 232.957031 16.976562 219.226562 2.066406 207.757812 0.925781 C 200.191406 0.167969 191.316406 5.992188 187.332031 8.964844 C 172.539062 1.363281 159.792969 3.164062 154.941406 4.339844 C 147.464844 6.15625 140.21875 11.628906 132.539062 17.421875 C 124.816406 23.253906 116.816406 29.289062 109.589844 30.398438 C 103.597656 31.320312 99.332031 33.851562 96.902344 37.917969 C 95.421875 40.402344 94.921875 43.007812 94.847656 45.289062 C 88.515625 44.230469 78.65625 44.308594 70.726562 52.234375 C 64.59375 58.371094 57.753906 68.964844 58.683594 78.628906 C 58.90625 80.925781 59.609375 83.023438 60.664062 84.9375 C 55.875 86.5625 51.773438 89.46875 48.777344 94.074219 C 42.027344 104.449219 39.609375 112.425781 41.183594 119.175781 C 42.0625 122.972656 44.195312 126.257812 47.582031 129.152344 C 47.25 129.445312 46.808594 129.640625 46.515625 129.96875 C 40.769531 136.316406 37.855469 146.054688 39.414062 153.65625 C 39.84375 155.765625 40.683594 157.613281 41.753906 159.265625 C 30.996094 167.988281 30.5625 182.214844 32.4375 191.085938 L 2.632812 210.734375 C 0.757812 211.96875 0.242188 214.492188 1.480469 216.371094 C 2.257812 217.554688 3.554688 218.195312 4.871094 218.195312 C 5.644531 218.195312 6.421875 217.976562 7.113281 217.527344 L 38.472656 196.855469 C 39.191406 196.570312 39.835938 196.136719 40.269531 195.382812 C 40.308594 195.355469 43.488281 192.488281 56.644531 195.296875 C 65.476562 197.171875 72.863281 196.003906 78.65625 191.839844 C 84.046875 187.953125 86.683594 182.355469 87.972656 178.339844 C 92.226562 179.710938 96.125 180.363281 99.484375 180.363281 C 103.996094 180.363281 107.617188 179.335938 110.113281 177.839844 C 113.304688 175.921875 123.003906 165.175781 122.203125 154.195312 C 122.078125 152.523438 121.664062 150.621094 120.769531 148.691406 C 124.855469 147.761719 129.621094 145.425781 133 139.753906 C 139.050781 129.597656 138.441406 120.265625 131.394531 111.492188 C 143.90625 105.65625 146.25 91.148438 145.566406 83.777344 C 145.351562 81.542969 143.300781 79.90625 141.140625 80.105469 C 138.902344 80.316406 137.257812 82.292969 137.464844 84.535156 C 137.480469 84.695312 138.828125 100.882812 126.261719 104.957031 C 125.9375 105.0625 125.679688 105.265625 125.402344 105.441406 C 122.925781 103.355469 120.199219 101.292969 116.929688 99.265625 C 102.28125 90.203125 84.371094 82.875 69.878906 83.324219 C 68.121094 81.851562 66.996094 80.101562 66.777344 77.851562 C 66.167969 71.476562 71.378906 63.085938 76.476562 57.984375 C 83.359375 51.113281 92.6875 52.875 96.429688 53.953125 C 99.320312 62.398438 108.105469 75.359375 125.652344 75.691406 C 125.898438 75.695312 126.136719 75.699219 126.375 75.699219 C 136.738281 75.695312 144.558594 71.480469 151.46875 67.757812 C 159.878906 63.203125 164.972656 60.789062 171.511719 63.953125 C 172.859375 64.601562 174.488281 64.453125 175.6875 63.558594 C 176.015625 63.316406 208.386719 39.511719 229.445312 33.421875 C 253.808594 26.371094 277.570312 21.964844 286.316406 37.359375 C 292.03125 47.410156 287.773438 55.070312 285.738281 57.855469 C 270.101562 59.878906 250.367188 69.28125 247.484375 70.6875 C 245.46875 71.671875 244.632812 74.105469 245.617188 76.125 C 246.613281 78.152344 249.035156 78.980469 251.058594 77.996094 C 260.828125 73.230469 276.378906 67.1875 287.03125 65.808594 C 287.765625 65.9375 288.515625 65.921875 289.210938 65.648438 C 292 65.460938 294.445312 65.585938 296.078125 66.355469 C 302.625 69.429688 305.886719 77.539062 306.691406 83.546875 C 307.398438 88.871094 306.398438 93.703125 304.1875 95.578125 C 303.839844 95.878906 303.59375 96.242188 303.375 96.617188 C 301.75 96.707031 300.0625 96.980469 298.238281 97.636719 C 289.683594 100.6875 271.007812 110.789062 270.210938 111.21875 C 268.242188 112.285156 267.503906 114.753906 268.578125 116.730469 C 269.640625 118.714844 272.121094 119.425781 274.089844 118.367188 C 274.28125 118.265625 293.003906 108.144531 300.972656 105.292969 C 305.808594 103.558594 309.875 104.730469 316.382812 115.851562 C 321.839844 125.191406 320.765625 130.871094 312.425781 136.8125 C 303.703125 143.027344 280.90625 156.089844 280.675781 156.222656 C 278.71875 157.339844 278.046875 159.824219 279.164062 161.777344 C 279.910156 163.085938 281.285156 163.820312 282.691406 163.820312 C 283.382812 163.820312 284.074219 163.648438 284.710938 163.285156 C 285.664062 162.742188 308.089844 149.886719 317.144531 143.4375 C 319.160156 144.40625 323.15625 147.097656 327.535156 154.472656 C 332.246094 162.398438 333.859375 174.792969 304.292969 200.449219 C 301.34375 203.007812 297.960938 206.097656 294.171875 209.554688 C 270.753906 230.9375 231.566406 266.726562 187.222656 274.316406 C 186.601562 274.421875 185.988281 274.605469 185.367188 274.722656 C 185.109375 274.753906 184.867188 274.808594 184.621094 274.890625 C 159.621094 279.839844 135.199219 294.164062 107.0625 310.765625 C 77.621094 328.144531 44.25 347.835938 3.722656 359.835938 C 1.566406 360.476562 0.335938 362.734375 0.972656 364.890625 C 1.496094 366.660156 3.117188 367.804688 4.871094 367.804688 C 5.253906 367.804688 5.644531 367.75 6.023438 367.636719 C 47.515625 355.355469 81.347656 335.386719 111.191406 317.773438 C 138.640625 301.574219 162.46875 287.605469 186.070312 282.890625 C 192.535156 284.128906 232.261719 291.832031 247.9375 297.28125 C 280.546875 308.621094 306.746094 328.589844 332.085938 347.894531 C 343.90625 356.902344 356.132812 366.21875 368.714844 374.398438 C 369.398438 374.84375 370.167969 375.054688 370.933594 375.054688 C 372.257812 375.054688 373.5625 374.402344 374.339844 373.203125 C 375.5625 371.320312 375.03125 368.804688 373.148438 367.578125 Z M 73.847656 185.273438 C 70.003906 188.015625 64.769531 188.710938 58.34375 187.339844 C 49.492188 185.460938 43.71875 185.722656 39.976562 186.722656 C 39.234375 180.644531 39.601562 170.523438 48.003906 164.703125 C 48.207031 164.785156 48.40625 164.863281 48.621094 164.914062 C 48.816406 164.960938 68.398438 169.523438 80.417969 175.285156 C 79.582031 178.132812 77.738281 182.496094 73.847656 185.273438 Z M 105.933594 170.859375 C 103.25 172.472656 95.703125 173.730469 84.550781 168.238281 C 72.632812 162.378906 54.125 157.855469 50.90625 157.09375 C 49.03125 156.117188 47.871094 154.457031 47.378906 152.023438 C 46.339844 146.964844 48.5625 139.832031 52.550781 135.425781 C 54.277344 133.507812 63.347656 128.636719 106.722656 146.667969 C 113.617188 149.53125 113.957031 153.382812 114.078125 154.644531 C 114.664062 161.226562 107.863281 169.613281 105.933594 170.859375 Z M 112.640625 106.183594 C 135.214844 120.15625 128.996094 130.578125 126.007812 135.589844 C 122.011719 142.292969 114.425781 141.078125 114.117188 141.03125 L 114.054688 141.375 C 112.820312 140.585938 111.46875 139.824219 109.851562 139.152344 C 84.121094 128.460938 66.578125 124.070312 55.878906 125.640625 L 56.085938 125.289062 C 52.019531 122.859375 49.804688 120.332031 49.105469 117.335938 C 48.085938 112.949219 50.207031 106.789062 55.59375 98.507812 C 64.394531 84.972656 91.332031 92.988281 112.640625 106.183594 Z M 172.734375 55.648438 C 163.21875 52.195312 155.265625 56.453125 147.609375 60.59375 C 141.101562 64.101562 133.984375 67.65625 125.808594 67.558594 C 108.207031 67.222656 103.796875 50.46875 103.496094 49.367188 C 103.480469 49.324219 102.097656 45.09375 103.894531 42.085938 C 105.011719 40.203125 107.347656 38.976562 110.828125 38.441406 C 120.082031 37.019531 128.90625 30.355469 137.441406 23.914062 C 144.429688 18.644531 151.023438 13.664062 156.863281 12.246094 C 158.847656 11.765625 161.621094 11.304688 164.980469 11.304688 C 175 11.304688 190.203125 15.398438 205.097656 35.214844 C 190.933594 42.847656 177.585938 52.171875 172.734375 55.648438 Z M 212.367188 31.492188 C 212.253906 31.253906 212.121094 31.023438 211.953125 30.800781 C 206.3125 23.203125 200.527344 17.664062 194.890625 13.597656 C 198.808594 11.058594 203.632812 8.722656 206.957031 9.019531 C 213.070312 9.628906 222.4375 17.886719 229.058594 25.070312 C 228.433594 25.25 227.773438 25.4375 227.1875 25.605469 C 222.550781 26.949219 217.496094 29.027344 212.367188 31.492188 Z M 212.367188 31.492188 " fill-opacity="1" fill-rule="nonzero"/></svg>