<svg xmlns="http://www.w3.org/2000/svg" xmlns:xlink="http://www.w3.org/1999/xlink" width="500" zoomAndPan="magnify" viewBox="0 0 375 374.999991" height="500" preserveAspectRatio="xMidYMid meet" version="1.0"><defs><clipPath id="7e93402e3a"><path d="M 21 33.75 L 281 33.75 L 281 76 L 21 76 Z M 21 33.75 " clip-rule="nonzero"/></clipPath><clipPath id="073b395e94"><path d="M 302 303 L 372 303 L 372 341.25 L 302 341.25 Z M 302 303 " clip-rule="nonzero"/></clipPath></defs><path fill="#1d3557" d="M 305.882812 119.597656 C 307.957031 126.011719 308.847656 132.804688 308.316406 139.488281 C 307.71875 147.019531 305.546875 153.316406 303.082031 158.269531 L 322.972656 152.789062 C 325.390625 145.847656 326.496094 138.628906 326.261719 131.304688 C 326.082031 125.695312 325.0625 120.175781 323.324219 114.835938 Z M 305.882812 119.597656 " fill-opacity="1" fill-rule="nonzero"/><path fill="#1d3557" d="M 139.503906 117.917969 C 144.710938 129.964844 148.621094 142.59375 151.132812 155.503906 L 322.871094 108.582031 C 325.546875 99.378906 328.46875 82.59375 322.398438 63.789062 C 317.949219 50.023438 310.328125 40.210938 304.296875 34.085938 L 117.886719 80.777344 C 126.527344 92.265625 133.796875 104.734375 139.503906 117.917969 Z M 139.503906 117.917969 " fill-opacity="1" fill-rule="nonzero"/><g clip-path="url(#7e93402e3a)"><path fill="#1d3557" d="M 280.320312 33.75 L 189.234375 33.75 L 21.132812 75.851562 L 112.21875 75.851562 Z M 280.320312 33.75 " fill-opacity="1" fill-rule="nonzero"/></g><path fill="#1d3557" d="M 357.316406 214.703125 L 311.296875 214.703125 L 301.496094 237.605469 L 347.285156 248.191406 Z M 357.316406 214.703125 " fill-opacity="1" fill-rule="nonzero"/><path fill="#1d3557" d="M 21.21875 134.886719 L 21.21875 82.003906 L 0.695312 82.003906 Z M 21.21875 134.886719 " fill-opacity="1" fill-rule="nonzero"/><path fill="#1d3557" d="M 260.675781 169.910156 C 260.714844 169.90625 260.75 169.925781 260.785156 169.921875 L 294.648438 160.59375 C 297.796875 155.890625 301.433594 148.5625 302.1875 139.003906 C 302.660156 133.027344 301.84375 126.945312 299.953125 121.222656 L 168.605469 157.105469 C 170.53125 163.015625 171.660156 169.125 171.859375 175.339844 C 172.074219 182.03125 171.28125 188.648438 169.480469 195.078125 L 259.5 170.277344 C 259.851562 170.082031 260.25 169.953125 260.675781 169.910156 Z M 260.675781 169.910156 " fill-opacity="1" fill-rule="nonzero"/><path fill="#1d3557" d="M 213.707031 189.269531 L 203.851562 191.988281 C 210.0625 204.421875 222.980469 212.574219 237.019531 212.574219 C 257.457031 212.574219 274.082031 195.917969 274.082031 175.4375 C 274.082031 174.515625 274.035156 173.589844 273.96875 172.667969 L 264.175781 175.363281 C 264.175781 175.386719 264.179688 175.410156 264.179688 175.433594 C 264.179688 190.429688 251.996094 202.636719 237.019531 202.636719 C 227.417969 202.636719 218.558594 197.445312 213.707031 189.269531 Z M 213.707031 189.269531 " fill-opacity="1" fill-rule="nonzero"/><path fill="#1d3557" d="M 346.328125 254.28125 L 244.355469 230.707031 C 242.964844 230.386719 241.976562 229.140625 241.976562 227.710938 L 241.976562 218.722656 L 212 218.722656 L 212 241.714844 L 346.332031 295.546875 L 346.332031 254.28125 Z M 346.328125 254.28125 " fill-opacity="1" fill-rule="nonzero"/><path fill="#1d3557" d="M 257.945312 177.082031 L 219.898438 187.566406 C 223.796875 193.0625 230.164062 196.488281 237.019531 196.488281 C 248.054688 196.488281 257.101562 187.921875 257.945312 177.082031 Z M 257.945312 177.082031 " fill-opacity="1" fill-rule="nonzero"/><path fill="#1d3557" d="M 214.953125 212.574219 C 208.863281 208.933594 203.675781 203.820312 199.960938 197.648438 L 199.960938 212.574219 Z M 214.953125 212.574219 " fill-opacity="1" fill-rule="nonzero"/><path fill="#1d3557" d="M 167.851562 212.574219 L 193.808594 212.574219 L 193.808594 194.753906 L 167.851562 201.902344 Z M 167.851562 212.574219 " fill-opacity="1" fill-rule="nonzero"/><path fill="#1d3557" d="M 149.53125 162.320312 C 149.261719 162.390625 148.988281 162.425781 148.71875 162.425781 C 148.140625 162.425781 147.566406 162.261719 147.074219 161.945312 C 146.339844 161.484375 145.839844 160.734375 145.6875 159.882812 C 143.304688 146.292969 139.328125 132.992188 133.855469 120.359375 C 127.929688 106.664062 120.242188 93.785156 111.050781 82.003906 L 27.371094 82.003906 L 27.371094 150.695312 L 46.414062 196.488281 L 162.539062 196.488281 C 164.832031 189.703125 165.941406 182.675781 165.710938 175.539062 C 165.523438 169.804688 164.46875 164.171875 162.660156 158.730469 Z M 96.019531 183.921875 C 92.511719 185.144531 88.835938 185.75 85.105469 185.75 C 79.664062 185.75 74.117188 184.457031 68.828125 181.902344 C 57.355469 176.355469 48.113281 165.515625 43.46875 152.15625 C 34.910156 127.523438 44.550781 101.6875 64.957031 94.570312 C 73.574219 91.5625 83.230469 92.28125 92.140625 96.585938 C 103.617188 102.136719 112.859375 112.976562 117.507812 126.335938 C 126.066406 150.96875 116.425781 176.800781 96.019531 183.921875 Z M 96.019531 183.921875 " fill-opacity="1" fill-rule="nonzero"/><path fill="#1d3557" d="M 208.332031 246.871094 L 179.875 246.871094 L 297.855469 297.015625 L 333.464844 297.015625 Z M 208.332031 246.871094 " fill-opacity="1" fill-rule="nonzero"/><path fill="#1d3557" d="M 167.851562 218.722656 L 205.847656 218.722656 L 205.847656 240.722656 L 167.851562 240.722656 Z M 167.851562 218.722656 " fill-opacity="1" fill-rule="nonzero"/><path fill="#1d3557" d="M 363.734375 214.703125 L 352.480469 252.289062 L 352.480469 299.199219 L 374.425781 333.75 L 374.425781 214.703125 Z M 363.734375 214.703125 " fill-opacity="1" fill-rule="nonzero"/><g clip-path="url(#073b395e94)"><path fill="#1d3557" d="M 302.824219 303.167969 L 327.011719 341.25 L 371.902344 341.25 L 347.714844 303.167969 Z M 302.824219 303.167969 " fill-opacity="1" fill-rule="nonzero"/></g><path fill="#1d3557" d="M 85.078125 114.058594 C 82.265625 112.699219 79.421875 112.011719 76.664062 112.011719 C 74.839844 112.011719 73.054688 112.308594 71.339844 112.910156 C 60.398438 116.726562 55.605469 131.648438 60.648438 146.171875 C 63.539062 154.492188 69.101562 161.148438 75.898438 164.4375 C 80.566406 166.695312 85.316406 167.089844 89.640625 165.585938 C 100.582031 161.769531 105.375 146.847656 100.328125 132.320312 C 97.4375 124 91.875 117.34375 85.078125 114.058594 Z M 84.84375 151.777344 C 80.65625 153.238281 75.316406 148.808594 72.90625 141.890625 C 70.503906 134.96875 71.945312 128.175781 76.132812 126.714844 C 80.320312 125.253906 85.664062 129.683594 88.070312 136.601562 C 90.472656 143.519531 89.027344 150.316406 84.84375 151.777344 Z M 84.84375 151.777344 " fill-opacity="1" fill-rule="nonzero"/><path fill="#1d3557" d="M 111.699219 128.355469 C 107.582031 116.527344 99.480469 106.960938 89.464844 102.121094 C 84.976562 99.953125 80.402344 98.859375 75.925781 98.859375 C 72.886719 98.859375 69.882812 99.363281 66.984375 100.375 C 49.773438 106.382812 41.832031 128.703125 49.277344 150.136719 C 53.390625 161.960938 61.492188 171.523438 71.507812 176.367188 C 79.050781 180.007812 86.824219 180.613281 93.996094 178.113281 C 111.203125 172.113281 119.144531 149.789062 111.699219 128.355469 Z M 91.664062 171.390625 C 89.316406 172.207031 86.855469 172.613281 84.347656 172.613281 C 80.644531 172.613281 76.847656 171.726562 73.21875 169.972656 C 64.964844 165.980469 58.265625 158.042969 54.839844 148.1875 C 48.683594 130.46875 55.171875 112.035156 69.3125 107.101562 C 75.128906 105.070312 81.675781 105.574219 87.757812 108.519531 C 96.011719 112.511719 102.710938 120.449219 106.136719 130.300781 C 112.292969 148.027344 105.804688 166.457031 91.664062 171.390625 Z M 91.664062 171.390625 " fill-opacity="1" fill-rule="nonzero"/></svg>