<?xml version="1.0" encoding="UTF-8" standalone="no"?>
<!-- Created with Inkscape (http://www.inkscape.org/) -->

<svg
   version="1.1"
   id="svg1"
   width="739.06281"
   height="905.65839"
   viewBox="0 0 739.06281 905.65839"
   sodipodi:docname="hillspetfood.svg"
   inkscape:version="1.3.2 (091e20e, 2023-11-25, custom)"
   xmlns:inkscape="http://www.inkscape.org/namespaces/inkscape"
   xmlns:sodipodi="http://sodipodi.sourceforge.net/DTD/sodipodi-0.dtd"
   xmlns="http://www.w3.org/2000/svg"
   xmlns:svg="http://www.w3.org/2000/svg">
  <defs
     id="defs1">
    <clipPath
       clipPathUnits="userSpaceOnUse"
       id="clipPath3">
      <path
         d="M 0,792 H 612 V 0 H 0 Z"
         transform="translate(-547.41022,-538.63871)"
         id="path3" />
    </clipPath>
    <clipPath
       clipPathUnits="userSpaceOnUse"
       id="clipPath5">
      <path
         d="M 0,792 H 612 V 0 H 0 Z"
         transform="translate(-547.41022,-538.63871)"
         id="path5" />
    </clipPath>
    <clipPath
       clipPathUnits="userSpaceOnUse"
       id="clipPath7">
      <path
         d="M 0,792 H 612 V 0 H 0 Z"
         transform="translate(-448.19631,-527.15531)"
         id="path7" />
    </clipPath>
    <clipPath
       clipPathUnits="userSpaceOnUse"
       id="clipPath9">
      <path
         d="M 0,792 H 612 V 0 H 0 Z"
         transform="translate(-312.47751,-472.10251)"
         id="path9" />
    </clipPath>
    <clipPath
       clipPathUnits="userSpaceOnUse"
       id="clipPath11">
      <path
         d="M 0,792 H 612 V 0 H 0 Z"
         transform="translate(-321.30961,-480.05181)"
         id="path11" />
    </clipPath>
    <clipPath
       clipPathUnits="userSpaceOnUse"
       id="clipPath13">
      <path
         d="M 0,792 H 612 V 0 H 0 Z"
         transform="translate(-468.50981,-553.06351)"
         id="path13" />
    </clipPath>
    <clipPath
       clipPathUnits="userSpaceOnUse"
       id="clipPath15">
      <path
         d="M 0,792 H 612 V 0 H 0 Z"
         transform="translate(-502.66021,-554.83111)"
         id="path15" />
    </clipPath>
    <clipPath
       clipPathUnits="userSpaceOnUse"
       id="clipPath17">
      <path
         d="M 0,792 H 612 V 0 H 0 Z"
         transform="translate(-448.19631,-552.17971)"
         id="path17" />
    </clipPath>
    <clipPath
       clipPathUnits="userSpaceOnUse"
       id="clipPath19">
      <path
         d="M 0,792 H 612 V 0 H 0 Z"
         transform="translate(-448.19631,-581.91502)"
         id="path19" />
    </clipPath>
    <clipPath
       clipPathUnits="userSpaceOnUse"
       id="clipPath21">
      <path
         d="M 0,792 H 612 V 0 H 0 Z"
         transform="translate(-457.02731,-590.74711)"
         id="path21" />
    </clipPath>
    <clipPath
       clipPathUnits="userSpaceOnUse"
       id="clipPath23">
      <path
         d="M 0,792 H 612 V 0 H 0 Z"
         transform="translate(-448.19631,-572.20021)"
         id="path23" />
    </clipPath>
    <clipPath
       clipPathUnits="userSpaceOnUse"
       id="clipPath25">
      <path
         d="M 0,792 H 612 V 0 H 0 Z"
         transform="translate(-278.32621,-525.38962)"
         id="path25" />
    </clipPath>
    <clipPath
       clipPathUnits="userSpaceOnUse"
       id="clipPath27">
      <path
         d="M 0,792 H 612 V 0 H 0 Z"
         transform="translate(-278.32621,-581.91502)"
         id="path27" />
    </clipPath>
    <clipPath
       clipPathUnits="userSpaceOnUse"
       id="clipPath29">
      <path
         d="M 0,792 H 612 V 0 H 0 Z"
         transform="translate(-278.32621,-581.91502)"
         id="path29" />
    </clipPath>
    <clipPath
       clipPathUnits="userSpaceOnUse"
       id="clipPath31">
      <path
         d="M 0,792 H 612 V 0 H 0 Z"
         transform="translate(-390.19921,-320.19141)"
         id="path31" />
    </clipPath>
    <clipPath
       clipPathUnits="userSpaceOnUse"
       id="clipPath33">
      <path
         d="M 0,792 H 612 V 0 H 0 Z"
         transform="translate(-298.05031,-313.71391)"
         id="path33" />
    </clipPath>
    <clipPath
       clipPathUnits="userSpaceOnUse"
       id="clipPath35">
      <path
         d="M 0,792 H 612 V 0 H 0 Z"
         transform="translate(-269.1997,-296.34471)"
         id="path35" />
    </clipPath>
    <clipPath
       clipPathUnits="userSpaceOnUse"
       id="clipPath37">
      <path
         d="M 0,792 H 612 V 0 H 0 Z"
         transform="translate(-228.86671,-302.82131)"
         id="path37" />
    </clipPath>
    <clipPath
       clipPathUnits="userSpaceOnUse"
       id="clipPath39">
      <path
         d="M 0,792 H 612 V 0 H 0 Z"
         transform="translate(-281.85841,-216.85551)"
         id="path39" />
    </clipPath>
    <clipPath
       clipPathUnits="userSpaceOnUse"
       id="clipPath41">
      <path
         d="M 0,792 H 612 V 0 H 0 Z"
         transform="translate(-410.51371,-316.95311)"
         id="path41" />
    </clipPath>
    <clipPath
       clipPathUnits="userSpaceOnUse"
       id="clipPath43">
      <path
         d="M 0,792 H 612 V 0 H 0 Z"
         transform="translate(-483.23051,-280.15231)"
         id="path43" />
    </clipPath>
    <clipPath
       clipPathUnits="userSpaceOnUse"
       id="clipPath45">
      <path
         d="M 0,792 H 612 V 0 H 0 Z"
         transform="translate(-464.32031,-310.87211)"
         id="path45" />
    </clipPath>
    <clipPath
       clipPathUnits="userSpaceOnUse"
       id="clipPath47">
      <path
         d="M 0,792 H 612 V 0 H 0 Z"
         transform="translate(-466.79301,-318.95801)"
         id="path47" />
    </clipPath>
  </defs>
  <sodipodi:namedview
     id="namedview1"
     pagecolor="#eceff4"
     bordercolor="#000000"
     borderopacity="0.25"
     inkscape:showpageshadow="2"
     inkscape:pageopacity="0.0"
     inkscape:pagecheckerboard="0"
     inkscape:deskcolor="#d1d1d1"
     inkscape:zoom="0.73579545"
     inkscape:cx="232.40154"
     inkscape:cy="428.78764"
     inkscape:window-width="1920"
     inkscape:window-height="991"
     inkscape:window-x="-9"
     inkscape:window-y="-9"
     inkscape:window-maximized="1"
     inkscape:current-layer="layer-MC0">
    <inkscape:page
       x="0"
       y="0"
       inkscape:label="1"
       id="page1"
       width="739.06281"
       height="905.65839"
       margin="191.39999 50.792 191.39999 50.791599"
       bleed="0" />
  </sodipodi:namedview>
  <g
     id="layer-MC0"
     inkscape:groupmode="layer"
     inkscape:label="Layer 1"
     transform="translate(-53.777477,-76.937207)">
    <path
       id="path2"
       d="M 0,0 C -9.716,0.293 -19.432,0.588 -29.146,0.293 -49.46,0 -70.067,-1.473 -90.383,-4.711 c -2.943,-0.59 -5.888,-0.884 -8.831,-1.472 -42.982,-7.36 -85.671,-21.492 -126.887,-41.511 -2.944,-1.473 -5.887,-2.945 -8.832,-4.416 -8.539,-4.415 -16.781,-8.832 -25.319,-13.838 -2.944,-1.765 -5.888,-3.237 -8.832,-5.298 -43.572,-25.907 -85.671,-59.47 -127.182,-99.803 -2.944,-2.648 -5.888,-5.594 -8.832,-8.537 -5.594,-5.889 -11.187,-11.482 -16.781,-17.37 -0.294,-0.294 -0.884,-0.883 -1.178,-1.473 -2.65,-2.649 -5.004,-5.298 -7.654,-8.243 -0.294,0 -0.883,-0.294 -0.883,-0.882 l 10.303,9.42 c 0.295,0.295 0.59,0.884 0.884,1.178 7.36,7.359 12.365,12.365 14.72,14.721 2.65,2.649 5.594,5.592 8.832,8.538 42.1,40.332 84.788,73.6 127.771,99.507 2.944,2.06 5.888,3.533 8.832,5.298 8.538,5.005 16.78,9.422 25.319,13.838 2.945,1.472 5.888,2.944 8.832,4.415 41.216,20.02 83.905,34.152 126.887,41.512 2.943,0.295 5.888,0.883 8.831,1.472 7.655,1.177 15.015,2.06 22.67,2.944 C -45.633,-1.473 -22.963,0 0,0"
       style="fill:#6f7ec8;fill-opacity:1;fill-rule:nonzero;stroke:none"
       transform="matrix(1.3333333,0,0,-1.3333333,729.88027,337.81507)"
       clip-path="url(#clipPath3)" />
    <path
       id="path4"
       d="m 0,0 c -22.963,0 -45.633,-1.473 -67.713,-4.711 -7.655,-1.472 -15.015,-2.944 -22.67,-4.416 -2.943,-0.884 -5.888,-1.472 -8.831,-2.356 v -162.214 h -126.887 l -8.832,-8.833 h 144.55 v 169.575 c 22.375,4.711 45.045,8.539 67.42,10.304 10.597,1.178 21.196,1.766 32.089,2.061 C 6.182,-0.295 3.238,-0.295 0,0"
       style="fill:#1b2b45;fill-opacity:1;fill-rule:nonzero;stroke:none"
       transform="matrix(1.3333333,0,0,-1.3333333,729.88027,337.81507)"
       clip-path="url(#clipPath5)" />
    <path
       id="path6"
       d="M 0,0 C 2.943,0.885 5.888,1.473 8.831,2.356 16.486,3.828 23.846,5.301 31.501,6.772 23.846,5.889 16.486,5.006 8.831,3.828 5.888,3.239 2.943,2.651 0,2.356 c -42.982,-7.36 -85.671,-21.492 -126.887,-41.511 -2.944,-1.472 -5.887,-2.944 -8.832,-4.415 -8.539,-4.416 -16.781,-8.833 -25.319,-13.838 -2.944,-1.766 -5.888,-3.238 -8.832,-5.299 -42.983,-25.906 -85.671,-59.175 -127.771,-99.507 h 127.771 v 91.264 c 2.944,1.765 5.888,3.827 8.832,5.3 8.538,5.004 16.78,9.421 25.319,14.129 2.945,1.473 5.888,2.945 8.832,4.417 v -115.11 H 0 Z"
       style="fill:#1b2b45;fill-opacity:1;fill-rule:nonzero;stroke:none;stroke-width:0;stroke-dasharray:none"
       transform="matrix(1.3333333,0,0,-1.3333333,597.59507,353.12627)"
       clip-path="url(#clipPath7)" />
    <path
       id="path8"
       d="M 0,0 8.832,7.949 C 5.888,6.477 2.944,5.005 0,3.532 c -8.539,-4.709 -16.782,-9.126 -25.319,-14.13 -2.944,-1.472 -5.888,-3.534 -8.832,-5.299 v -91.264 h -127.771 c -3.238,-2.945 -6.182,-5.889 -8.832,-8.538 -2.356,-2.356 -7.36,-7.362 -14.72,-14.721 -0.294,-0.294 -0.589,-0.883 -0.884,-1.178 0.295,0.295 0.59,0.884 1.178,1.178 8.832,7.948 14.721,12.659 17.37,14.426 H -25.319 V -13.543 C -16.782,-8.832 -8.539,-4.121 0,0"
       style="fill:#1b2b45;fill-opacity:1;fill-rule:nonzero;stroke:none"
       transform="matrix(1.3333333,0,0,-1.3333333,416.63667,426.53)"
       clip-path="url(#clipPath9)" />
    <path
       id="path10"
       d="M 0,0 -8.832,-7.949 V -123.943 L 0,-115.11 Z"
       style="fill:#515b90;fill-opacity:1;fill-rule:nonzero;stroke:none"
       transform="matrix(1.3333333,0,0,-1.3333333,428.4128,415.93093)"
       clip-path="url(#clipPath11)" />
    <path
       id="path12"
       d="M 0,0 C 11.188,0.883 22.669,1.473 34.15,1.768 16.486,2.65 -0.589,2.061 -17.663,-0.589 h -0.295 c -0.884,-0.295 -1.473,-0.295 -2.355,-0.295 -42.1,-5.887 -84.789,-19.429 -126.887,-40.037 -2.945,-1.179 -5.888,-2.651 -8.832,-4.123 -8.539,-4.416 -16.782,-8.832 -25.32,-13.542 -2.943,-1.767 -5.887,-3.533 -8.832,-5.3 -42.394,-25.319 -84.787,-57.702 -127.182,-96.857 -2.944,-2.945 -5.888,-5.594 -8.832,-8.243 -3.826,-3.828 -7.654,-7.655 -11.776,-11.483 -9.421,-10.01 -19.136,-20.313 -28.851,-30.912 -0.294,-0.294 -0.589,-0.883 -1.178,-1.473 -2.355,-2.649 -4.71,-5.297 -7.065,-8.243 -2.944,-2.943 -5.888,-6.182 -8.832,-9.421 -0.295,-0.586 -0.589,-0.882 -1.178,-1.176 -1.767,-2.356 -3.533,-4.712 -5.005,-7.067 2.061,2.651 4.122,5.006 6.183,7.361 3.238,3.533 6.477,7.065 9.715,10.303 2.354,2.946 5.299,5.594 7.654,8.243 0.589,0.59 0.884,1.179 1.178,1.473 1.767,1.472 3.238,3.532 5.005,5.004 7.36,7.95 14.72,15.31 22.374,22.964 3.828,3.827 7.655,7.654 11.776,11.482 2.944,2.65 5.888,5.298 8.832,8.243 42.395,39.745 84.788,72.129 127.182,97.448 2.945,1.766 5.889,3.532 8.832,5.004 8.538,5.006 16.781,9.422 25.32,13.838 2.944,1.471 5.887,2.943 8.832,4.416 42.098,20.607 84.787,34.151 126.887,40.334 2.943,0.293 5.887,0.882 8.831,1.471 C -7.654,-0.884 -3.827,-0.589 0,0"
       style="fill:#1b2b45;fill-opacity:1;fill-rule:nonzero;stroke:none"
       transform="matrix(1.3333333,0,0,-1.3333333,624.67973,318.582)"
       clip-path="url(#clipPath13)" />
    <path
       id="path14"
       d="m 0,0 c -4.71,0.293 -9.42,0.588 -13.836,1.177 -10.893,0.588 -21.197,0.588 -31.797,0.295 h -8.831 c -42.688,-2.652 -85.082,-13.248 -126.887,-32.385 -2.944,-1.179 -5.887,-2.65 -8.832,-4.122 -8.539,-3.827 -16.781,-8.243 -25.319,-12.953 -2.944,-1.767 -5.888,-3.533 -8.832,-5.005 -42.983,-25.613 -85.376,-59.765 -127.182,-102.748 -2.944,-3.238 -5.888,-6.181 -8.832,-9.42 -14.131,-15.014 -28.262,-30.911 -42.099,-47.987 -0.59,-0.294 -0.884,-0.883 -1.178,-1.473 -0.589,-0.293 -0.884,-0.882 -1.472,-1.766 -1.766,-2.06 -3.533,-4.122 -5.3,-6.477 -2.354,-2.944 -5.004,-6.183 -7.654,-9.126 -0.295,-0.589 -0.589,-1.178 -1.178,-1.472 0.589,0.294 0.883,0.59 1.178,1.177 2.945,3.238 5.888,6.477 8.833,9.421 2.355,2.945 4.709,5.593 7.065,8.243 0.589,0.59 0.883,1.179 1.178,1.473 9.715,10.598 19.43,20.902 28.85,30.912 4.123,4.122 7.656,8.538 11.777,12.66 2.944,3.238 5.888,6.181 8.832,9.126 41.806,43.276 84.199,77.721 127.182,103.041 2.944,1.765 5.888,3.827 8.832,5.299 8.538,5.005 16.78,9.422 25.319,13.248 2.945,1.472 5.888,2.944 8.832,4.121 41.805,19.137 84.199,30.03 126.887,32.09 0.883,0.295 1.472,0.295 2.356,0.295 h 0.295 C -34.739,0.293 -17.664,0.883 0,0"
       style="fill:#1b2b45;fill-opacity:1;fill-rule:nonzero;stroke:none"
       transform="matrix(1.3333333,0,0,-1.3333333,670.2136,316.2252)"
       clip-path="url(#clipPath15)" />
    <path
       id="path16"
       d="m 0,0 v 0 c -42.688,-2.06 -85.082,-12.953 -126.887,-32.09 -2.944,-1.177 -5.887,-2.648 -8.832,-4.121 -8.539,-3.826 -16.781,-8.243 -25.319,-13.248 -2.944,-1.472 -5.888,-3.533 -8.832,-5.299 -42.983,-25.319 -85.377,-59.764 -127.182,-103.041 -2.945,-2.944 -5.888,-5.888 -8.832,-9.126 -4.121,-4.122 -7.654,-8.538 -11.777,-12.66 4.123,3.828 7.95,7.654 11.777,11.482 2.944,2.65 5.887,5.299 8.832,8.244 42.394,39.155 84.788,71.538 127.182,96.857 2.944,1.767 5.888,3.533 8.832,5.3 8.538,4.71 16.78,9.126 25.319,13.542 2.945,1.472 5.888,2.944 8.832,4.123 C -84.788,-19.43 -42.1,-5.888 0,0"
       style="fill:#1b2b45;fill-opacity:1;fill-rule:nonzero;stroke:none"
       transform="matrix(1.3333333,0,0,-1.3333333,597.59507,319.7604)"
       clip-path="url(#clipPath17)" />
    <path
       id="path18"
       d="m 0,0 8.831,8.832 h -144.55 v -56.231 l 8.832,11.188 V 0 Z"
       style="fill:#1b2b45;fill-opacity:1;fill-rule:nonzero;stroke:none"
       transform="matrix(1.3333333,0,0,-1.3333333,597.59507,280.11333)"
       clip-path="url(#clipPath19)" />
    <path
       id="path20"
       d="m 0,0 -8.831,-8.832 v -9.715 c -42.689,-0.59 -85.082,-9.421 -126.887,-26.496 l -8.832,-11.188 c 2.945,1.471 5.888,2.65 8.832,4.123 41.805,17.664 84.198,27.084 126.887,28.261 H 0 Z"
       style="fill:#1b2b45;fill-opacity:1;fill-rule:nonzero;stroke:none"
       transform="matrix(1.3333333,0,0,-1.3333333,609.36973,268.3372)"
       clip-path="url(#clipPath21)" />
    <path
       id="path22"
       d="M 0,0 V 9.715 H -126.887 V -26.496 C -85.082,-9.421 -42.688,-0.59 0,0"
       style="fill:#1b2b45;fill-opacity:1;fill-rule:nonzero;stroke:none;stroke-width:0;stroke-dasharray:none"
       transform="matrix(1.3333333,0,0,-1.3333333,597.59507,293.0664)"
       clip-path="url(#clipPath23)" />
    <path
       id="path24"
       d="M 0,0 V 56.525 H -127.182 V -96.563 C -85.376,-55.643 -42.983,-23.258 0,0"
       style="fill:#1b2b45;fill-opacity:1;fill-rule:nonzero;stroke:none;stroke-width:0;stroke-dasharray:none"
       transform="matrix(1.3333333,0,0,-1.3333333,371.1016,355.48053)"
       clip-path="url(#clipPath25)" />
    <path
       id="path26"
       d="m 0,0 v -56.525 c -42.983,-23.258 -85.376,-55.643 -127.182,-96.564 l -8.538,-18.842 c 2.65,2.945 5.594,5.887 8.538,8.831 41.806,41.512 84.199,74.484 127.182,98.626 2.944,1.472 5.888,3.239 8.832,4.71 V 8.832 Z"
       style="fill:#1b2b45;fill-opacity:1;fill-rule:nonzero;stroke:none"
       transform="matrix(1.3333333,0,0,-1.3333333,371.1016,280.11333)"
       clip-path="url(#clipPath27)" />
    <path
       id="path28"
       d="m 0,0 8.832,8.832 h -144.846 v -181.058 l 0.294,0.295 8.538,18.842 V 0 Z"
       style="fill:#1b2b45;fill-opacity:1;fill-rule:nonzero;stroke:none"
       transform="matrix(1.3333333,0,0,-1.3333333,371.1016,280.11333)"
       clip-path="url(#clipPath29)" />
    <path
       id="path30"
       d="m 0,0 -37.685,-6.478 c 7.656,-0.587 11.777,-5.003 12.071,-14.129 v -82.729 c 0,-9.715 -4.12,-14.72 -12.071,-14.72 h 50.049 c -8.243,0 -12.364,5.005 -12.364,14.72 z"
       style="fill:#1b2b45;fill-opacity:1;fill-rule:nonzero;stroke:none"
       transform="matrix(1.3333333,0,0,-1.3333333,520.2656,629.07813)"
       clip-path="url(#clipPath31)" />
    <path
       id="path32"
       d="m 0,0 c 7.95,-0.588 12.071,-5.004 12.366,-14.13 v -82.728 c 0,-9.715 -4.121,-14.72 -12.366,-14.72 h 50.048 c -7.948,0 -12.069,5.005 -12.069,14.72 V 6.478 Z"
       style="fill:#1b2b45;fill-opacity:1;fill-rule:nonzero;stroke:none"
       transform="matrix(1.3333333,0,0,-1.3333333,397.4004,637.7148)"
       clip-path="url(#clipPath33)" />
    <path
       id="path34"
       d="m 0,0 c 3.827,0 6.771,0.884 9.715,3.239 2.651,2.354 3.827,5.005 3.827,8.242 0,2.944 -1.176,5.888 -3.827,7.95 -2.944,2.06 -5.888,3.238 -9.715,3.238 -3.828,0 -7.36,-1.178 -9.715,-3.238 -2.945,-2.062 -4.122,-5.006 -4.122,-7.95 0,-3.237 1.177,-5.888 4.122,-8.242 C -7.36,0.884 -3.828,0 0,0"
       style="fill:#1b2b45;fill-opacity:1;fill-rule:nonzero;stroke:none"
       transform="matrix(1.3333333,0,0,-1.3333333,358.93293,660.87373)"
       clip-path="url(#clipPath35)" />
    <path
       id="path36"
       d="M 0,0 C 0,9.716 4.121,14.426 12.365,14.721 H -37.684 C -29.735,14.426 -25.613,9.716 -25.613,0 V -26.496 H -78.9 V 0 c 0,9.716 4.416,14.426 12.365,14.721 h -50.048 C -108.34,14.426 -104.219,9.716 -104.219,0 v -85.966 c 0,-9.715 -4.121,-14.72 -12.364,-14.72 h 50.048 c -7.949,0 -12.365,5.005 -12.365,14.72 v 49.461 h 53.287 v -49.461 c 0,-9.715 -4.122,-14.72 -12.071,-14.72 H 12.365 C 4.121,-100.686 0,-95.681 0,-85.966 Z"
       style="fill:#1b2b45;fill-opacity:1;fill-rule:nonzero;stroke:none"
       transform="matrix(1.3333333,0,0,-1.3333333,305.1556,652.23827)"
       clip-path="url(#clipPath37)" />
    <path
       id="path38"
       d="M 0,0 V 66.241 L -37.683,59.47 c 7.655,-0.295 11.776,-4.711 12.071,-13.542 V 0 c 0,-9.715 -4.122,-14.72 -12.071,-14.72 H 12.365 C 4.123,-14.72 0,-9.715 0,0"
       style="fill:#1b2b45;fill-opacity:1;fill-rule:nonzero;stroke:none"
       transform="matrix(1.3333333,0,0,-1.3333333,375.8112,766.85933)"
       clip-path="url(#clipPath39)" />
    <path
       id="path40"
       d="m 0,0 c -2.062,-2.061 -3.534,-4.416 -3.534,-7.066 -0.293,-1.472 0.589,-2.945 1.472,-4.415 1.472,-1.472 2.062,-2.651 2.355,-2.945 2.355,-4.416 1.473,-8.832 -2.355,-13.248 -1.177,-1.472 -1.472,-2.061 -0.883,-2.649 0.59,-0.589 0.883,-0.884 1.472,-0.884 0.589,0 1.177,0.295 2.062,0.884 6.769,4.71 12.069,9.127 15.013,12.954 3.534,4.12 5.005,7.358 4.711,10.598 0,2.648 -1.177,4.71 -3.24,6.771 C 14.719,1.767 11.774,2.943 8.242,2.943 5.005,2.943 2.354,1.767 0,0"
       style="fill:#1b2b45;fill-opacity:1;fill-rule:nonzero;stroke:none"
       transform="matrix(1.3333333,0,0,-1.3333333,547.3516,633.39587)"
       clip-path="url(#clipPath41)" />
    <path
       id="path42"
       d="m 0,0 c -4.122,1.473 -9.127,2.062 -15.015,2.944 -5.593,0.294 -12.071,0.589 -19.136,0.589 -5.888,0 -11.776,-0.589 -18.548,-2.356 -6.476,-1.766 -11.776,-4.416 -15.602,-7.948 -3.827,-3.239 -5.888,-7.361 -5.888,-11.777 0,-4.71 2.354,-9.126 7.36,-12.659 4.71,-3.826 13.837,-7.653 27.085,-11.481 13.248,-3.827 21.785,-7.361 25.023,-10.009 2.945,-2.651 4.711,-6.184 4.417,-9.422 0,-3.531 -2.355,-6.182 -5.888,-7.948 -3.828,-1.767 -8.538,-2.65 -15.014,-2.945 -6.479,0.295 -11.777,0.884 -16.782,1.473 -5.004,0.883 -8.537,2.354 -11.187,5.004 -2.944,2.355 -6.183,6.771 -9.716,13.248 -2.354,0 -3.826,-0.293 -4.416,-0.589 -0.294,0 -0.882,-0.589 -0.882,-1.472 0,-1.471 0.882,-7.065 2.649,-15.897 0.295,-1.179 0.295,-2.356 0.295,-2.944 0.294,-1.178 0.589,-2.355 1.766,-2.944 10.892,-2.944 22.667,-4.416 35.916,-4.416 5.595,0 11.776,0.882 18.842,2.65 7.066,1.471 12.071,4.121 15.898,7.948 3.533,3.828 6.183,7.949 7.065,12.07 0.884,4.416 0.59,8.244 -1.766,12.071 -2.06,3.827 -5.888,7.066 -10.892,9.715 -5.3,2.944 -13.248,6.478 -23.847,10.305 -10.893,3.827 -17.076,6.77 -19.136,8.538 -2.356,1.766 -3.533,3.827 -3.533,6.771 0.294,2.943 1.767,4.71 5.005,5.887 2.944,1.178 7.066,2.062 12.364,2.651 5.595,0.589 11.188,-0.589 16.782,-3.24 5.593,-2.649 9.715,-6.77 12.953,-12.658 h 2.65 3.533 l -0.589,3.237 C 1.473,-8.538 0.884,-3.532 0,0"
       style="fill:#1b2b45;fill-opacity:1;fill-rule:nonzero;stroke:none"
       transform="matrix(1.3333333,0,0,-1.3333333,644.30733,682.4636)"
       clip-path="url(#clipPath43)" />
    <path
       id="path44"
       d="m 0,0 h 2.724 c 0.719,0 1.225,0.087 1.518,0.264 0.293,0.174 0.439,0.465 0.439,0.867 0,0.39 -0.137,0.663 -0.41,0.819 C 3.997,2.106 3.447,2.186 2.619,2.186 H 0 Z m -2.413,-5.514 v 9.617 h 5.91 C 4.78,4.103 5.726,3.893 6.332,3.472 6.939,3.052 7.242,2.399 7.242,1.515 7.242,0.951 7.101,0.452 6.816,0.02 6.532,-0.414 6.142,-0.727 5.643,-0.917 6.068,-1.095 6.366,-1.314 6.537,-1.577 6.708,-1.84 6.809,-2.302 6.839,-2.965 6.844,-3.03 6.848,-3.119 6.852,-3.231 6.904,-4.424 7.073,-5.185 7.359,-5.514 H 4.655 c -0.065,0.105 -0.115,0.219 -0.146,0.345 -0.033,0.126 -0.05,0.26 -0.05,0.403 v 0.651 c 0,0.884 -0.114,1.462 -0.342,1.735 -0.227,0.274 -0.673,0.41 -1.335,0.41 H 2.724 0 v -3.544 z"
       style="fill:#1b2b45;fill-opacity:1;fill-rule:nonzero;stroke:none"
       transform="matrix(1.3333333,0,0,-1.3333333,619.09373,641.50387)"
       clip-path="url(#clipPath45)" />
    <path
       id="path46"
       d="m 0,0 c -5.675,0 -10.292,-3.944 -10.292,-8.791 0,-4.848 4.617,-8.792 10.292,-8.792 5.675,0 10.292,3.944 10.292,8.792 C 10.292,-3.944 5.675,0 0,0 m 0,-19.432 c -6.694,0 -12.141,4.774 -12.141,10.641 0,5.866 5.447,10.641 12.141,10.641 6.694,0 12.141,-4.775 12.141,-10.641 0,-5.867 -5.447,-10.641 -12.141,-10.641"
       style="fill:#1b2b45;fill-opacity:1;fill-rule:nonzero;stroke:none"
       transform="matrix(1.3333333,0,0,-1.3333333,622.39067,630.72267)"
       clip-path="url(#clipPath47)" />
  </g>
</svg>
