<svg id="Logo" xmlns="http://www.w3.org/2000/svg" xmlns:xlink="http://www.w3.org/1999/xlink" viewBox="0 0 112.954 69.325">
  <defs>
    <clipPath id="clip-path">
      <rect id="Rechteck_432" data-name="Rechteck 432" width="112.954" height="69.325" fill="none"/>
    </clipPath>
  </defs>
  <g id="Gruppe_2148" data-name="Gruppe 2148" transform="translate(0 0)">
    <g id="Gruppe_2188" data-name="Gruppe 2188">
      <g id="Gruppe_2190" data-name="Gruppe 2190">
        <path id="Pfad_40403" data-name="Pfad 40403" d="M0,0H112.954V69.325H0Z" fill="#264534"/>
        <path id="Pfad_40401" data-name="Pfad 40401" d="M6.475,67.365H111.091V6.5H6.475Zm106.283,1.691H4.807V4.806h107.95Z" transform="translate(-2.305 -2.269)" fill="#ffe37e" fill-rule="evenodd"/>
        <g id="Gruppe_2189" data-name="Gruppe 2189">
          <g id="Gruppe_2188-2" data-name="Gruppe 2188" clip-path="url(#clip-path)">
            <path id="Pfad_40402" data-name="Pfad 40402" d="M44.388,27.565a2.943,2.943,0,0,0,.619-.3c.222-.182.638-.6.889-.754a2.7,2.7,0,0,1,1.166-.5c.342.024.408.122.473.188.139.032.566.123.629.123s.033.2-.041.262a3.141,3.141,0,0,0-.58.354.635.635,0,0,0-.123.516c.057.14.6.916.777,1.172s.727,1.1.981,1.438a8.617,8.617,0,0,0-.8.587,7.641,7.641,0,0,0-.82.888c-.108.144-.268.41-.39.621-.268-.664-.6-1.447-.753-1.755a2.027,2.027,0,0,0-.733-.837,2.2,2.2,0,0,0-1.037.248,3.588,3.588,0,0,1-.889.3,1.58,1.58,0,0,1-.684-.025c-.073-.027-.107-.139-.107-.139a.414.414,0,0,1-.131-.008,1.738,1.738,0,0,1-.488-.312.47.47,0,0,1-.1-.361,6.355,6.355,0,0,1,1.035-.688c.35-.206,1.012-.69,1.1-1.018m19.2,18.471,0-.033Zm20.181.252a.383.383,0,0,0-.128.272V58.1a.793.793,0,0,0,.075.317l.766,1.521s.075.149-.089.149H80.331s-.165,0-.09-.149l.84-1.67V46.56a.489.489,0,0,0-.109-.291,3.081,3.081,0,0,0-2.2-.554c-.712,0-2.2.406-2.2,1.337V58.1a1.12,1.12,0,0,0,.055.325c.193.558.585,1.356.715,1.845l-.035.074s-.034.073-.2.073a2.562,2.562,0,0,1-2.05-.66c-2.577-3.083-2.577-3.083-9.617-11.471,0,0-.107-.127-.107.041V58.1a.815.815,0,0,0,.073.317l.744,1.519s.073.15-.092.15h-3.2s-.166,0-.092-.15l.743-1.519a.81.81,0,0,0,.074-.317V46a.877.877,0,0,0-.072-.318l-.536-1.156s-.051-.108.034-.142a1.145,1.145,0,0,1,.211-.425,1.26,1.26,0,0,1,.355-.242,4.7,4.7,0,0,0-.053-1.1,9.716,9.716,0,0,0-.361-1.511,1.931,1.931,0,0,0-.416-.632c-.111-.108-1.154-1.121-1.713-1.8-.572-.7-1.5-2.075-1.812-2.435a12.12,12.12,0,0,0-1.043-1.164,1.772,1.772,0,0,0-.861-.387,1.011,1.011,0,0,0-.723.222c-.239.147-2.231,1.557-2.6,1.8s-1.316.713-1.51.828a5.789,5.789,0,0,0-.619.476,3.95,3.95,0,0,0-.246.837,6.329,6.329,0,0,0-.1,1.558c.031.451.08.9.112,1.133a2.948,2.948,0,0,1-.033.958c-.072.239-.145.552-.195.707s-.09.393-.123.489a.558.558,0,0,1-.129.437.986.986,0,0,1-.263.24h.777s.164,0,.094.151l-.537,1.156a.871.871,0,0,0-.07.318v8.6c0,2.583,1.863,3.913,4.236,3.913,2.212,0,3.5-1.581,3.5-2.506V46a.857.857,0,0,0-.07-.318l-.537-1.156s-.07-.151.095-.151h.872c-.035-.016-.055-.036-.055-.07a1,1,0,0,1,.311-.432,1.793,1.793,0,0,1,.451-.243,4.971,4.971,0,0,0,.375-.914,7.713,7.713,0,0,0,.188-1.862,3.585,3.585,0,0,0-.312-1.324c-.221-.381-.878-1.553-1.1-2.07a5.245,5.245,0,0,1-.462-1.506c.14.167.272.328.375.447.309.36,1.237,1.734,1.808,2.431.257.314.615.7.939,1.031a8.169,8.169,0,0,1-.127.928c-.123.543-.3,1.428-.428,1.759s-.483,1.086-.586,1.268c-.049.1-.1.3-.156.382a.686.686,0,0,1-.234.174h1.719s.165,0,.095.151l-.537,1.156a.859.859,0,0,0-.07.318V58.093a.784.784,0,0,0,.072.324l.744,1.519s.073.15-.092.15h-2.56a.205.205,0,0,1-.2-.165,6.5,6.5,0,0,0-.243-1.017.117.117,0,0,0-.189-.065c-.7.477-1.654,1.407-4.766,1.407-2.4,0-5.624-1.033-5.624-5.029V46a.852.852,0,0,0-.071-.318L48,44.529s-.071-.151.094-.151h.543a.114.114,0,0,1-.036-.12.991.991,0,0,1,.326-.417.833.833,0,0,1,.311-.146c.06-.014.084-.041.126-.126a5.116,5.116,0,0,0,.346-.885,9.216,9.216,0,0,0,.186-1.89c-.04-.535-.144-1.65-.221-2.152-.034-.224-.075-.512-.11-.792a4.727,4.727,0,0,1,.367.99,20.971,20.971,0,0,1,.507,2.292c.035.311.1.8.123,1.092a3.031,3.031,0,0,1-.069.369c-.112.37-.3.923-.333,1.075-.069.054-.138.1-.206.157a.989.989,0,0,0-.372.553h.254a.82.82,0,0,1,.271-.354,2.89,2.89,0,0,1,.424-.275.157.157,0,0,0,.07-.1c.057-.222.106-.383.142-.519a3.15,3.15,0,0,0,.082-.707c0-.181-.09-.9-.137-1.318a21.489,21.489,0,0,0-.515-2.33,3.586,3.586,0,0,0-.695-1.491A8.315,8.315,0,0,1,48.4,35.634c-.21-.454-.711-2.049-.881-2.567l-.033-.1a5.968,5.968,0,0,1,.357-.7,5.8,5.8,0,0,1,.937-1.227,3.58,3.58,0,0,1,.79-.569,5.247,5.247,0,0,0,1.93.974,8.933,8.933,0,0,0,2.929.4c1.166,0,3.492-.188,4.078-.181a5.916,5.916,0,0,1,1.705.2,6.388,6.388,0,0,1,2.43,1.73,6.086,6.086,0,0,1,1.067,2.009,11.57,11.57,0,0,0,.922,1.958c.222.319.947,1.107,1.355,1.164a7.076,7.076,0,0,0,.9-.025.236.236,0,0,1-.123.355,1.87,1.87,0,0,1-1.045.137,2.386,2.386,0,0,1-1.393-.745,6.765,6.765,0,0,1-.939-1.444,6.04,6.04,0,0,0-.351-.618,3.563,3.563,0,0,0-.132,1.051,8.478,8.478,0,0,0,.3,1.305c.1.341.248.88.361,1.142a2.505,2.505,0,0,0,.6.885.15.15,0,0,1,.03.072c0,.6-.011,1.266-.028,1.566a9.9,9.9,0,0,0,.03,1.147,1.257,1.257,0,0,1,.024.252.813.813,0,0,1-.13.423.878.878,0,0,1-.135.143h1.213a.376.376,0,0,1,.27.129c6.3,7.841,6.3,7.841,9.278,11.424,0,0,.107.128.108-.04l0-9.871a.87.87,0,0,0-.07-.32l-.538-1.172s-.07-.152.095-.152l21.964,0a.175.175,0,0,1,.176.167l.132,1.992-.03.06s-.029.06-.173-.023a5.608,5.608,0,0,0-2.686-.833,4.507,4.507,0,0,0-2.234.328.547.547,0,0,0-.084.3c.023,1.294.023,1.294,0,4.289a.161.161,0,0,0,.164.167h3.46a.163.163,0,0,1,.166.167v1.838c0,.02-.01.028-.027.027,0,0-.028,0-.165-.093a2.31,2.31,0,0,0-1.268-.6H91.379l.016,5.6a.948.948,0,0,0,.066.321c.116.271,1.866.369,2.421.362a19.111,19.111,0,0,0,3.884-.551v.09a.508.508,0,0,1-.086.233,18.552,18.552,0,0,0-.913,1.714.285.285,0,0,1-.24.15H88.086s-.164,0-.09-.149l.757-1.5a.789.789,0,0,0,.075-.316l-.007-12.233a.55.55,0,0,0-.1-.3l-.207-.271-.822,1.183s-.127.163-.213.021c-.362-.587-.672-.8-1.855-.8a3.193,3.193,0,0,0-1.854.573m20.313-1.91c1.68,0,4.2,1.375,4.2,3.9a3.574,3.574,0,0,1-1.273,2.7,6.621,6.621,0,0,1-2.355,1.2c-.208.069-.1.291-.028.388a45.023,45.023,0,0,0,9.534,9.782,9.521,9.521,0,0,0,.847.52s.142.086-.022.112c-3.391.55-5.226-.989-6.716-2.432a34.855,34.855,0,0,1-6.326-8.392c-.052-.1.05-.2.145-.209a4.235,4.235,0,0,0,3.544-2.667,2.54,2.54,0,0,0-1-2.863,3.9,3.9,0,0,0-2.016-.638c-1.122,0-1.122,0-1.3.134a.363.363,0,0,0-.134.268V58.1a.785.785,0,0,0,.076.316l.766,1.521s.076.149-.09.149h-4.06s-.164,0-.09-.149l.766-1.521a.8.8,0,0,0,.075-.317V46.022a.87.87,0,0,0-.069-.319l-.538-1.173s-.069-.152.1-.152ZM46.61,45.685a.859.859,0,0,0-.07.318L46.549,58.1a.793.793,0,0,0,.075.317l.766,1.521s.075.149-.09.149H43.24s-.165,0-.09-.149l.766-1.521a.8.8,0,0,0,.075-.317l-.009-5.637a.164.164,0,0,0-.166-.167H36.439a.162.162,0,0,0-.165.167V58.1a.8.8,0,0,0,.075.317l.766,1.521s.075.149-.09.149h-4.06s-.165,0-.09-.149l.766-1.521a.8.8,0,0,0,.075-.317V46a.857.857,0,0,0-.07-.318l-.537-1.156s-.07-.151.095-.151h3.582s.165,0,.095.151l-.537,1.156a.859.859,0,0,0-.07.318v4.473a.163.163,0,0,0,.165.167h7.378a.162.162,0,0,0,.165-.167V46a.857.857,0,0,0-.07-.318l-.537-1.156s-.07-.151.095-.151h3.582s.165,0,.095.151Zm67.676,9.087a2.444,2.444,0,1,1-2.4,2.452,2.429,2.429,0,0,1,2.4-2.452m0,.329a2.115,2.115,0,1,0,2.093,2.108,2.1,2.1,0,0,0-2.093-2.108m-.435,3.368a1.735,1.735,0,0,1-.47.014c.01-.38.012-.764.011-1.143,0-.878-.021-1.187-.021-1.606h.1l.39-.005.235,0a1.806,1.806,0,0,1,.607.065.67.67,0,0,1,.489.692.78.78,0,0,1-.657.77c.066.09.369.535.439.637.12.172.175.25.414.57a.681.681,0,0,1-.25.044,1.623,1.623,0,0,1-.271,0l-.046-.081c-.113-.2-.245-.388-.369-.579-.234-.356-.257-.395-.35-.52-.12,0-.142.008-.277,0,0,.216.006.819.03,1.148M113.812,57a1.218,1.218,0,0,0,.8-.155.432.432,0,0,0,.145-.329.549.549,0,0,0-.074-.27c-.124-.192-.333-.2-.623-.2-.05,0-.12,0-.251,0,0,.455,0,.517,0,.952" transform="translate(-15.756 -12.279)" fill="#ffe37e"/>
          </g>
        </g>
      </g>
    </g>
  </g>
</svg>
