<?xml version="1.0" encoding="UTF-8" standalone="no"?>
<!-- Created with Inkscape (http://www.inkscape.org/) -->

<svg
   version="1.1"
   id="svg1"
   width="1570.8502"
   height="1284.9684"
   viewBox="0 0 1570.8502 1284.9684"
   sodipodi:docname="iodogs-logo.svg"
   inkscape:version="1.3.2 (091e20e, 2023-11-25, custom)"
   xmlns:inkscape="http://www.inkscape.org/namespaces/inkscape"
   xmlns:sodipodi="http://sodipodi.sourceforge.net/DTD/sodipodi-0.dtd"
   xmlns="http://www.w3.org/2000/svg"
   xmlns:svg="http://www.w3.org/2000/svg">
  <defs
     id="defs1" />
  <sodipodi:namedview
     id="namedview1"
     pagecolor="#ffffff"
     bordercolor="#000000"
     borderopacity="0.25"
     inkscape:showpageshadow="2"
     inkscape:pageopacity="0.0"
     inkscape:pagecheckerboard="0"
     inkscape:deskcolor="#d1d1d1"
     inkscape:zoom="0.60466926"
     inkscape:cx="785.55341"
     inkscape:cy="642.5"
     inkscape:window-width="1920"
     inkscape:window-height="991"
     inkscape:window-x="-9"
     inkscape:window-y="-9"
     inkscape:window-maximized="1"
     inkscape:current-layer="g1" />
  <g
     inkscape:groupmode="layer"
     inkscape:label="Image"
     id="g1"
     transform="translate(-0.01368805,2.6325815e-5)">
    <path
       style="fill:#000000"
       d="m 968.01109,1280.066 -5.48891,-4.8703 -3.01109,1.6522 c -2.34648,1.2874 -5.7701,1.6521 -15.51109,1.6521 -11.6348,0 -12.85243,-0.186 -17.59177,-2.6867 -6.86805,-3.6239 -14.72227,-12.4111 -17.4891,-19.5666 -2.77467,-7.1758 -3.72516,-22.0486 -1.92655,-30.1457 4.35259,-19.5947 19.98904,-31.2105 40.15306,-29.8285 21.68027,1.486 34.85436,17.0173 34.85436,41.0906 0,11.0674 -2.38832,20.112 -6.98717,26.4605 l -3.00865,4.1533 3.74791,3.4845 c 2.06135,1.9165 4.08541,3.4967 4.49791,3.5115 1.68902,0.061 0.56087,3.1729 -2.35359,6.4923 -1.70698,1.9441 -3.39448,3.5205 -3.75,3.503 -0.35553,-0.017 -3.11642,-2.2235 -6.13532,-4.9022 z m -18.19554,-13.7134 c 2.26404,-0.6064 2.23624,-0.6855 -1.25,-3.5592 -1.96105,-1.6164 -3.56555,-3.493 -3.56555,-4.17 0,-0.6771 1.54585,-2.7294 3.43522,-4.5606 l 3.43521,-3.3296 4.24478,3.6334 c 2.33464,1.9984 4.53687,3.6334 4.89385,3.6334 1.28639,0 5.08092,-9.6176 5.9162,-14.9951 0.46945,-3.0223 0.50188,-7.983 0.0721,-11.0238 -2.19428,-15.5239 -11.24224,-23.7824 -24.96801,-22.7896 -8.15283,0.5897 -13.43103,4.2883 -17.51677,12.2744 -3.79325,7.4144 -4.65718,19.0849 -2.07128,27.98 3.61158,12.4234 15.86237,19.9896 27.37429,16.9067 z m -457.61059,10.8069 c -9.41979,-3.3492 -17.10148,-11.2259 -21.33576,-21.8772 -1.95845,-4.9265 -2.29397,-7.5584 -2.26683,-17.7823 0.0265,-9.974 0.40282,-12.9286 2.2291,-17.5 6.65405,-16.6559 19.53677,-24.7136 38.07025,-23.8117 13.24714,0.6447 22.82722,6.0553 29.48902,16.6546 5.33805,8.4932 7.66002,22.3022 5.67084,33.7249 -2.32635,13.3589 -8.7176,22.8193 -19.23557,28.4728 -5.87352,3.157 -7.07707,3.4218 -16.82601,3.7009 -8.30535,0.2379 -11.60674,-0.093 -15.79504,-1.582 z m 24.55773,-13.0384 c 16.42851,-8.3812 17.5039,-41.1772 1.70519,-52.0027 -4.48929,-3.0761 -11.76966,-4.1865 -17.5753,-2.6805 -6.7043,1.7391 -11.27187,5.5975 -14.56497,12.3038 -2.53109,5.1544 -2.82761,6.807 -2.82761,15.7583 0,8.9586 0.29537,10.6015 2.83643,15.7763 6.02963,12.2792 18.73665,16.8084 30.42626,10.8448 z m 102.90964,13.4999 c -7.45162,-2.0857 -12.70971,-6.3435 -16.15979,-13.0855 L 600.5,1258.6486 600.18402,1228.3243 599.86804,1198 H 607.43402 615 l 0.002,28.25 c 0.002,31.4585 0.29298,33.0695 6.7593,37.3877 6.21223,4.1485 18.64057,3.8956 23.62717,-0.4807 4.60362,-4.0403 5.04948,-7.0752 5.42192,-36.907 l 0.3527,-28.25 h 7.51874 7.51874 l -0.44311,29.25 c -0.49271,32.5244 -0.93132,35.0888 -7.26778,42.4916 -5.20146,6.0767 -11.908,8.5741 -23.98923,8.9333 -6.25029,0.1859 -11.81024,-0.2093 -14.82767,-1.0539 z m 436.69977,-0.4587 c -6.5272,-2.2559 -9.6194,-4.2987 -12.7027,-8.3917 -5.187,-6.8856 -5.6694,-10.4427 -5.6694,-41.8055 V 1198 h 6.9077 6.9077 l 0.3587,28.25 c 0.3855,30.3649 0.5503,31.3692 5.9813,36.4398 2.9598,2.7635 11.0394,4.6184 16.3075,3.7439 6.3342,-1.0515 9.5191,-3.1805 11.5937,-7.75 1.7205,-3.7895 1.9015,-6.8456 1.9214,-32.4337 L 1088,1198 h 7.5541 7.554 l -0.304,30.25 -0.3041,30.25 -2.6629,5.6807 c -3.094,6.6 -8.4901,11.0448 -16.1822,13.3292 -6.9346,2.0593 -20.8313,1.8823 -27.2828,-0.3476 z M 350,1238.0922 V 1198 h 21.55718 c 12.22355,0 23.42854,0.4712 25.87931,1.0883 5.32633,1.3412 11.35363,6.1651 13.18774,10.5548 3.18962,7.6338 0.91771,18.4177 -4.76537,22.6194 l -2.83387,2.0951 3.91382,2.334 c 6.26613,3.7366 8.56119,8.3976 8.56119,17.3868 0,6.694 -0.354,8.151 -3.03331,12.4847 -2.32086,3.7539 -4.41749,5.6145 -8.9266,7.9216 l -5.89329,3.0153 -23.8234,0.3422 -23.8234,0.3422 z m 46.67238,24.306 c 5.86086,-4.3819 5.55821,-13.9958 -0.57026,-18.1146 -3.14588,-2.1142 -4.46232,-2.2836 -17.75,-2.2836 H 364 v 11.572 11.5721 l 14.93062,-0.3221 c 13.32109,-0.2873 15.23366,-0.5486 17.74176,-2.4238 z m -3.96894,-33.7351 c 3.8413,-1.9981 5.60615,-6.961 4.23638,-11.9131 -1.48583,-5.3717 -3.83339,-6.1767 -19.18982,-6.5803 L 364,1209.8082 v 10.7286 10.7287 l 12.75,-0.4681 c 9.21361,-0.3382 13.63852,-0.9302 15.95344,-2.1343 z M 742,1244.5 V 1211 H 729.5 717 v -6.5 -6.5 h 32.5 32.5 v 6.5 6.5 H 769.5 757 v 33.5 33.5 h -7.5 -7.5 z m 93,-6.5 v -40 h 7.5 7.5 v 40 40 h -7.5 -7.5 z m 327,0 v -40 h 29 29 v 6 6 h -21.5 -21.5 v 10 10 h 20 20 v 6 6 h -20 -20 v 11.5 11.5 h 22 22 v 6.5 6.5 h -29.5 -29.5 z m 148.6341,-51.5865 c -13.0872,-3.1677 -25.0873,-12.763 -30.5322,-24.4135 -3.575,-7.6494 -3.6581,-20.9422 -0.18,-28.7701 6.0312,-13.5738 23.2799,-21.6281 39.1948,-18.302 8.4498,1.766 8.7226,2.2328 4.0407,6.9147 -7.785,7.785 -9.302,21.609 -3.5343,32.2062 5.4152,9.9496 13.5196,13.4372 24.772,10.6604 11.9945,-2.9599 20.4409,-11.0321 28.9941,-27.7092 9.3588,-18.2479 14.7784,-41.2148 17.5801,-74.5 0.5555,-6.6 1.0131,-14.25 1.0169,-17 l 0.01,-5 -4.4558,9 c -5.7157,11.5449 -13.1499,21.3081 -21.4525,28.1734 -13.9257,11.5148 -22.9364,14.8189 -38.5142,14.1228 -8.7228,-0.3899 -10.963,-0.8764 -16.7387,-3.6352 -11.9068,-5.6873 -20.7457,-18.3948 -24.9944,-35.9342 -2.705,-11.1664 -2.9145,-31.5956 -0.4558,-44.4366 6.667,-34.81939 27.0882,-64.01536 54.3217,-77.66317 11.6301,-5.8283 22.2489,-8.3157 37.8634,-8.86924 15.8517,-0.56194 19.1845,0.31347 21.3809,5.61595 2.0909,5.04787 1.2179,6.00143 -8.4477,9.22776 -22.1425,7.39102 -38.5617,22.76593 -50.5721,47.35559 -7.1354,14.60879 -10.0905,26.92421 -10.2082,42.54291 -0.1443,19.1514 3.7812,29.6436 12.7077,33.9648 13.1375,6.3598 27.5431,-2.9152 38.509,-24.7939 8.6409,-17.2398 13.0344,-33.9296 19.6171,-74.52012 4.2598,-26.26738 9.8879,-40.36686 19.5979,-49.09697 C 1424.748,907.42103 1436.1506,901 1438.893,901 c 1.3655,0 1.3916,-0.80688 -0.4199,13 -0.8299,6.325 -1.9399,27.025 -2.4668,46 -2.0524,73.9086 -7.2503,114.2866 -19.528,151.6952 -14.6046,44.4983 -37.3346,68.3991 -71.2132,74.8811 -9.3364,1.7863 -26.9199,1.7037 -34.631,-0.1628 z M 36.5,1097.5498 C 27.342311,1094.7092 17.047001,1089.588 12.264329,1085.4943 7.7935128,1081.6674 3.3357038,1073.9388 1.3949271,1066.6498 -1.4176071,1056.0867 -0.12115497,1037.4627 7.0091153,986 14.176081,934.27245 16.415204,908.39406 16.461956,876.74996 L 16.5,850.99991 l 4.5,0.0132 c 6.45477,0.0189 21.920718,3.39565 26.685133,5.82628 8.721065,4.44915 12.315672,12.50386 12.313654,27.59213 -0.0015,11.3212 -1.66548,25.85406 -8.537857,74.5685 -11.692766,82.88348 -13.476677,109.75558 -8.819589,132.85458 0.815535,4.045 1.34236,7.4698 1.170724,7.6105 -0.171636,0.1408 -3.462065,-0.7212 -7.312065,-1.9153 z m 75,-2.2643 c -18.224754,-2.5204 -34.590265,-12.7327 -40.283666,-25.1376 -3.344097,-7.2862 -2.882238,-19.0614 1.048739,-26.7379 4.717448,-9.2124 13.82783,-15.1547 24.753089,-16.1454 5.282768,-0.479 15.981838,1.1884 15.981838,2.4907 0,0.3058 -1.14572,2.058 -2.54605,3.894 -10.01707,13.133 -8.28345,31.2337 3.70112,38.6432 8.81639,5.4507 21.98205,4.3906 30.21916,-2.4334 4.60037,-3.8111 6.65368,-8.2242 6.54969,-14.077 -0.17153,-9.6549 -5.40429,-17.2079 -18.63372,-26.896 -31.43468,-23.0202 -37.027346,-28.0148 -42.672171,-38.10866 -5.123246,-9.16122 -6.91534,-17.1667 -6.447938,-28.80366 0.335261,-8.34701 0.809517,-10.49006 3.556119,-16.0692 5.925527,-12.03645 17.37168,-21.3407 32.42156,-26.35456 15.56601,-5.18581 41.47759,-4.56031 55.11118,1.33037 6.2409,2.69651 14.29006,10.31864 17.52982,16.59981 3.26791,6.33571 3.6463,17.23395 0.87636,25.24004 -2.16578,6.25986 -9.29633,14.54002 -15.05256,17.47939 -5.21304,2.66199 -15.72781,3.47363 -23.53551,1.81672 l -5.90689,-1.25352 4.57565,-5.61767 c 5.7531,-7.06326 8.34116,-12.86862 8.93025,-20.03175 0.59495,-7.23438 -1.66866,-11.54269 -8.20335,-15.61341 -3.99241,-2.48703 -5.86865,-3 -10.97272,-3 -5.11191,0 -6.9901,0.51516 -11.06645,3.03538 -6.74763,4.17174 -9.39873,9.09347 -9.40733,17.46462 -0.0141,13.74244 7.83516,23.39034 32.57302,40.03691 18.1078,12.18509 25.22484,18.52909 31.25671,27.86149 17.88436,27.6706 -2.35131,62.3259 -40.69392,69.6919 -6.75131,1.297 -26.3792,1.7023 -33.66203,0.6952 z m 1372.5,-0.7441 c -16.939,-3.6109 -29.2639,-11.3302 -35.7757,-22.4072 -2.4222,-4.1203 -2.7237,-5.6322 -2.7192,-13.6342 0,-7.0251 0.466,-9.9986 2.1056,-13.5508 4.6845,-10.1487 13.958,-16.6464 25.2144,-17.6671 6.1957,-0.5618 16.1749,1.2127 16.1749,2.8763 0,0.5274 -1.3322,2.62 -2.9603,4.6502 -8.5184,10.6219 -7.9045,26.4525 1.3569,34.9893 6.7022,6.1779 14.3876,7.6432 24.436,4.6592 5.6468,-1.677 11.4269,-6.1245 13.7185,-10.5559 2.0177,-3.9019 1.7838,-12.567 -0.4736,-17.5382 -2.9956,-6.597 -8.2371,-11.576 -24.8426,-23.5985 -20.4825,-14.8295 -29.9102,-23.71506 -34.5695,-32.5817 -4.5271,-8.61501 -6.6724,-16.73725 -6.641,-25.1429 0.05,-13.33248 3.5386,-21.68784 13.0622,-31.28306 8.2736,-8.3358 19.2849,-13.98858 31.9242,-16.38854 11.4539,-2.17489 31.7285,-1.42617 41.0316,1.51527 17.1672,5.42788 26.8613,18.24255 25.7327,34.01631 -0.8805,12.30477 -7.0024,22.05879 -16.9716,27.04044 -5.0537,2.52537 -7.3274,3.05968 -13.0204,3.05968 -6.4844,0 -15.7831,-1.61871 -15.7831,-2.74751 0,-0.28055 1.5592,-2.23597 3.465,-4.34539 8.4269,-9.32764 11.9941,-23.70698 7.6076,-30.66624 -3.7967,-6.02345 -12.985,-9.93096 -20.6495,-8.78161 -6.1528,0.92268 -12.865,5.75646 -15.4723,11.14231 -1.7219,3.55708 -2.0927,5.79516 -1.7722,10.69826 0.8638,13.21504 8.9426,22.74318 32.8214,38.70975 17.5479,11.73343 27.8348,21.33503 32.6664,30.49043 9.0718,17.1899 6.0385,35.0309 -8.4017,49.4167 -7.562,7.5335 -16.3207,12.8122 -26.7647,16.1305 -8.9419,2.841 -34.2029,3.6892 -44.5,1.4942 z m -1250.5,-0.6539 c -10.58303,-1.5322 -16.62954,-3.9644 -21.18793,-8.5228 -6.04693,-6.0469 -7.64673,-12.2372 -7.58897,-29.3647 0.0452,-13.4091 1.12729,-24.3153 7.83813,-79 9.03798,-73.64792 11.44707,-100.40218 11.41866,-126.81028 -0.0187,-17.35183 -0.70258,-26.46097 -2.51888,-33.54901 -0.72121,-2.81449 -0.67964,-2.848 2.65315,-2.13841 5.42731,1.15553 17.83824,7.21777 22.35683,10.92041 2.28855,1.8753 5.58255,6.07674 7.32,9.33653 8.54334,16.02894 8.38478,29.6164 -1.30389,111.74076 -7.10922,60.26 -10.09884,104.2458 -8.95477,131.75 l 0.69674,16.75 -2.36454,-0.1219 c -1.30049,-0.067 -5.06453,-0.5129 -8.36453,-0.9906 z m 82.5,-0.3781 c -16.59324,-3.754 -33.86242,-17.2423 -41.44832,-32.3737 -9.6732,-19.295 -11.14067,-46.4491 -3.96021,-73.28012 4.95816,-18.52705 13.43288,-32.90323 27.03278,-45.85735 18.20419,-17.33977 34.33117,-23.96069 58.37575,-23.96609 23.56964,-0.005 37.99414,7.0045 45.3168,22.02233 6.68695,13.71408 6.0853,33.90639 -1.43043,48.00734 -6.25211,11.73017 -21.17487,22.12989 -37.88637,26.40309 -12.03496,3.0774 -41.34811,3.0249 -49.46168,-0.089 -3.36988,-1.2931 -2.31935,21.6854 1.52134,33.2765 5.72312,17.2722 18.45005,26.1958 33.44034,23.447 12.15972,-2.2298 26.6727,-12.2232 34.70438,-23.8969 2.7514,-3.999 3.32047,-4.3505 6.16345,-3.8068 3.75399,0.7178 8.63217,5.7458 8.63217,8.8972 0,2.6206 -1.3108,4.704 -8.78868,13.9687 -9.82626,12.1742 -24.13835,21.7976 -38.21132,25.693 -9.99344,2.7663 -25.50814,3.4755 -34,1.5544 z m 16.5399,-95.03985 c 9.04308,-2.3221 15.72755,-5.97898 20.75639,-11.35522 14.93648,-15.96831 16.88354,-41.56237 3.68378,-48.42315 -6.56763,-3.41362 -17.26795,-0.3272 -24.16293,6.96961 -8.57425,9.07392 -16.64748,29.22111 -20.27173,50.58921 l -0.63604,3.75 h 7.33522 c 4.03437,0 10.01726,-0.6887 13.29531,-1.53045 z m 157.28065,95.13545 c -5.99812,-1.6151 -11.03525,-5.4778 -13.42982,-10.2986 -3.13331,-6.308 -2.39128,-31.6656 1.81593,-62.0564 1.8464,-13.3375 3.01008,-24.25 2.58595,-24.25 -0.42414,0 -3.13848,0.89977 -6.03188,1.9995 -2.8934,1.0997 -5.56585,1.9997 -5.93877,2 -1.37492,10e-4 -1.96692,-10.76543 -0.90953,-16.54117 1.39534,-7.62171 5.28271,-13.20067 11.62498,-16.68358 2.72942,-1.49888 5.32907,-2.85854 5.777,-3.02146 1.29906,-0.47251 5.05623,-32.24379 7.19789,-60.86675 l 0.64449,-8.61346 -7.64443,-0.49059 C 473.07622,893.98438 470.22239,890.233 470.08264,874.5 c -0.0609,-6.85064 1.25736,-19.20926 2.13714,-20.03633 0.15412,-0.14488 5.45522,0.33753 11.78022,1.07203 40.86506,4.74551 92.33157,3.93695 128.5,-2.01878 13.44709,-2.21429 12.57241,-2.58767 10.88481,4.64645 -3.57438,15.322 -13.49459,25.23416 -30.22145,30.19694 -7.83976,2.32601 -23.468,4.41453 -42.10882,5.62733 -9.04501,0.58847 -16.63347,1.25795 -16.86325,1.48773 -0.22977,0.22978 -2.30339,15.47796 -4.60803,33.88483 l -4.19025,33.46706 11.19874,0.69972 c 19.23689,1.20197 35.79718,-1.06771 45.66718,-6.25893 2.88259,-1.51613 5.57857,-2.90917 5.99107,-3.09565 1.37388,-0.62111 0.78916,18.33272 -0.7226,23.42337 -1.67376,5.63616 -6.24027,10.53976 -11.42662,12.27012 C 573.92556,990.59163 563.61325,991 547.46207,991 h -25.23949 l -0.57941,3.25 c -3.30248,18.5242 -5.50462,81.1383 -3.35873,95.5 l 0.78445,5.25 -12.28445,-0.068 c -6.75644,-0.037 -14.39019,-0.6345 -16.96389,-1.3275 z m 157.43003,0.3543 c -23.5174,-4.2233 -43.29599,-23.6472 -50.42178,-49.5173 -3.03682,-11.0252 -3.2985,-42.4835 -0.46119,-55.442 6.91847,-31.59773 24.3642,-56.87086 47.54345,-68.87485 13.50877,-6.99587 20.56961,-8.12092 25.00913,-3.98487 2.93316,2.73265 2.59671,3.94447 -2.04337,7.35972 -10.79682,7.94681 -20.91221,21.32701 -26.11962,34.54988 -4.10861,10.43277 -4.12164,11.93411 -0.0382,4.39929 10.08551,-18.60981 20.27387,-29.01461 35.61104,-36.36755 5.59346,-2.68161 12.2817,-5.372 14.86275,-5.97864 6.76507,-1.59003 20.77651,-1.3779 25.7885,0.39043 6.4428,2.27315 13.5771,8.02938 18.49715,14.92422 9.40988,13.18675 12.83636,26.15658 12.83491,48.58237 -10e-4,17.6251 -1.63265,28.7194 -6.42992,43.7236 -13.36844,41.8116 -40.79867,65.0648 -78.69749,66.7136 -5.87729,0.2557 -13.04821,0.041 -15.93539,-0.4779 z m 29.43872,-24.4918 c 10.53489,-5.2497 19.79962,-18.7486 26.26235,-38.2646 8.29836,-25.0593 8.54547,-62.42135 0.51762,-78.26354 -6.08799,-12.01408 -18.26801,-14.93566 -31.04643,-7.44701 -8.85908,5.19177 -20.40429,20.76204 -26.80122,36.14504 -5.12433,12.32274 -6.79729,20.18611 -7.34827,34.53881 -1.09171,28.4384 4.99132,47.786 16.87349,53.6675 6.24941,3.0933 14.88256,2.9426 21.54246,-0.3762 z m 310.8107,24.516 c -10.44844,-1.1672 -24.88573,-4.4954 -35.5,-8.1837 -8.2348,-2.8615 -23,-10.4582 -23,-11.8335 0,-0.3724 2.01169,-14.1297 4.47042,-30.5717 10.5538,-70.57547 14.68401,-116.28227 14.8552,-164.3946 0.0779,-21.90629 -0.20212,-27.68085 -1.61566,-33.31205 C 945.76948,841.94132 945,838.47807 945,837.99185 c 0,-1.48219 9.98528,1.83303 19.55415,6.4922 8.50409,4.14072 16.299,10.69509 19.94585,16.77154 0.90837,1.51355 1.64138,1.38797 8,-1.37054 13.2328,-5.7407 23.6757,-8.03734 39,-8.57701 15.4478,-0.54403 23.6389,0.64899 34.4569,5.01856 26.9937,10.90322 46.5816,38.25257 54.1728,75.63789 2.5634,12.62454 3.5556,39.45142 1.9468,52.63928 -4.5155,37.01573 -21.202,68.53183 -46.2964,87.44103 -13.1833,9.9339 -29.5306,17.2003 -46.2044,20.5381 -9.0176,1.8051 -31.69611,2.56 -42.0757,1.4006 z m 28.904,-24.9589 c 9.7659,-2.4978 17.6309,-6.6829 26.3477,-14.0202 21.6938,-18.2608 34.3518,-48.3779 35.937,-85.5044 0.9787,-22.92292 -2.4422,-41.23225 -10.924,-58.46626 -8.4795,-17.22958 -21.2578,-28.39829 -36.6414,-32.02607 -7.4692,-1.76139 -27.7375,-0.80622 -35.6233,1.67881 l -6,1.89077 -0.72871,11.96137 C 987.83589,909.89276 985.75118,932.38798 981.5,973 c -4.79097,45.7687 -6.58261,65.487 -7.34118,80.7949 l -0.65882,13.2949 5,1.3921 c 7.97406,2.2203 8.46242,2.2802 19.59004,2.4021 7.59156,0.083 12.77696,-0.4433 18.31396,-1.8594 z m 162.9427,24.9493 c -23.681,-4.272 -43.3793,-23.0739 -50.2861,-47.9977 -6.0007,-21.6545 -4.253,-52.47875 4.2575,-75.08916 10.0071,-26.58634 27.9815,-46.04965 50.3125,-54.48014 9.8978,-3.73664 15.7754,-3.25383 18.3223,1.50504 0.8468,1.58228 0.011,2.68149 -5.4949,7.22708 -11.5649,9.54774 -20.7928,22.80148 -25.5963,36.76305 -2.6331,7.65321 -2.356,7.55641 2.1776,-0.76077 8.732,-16.01962 20.8161,-28.40482 34.0491,-34.89772 C 1218.013,920.8833 1225.7209,919 1236.7346,919 c 7.9686,0 9.6117,0.33268 15.0397,3.04508 17.9484,8.96892 28.1818,31.21366 28.2126,61.32658 0.05,48.60644 -21.4623,89.54794 -54.8119,104.31814 -12.7454,5.6448 -33.5547,8.4983 -45.8283,6.2841 z m 28.7981,-24.3361 c 9.3083,-4.5097 16.7831,-14.0331 23.1543,-29.5005 6.0024,-14.5721 8.7286,-27.9701 9.3881,-46.1373 1.5257,-42.02974 -10.5099,-60.03647 -33.412,-49.98836 -9.7461,4.27603 -17.6676,13.29981 -26.0383,29.66167 -9.3199,18.2173 -12.9929,35.05799 -11.7398,53.82669 1.6027,24.0029 7.3296,37.5729 18.0029,42.6579 4.9525,2.3594 15.2358,2.1004 20.6448,-0.5201 z M 780,1089.6128 c -10.81348,-2.3978 -15.99499,-7.1063 -18.16488,-16.5067 -1.44358,-6.254 -0.66802,-14.5298 4.67768,-49.9144 5.2387,-34.6764 6.60647,-48.819 6.59499,-68.1917 -0.01,-16.32269 -2.16903,-35.78409 -4.70321,-42.38806 -0.60198,-1.56874 -0.35008,-1.74005 1.69415,-1.15212 1.3207,0.37984 6.12394,2.44091 10.67387,4.58016 10.35298,4.86768 17.87819,11.77676 22.04331,20.23851 4.34489,8.82697 5.12788,13.31036 5.19068,29.72151 l 0.0555,14.5 3.94204,-10.35316 c 7.40173,-19.43949 16.40064,-33.9309 26.97351,-43.43681 7.51199,-6.75393 13.17724,-9.21438 21.02237,-9.13014 16.11224,0.17303 25.12265,12.40882 25.18832,34.20475 0.0389,12.92153 -3.22128,22.53471 -10.81762,31.89727 -5.75063,7.08769 -17.14263,11.33563 -26.57467,9.90936 -7.10884,-1.07497 -7.37455,-1.5956 -3.93166,-7.70359 3.6256,-6.43213 6.13563,-15.49072 6.13563,-22.14323 0,-3.8005 -0.52532,-5.36068 -2.45455,-7.2899 -3.22431,-3.22432 -6.35565,-3.09906 -11.25532,0.45024 -7.7395,5.60646 -16.60086,21.51178 -22.25039,39.93735 -6.90421,22.51756 -9.52645,44.14106 -8.8134,72.67666 0.50111,20.0533 0.48018,20.3249 -1.60932,20.8857 -3.60461,0.9675 -17.83491,0.4904 -23.61702,-0.7917 z M 716,779.93104 c -133.68846,-5.18247 -261.13214,-24.91703 -344.8467,-53.39927 -59.57821,-20.27031 -90.96432,-41.32792 -92.86656,-62.30615 -1.14728,-12.65239 7.17856,-23.23271 27.72512,-35.23255 38.16751,-22.29102 126.00525,-42.84606 232.48814,-54.40488 61.29653,-6.6538 144.82391,-12.00615 152.31931,-9.76047 4.67183,1.39971 7.32392,4.14213 16.17584,16.72679 7.87568,11.19674 8.75631,14.78494 4.63902,18.90222 -2.56809,2.5681 -1.77774,2.43245 -29.63417,5.08614 -59.08502,5.62863 -105.27104,17.37052 -119.33928,30.33967 -9.74207,8.98097 -5.77632,16.92621 12.8533,25.75114 24.73837,11.71868 71.43086,20.282 139.48598,25.58146 22.46762,1.74956 118.70136,1.7375 141,-0.0177 54.58103,-4.29617 95.11254,-10.58601 121,-18.77724 25.5479,-8.08379 36,-15.1671 36,-24.3969 0,-7.09773 -13.19997,-15.5633 -35,-22.44663 -25.06334,-7.91371 -56.37579,-13.0452 -110.73911,-18.14794 -5.11116,-0.47975 -6.60266,-1.0478 -8.25,-3.14206 -3.70746,-4.71326 -2.74077,-7.96919 6.14962,-20.71261 11.16148,-15.99879 11.2922,-16.06016 32.31924,-15.17403 101.28321,4.26831 204.74135,16.60236 274.12835,32.68097 71.2493,16.51016 113.7871,37.27113 119.9744,58.5547 2.0277,6.97511 1.3178,12.2114 -2.581,19.03791 -26.4826,46.36942 -192.7416,90.47847 -387.5015,102.80542 -54.07673,3.42268 -133.4087,4.47131 -185.5,2.45197 z m 65.44919,-131.88852 c -1.12794,-0.45688 -35.50182,-48.24086 -76.3864,-106.18661 -40.88457,-57.94575 -74.71825,-105.77745 -75.18594,-106.29267 -0.51246,-0.56452 -1.77531,-0.0678 -3.17806,1.25 -1.5595,1.46508 -3.5947,2.18676 -6.16685,2.18676 -3.20948,0 -4.45699,-0.66923 -7.60608,-4.08031 -7.23646,-7.8385 -13.37039,-22.97093 -17.0225,-41.99459 -2.92669,-15.24501 -2.82103,-14.97208 -4.37588,-11.3034 -3.91477,9.23688 -14.90026,8.03709 -17.62843,-1.92532 C 573.267,377.38837 571.65179,370.325 570.30968,364 c -3.10589,-14.63729 -4.16236,-43.72033 -2.07625,-57.15639 l 1.34401,-8.65638 -2.42358,1.90638 c -2.39163,1.88126 -7.45676,2.49486 -10.60906,1.28521 -2.96539,-1.13793 -4.29569,-5.7733 -4.98753,-17.37882 -2.38125,-39.94507 10.22947,-87.82518 33.28987,-126.39426 l 4.84641,-8.10574 -0.95793,-15 C 587.65929,117.64608 588.897,88.952052 591.51781,70 596.90356,31.05361 609.38551,6.0959676 625.96163,1.1296429 635.62107,-1.7643964 650.55392,1.0951363 666.5,8.8924469 681.40931,16.182799 680.60839,15.015069 677.39307,24.774295 675.90253,29.298433 674.26129,33 673.74587,33 c -0.51542,0 -2.1316,-0.843522 -3.5915,-1.874494 -4.38363,-3.095681 -16.32584,-8.805682 -22.99714,-10.995756 -6.838,-2.244801 -12.43047,-2.858056 -15.86637,-1.739864 -1.94943,0.63443 -0.47991,2.162271 12.5,12.996157 17.87867,14.922703 22.48558,19.843192 26.38958,28.185862 4.95757,10.594085 4.84689,23.367856 -0.26467,30.546389 -1.08085,1.517909 -7.24156,6.707812 -13.69047,11.533116 -22.96538,17.18351 -39.68334,37.12506 -58.15843,69.37267 -11.37835,19.86049 -19.4816,40.77707 -24.41598,63.02392 C 571.16634,245.24972 569,261.31841 569,268.54575 v 3.62459 l 4.89204,-3.59109 c 10.8078,-7.93366 19.34991,-8.87962 22.64495,-2.50773 2.06763,3.99837 1.85468,5.81845 -1.46475,12.51876 -8.71427,17.5899 -12.10556,40.92184 -9.70123,66.74404 0.76966,8.266 0.91967,8.69568 2.33197,6.67934 0.83017,-1.18523 3.32913,-3.47317 5.55325,-5.08431 5.02207,-3.63797 9.87833,-3.8857 13.09597,-0.66806 2.00548,2.00548 2.39547,3.91188 3.4474,16.85187 1.22181,15.02978 3.18081,27.46063 5.77429,36.64083 l 1.4843,5.25399 2.53911,-1.66369 c 1.98211,-1.29873 3.33617,-1.46413 6.17249,-0.75399 3.42925,0.8586 7.9972,7.08906 81.31499,110.9097 42.7249,60.5 78.00314,109.91853 78.3961,109.81895 0.39296,-0.0996 35.10089,-48.92458 77.12874,-108.5 42.02784,-59.57542 77.55899,-109.33145 78.95809,-110.56895 2.91743,-2.58046 5.789,-2.83418 9.59608,-0.84787 l 2.6638,1.38982 2.06567,-8.64598 c 3.13174,-13.10811 4.11972,-19.90581 4.95923,-34.12175 0.6917,-11.71284 0.99969,-13.23797 3.13164,-15.50733 1.73608,-1.84797 3.39264,-2.51689 6.23303,-2.51689 3.20895,0 4.69369,0.77184 8.70831,4.52706 4.19086,3.92005 4.93598,4.28878 5.55722,2.75 1.40136,-3.47111 1.82005,-31.78015 0.59404,-40.1649 -1.71705,-11.74293 -4.7011,-22.43024 -8.64815,-30.97312 -4.09764,-8.86879 -4.31352,-12.34501 -0.97403,-15.68449 4.33145,-4.33146 12.46861,-2.53749 22.47384,4.95473 1.88561,1.412 3.56301,2.43268 3.72751,2.26817 0.1645,-0.1645 -0.1407,-5.31115 -0.6783,-11.43699 -3.25835,-37.13057 -15.67965,-71.01812 -39.17666,-106.88099 -14.61627,-22.30842 -29.5768,-38.57806 -48.02017,-52.22213 -14.10296,-10.433109 -16.80108,-14.786381 -16.75703,-27.036563 0.0284,-7.909872 2.90804,-15.659548 8.60998,-23.171494 2.12645,-2.801466 10.96826,-10.982124 19.64847,-18.179241 10.49489,-8.701752 15.44801,-13.419839 14.7847,-14.083148 -1.2433,-1.243307 -8.00948,-1.026661 -13.45313,0.430758 -6.25704,1.675187 -15.35815,5.682837 -22.94113,10.102068 -3.75505,2.18838 -7.07358,3.732665 -7.3745,3.431744 -0.30092,-0.300921 -1.54288,-3.378604 -2.7599,-6.839296 -1.21703,-3.460693 -2.52523,-6.991276 -2.90712,-7.845741 -0.95028,-2.126253 11.06305,-8.9340537 24.01252,-13.6075878 13.82547,-4.98968715 24.75322,-5.677215 32.66488,-2.0551372 16.24224,7.4359452 26.48679,29.70414 32.33495,70.285294 1.29955,9.017715 1.77562,20.043549 1.9497,45.154904 l 0.23032,33.2239 3.55892,5.8586 c 6.57531,10.82414 17.4903,34.58256 22.0442,47.98328 8.6087,25.3327 11.9315,47.01865 11.4087,74.45749 -0.3244,17.02426 -0.4141,17.67982 -2.7596,20.17443 -3.2157,3.42008 -9.3576,3.57641 -12.9023,0.3284 l -2.4554,-2.25 0.6339,2.64602 c 1.744,7.27895 2.8512,24.55585 2.2976,35.85398 -1.1077,22.60854 -6.11133,46.64491 -10.41464,50.0299 -5.16092,4.05958 -12.22616,1.49351 -14.4794,-5.25886 l -1.42523,-4.27104 -0.69358,6.75604 c -1.87817,18.29479 -11.10865,43.5121 -19.03173,51.99396 -2.94263,3.15016 -4.15666,3.75 -7.58967,3.75 -2.91533,0 -4.7214,-0.64492 -6.30098,-2.25 L 941.5,434.5 l -75,106.19865 c -44.10806,62.45623 -75.94614,106.63169 -77.29705,107.25 -2.67727,1.22537 -4.89411,1.25221 -7.75376,0.0939 z M 964.04839,99 c -1.7351,-26.034546 -5.14721,-46.17087 -10.03926,-59.24604 l -2.14234,-5.72592 -14.99469,12.579258 c -15.56334,13.056299 -20.10661,18.105682 -22.01145,24.463474 -1.83327,6.118917 -0.72936,7.853559 9.819,15.429228 10.31132,7.405434 29.1201,25.43096 35.82035,34.32868 l 4,5.31188 0.32403,-5.32028 C 965.00224,117.89413 964.65321,108.075 964.04839,99 Z m -338.62515,5.46529 C 630.96546,98.946192 640,91.049589 645.5,86.91728 655.34783,79.518323 655.50405,79.336241 655.766,74.951995 656.23151,67.161064 652.14533,61.782919 634.88729,47.471864 626.61522,40.612339 619.45113,35 618.96709,35 c -1.10692,0 -5.30228,13.170015 -7.33601,23.029118 -2.8661,13.894233 -4.72607,31.391294 -5.25884,49.470882 l -0.53043,18 4.75233,-5.5 c 2.61379,-3.025 9.28688,-10.01562 14.8291,-15.53471 z M 759.5,482.44415 C 738.47459,478.51316 720.81216,471.43112 704.33985,460.3268 683.3269,446.16154 659.96019,420.14622 660.03499,411 c 0.0485,-5.92622 4.63443,-9.6598 10.51102,-8.55735 2.76107,0.51798 4.29898,2.00084 8.93113,8.61141 19.10948,27.27127 47.55824,46.23531 79.58924,53.05447 12.4177,2.64363 35.88766,3.13384 47.93362,1.00118 32.93815,-5.83151 64.52272,-25.94042 83.67565,-53.2737 3.17462,-4.53052 6.69683,-8.40733 8.13519,-8.95419 5.6141,-2.13448 12.18916,2.27217 12.18916,8.16926 0,7.92537 -26.20588,37.07031 -43.89192,48.81452 -15.56794,10.33771 -32.00707,17.34115 -51.10808,21.77319 -9.67035,2.24383 -46.03381,2.76216 -56.5,0.80536 z m 5.71997,-126.46167 c -19.30531,-5.05807 -31.31667,-16.18632 -36.5134,-33.82882 -1.99319,-6.76672 -2.4812,-7.50615 -6.18525,-9.37181 -5.84955,-2.94633 -16.04382,-10.35935 -18.44647,-13.41382 -2.97555,-3.7828 -2.6683,-7.92842 0.84823,-11.44495 4.25697,-4.25698 7.35268,-3.84682 15.43422,2.04493 12.80014,9.33178 23.21025,12.82082 32.81712,10.99891 C 757.66797,300.11474 767,295.73494 767,294.47817 c 0,-0.24064 -1.77492,-1.34302 -3.94428,-2.44974 -6.07143,-3.09742 -13.5836,-11.27161 -17.25148,-18.77181 C 742.64849,266.80364 742.5,265.9832 742.5,255 c 0,-10.77964 0.17445,-11.79677 2.78494,-16.23769 3.16122,-5.37782 7.88032,-8.9529 15.1878,-11.50593 7.56484,-2.64294 41.57729,-2.56053 49.74553,0.12053 6.83195,2.24245 13.0599,7.30081 15.98189,12.98054 4.39236,8.5378 3.35585,23.75188 -2.38481,35.00449 -2.69308,5.27888 -10.27296,13.23589 -15.56027,16.33446 -5.11566,2.99798 -4.70775,3.98944 3.02641,7.35583 10.1856,4.43342 21.97549,2.28522 34.76868,-6.3351 12.37461,-8.33827 11.84021,-8.09752 15.80162,-7.11863 4.56647,1.12841 7.53658,6.26359 6.3188,10.92493 -1.00852,3.86034 -15.85308,15.07023 -23.93589,18.0752 -0.14591,0.0542 -0.94745,2.71759 -1.78119,5.91855 -4.80158,18.43452 -19.33713,31.85991 -38.95351,35.97842 -10.13323,2.1275 -29.17571,1.87225 -38.28003,-0.51312 z m 38.27844,-18.0547 c 7.80979,-2.4122 13.78011,-6.72066 17.54969,-12.66468 1.62354,-2.56006 2.9519,-4.95129 2.9519,-5.31384 0,-0.36255 -3.2625,-0.93222 -7.25,-1.26594 -8.73306,-0.73087 -20.87802,-6.32274 -27.37066,-12.6022 l -4.12066,-3.98537 -2.37934,2.59446 C 776.22867,311.94218 760.69993,319 751.39466,319 c -5.28697,0 -5.54867,1.12872 -1.53019,6.59996 4.16968,5.67712 6.9689,7.97723 13.13848,10.79584 10.52605,4.8089 27.77352,5.46138 40.49546,1.53198 z M 672.83835,239.8182 c -5.30982,-1.414 -11.30379,-7.02526 -14.52188,-13.59469 -2.52911,-5.16293 -2.80434,-6.75344 -2.81009,-16.2391 -0.006,-9.84816 0.19989,-10.93492 3.24355,-17.12257 3.85259,-7.83218 10.12437,-13.97435 18.07492,-17.70143 4.95932,-2.32484 6.93649,-2.66041 15.67515,-2.66041 8.75678,0 10.71088,0.33319 15.71807,2.68006 7.58018,3.55283 14.79059,10.45813 18.20814,17.43767 2.42123,4.94481 2.73101,6.59784 2.41375,12.88037 -0.30149,5.97048 -0.86024,7.92366 -3.25546,11.37997 -6.50964,9.3934 -36.649,24.6709 -47.38372,24.01858 -0.93543,-0.0568 -3.34852,-0.54215 -5.36243,-1.07845 z M 885,239.96263 c -6.12675,-1.21455 -27.54654,-11.9557 -33.97486,-17.03699 -10.16148,-8.03219 -12.50861,-19.11783 -6.54112,-30.8941 9.94223,-19.62006 36.79689,-26.29366 55.14723,-13.70454 10.93413,7.50128 17.11645,20.6037 16.09492,34.11059 C 914.2393,232.09746 901.75227,243.28356 885,239.96263 Z M 776.61096,99.886289 c -2.13896,-0.502045 -6.0836,-2.107244 -8.76585,-3.567109 l -4.87683,-2.6543 -7.85683,2.735047 C 734.9567,103.416 714.81594,99.598033 701.08009,86.157503 691.19807,76.487956 685,61.176045 685,46.43276 685,30.687942 691.82222,15.787538 702.32211,8.599567 710.71604,2.8532866 715.121,1.6162519 727,1.6693291 c 9.04888,0.040432 11.81292,0.4847925 20,3.2152916 5.225,1.7426068 11.02687,3.9887955 12.89305,4.9915305 3.34557,1.7976448 3.45101,1.7907558 7.53593,-0.4923484 2.27859,-1.2735265 6.99025,-3.0449633 10.47036,-3.9365262 7.6584,-1.9619915 15.56122,-0.9244103 23.85116,3.1314795 l 5.3201,2.6028839 8.82465,-3.532005 c 27.41845,-10.9740396 48.01413,-7.72794539 61.13778,9.635951 6.92258,9.159251 10.48064,26.343186 8.03183,38.790263 -1.42974,7.267215 -5.3368,16.784738 -9.31897,22.700814 -13.36076,19.849316 -39.88476,26.665737 -63.82692,16.40293 -4.47679,-1.918977 -4.60986,-1.920302 -6.99131,-0.06958 -5.99076,4.65567 -19.28024,6.897257 -28.3167,4.776273 z"
       id="path1" />
  </g>
</svg>
