<?xml version="1.0" encoding="UTF-8" standalone="no"?>
<!-- Created with Inkscape (http://www.inkscape.org/) -->

<svg
   version="1.1"
   id="svg1"
   width="1716"
   height="672"
   viewBox="0 0 1716 672"
   sodipodi:docname="pawfume-logo.svg"
   inkscape:version="1.3.2 (091e20e, 2023-11-25, custom)"
   xmlns:inkscape="http://www.inkscape.org/namespaces/inkscape"
   xmlns:sodipodi="http://sodipodi.sourceforge.net/DTD/sodipodi-0.dtd"
   xmlns="http://www.w3.org/2000/svg"
   xmlns:svg="http://www.w3.org/2000/svg">
  <defs
     id="defs1" />
  <sodipodi:namedview
     id="namedview1"
     pagecolor="#ffffff"
     bordercolor="#000000"
     borderopacity="0.25"
     inkscape:showpageshadow="2"
     inkscape:pageopacity="0.0"
     inkscape:pagecheckerboard="0"
     inkscape:deskcolor="#d1d1d1"
     inkscape:zoom="0.63170163"
     inkscape:cx="858"
     inkscape:cy="336.39299"
     inkscape:window-width="1920"
     inkscape:window-height="991"
     inkscape:window-x="-9"
     inkscape:window-y="-9"
     inkscape:window-maximized="1"
     inkscape:current-layer="g1" />
  <g
     inkscape:groupmode="layer"
     inkscape:label="Image"
     id="g1">
    <path
       style="fill:#000000"
       d="M 337,671.39371 C 317.48811,669.6429 300.6265,666.02019 288.73538,661.02407 255.82751,647.19765 237.26395,620.78383 233.0495,581.78941 232.39695,575.75159 232,538.21297 232,482.53941 V 393 h 9.46246 l 9.46246,0 0.32745,96.75 c 0.32679,96.55827 0.33188,96.76684 2.57191,105.25 7.2795,27.56808 23.91638,45.26191 50.70922,53.93082 13.5544,4.38557 28.16084,6.26666 48.4665,6.24177 26.96445,-0.0331 42.60156,-2.99802 60,-11.37666 9.11137,-4.3878 11.63916,-6.19649 19.11366,-13.67623 6.99194,-6.99683 9.38075,-10.22003 12.68794,-17.1197 5.04465,-10.52446 7.80011,-21.21003 9.15431,-35.5 0.6306,-6.65431 1.04275,-45.27169 1.04325,-97.75 L 455,393 h 9.0417 9.04171 l -0.35176,97.25 c -0.34317,94.87595 -0.40316,97.45906 -2.45744,105.81377 -10.4832,42.6348 -38.22162,66.35238 -85.87684,73.4285 -10.5539,1.5671 -38.58925,2.6918 -47.39737,1.90144 z M 0,529.5 V 393 H 98.5 197 v 8.5 8.5 H 107.5 18 v 53.5 53.5 h 85 85 v 8 8 H 103 18 V 599.5 666 H 9 0 Z m 527,-0.0282 V 392.94356 l 13.54861,0.27822 13.54861,0.27822 65.66112,124.11066 65.66112,124.11065 30.97535,-58.61065 C 733.43126,550.8748 762.95894,495.025 782.01188,459 L 816.6536,393.5 830.3268,393.22178 844,392.94356 V 529.47178 666 h -9.49605 -9.49605 L 824.75395,543.45757 824.5,420.91515 l -65,122.52302 -65,122.52303 -9.07367,0.0194 L 676.35266,666 610.92633,542.7197 545.5,419.43941 545.24608,542.7197 544.99216,666 H 535.99608 527 Z M 900,529.5 V 393 h 107.5 107.5 v 8.5 8.5 H 1016.5 918 v 53.5 53.5 h 94.5 94.5 v 8 8 H 1012.5 918 v 58 58 h 99.5 99.5 v 8.5 8.5 H 1008.5 900 Z M 1195,648 v -13 h -5 c -4.8889,0 -5,-0.0667 -5,-3 v -3 h 13.5 13.5 v 3 c 0,2.93333 -0.1111,3 -5,3 h -5 v 13 13 h -3.5 -3.5 z m 22,-3 v -16 h 5.2693 5.2693 l 4.0087,10.52006 4.0086,10.52006 3.9603,-10.52006 L 1243.4764,629 h 5.2618 5.2618 v 16 16 h -3.4662 -3.4661 l -0.2839,-10.75 -0.2838,-10.75 -4,10.74534 c -3.8657,10.38453 -4.1007,10.74529 -7,10.74417 -2.8988,-0.001 -3.135,-0.36374 -7,-10.74533 l -4,-10.74418 -0.2838,10.75 -0.2839,10.75 H 1220.4662 1217 Z m 179.5,-11.02432 c -11.1276,-3.21243 -35.6985,-15.88003 -52,-26.80871 -26.0837,-17.48679 -50.1415,-37.17521 -75.2438,-61.57798 -30.3285,-29.48345 -50.6974,-54.81214 -60.4886,-75.21752 -3.6765,-7.66206 -4.2141,-9.69402 -4.5705,-17.27738 -2.2848,-48.60498 41.4934,-110.95484 109.3029,-155.67155 45.799,-30.20195 89.3392,-45.17412 120.7628,-41.52662 43.5987,5.06073 78.4497,33.97864 104.7234,86.89513 23.6588,47.64986 35.1332,104.4717 29.5563,146.3642 -6.6339,49.83216 -33.6832,94.43302 -73.3633,120.96654 -16.9793,11.35387 -29.8027,17.11622 -49.1792,22.09933 -9.6741,2.48793 -13.9609,3.02243 -27,3.36644 -13.3783,0.35297 -16.4582,0.13233 -22.5,-1.61188 z m 228,-284.45595 c -11.9423,-2.21746 -18.4176,-5.18082 -24.2013,-11.07553 -7.215,-7.35354 -8.7574,-12.72062 -8.7489,-30.4442 0.01,-16.6724 2.1268,-25.56361 9.8973,-41.53245 13.2101,-27.14745 35.3655,-46.89512 59.5132,-53.04551 4.8568,-1.23703 9.5938,-1.54779 19.0853,-1.25206 11.8777,0.37007 13.0233,0.58938 19.3506,3.70429 7.5747,3.72902 11.3924,8.1209 14.2974,16.44793 1.5398,4.41351 1.806,8.57281 1.8039,28.1778 -0,20.75873 -0.2217,23.79685 -2.2527,31.17728 -8.4895,30.85022 -26.2852,51.93071 -48.7864,57.79153 -7.2792,1.89601 -29.8665,1.92479 -39.9584,0.0509 z M 11,178.5 V 27 l 80.25,0.0086 c 45.4669,0.0048 85.16939,0.443983 91.59979,1.013157 29.22846,2.587098 48.79343,10.461621 63.89675,25.717207 5.88702,5.946372 8.17036,9.237104 12.1707,17.54034 6.10748,12.676875 8.18137,21.598257 8.83928,38.024513 1.20568,30.1025 -6.47754,53.87946 -23.08361,71.43595 -12.31092,13.01553 -26.90067,20.92034 -47.17291,25.55856 -8.49062,1.94263 -12.72134,2.08068 -74.75,2.43918 L 57,209.11747 V 269.55873 330 H 34 11 Z m 174.5,-11.8376 c 9.8429,-2.88177 16.19321,-6.25903 21.8776,-11.63508 10.05174,-9.50652 14.58147,-21.78494 14.60762,-39.59582 0.0346,-23.544628 -10.19911,-38.705486 -30.8106,-45.644893 -6.5983,-2.221494 -7.40358,-2.250823 -70.42462,-2.564935 L 57,66.903926 v 51.097774 51.09776 l 61.25,-0.3402 c 54.83995,-0.3046 61.87792,-0.52405 67.25,-2.09686 z M 290.36479,327.75 c 0.31988,-1.2375 30.92283,-69.3 68.00655,-151.25 l 67.42494,-149 25.90891,-0.266227 25.90891,-0.266226 1.79614,3.766226 C 485.91381,44.370704 614,328.25377 614,329.03098 614,329.63135 604.16505,330 588.14794,330 h -25.85207 l -12.78078,-29.25 c -7.02943,-16.0875 -15.69792,-35.89039 -19.2633,-44.00642 l -6.48252,-14.75642 -73.50296,0.25642 L 376.76335,242.5 357.64157,286.25 338.5198,330 H 314.15149 289.78318 Z M 505.70173,199.20954 C 481.74631,143.58396 450.41352,72.000782 450.022,72.003128 449.51943,72.00614 395.83591,197.94232 395.17668,200.66476 394.90992,201.76637 404.65606,202 450.8784,202 h 56.02505 z M 668.10378,179.72897 C 640.93585,97.103036 618.51085,28.9375 618.27044,28.25 617.92834,27.271692 623.26339,27 642.81588,27 l 24.98255,0 1.92727,6.25 C 683.93231,79.321119 744.54436,270 744.98261,270 c 0.32422,0 18.57327,-54.67213 40.55344,-121.49361 L 825.5,27.012777 852.52902,27.006389 879.55804,27 920.44798,148.25 c 22.48947,66.6875 41.15328,121.56686 41.47512,121.95414 0.32185,0.38728 15.85718,-47.98772 34.52296,-107.5 C 1015.1118,103.19186 1032.3399,48.3125 1034.7305,40.75 l 4.3467,-13.75 23.4614,0 c 18.3194,0 23.4614,0.278795 23.4614,1.272053 0,0.69963 -22.8962,68.76213 -50.8804,151.249997 L 984.23923,329.5 959.36962,329.75074 934.5,330.00148 893.12687,206.25074 C 870.37165,138.18783 851.44694,82.160295 851.07197,81.745101 850.697,81.329906 831.80505,137.01741 809.08987,205.4951 L 767.78954,330 l -25.14477,-0.021 -25.14477,-0.021 z m 531.38312,118.47226 c -8.426,-2.91366 -14.6028,-7.13494 -23.5732,-16.11024 -9.9528,-9.95818 -17.1115,-20.20129 -24.4886,-35.03987 -10.6208,-21.36294 -14.0009,-35.77355 -13.1357,-56.00243 2.2699,-53.07598 25.0968,-81.16489 66.2106,-81.4736 9.3114,-0.0699 10.3732,0.13148 15.4192,2.92491 12.2144,6.76181 26.0261,25.00486 38.6118,51 13.074,27.00389 25.1038,61.77925 26.2058,75.75516 0.4876,6.18304 0.2522,7.32641 -2.7786,13.5 -7.7415,15.7687 -37.232,37.75968 -61.2431,45.66872 -6.2129,2.04646 -14.9305,1.95503 -21.2282,-0.22265 z M 1506,225.50378 c -20.1421,-4.53951 -37.3388,-20.21438 -46.0532,-41.97779 -10.5598,-26.3716 -9.9777,-53.78888 1.8957,-89.294646 12.6272,-37.760128 33.1003,-67.789484 56.7362,-83.219175 11.4008,-7.442519 19.8518,-10.19672201 33.0486,-10.77057713 12.81,-0.5570423 17.9534,0.66176405 27.8727,6.60493433 17.2515,10.3362158 35.0015,36.6542728 45.2868,67.1470748 3.1419,9.314812 3.5396,11.640552 3.5063,20.506399 -0.071,18.91476 -5.7558,41.2226 -15.7996,62 -8.3312,17.23473 -16.3219,28.43821 -29.956,42 -13.7117,13.63908 -23.0187,19.82701 -37.2178,24.74498 -7.5367,2.61041 -10.5654,3.10345 -20.8197,3.38927 -8.0497,0.22437 -14.1397,-0.14777 -18.5,-1.13047 z m -156.6777,-6.60205 c -33.9995,-5.67656 -59.1162,-40.6947 -64.4145,-89.8081 -2.7259,-25.26872 3.8053,-61.614014 15.1355,-84.226508 11.4667,-22.885105 28.7382,-38.349871 48.4168,-43.3520896 8.7417,-2.22209337 26.33,-1.99840267 35.9304,0.4569671 28.0488,7.1736726 49.1554,33.1060515 53.596,65.8499605 1.3805,10.179586 0.4745,17.261135 -5.0319,39.32969 C 1424.3313,141.71245 1401.7145,212 1399.217,212 c -0.8224,0 -5.8202,1.32813 -11.1062,2.95139 -15.8471,4.86651 -26.6882,5.9706 -38.7885,3.95034 z"
       id="path1" />
  </g>
</svg>
