<?xml version="1.0" encoding="UTF-8" standalone="no"?>
<svg
   width="2093.9685"
   height="578.82013"
   viewBox="0 0 161.45 44.628421"
   version="1.1"
   id="svg2"
   sodipodi:docname="royal canin.svg"
   inkscape:version="1.3.2 (091e20e, 2023-11-25, custom)"
   xmlns:inkscape="http://www.inkscape.org/namespaces/inkscape"
   xmlns:sodipodi="http://sodipodi.sourceforge.net/DTD/sodipodi-0.dtd"
   xmlns="http://www.w3.org/2000/svg"
   xmlns:svg="http://www.w3.org/2000/svg">
  <defs
     id="defs2" />
  <sodipodi:namedview
     id="namedview2"
     pagecolor="#ffffff"
     bordercolor="#000000"
     borderopacity="0.25"
     inkscape:showpageshadow="2"
     inkscape:pageopacity="0.0"
     inkscape:pagecheckerboard="0"
     inkscape:deskcolor="#d1d1d1"
     inkscape:zoom="0.3108"
     inkscape:cx="1045.6885"
     inkscape:cy="326.57658"
     inkscape:window-width="1920"
     inkscape:window-height="991"
     inkscape:window-x="-9"
     inkscape:window-y="-9"
     inkscape:window-maximized="1"
     inkscape:current-layer="svg2" />
  <g
     fill-rule="evenodd"
     clip-rule="evenodd"
     id="g2"
     transform="translate(-15.654,-71.216)">
    <path
       d="m 94.002,76.715 c 1.496,0 2.728,-1.231 2.728,-2.75 0,-1.518 -1.231,-2.749 -2.728,-2.749 a 2.75,2.75 0 0 0 0,5.499 z m -14.253,1.21 a 2.75,2.75 0 1 0 -5.5,0 2.75,2.75 0 0 0 5.5,0 z m 2.992,5.872 c 0,-0.968 -0.506,-1.825 -1.254,-2.309 a 2.706,2.706 0 0 0 -1.496,-0.44 2.764,2.764 0 0 0 -2.75,2.749 2.765,2.765 0 0 0 2.75,2.75 2.71,2.71 0 0 0 1.496,-0.44 2.756,2.756 0 0 0 1.254,-2.31 z m 23.821,6.687 C 99.72,85.909 91.715,85.491 82.476,90.088 c -0.726,0.572 -0.968,1.122 -0.704,1.606 0.22,0.638 0.88,0.484 1.605,0.22 7.501,-4.004 15.178,-4.29 22.215,0.088 0.396,0.198 0.771,0.198 1.277,-0.198 0,-0.022 0,-0.044 0.021,-0.066 a 1.353,1.353 0 0 0 0,-0.726 1.3,1.3 0 0 0 -0.328,-0.528 z m 0.331,-2.925 c -8.117,-4.267 -16.695,-4.553 -25.406,-0.154 -0.132,0.066 -0.242,0.132 -0.352,0.176 -0.836,0.66 -1.1,1.253 -0.792,1.804 0.176,0.506 0.616,0.572 1.144,0.44 a 4.19,4.19 0 0 0 0.638,-0.198 c 8.314,-4.443 16.805,-4.751 24.592,0.088 0.066,0.022 0.109,0.044 0.176,0.066 0.373,0.154 0.748,0.11 1.254,-0.264 0.176,-0.616 0.021,-1.1 -0.352,-1.474 a 11.92,11.92 0 0 0 -0.902,-0.484 z m 4.113,-12.516 a 2.765,2.765 0 0 0 -2.75,2.75 2.751,2.751 0 0 0 5.5,0 2.766,2.766 0 0 0 -2.75,-2.75 z m -2.705,5.851 c -0.506,0 -0.99,0.132 -1.408,0.396 -0.814,0.462 -1.342,1.342 -1.342,2.354 0,0.99 0.527,1.87 1.342,2.354 0.418,0.242 0.902,0.396 1.408,0.396 a 2.763,2.763 0 0 0 2.748,-2.75 2.75,2.75 0 0 0 -2.748,-2.75 z M 85.292,77.771 a 2.764,2.764 0 0 0 2.749,-2.75 2.75,2.75 0 0 0 -5.499,0 2.765,2.765 0 0 0 2.75,2.75 z m 17.399,-0.132 c 1.496,0 2.727,-1.231 2.727,-2.75 0,-1.518 -1.23,-2.75 -2.727,-2.75 a 2.751,2.751 0 0 0 0,5.5 z m -1.341,6.203 a 2.751,2.751 0 0 0 0,-5.5 2.751,2.751 0 0 0 0,5.5 z m -17.355,-2.42 a 2.75,2.75 0 1 0 5.5,0 2.75,2.75 0 0 0 -5.5,0 z m 10.007,1.584 c 1.496,0 2.728,-1.232 2.728,-2.75 0,-1.518 -1.231,-2.75 -2.728,-2.75 a 2.751,2.751 0 0 0 0,5.5 z M 65.518,97.941 c 0.308,-1.188 0.154,-1.98 -0.484,-2.354 -0.638,-0.55 -1.319,-0.726 -2.045,-0.528 -0.154,0.066 -0.33,0.132 -0.506,0.22 -1.826,1.957 -3.673,3.892 -5.521,5.851 -1.958,-1.959 -3.85,-3.807 -5.829,-5.763 -0.704,-0.484 -1.54,-0.374 -2.134,0 -0.176,0.11 -0.33,0.22 -0.439,0.352 -0.682,0.923 -0.77,1.935 -0.264,2.75 0.242,0.242 0.462,0.484 0.704,0.727 2.002,2.178 4.025,4.355 6.049,6.531 v 8.205 c 0.528,1.078 1.231,1.605 2.089,1.518 1.1,0 1.694,-0.527 2.068,-1.363 v -8.535 c 1.254,-1.518 2.53,-3.057 3.783,-4.574 0.857,-1.013 1.693,-2.046 2.529,-3.037 z m 24.041,12.801 H 84.236 V 96.379 c -0.066,-2.265 -4.487,-2.243 -4.487,0 v 17.422 c 0.066,0.725 0.33,1.121 0.814,1.188 h 8.996 c 2.31,-0.046 2.354,-4.335 0,-4.247 z m 33.39,-12.955 a 95.916,95.916 0 0 0 -1.803,-2.288 c -0.551,-0.792 -1.299,-1.1 -2.311,-0.836 -0.967,0.022 -1.539,0.594 -1.672,1.672 v 17.332 c 0.221,1.166 0.924,1.738 2.09,1.738 1.188,0 1.936,-0.527 2.287,-1.562 v -2.639 h 5.609 c 0.99,1.275 1.957,2.572 2.947,3.85 0.902,0.482 1.826,0.439 2.75,-0.133 0.791,-0.572 1.057,-1.385 0.791,-2.441 -3.518,-4.927 -6.971,-9.898 -10.688,-14.693 z m 0,9.063 c -0.418,-0.021 -0.857,-0.021 -1.275,-0.021 0,-1.078 0.043,-2.201 0.043,-3.301 0.441,0.463 0.859,0.924 1.232,1.408 0.463,0.594 0.881,1.232 1.275,1.936 -0.439,-0.022 -0.857,-0.022 -1.275,-0.022 z m -10.053,1.738 c -1.34,1.318 -2.66,2.088 -3.914,2.264 -1.693,0.221 -3.014,-0.064 -3.895,-0.879 -1.188,-0.879 -1.957,-1.957 -2.309,-3.256 -0.285,-1.166 -0.264,-2.375 0.066,-3.65 0.395,-1.166 1.143,-2.068 2.242,-2.729 0.969,-0.637 2.068,-0.879 3.256,-0.9 1.518,0.064 2.771,0.812 3.871,1.67 1.123,0.793 2.023,0.793 3.035,0.045 0.705,-0.945 0.902,-1.914 0.111,-3.102 -0.264,-0.439 -1.629,-3.189 -7.303,-3.299 -5.676,-0.132 -10.295,4.598 -10.295,10.272 0,5.676 4.619,10.295 10.295,10.295 5.674,0 7.082,-2.707 7.699,-3.74 0.416,-1.033 0.328,-1.891 -0.287,-2.529 -0.679,-0.661 -1.472,-0.904 -2.572,-0.462 z m 34.909,-13.924 c -1.078,0.044 -1.738,0.594 -2.068,1.473 v 10.053 c -2.176,-3.607 -4.354,-7.236 -6.531,-10.822 -0.705,-0.726 -1.717,-0.902 -2.992,-0.506 -0.924,0.33 -1.539,0.989 -1.803,1.98 v 16.848 c 0.043,1.078 0.791,1.584 2.266,1.541 1.121,-0.088 1.824,-0.617 2.111,-1.541 -0.023,-3.52 -0.023,-7.037 -0.045,-10.535 2.135,3.65 4.268,7.303 6.4,10.953 0.463,0.748 1.189,1.211 2.486,1.012 1.232,-0.043 1.98,-0.703 2.441,-1.803 V 96.182 c -0.418,-1.035 -1.166,-1.54 -2.265,-1.518 z m 27.033,-0.176 c -1.078,0.044 -1.738,0.594 -2.068,1.474 v 10.052 c -2.176,-3.607 -4.354,-7.236 -6.531,-10.822 -0.727,-0.726 -1.717,-0.902 -2.992,-0.505 -0.945,0.33 -1.539,0.989 -1.803,1.98 v 16.826 c 0.043,1.1 0.791,1.605 2.242,1.562 1.145,-0.088 1.848,-0.617 2.135,-1.562 -0.023,-3.498 -0.023,-7.018 -0.045,-10.514 2.135,3.65 4.268,7.303 6.379,10.953 0.484,0.748 1.211,1.211 2.508,1.012 1.209,-0.043 1.98,-0.703 2.441,-1.803 V 96.006 c -0.418,-1.034 -1.188,-1.54 -2.266,-1.518 z m -19.334,0.132 c -1.211,0 -2.068,0.572 -2.311,1.98 v 16.848 c 0.375,1.365 1.211,1.76 2.223,1.738 1.1,-0.021 2.023,-0.439 2.572,-1.76 V 96.512 c -0.351,-1.321 -1.164,-1.958 -2.484,-1.892 z m -125.839,17.927 -3.233,-4.752 c 0.528,-0.615 1.078,-1.209 1.627,-1.803 0.814,-1.387 1.254,-2.859 1.122,-4.467 -0.286,-1.957 -0.924,-3.453 -2.046,-4.354 -1.209,-1.232 -2.706,-1.958 -4.597,-1.892 -0.088,0 -0.154,0.022 -0.22,0.022 -1.54,0.22 -2.925,0.682 -4.267,1.694 -1.056,0.924 -1.804,2.023 -2.397,3.607 l 0.264,12.713 c 0.264,1.715 1.078,2.551 2.397,2.529 1.056,-0.043 1.738,-0.639 2.068,-1.76 0.022,-1.781 0.066,-3.586 0.088,-5.389 -0.11,-0.242 -0.022,-0.463 0.22,-0.594 0.594,0.131 0.704,0.572 0.924,0.945 0.22,0.309 0.462,0.594 0.704,0.879 a 523.474,523.474 0 0 0 4.333,5.434 c 0.99,0.463 1.87,0.396 2.618,-0.219 0.154,-0.199 0.308,-0.396 0.396,-0.617 0.308,-0.615 0.374,-1.23 0.044,-1.914 -0.002,-0.019 -0.023,-0.041 -0.045,-0.062 z m -7.348,-8.227 a 2.315,2.315 0 0 1 -2.332,-2.311 2.334,2.334 0 0 1 2.332,-2.332 c 1.276,0 2.31,1.057 2.31,2.332 a 2.31,2.31 0 0 1 -2.31,2.311 z m 17.399,-9.216 c -4.883,0 -8.996,3.41 -10.052,7.963 -0.154,0.748 -0.264,1.518 -0.264,2.309 0,0.793 0.11,1.562 0.264,2.311 1.056,4.574 5.169,7.984 10.052,7.984 4.069,0 7.611,-2.398 9.282,-5.852 0.638,-1.342 1.012,-2.859 1.012,-4.443 0,-1.584 -0.374,-3.102 -1.012,-4.441 -1.671,-3.433 -5.212,-5.831 -9.282,-5.831 z m 0,15.837 c -3.079,0 -5.564,-2.508 -5.564,-5.566 a 5.57,5.57 0 0 1 5.564,-5.564 c 3.058,0 5.565,2.508 5.565,5.564 10e-4,3.059 -2.507,5.566 -5.565,5.566 z M 75.24,94.664 C 74.228,94.4 73.48,94.708 72.93,95.5 a 93.465,93.465 0 0 0 -1.804,2.288 c -2.815,3.607 -5.477,7.348 -8.138,11.086 -0.835,1.209 -1.694,2.398 -2.551,3.607 -0.264,1.057 0,1.869 0.792,2.441 0.594,0.373 1.188,0.527 1.759,0.463 0.33,-0.045 0.66,-0.154 0.99,-0.33 0.99,-1.277 1.958,-2.574 2.947,-3.85 h 5.609 v 2.639 c 0.352,1.035 1.1,1.562 2.266,1.562 1.166,0 1.87,-0.572 2.111,-1.738 V 96.336 c -0.153,-1.078 -0.703,-1.65 -1.671,-1.672 z m -4.114,12.186 c -0.417,0 -0.857,0 -1.275,0.021 0.396,-0.703 0.814,-1.342 1.275,-1.936 0.374,-0.484 0.792,-0.945 1.232,-1.408 0,1.1 0.044,2.223 0.044,3.301 -0.44,0 -0.857,0 -1.276,0.022 z"
       fill="#cc2229"
       id="path2"
       style="fill:#1b2b45;fill-opacity:1" />
  </g>
</svg>
