<svg xmlns="http://www.w3.org/2000/svg" xmlns:xlink="http://www.w3.org/1999/xlink" width="200" zoomAndPan="magnify" viewBox="0 0 150 74.999997" height="100" preserveAspectRatio="xMidYMid meet" version="1.0"><path fill="#1b2b45" d="M 107.320312 17.257812 C 105.953125 17.214844 104.585938 17.175781 103.222656 17.214844 C 100.367188 17.257812 97.46875 17.464844 94.613281 17.917969 C 94.199219 18.003906 93.785156 18.042969 93.371094 18.125 C 87.328125 19.160156 81.328125 21.148438 75.535156 23.960938 C 75.121094 24.167969 74.707031 24.375 74.292969 24.582031 C 73.09375 25.203125 71.933594 25.824219 70.734375 26.527344 C 70.320312 26.777344 69.90625 26.984375 69.492188 27.273438 C 63.367188 30.914062 57.449219 35.632812 51.613281 41.300781 C 51.199219 41.675781 50.785156 42.089844 50.371094 42.503906 C 49.585938 43.328125 48.800781 44.117188 48.011719 44.945312 C 47.972656 44.984375 47.890625 45.066406 47.847656 45.152344 C 47.476562 45.523438 47.144531 45.894531 46.773438 46.308594 C 46.730469 46.308594 46.648438 46.351562 46.648438 46.433594 L 48.097656 45.109375 C 48.136719 45.066406 48.179688 44.984375 48.21875 44.945312 C 49.253906 43.910156 49.957031 43.207031 50.289062 42.875 C 50.660156 42.503906 51.074219 42.089844 51.53125 41.675781 C 57.449219 36.003906 63.449219 31.328125 69.492188 27.6875 C 69.90625 27.394531 70.320312 27.1875 70.734375 26.941406 C 71.933594 26.238281 73.09375 25.617188 74.292969 24.996094 C 74.707031 24.789062 75.121094 24.582031 75.535156 24.375 C 81.328125 21.5625 87.328125 19.574219 93.371094 18.539062 C 93.785156 18.5 94.199219 18.414062 94.613281 18.332031 C 95.6875 18.167969 96.722656 18.042969 97.800781 17.917969 C 100.902344 17.464844 104.089844 17.257812 107.320312 17.257812 " fill-opacity="1" fill-rule="nonzero"/><path fill="#1b2b45" d="M 107.320312 17.257812 C 104.089844 17.257812 100.902344 17.464844 97.800781 17.917969 C 96.722656 18.125 95.6875 18.332031 94.613281 18.539062 C 94.199219 18.664062 93.785156 18.746094 93.371094 18.871094 L 93.371094 41.675781 L 75.535156 41.675781 L 74.292969 42.914062 L 94.613281 42.914062 L 94.613281 19.078125 C 97.757812 18.414062 100.945312 17.878906 104.089844 17.628906 C 105.582031 17.464844 107.070312 17.382812 108.601562 17.339844 C 108.1875 17.296875 107.773438 17.296875 107.320312 17.257812 " fill-opacity="1" fill-rule="nonzero"/><path fill="#1b2b45" d="M 93.371094 18.871094 C 93.785156 18.746094 94.199219 18.664062 94.613281 18.539062 C 95.6875 18.332031 96.722656 18.125 97.800781 17.917969 C 96.722656 18.042969 95.6875 18.167969 94.613281 18.332031 C 94.199219 18.414062 93.785156 18.5 93.371094 18.539062 C 87.328125 19.574219 81.328125 21.5625 75.535156 24.375 C 75.121094 24.582031 74.707031 24.789062 74.292969 24.996094 C 73.09375 25.617188 71.933594 26.238281 70.734375 26.941406 C 70.320312 27.191406 69.90625 27.394531 69.492188 27.6875 C 63.449219 31.328125 57.449219 36.003906 51.53125 41.675781 L 69.492188 41.675781 L 69.492188 28.84375 C 69.90625 28.597656 70.320312 28.308594 70.734375 28.101562 C 71.933594 27.394531 73.09375 26.777344 74.292969 26.113281 C 74.707031 25.90625 75.121094 25.699219 75.535156 25.492188 L 75.535156 41.675781 L 93.371094 41.675781 Z M 93.371094 18.871094 " fill-opacity="1" fill-rule="nonzero"/><path fill="#1b2b45" d="M 74.292969 26.609375 L 75.535156 25.492188 C 75.121094 25.699219 74.707031 25.90625 74.292969 26.113281 C 73.09375 26.777344 71.933594 27.398438 70.734375 28.101562 C 70.320312 28.308594 69.90625 28.597656 69.492188 28.84375 L 69.492188 41.675781 L 51.53125 41.675781 C 51.074219 42.089844 50.660156 42.503906 50.289062 42.875 C 49.957031 43.207031 49.253906 43.910156 48.21875 44.945312 C 48.179688 44.984375 48.136719 45.066406 48.097656 45.109375 C 48.136719 45.066406 48.179688 44.984375 48.261719 44.945312 C 49.503906 43.828125 50.332031 43.164062 50.703125 42.914062 L 70.734375 42.914062 L 70.734375 28.515625 C 71.933594 27.851562 73.09375 27.1875 74.292969 26.609375 " fill-opacity="1" fill-rule="nonzero"/><path fill="#1b2b45" d="M 75.535156 25.492188 L 74.292969 26.609375 L 74.292969 42.914062 L 75.535156 41.675781 Z M 75.535156 25.492188 " fill-opacity="1" fill-rule="nonzero"/><path fill="#1b2b45" d="M 96.226562 15.230469 C 97.800781 15.105469 99.414062 15.023438 101.027344 14.980469 C 98.542969 14.855469 96.144531 14.9375 93.746094 15.3125 L 93.703125 15.3125 C 93.578125 15.351562 93.496094 15.351562 93.371094 15.351562 C 87.453125 16.179688 81.453125 18.085938 75.535156 20.980469 C 75.121094 21.148438 74.707031 21.355469 74.292969 21.5625 C 73.09375 22.183594 71.933594 22.800781 70.734375 23.464844 C 70.320312 23.714844 69.90625 23.960938 69.492188 24.210938 C 63.53125 27.769531 57.574219 32.320312 51.613281 37.824219 C 51.199219 38.238281 50.785156 38.613281 50.371094 38.984375 C 49.835938 39.523438 49.296875 40.058594 48.714844 40.597656 C 47.390625 42.003906 46.027344 43.453125 44.660156 44.945312 C 44.621094 44.984375 44.578125 45.066406 44.496094 45.152344 C 44.164062 45.523438 43.832031 45.894531 43.503906 46.308594 C 43.089844 46.722656 42.675781 47.179688 42.261719 47.632812 C 42.21875 47.714844 42.179688 47.757812 42.09375 47.800781 C 41.847656 48.128906 41.597656 48.460938 41.390625 48.792969 C 41.679688 48.421875 41.972656 48.089844 42.261719 47.757812 C 42.714844 47.261719 43.171875 46.765625 43.625 46.308594 C 43.957031 45.894531 44.371094 45.523438 44.703125 45.152344 C 44.785156 45.066406 44.828125 44.984375 44.867188 44.945312 C 45.117188 44.738281 45.324219 44.449219 45.570312 44.242188 C 46.605469 43.121094 47.640625 42.089844 48.714844 41.011719 C 49.253906 40.472656 49.792969 39.9375 50.371094 39.398438 C 50.785156 39.027344 51.199219 38.652344 51.613281 38.238281 C 57.574219 32.652344 63.53125 28.101562 69.492188 24.539062 C 69.90625 24.292969 70.320312 24.042969 70.734375 23.835938 C 71.933594 23.132812 73.09375 22.511719 74.292969 21.890625 C 74.707031 21.683594 75.121094 21.476562 75.535156 21.269531 C 81.453125 18.375 87.453125 16.46875 93.371094 15.601562 C 93.785156 15.558594 94.199219 15.476562 94.613281 15.394531 C 95.152344 15.351562 95.6875 15.3125 96.226562 15.230469 " fill-opacity="1" fill-rule="nonzero"/><path fill="#1b2b45" d="M 101.027344 14.980469 C 100.367188 14.9375 99.703125 14.898438 99.082031 14.816406 C 97.550781 14.734375 96.101562 14.734375 94.613281 14.773438 L 93.371094 14.773438 C 87.371094 15.144531 81.410156 16.636719 75.535156 19.324219 C 75.121094 19.492188 74.707031 19.699219 74.292969 19.90625 C 73.09375 20.445312 71.933594 21.0625 70.734375 21.726562 C 70.320312 21.976562 69.90625 22.222656 69.492188 22.429688 C 63.449219 26.03125 57.492188 30.832031 51.613281 36.875 C 51.199219 37.328125 50.785156 37.742188 50.371094 38.199219 C 48.386719 40.308594 46.398438 42.542969 44.453125 44.945312 C 44.371094 44.984375 44.328125 45.066406 44.289062 45.152344 C 44.207031 45.191406 44.164062 45.273438 44.082031 45.398438 C 43.832031 45.6875 43.585938 45.980469 43.335938 46.308594 C 43.003906 46.722656 42.632812 47.179688 42.261719 47.59375 C 42.21875 47.675781 42.179688 47.757812 42.09375 47.800781 C 42.179688 47.757812 42.21875 47.714844 42.261719 47.632812 C 42.675781 47.179688 43.089844 46.722656 43.503906 46.308594 C 43.832031 45.894531 44.164062 45.523438 44.496094 45.152344 C 44.578125 45.066406 44.621094 44.984375 44.660156 44.945312 C 46.027344 43.453125 47.390625 42.003906 48.714844 40.597656 C 49.296875 40.019531 49.792969 39.398438 50.371094 38.820312 C 50.785156 38.363281 51.199219 37.949219 51.613281 37.535156 C 57.492188 31.453125 63.449219 26.609375 69.492188 23.050781 C 69.90625 22.800781 70.320312 22.511719 70.734375 22.304688 C 71.933594 21.601562 73.09375 20.980469 74.292969 20.445312 C 74.707031 20.238281 75.121094 20.03125 75.535156 19.863281 C 81.410156 17.175781 87.371094 15.644531 93.371094 15.351562 C 93.496094 15.3125 93.578125 15.3125 93.703125 15.3125 L 93.746094 15.3125 C 96.144531 14.9375 98.542969 14.855469 101.027344 14.980469 " fill-opacity="1" fill-rule="nonzero"/><path fill="#1b2b45" d="M 93.371094 15.351562 C 87.371094 15.644531 81.410156 17.175781 75.535156 19.863281 C 75.121094 20.03125 74.707031 20.238281 74.292969 20.445312 C 73.09375 20.980469 71.933594 21.601562 70.734375 22.304688 C 70.320312 22.511719 69.90625 22.800781 69.492188 23.050781 C 63.449219 26.609375 57.492188 31.453125 51.613281 37.535156 C 51.199219 37.949219 50.785156 38.363281 50.371094 38.820312 C 49.792969 39.398438 49.296875 40.019531 48.714844 40.597656 C 49.296875 40.058594 49.835938 39.523438 50.371094 38.984375 C 50.785156 38.613281 51.199219 38.238281 51.613281 37.824219 C 57.574219 32.320312 63.53125 27.769531 69.492188 24.210938 C 69.90625 23.960938 70.320312 23.714844 70.734375 23.464844 C 71.933594 22.800781 73.09375 22.183594 74.292969 21.5625 C 74.707031 21.355469 75.121094 21.148438 75.535156 20.980469 C 81.453125 18.085938 87.453125 16.179688 93.371094 15.351562 " fill-opacity="1" fill-rule="nonzero"/><path fill="#1b2b45" d="M 93.371094 11.171875 L 94.613281 9.933594 L 74.292969 9.933594 L 74.292969 17.835938 L 75.535156 16.261719 L 75.535156 11.171875 Z M 93.371094 11.171875 " fill-opacity="1" fill-rule="nonzero"/><path fill="#1b2b45" d="M 94.613281 9.933594 L 93.371094 11.171875 L 93.371094 12.539062 C 87.371094 12.621094 81.410156 13.863281 75.535156 16.261719 L 74.292969 17.835938 C 74.707031 17.628906 75.121094 17.464844 75.535156 17.257812 C 81.410156 14.773438 87.371094 13.449219 93.371094 13.285156 L 94.613281 13.285156 Z M 94.613281 9.933594 " fill-opacity="1" fill-rule="nonzero"/><path fill="#1b2b45" d="M 93.371094 12.539062 L 93.371094 11.171875 L 75.535156 11.171875 L 75.535156 16.261719 C 81.410156 13.863281 87.371094 12.621094 93.371094 12.539062 " fill-opacity="1" fill-rule="nonzero"/><path fill="#1b2b45" d="M 69.492188 19.121094 L 69.492188 11.171875 L 51.613281 11.171875 L 51.613281 32.695312 C 57.492188 26.941406 63.449219 22.390625 69.492188 19.121094 " fill-opacity="1" fill-rule="nonzero"/><path fill="#1b2b45" d="M 69.492188 11.171875 L 69.492188 19.121094 C 63.449219 22.390625 57.492188 26.941406 51.613281 32.695312 L 50.414062 35.34375 C 50.785156 34.929688 51.199219 34.515625 51.613281 34.101562 C 57.492188 28.265625 63.449219 23.628906 69.492188 20.238281 C 69.90625 20.03125 70.320312 19.78125 70.734375 19.574219 L 70.734375 9.933594 Z M 69.492188 11.171875 " fill-opacity="1" fill-rule="nonzero"/><path fill="#1b2b45" d="M 69.492188 11.171875 L 70.734375 9.933594 L 50.371094 9.933594 L 50.371094 35.382812 L 50.414062 35.34375 L 51.613281 32.695312 L 51.613281 11.171875 Z M 69.492188 11.171875 " fill-opacity="1" fill-rule="nonzero"/><path fill="#1b2b45" d="M 85.21875 47.964844 L 79.921875 48.875 C 80.996094 48.957031 81.578125 49.578125 81.617188 50.863281 L 81.617188 62.492188 C 81.617188 63.855469 81.039062 64.5625 79.921875 64.5625 L 86.957031 64.5625 C 85.796875 64.5625 85.21875 63.855469 85.21875 62.492188 Z M 85.21875 47.964844 " fill-opacity="1" fill-rule="nonzero"/><path fill="#1b2b45" d="M 72.265625 48.875 C 73.382812 48.957031 73.960938 49.578125 74.003906 50.863281 L 74.003906 62.492188 C 74.003906 63.855469 73.425781 64.5625 72.265625 64.5625 L 79.300781 64.5625 C 78.183594 64.5625 77.605469 63.855469 77.605469 62.492188 L 77.605469 47.964844 Z M 72.265625 48.875 " fill-opacity="1" fill-rule="nonzero"/><path fill="#1b2b45" d="M 68.210938 51.316406 C 68.746094 51.316406 69.160156 51.191406 69.574219 50.863281 C 69.949219 50.53125 70.113281 50.160156 70.113281 49.703125 C 70.113281 49.289062 69.949219 48.875 69.574219 48.585938 C 69.160156 48.296875 68.746094 48.128906 68.210938 48.128906 C 67.671875 48.128906 67.175781 48.296875 66.84375 48.585938 C 66.429688 48.875 66.265625 49.289062 66.265625 49.703125 C 66.265625 50.160156 66.429688 50.53125 66.84375 50.863281 C 67.175781 51.191406 67.671875 51.316406 68.210938 51.316406 " fill-opacity="1" fill-rule="nonzero"/><path fill="#1b2b45" d="M 62.539062 50.40625 C 62.539062 49.039062 63.117188 48.378906 64.277344 48.335938 L 57.242188 48.335938 C 58.359375 48.378906 58.9375 49.039062 58.9375 50.40625 L 58.9375 54.132812 L 51.449219 54.132812 L 51.449219 50.40625 C 51.449219 49.039062 52.070312 48.378906 53.1875 48.335938 L 46.152344 48.335938 C 47.308594 48.378906 47.890625 49.039062 47.890625 50.40625 L 47.890625 62.492188 C 47.890625 63.855469 47.308594 64.5625 46.152344 64.5625 L 53.1875 64.5625 C 52.070312 64.5625 51.449219 63.855469 51.449219 62.492188 L 51.449219 55.539062 L 58.9375 55.539062 L 58.9375 62.492188 C 58.9375 63.855469 58.359375 64.5625 57.242188 64.5625 L 64.277344 64.5625 C 63.117188 64.5625 62.539062 63.855469 62.539062 62.492188 Z M 62.539062 50.40625 " fill-opacity="1" fill-rule="nonzero"/><path fill="#1b2b45" d="M 69.988281 62.492188 L 69.988281 53.179688 L 64.691406 54.132812 C 65.769531 54.171875 66.347656 54.792969 66.386719 56.035156 L 66.386719 62.492188 C 66.386719 63.855469 65.808594 64.5625 64.691406 64.5625 L 71.726562 64.5625 C 70.570312 64.5625 69.988281 63.855469 69.988281 62.492188 " fill-opacity="1" fill-rule="nonzero"/><path fill="#1b2b45" d="M 88.074219 48.421875 C 87.785156 48.710938 87.578125 49.039062 87.578125 49.414062 C 87.535156 49.621094 87.660156 49.828125 87.785156 50.035156 C 87.992188 50.242188 88.074219 50.40625 88.117188 50.449219 C 88.445312 51.070312 88.324219 51.691406 87.785156 52.308594 C 87.621094 52.515625 87.578125 52.601562 87.660156 52.683594 C 87.742188 52.765625 87.785156 52.808594 87.867188 52.808594 C 87.949219 52.808594 88.03125 52.765625 88.15625 52.683594 C 89.109375 52.019531 89.855469 51.398438 90.269531 50.863281 C 90.765625 50.28125 90.972656 49.828125 90.929688 49.371094 C 90.929688 49 90.765625 48.710938 90.472656 48.421875 C 90.144531 48.171875 89.730469 48.007812 89.234375 48.007812 C 88.777344 48.007812 88.40625 48.171875 88.074219 48.421875 " fill-opacity="1" fill-rule="nonzero"/><path fill="#1b2b45" d="M 98.296875 53.59375 C 97.71875 53.386719 97.011719 53.304688 96.1875 53.179688 C 95.398438 53.136719 94.488281 53.097656 93.496094 53.097656 C 92.667969 53.097656 91.839844 53.179688 90.886719 53.429688 C 89.976562 53.675781 89.234375 54.046875 88.695312 54.546875 C 88.15625 55 87.867188 55.578125 87.867188 56.199219 C 87.867188 56.863281 88.199219 57.484375 88.902344 57.980469 C 89.5625 58.519531 90.847656 59.054688 92.710938 59.59375 C 94.570312 60.132812 95.773438 60.628906 96.226562 61 C 96.640625 61.375 96.890625 61.871094 96.847656 62.324219 C 96.847656 62.820312 96.515625 63.195312 96.019531 63.441406 C 95.480469 63.691406 94.820312 63.816406 93.910156 63.855469 C 93 63.816406 92.253906 63.734375 91.550781 63.648438 C 90.847656 63.527344 90.351562 63.320312 89.976562 62.945312 C 89.5625 62.617188 89.109375 61.996094 88.613281 61.085938 C 88.28125 61.085938 88.074219 61.125 87.992188 61.167969 C 87.949219 61.167969 87.867188 61.25 87.867188 61.375 C 87.867188 61.582031 87.992188 62.367188 88.238281 63.609375 C 88.28125 63.773438 88.28125 63.941406 88.28125 64.023438 C 88.324219 64.1875 88.363281 64.355469 88.53125 64.4375 C 90.0625 64.851562 91.714844 65.058594 93.578125 65.058594 C 94.363281 65.058594 95.234375 64.933594 96.226562 64.683594 C 97.21875 64.476562 97.925781 64.105469 98.460938 63.566406 C 98.957031 63.027344 99.332031 62.449219 99.457031 61.871094 C 99.578125 61.25 99.539062 60.710938 99.207031 60.171875 C 98.917969 59.636719 98.378906 59.179688 97.675781 58.808594 C 96.929688 58.394531 95.8125 57.898438 94.324219 57.359375 C 92.792969 56.820312 91.921875 56.40625 91.632812 56.160156 C 91.300781 55.910156 91.136719 55.621094 91.136719 55.207031 C 91.179688 54.792969 91.386719 54.546875 91.839844 54.378906 C 92.253906 54.214844 92.832031 54.089844 93.578125 54.007812 C 94.363281 53.925781 95.152344 54.089844 95.9375 54.460938 C 96.722656 54.835938 97.304688 55.414062 97.757812 56.242188 L 98.628906 56.242188 L 98.542969 55.785156 C 98.503906 54.792969 98.421875 54.089844 98.296875 53.59375 " fill-opacity="1" fill-rule="nonzero"/><path fill="#1b2b45" d="M 95.636719 49.273438 L 96.019531 49.273438 C 96.121094 49.273438 96.195312 49.261719 96.234375 49.238281 C 96.277344 49.214844 96.296875 49.171875 96.296875 49.117188 C 96.296875 49.0625 96.277344 49.023438 96.238281 49 C 96.199219 48.980469 96.121094 48.96875 96.007812 48.96875 L 95.636719 48.96875 Z M 95.300781 50.050781 L 95.300781 48.699219 L 96.128906 48.699219 C 96.308594 48.699219 96.441406 48.726562 96.527344 48.785156 C 96.613281 48.847656 96.65625 48.9375 96.65625 49.0625 C 96.65625 49.140625 96.636719 49.210938 96.597656 49.273438 C 96.554688 49.332031 96.5 49.378906 96.429688 49.402344 C 96.492188 49.429688 96.535156 49.460938 96.558594 49.496094 C 96.582031 49.535156 96.59375 49.597656 96.601562 49.691406 C 96.601562 49.699219 96.601562 49.714844 96.601562 49.730469 C 96.609375 49.898438 96.632812 50.003906 96.671875 50.050781 L 96.292969 50.050781 C 96.285156 50.035156 96.277344 50.019531 96.273438 50 C 96.265625 49.984375 96.265625 49.964844 96.265625 49.945312 L 96.265625 49.851562 C 96.265625 49.730469 96.25 49.648438 96.21875 49.609375 C 96.183594 49.570312 96.121094 49.550781 96.03125 49.550781 L 95.636719 49.550781 L 95.636719 50.050781 Z M 95.300781 50.050781 " fill-opacity="1" fill-rule="nonzero"/><path fill="#1b2b45" d="M 95.984375 48.136719 C 95.1875 48.136719 94.539062 48.691406 94.539062 49.375 C 94.539062 50.054688 95.1875 50.609375 95.984375 50.609375 C 96.785156 50.609375 97.433594 50.054688 97.433594 49.375 C 97.433594 48.691406 96.785156 48.136719 95.984375 48.136719 M 95.984375 50.871094 C 95.046875 50.871094 94.277344 50.199219 94.277344 49.375 C 94.277344 48.550781 95.046875 47.878906 95.984375 47.878906 C 96.925781 47.878906 97.691406 48.550781 97.691406 49.375 C 97.691406 50.199219 96.925781 50.871094 95.984375 50.871094 " fill-opacity="1" fill-rule="nonzero"/></svg>