<svg xmlns="http://www.w3.org/2000/svg" xmlns:xlink="http://www.w3.org/1999/xlink" width="200" zoomAndPan="magnify" viewBox="0 0 150 74.999997" height="100" preserveAspectRatio="xMidYMid meet" version="1.0"><defs><clipPath id="6456351aeb"><path d="M 7.5 18.632812 L 142.5 18.632812 L 142.5 56 L 7.5 56 Z M 7.5 18.632812 " clip-rule="nonzero"/></clipPath></defs><g clip-path="url(#6456351aeb)"><path fill="#1b2b45" d="M 73.011719 23.40625 C 74.261719 23.40625 75.292969 22.382812 75.292969 21.121094 C 75.292969 19.859375 74.265625 18.835938 73.011719 18.835938 C 72.710938 18.839844 72.421875 18.902344 72.144531 19.023438 C 71.871094 19.140625 71.625 19.304688 71.414062 19.519531 C 71.203125 19.734375 71.042969 19.980469 70.925781 20.257812 C 70.8125 20.535156 70.757812 20.820312 70.757812 21.121094 C 70.757812 21.421875 70.8125 21.707031 70.925781 21.984375 C 71.042969 22.261719 71.203125 22.507812 71.414062 22.722656 C 71.625 22.933594 71.871094 23.101562 72.144531 23.21875 C 72.421875 23.339844 72.710938 23.402344 73.011719 23.40625 Z M 61.09375 24.410156 C 61.09375 24.109375 61.035156 23.816406 60.917969 23.539062 C 60.800781 23.257812 60.636719 23.011719 60.421875 22.796875 C 60.207031 22.582031 59.957031 22.417969 59.675781 22.300781 C 59.394531 22.183594 59.101562 22.125 58.796875 22.125 C 58.488281 22.125 58.195312 22.183594 57.914062 22.300781 C 57.632812 22.417969 57.382812 22.582031 57.167969 22.796875 C 56.953125 23.011719 56.789062 23.257812 56.671875 23.539062 C 56.554688 23.816406 56.496094 24.109375 56.496094 24.410156 C 56.496094 24.714844 56.554688 25.007812 56.671875 25.285156 C 56.789062 25.566406 56.953125 25.8125 57.167969 26.027344 C 57.382812 26.242188 57.632812 26.40625 57.914062 26.523438 C 58.195312 26.640625 58.488281 26.699219 58.796875 26.699219 C 59.101562 26.699219 59.394531 26.640625 59.675781 26.523438 C 59.957031 26.40625 60.207031 26.242188 60.421875 26.027344 C 60.636719 25.8125 60.800781 25.566406 60.917969 25.285156 C 61.035156 25.007812 61.09375 24.714844 61.09375 24.410156 Z M 63.597656 29.292969 C 63.597656 28.488281 63.171875 27.777344 62.546875 27.375 C 62.167969 27.128906 61.75 27.003906 61.296875 27.007812 C 60.992188 27.007812 60.699219 27.070312 60.417969 27.183594 C 60.136719 27.300781 59.890625 27.464844 59.675781 27.679688 C 59.460938 27.894531 59.292969 28.140625 59.175781 28.421875 C 59.058594 28.699219 59 28.992188 58.996094 29.292969 C 59 29.597656 59.058594 29.886719 59.175781 30.164062 C 59.292969 30.445312 59.460938 30.691406 59.675781 30.90625 C 59.890625 31.121094 60.136719 31.285156 60.417969 31.402344 C 60.699219 31.519531 60.992188 31.578125 61.296875 31.578125 C 61.75 31.582031 62.167969 31.460938 62.546875 31.214844 C 62.875 31.003906 63.132812 30.726562 63.316406 30.386719 C 63.503906 30.042969 63.597656 29.679688 63.597656 29.292969 Z M 83.515625 34.851562 C 77.792969 31.046875 71.101562 30.703125 63.375 34.523438 C 62.769531 34.996094 62.566406 35.453125 62.785156 35.855469 C 62.96875 36.386719 63.523438 36.257812 64.128906 36.039062 C 70.398438 32.710938 76.820312 32.472656 82.703125 36.113281 C 83.035156 36.277344 83.347656 36.277344 83.769531 35.949219 C 83.769531 35.929688 83.769531 35.914062 83.789062 35.894531 C 83.84375 35.691406 83.84375 35.492188 83.789062 35.289062 C 83.734375 35.121094 83.640625 34.976562 83.515625 34.851562 Z M 83.792969 32.421875 C 77.003906 28.875 69.832031 28.636719 62.546875 32.292969 C 62.4375 32.347656 62.34375 32.402344 62.253906 32.4375 C 61.554688 32.988281 61.332031 33.480469 61.589844 33.9375 C 61.738281 34.359375 62.105469 34.414062 62.546875 34.304688 C 62.730469 34.261719 62.90625 34.207031 63.082031 34.140625 C 70.03125 30.445312 77.132812 30.191406 83.644531 34.210938 C 83.699219 34.230469 83.734375 34.25 83.792969 34.265625 C 84.101562 34.394531 84.417969 34.359375 84.839844 34.046875 C 84.988281 33.535156 84.859375 33.132812 84.546875 32.824219 C 84.300781 32.675781 84.046875 32.542969 83.792969 32.421875 Z M 87.230469 22.015625 C 86.925781 22.019531 86.632812 22.078125 86.351562 22.195312 C 86.070312 22.308594 85.824219 22.476562 85.609375 22.691406 C 85.394531 22.902344 85.226562 23.148438 85.109375 23.429688 C 84.992188 23.707031 84.933594 24 84.929688 24.300781 C 84.9375 24.601562 85.003906 24.886719 85.125 25.160156 C 85.242188 25.429688 85.410156 25.671875 85.625 25.878906 C 85.839844 26.085938 86.085938 26.246094 86.363281 26.359375 C 86.640625 26.472656 86.929688 26.527344 87.230469 26.527344 C 87.53125 26.527344 87.820312 26.472656 88.097656 26.359375 C 88.375 26.246094 88.621094 26.085938 88.835938 25.878906 C 89.050781 25.671875 89.21875 25.429688 89.335938 25.160156 C 89.457031 24.886719 89.523438 24.601562 89.53125 24.300781 C 89.527344 24 89.46875 23.707031 89.351562 23.429688 C 89.234375 23.152344 89.066406 22.902344 88.851562 22.691406 C 88.636719 22.476562 88.390625 22.3125 88.109375 22.195312 C 87.828125 22.078125 87.535156 22.019531 87.230469 22.015625 Z M 84.96875 26.878906 C 84.546875 26.878906 84.140625 26.988281 83.792969 27.210938 C 83.109375 27.59375 82.667969 28.324219 82.667969 29.164062 C 82.667969 29.988281 83.109375 30.71875 83.792969 31.121094 C 84.140625 31.324219 84.546875 31.453125 84.96875 31.453125 C 85.273438 31.449219 85.566406 31.390625 85.847656 31.273438 C 86.128906 31.15625 86.375 30.992188 86.589844 30.777344 C 86.804688 30.566406 86.972656 30.316406 87.089844 30.039062 C 87.207031 29.757812 87.265625 29.46875 87.265625 29.164062 C 87.265625 28.863281 87.207031 28.570312 87.089844 28.292969 C 86.976562 28.011719 86.808594 27.765625 86.59375 27.550781 C 86.378906 27.335938 86.128906 27.171875 85.847656 27.054688 C 85.566406 26.9375 85.273438 26.878906 84.96875 26.878906 Z M 65.730469 24.285156 C 66.035156 24.28125 66.328125 24.222656 66.605469 24.105469 C 66.886719 23.988281 67.136719 23.824219 67.351562 23.609375 C 67.566406 23.398438 67.734375 23.148438 67.851562 22.871094 C 67.96875 22.589844 68.027344 22.300781 68.027344 22 C 68.023438 21.699219 67.960938 21.410156 67.839844 21.136719 C 67.722656 20.863281 67.554688 20.621094 67.339844 20.410156 C 67.125 20.199219 66.878906 20.039062 66.597656 19.925781 C 66.320312 19.8125 66.03125 19.753906 65.730469 19.753906 C 65.429688 19.753906 65.136719 19.8125 64.859375 19.925781 C 64.582031 20.039062 64.332031 20.199219 64.117188 20.410156 C 63.902344 20.621094 63.738281 20.863281 63.617188 21.136719 C 63.5 21.410156 63.4375 21.699219 63.429688 22 C 63.429688 22.300781 63.492188 22.589844 63.609375 22.871094 C 63.726562 23.148438 63.890625 23.398438 64.105469 23.609375 C 64.324219 23.824219 64.570312 23.988281 64.851562 24.105469 C 65.132812 24.222656 65.425781 24.28125 65.730469 24.285156 Z M 80.277344 24.175781 C 81.527344 24.175781 82.558594 23.152344 82.558594 21.886719 C 82.558594 20.625 81.53125 19.601562 80.277344 19.601562 C 79.976562 19.609375 79.691406 19.675781 79.417969 19.792969 C 79.140625 19.914062 78.902344 20.078125 78.691406 20.292969 C 78.484375 20.507812 78.320312 20.75 78.207031 21.027344 C 78.097656 21.304688 78.039062 21.589844 78.039062 21.886719 C 78.039062 22.1875 78.097656 22.472656 78.207031 22.75 C 78.320312 23.023438 78.484375 23.269531 78.691406 23.484375 C 78.902344 23.695312 79.140625 23.863281 79.417969 23.984375 C 79.691406 24.101562 79.976562 24.167969 80.277344 24.175781 Z M 79.15625 29.332031 C 79.457031 29.324219 79.742188 29.257812 80.019531 29.140625 C 80.292969 29.019531 80.535156 28.851562 80.742188 28.640625 C 80.953125 28.425781 81.113281 28.179688 81.226562 27.90625 C 81.339844 27.628906 81.394531 27.34375 81.394531 27.042969 C 81.394531 26.746094 81.339844 26.460938 81.226562 26.183594 C 81.113281 25.90625 80.953125 25.664062 80.742188 25.449219 C 80.535156 25.234375 80.292969 25.070312 80.019531 24.949219 C 79.742188 24.832031 79.457031 24.765625 79.15625 24.757812 C 78.855469 24.765625 78.570312 24.832031 78.296875 24.949219 C 78.019531 25.070312 77.78125 25.234375 77.570312 25.449219 C 77.359375 25.664062 77.199219 25.90625 77.085938 26.183594 C 76.976562 26.460938 76.917969 26.746094 76.917969 27.042969 C 76.917969 27.34375 76.976562 27.628906 77.085938 27.90625 C 77.199219 28.179688 77.359375 28.425781 77.570312 28.640625 C 77.78125 28.851562 78.019531 29.019531 78.296875 29.140625 C 78.570312 29.257812 78.855469 29.324219 79.15625 29.332031 Z M 64.644531 27.320312 C 64.644531 27.621094 64.703125 27.914062 64.820312 28.195312 C 64.9375 28.472656 65.101562 28.722656 65.316406 28.933594 C 65.535156 29.148438 65.78125 29.316406 66.0625 29.429688 C 66.347656 29.546875 66.640625 29.605469 66.945312 29.605469 C 67.25 29.605469 67.542969 29.546875 67.824219 29.429688 C 68.105469 29.316406 68.355469 29.148438 68.570312 28.933594 C 68.785156 28.722656 68.953125 28.472656 69.070312 28.195312 C 69.183594 27.914062 69.242188 27.621094 69.242188 27.320312 C 69.242188 27.015625 69.183594 26.722656 69.070312 26.445312 C 68.953125 26.164062 68.785156 25.917969 68.570312 25.703125 C 68.355469 25.488281 68.105469 25.324219 67.824219 25.207031 C 67.542969 25.089844 67.25 25.03125 66.945312 25.03125 C 66.640625 25.03125 66.347656 25.089844 66.0625 25.207031 C 65.78125 25.324219 65.535156 25.488281 65.316406 25.703125 C 65.101562 25.917969 64.9375 26.164062 64.820312 26.445312 C 64.703125 26.722656 64.644531 27.015625 64.644531 27.320312 Z M 73.011719 28.636719 C 74.261719 28.636719 75.292969 27.613281 75.292969 26.351562 C 75.292969 25.085938 74.265625 24.0625 73.011719 24.0625 C 72.710938 24.070312 72.425781 24.136719 72.152344 24.253906 C 71.875 24.375 71.636719 24.542969 71.425781 24.753906 C 71.21875 24.96875 71.054688 25.210938 70.941406 25.488281 C 70.832031 25.765625 70.773438 26.050781 70.773438 26.351562 C 70.773438 26.648438 70.832031 26.933594 70.941406 27.210938 C 71.054688 27.488281 71.21875 27.730469 71.425781 27.945312 C 71.636719 28.15625 71.875 28.324219 72.152344 28.445312 C 72.425781 28.5625 72.710938 28.628906 73.011719 28.636719 Z M 49.195312 41.050781 C 49.453125 40.0625 49.324219 39.402344 48.789062 39.09375 C 48.257812 38.636719 47.6875 38.488281 47.082031 38.65625 C 46.953125 38.710938 46.804688 38.765625 46.65625 38.835938 C 45.128906 40.464844 43.585938 42.074219 42.039062 43.699219 C 40.402344 42.074219 38.820312 40.535156 37.167969 38.910156 C 36.578125 38.507812 35.878906 38.601562 35.382812 38.910156 C 35.234375 39.003906 35.105469 39.09375 35.015625 39.203125 C 34.445312 39.96875 34.371094 40.8125 34.792969 41.488281 C 34.996094 41.691406 35.179688 41.890625 35.382812 42.09375 C 37.058594 43.902344 38.75 45.714844 40.441406 47.523438 L 40.441406 54.34375 C 40.882812 55.238281 41.46875 55.675781 42.1875 55.605469 C 43.109375 55.605469 43.605469 55.167969 43.917969 54.472656 L 43.917969 47.375 C 44.964844 46.113281 46.03125 44.835938 47.082031 43.574219 C 47.796875 42.734375 48.496094 41.875 49.195312 41.050781 Z M 69.296875 51.691406 L 64.847656 51.691406 L 64.847656 39.75 C 64.792969 37.867188 61.09375 37.886719 61.09375 39.75 L 61.09375 54.234375 C 61.148438 54.835938 61.371094 55.164062 61.773438 55.222656 L 69.296875 55.222656 C 71.230469 55.183594 71.265625 51.617188 69.296875 51.691406 Z M 97.21875 40.921875 C 96.722656 40.28125 96.222656 39.648438 95.710938 39.019531 C 95.25 38.363281 94.625 38.105469 93.777344 38.324219 C 92.96875 38.34375 92.488281 38.820312 92.378906 39.714844 L 92.378906 54.121094 C 92.5625 55.089844 93.152344 55.566406 94.125 55.566406 C 95.121094 55.566406 95.746094 55.128906 96.039062 54.269531 L 96.039062 52.074219 L 100.730469 52.074219 C 101.558594 53.132812 102.367188 54.210938 103.191406 55.273438 C 103.949219 55.675781 104.71875 55.640625 105.492188 55.164062 C 106.152344 54.6875 106.375 54.011719 106.152344 53.136719 C 103.210938 49.039062 100.324219 44.90625 97.21875 40.921875 Z M 97.21875 48.457031 C 96.867188 48.4375 96.5 48.4375 96.152344 48.4375 C 96.152344 47.542969 96.1875 46.609375 96.1875 45.695312 C 96.554688 46.078125 96.90625 46.460938 97.21875 46.863281 C 97.605469 47.359375 97.953125 47.890625 98.285156 48.472656 C 97.917969 48.457031 97.566406 48.457031 97.21875 48.457031 Z M 88.8125 49.898438 C 87.691406 50.996094 86.585938 51.636719 85.539062 51.78125 C 84.121094 51.964844 83.019531 51.730469 82.28125 51.050781 C 81.289062 50.320312 80.644531 49.425781 80.351562 48.34375 C 80.113281 47.375 80.128906 46.371094 80.40625 45.3125 C 80.734375 44.34375 81.363281 43.59375 82.28125 43.042969 C 83.089844 42.511719 84.007812 42.3125 85.003906 42.292969 C 86.273438 42.347656 87.320312 42.96875 88.238281 43.683594 C 89.179688 44.34375 89.929688 44.34375 90.777344 43.71875 C 91.367188 42.933594 91.53125 42.128906 90.871094 41.140625 C 90.648438 40.777344 89.507812 38.492188 84.765625 38.398438 C 80.019531 38.289062 76.15625 42.222656 76.15625 46.9375 C 76.15625 51.65625 80.019531 55.496094 84.765625 55.496094 C 89.507812 55.496094 90.6875 53.246094 91.203125 52.386719 C 91.550781 51.527344 91.476562 50.816406 90.960938 50.285156 C 90.394531 49.734375 89.730469 49.53125 88.8125 49.898438 Z M 118 38.324219 C 117.097656 38.363281 116.546875 38.820312 116.273438 39.550781 L 116.273438 47.90625 C 114.453125 44.910156 112.632812 41.890625 110.8125 38.910156 C 110.222656 38.308594 109.375 38.160156 108.308594 38.492188 C 107.535156 38.765625 107.023438 39.3125 106.800781 40.136719 L 106.800781 54.140625 C 106.835938 55.039062 107.460938 55.457031 108.695312 55.421875 C 109.632812 55.347656 110.222656 54.910156 110.460938 54.140625 C 110.441406 51.214844 110.441406 48.292969 110.421875 45.382812 C 112.207031 48.417969 113.992188 51.453125 115.773438 54.488281 C 116.164062 55.109375 116.769531 55.496094 117.855469 55.328125 C 118.882812 55.292969 119.507812 54.746094 119.894531 53.832031 L 119.894531 39.589844 C 119.546875 38.726562 118.921875 38.308594 118 38.324219 Z M 140.605469 38.179688 C 139.703125 38.214844 139.152344 38.671875 138.875 39.40625 L 138.875 47.761719 C 137.054688 44.761719 135.234375 41.746094 133.414062 38.765625 C 132.808594 38.160156 131.980469 38.015625 130.914062 38.34375 C 130.121094 38.621094 129.625 39.167969 129.40625 39.992188 L 129.40625 53.976562 C 129.441406 54.890625 130.066406 55.3125 131.28125 55.277344 C 132.238281 55.203125 132.824219 54.761719 133.066406 53.976562 C 133.046875 51.070312 133.046875 48.144531 133.027344 45.238281 C 134.8125 48.273438 136.597656 51.308594 138.363281 54.34375 C 138.765625 54.964844 139.375 55.347656 140.457031 55.183594 C 141.46875 55.148438 142.113281 54.597656 142.5 53.683594 L 142.5 39.441406 C 142.152344 38.582031 141.507812 38.160156 140.605469 38.179688 Z M 124.4375 38.289062 C 123.425781 38.289062 122.710938 38.765625 122.507812 39.933594 L 122.507812 53.941406 C 122.820312 55.074219 123.519531 55.402344 124.363281 55.386719 C 125.285156 55.367188 126.058594 55.019531 126.515625 53.921875 L 126.515625 39.863281 C 126.222656 38.765625 125.542969 38.234375 124.4375 38.289062 Z M 19.214844 53.191406 L 16.511719 49.242188 C 16.953125 48.730469 17.414062 48.234375 17.871094 47.742188 C 18.554688 46.589844 18.921875 45.367188 18.8125 44.027344 C 18.570312 42.402344 18.039062 41.160156 17.101562 40.410156 C 16.089844 39.386719 14.835938 38.78125 13.257812 38.835938 C 13.183594 38.835938 13.128906 38.855469 13.070312 38.855469 C 11.785156 39.039062 10.625 39.421875 9.503906 40.265625 C 8.621094 41.03125 7.996094 41.945312 7.5 43.261719 L 7.722656 53.828125 C 7.941406 55.253906 8.621094 55.949219 9.726562 55.933594 C 10.609375 55.894531 11.179688 55.402344 11.453125 54.46875 C 11.472656 52.988281 11.507812 51.488281 11.527344 49.988281 C 11.4375 49.789062 11.507812 49.605469 11.710938 49.496094 C 12.207031 49.605469 12.300781 49.972656 12.484375 50.28125 C 12.667969 50.539062 12.871094 50.773438 13.074219 51.011719 C 14.269531 52.523438 15.476562 54.03125 16.695312 55.527344 C 17.523438 55.914062 18.261719 55.859375 18.886719 55.347656 C 19.015625 55.179688 19.144531 55.015625 19.214844 54.832031 C 19.472656 54.324219 19.527344 53.8125 19.253906 53.242188 C 19.25 53.226562 19.234375 53.207031 19.214844 53.191406 Z M 13.070312 46.351562 C 12.8125 46.355469 12.566406 46.308594 12.328125 46.210938 C 12.089844 46.113281 11.878906 45.976562 11.695312 45.796875 C 11.511719 45.613281 11.371094 45.40625 11.269531 45.171875 C 11.171875 44.933594 11.121094 44.6875 11.121094 44.429688 C 11.121094 44.175781 11.171875 43.925781 11.269531 43.691406 C 11.371094 43.453125 11.511719 43.242188 11.691406 43.0625 C 11.875 42.878906 12.085938 42.738281 12.324219 42.640625 C 12.5625 42.542969 12.8125 42.492188 13.070312 42.492188 C 14.136719 42.492188 15.003906 43.371094 15.003906 44.429688 C 15.003906 44.6875 14.953125 44.929688 14.855469 45.167969 C 14.757812 45.402344 14.617188 45.609375 14.4375 45.789062 C 14.257812 45.96875 14.046875 46.109375 13.8125 46.207031 C 13.574219 46.304688 13.328125 46.351562 13.070312 46.351562 Z M 27.621094 38.691406 C 23.535156 38.691406 20.097656 41.527344 19.214844 45.3125 C 19.085938 45.933594 18.992188 46.574219 18.992188 47.230469 C 18.992188 47.890625 19.085938 48.527344 19.214844 49.152344 C 20.097656 52.953125 23.535156 55.789062 27.621094 55.789062 C 31.023438 55.789062 33.984375 53.792969 35.382812 50.921875 C 35.914062 49.808594 36.226562 48.546875 36.226562 47.230469 C 36.226562 45.914062 35.914062 44.652344 35.382812 43.539062 C 33.984375 40.683594 31.023438 38.691406 27.621094 38.691406 Z M 27.621094 51.855469 C 25.046875 51.855469 22.96875 49.769531 22.96875 47.230469 C 22.96875 46.925781 22.996094 46.625 23.058594 46.328125 C 23.117188 46.03125 23.207031 45.742188 23.324219 45.460938 C 23.441406 45.179688 23.582031 44.914062 23.753906 44.660156 C 23.921875 44.410156 24.117188 44.175781 24.332031 43.960938 C 24.546875 43.746094 24.78125 43.554688 25.035156 43.386719 C 25.289062 43.214844 25.558594 43.074219 25.839844 42.957031 C 26.121094 42.839844 26.414062 42.753906 26.710938 42.695312 C 27.011719 42.632812 27.316406 42.605469 27.621094 42.605469 C 30.175781 42.605469 32.273438 44.6875 32.273438 47.230469 C 32.273438 49.773438 30.175781 51.855469 27.621094 51.855469 Z M 57.324219 38.324219 C 56.476562 38.105469 55.851562 38.363281 55.394531 39.019531 C 54.878906 39.648438 54.378906 40.28125 53.882812 40.921875 C 51.53125 43.921875 49.304688 47.03125 47.078125 50.136719 C 46.382812 51.144531 45.664062 52.132812 44.945312 53.136719 C 44.726562 54.015625 44.945312 54.691406 45.609375 55.164062 C 46.105469 55.476562 46.601562 55.601562 47.078125 55.550781 C 47.355469 55.511719 47.632812 55.421875 47.90625 55.277344 C 48.734375 54.214844 49.542969 53.136719 50.371094 52.074219 L 55.0625 52.074219 L 55.0625 54.269531 C 55.355469 55.128906 55.980469 55.566406 56.957031 55.566406 C 57.929688 55.566406 58.519531 55.09375 58.722656 54.121094 L 58.722656 39.714844 C 58.59375 38.820312 58.132812 38.34375 57.324219 38.324219 Z M 53.882812 48.457031 C 53.535156 48.457031 53.167969 48.457031 52.816406 48.472656 C 53.148438 47.890625 53.5 47.359375 53.882812 46.863281 C 54.195312 46.460938 54.546875 46.078125 54.914062 45.695312 C 54.914062 46.609375 54.949219 47.542969 54.949219 48.4375 C 54.582031 48.4375 54.234375 48.4375 53.882812 48.457031 Z M 53.882812 48.457031 " fill-opacity="1" fill-rule="evenodd"/></g></svg>