<svg xmlns="http://www.w3.org/2000/svg" xmlns:xlink="http://www.w3.org/1999/xlink" width="200" zoomAndPan="magnify" viewBox="0 0 150 74.999997" height="100" preserveAspectRatio="xMidYMid meet" version="1.0"><defs><clipPath id="728b54d439"><path d="M 26 7.570312 L 124 7.570312 L 124 67.570312 L 26 67.570312 Z M 26 7.570312 " clip-rule="nonzero"/></clipPath></defs><g clip-path="url(#728b54d439)"><path fill="#1b2b45" d="M 26.1875 7.570312 L 123.8125 7.570312 L 123.8125 67.488281 L 26.1875 67.488281 Z M 26.1875 7.570312 " fill-opacity="1" fill-rule="nonzero"/></g><path fill="#eceff4" d="M 29.789062 63.832031 L 120.210938 63.832031 L 120.210938 11.226562 L 29.789062 11.226562 Z M 121.652344 65.296875 L 28.347656 65.296875 L 28.347656 9.761719 L 121.652344 9.761719 Z M 121.652344 65.296875 " fill-opacity="1" fill-rule="evenodd"/><path fill="#eceff4" d="M 50.933594 20.78125 C 51.121094 20.71875 51.300781 20.628906 51.46875 20.523438 C 51.660156 20.367188 52.019531 20.003906 52.238281 19.871094 C 52.539062 19.644531 52.875 19.503906 53.246094 19.4375 C 53.539062 19.460938 53.597656 19.542969 53.652344 19.601562 C 53.773438 19.628906 54.140625 19.707031 54.195312 19.707031 C 54.25 19.707031 54.226562 19.882812 54.160156 19.933594 C 53.984375 20.019531 53.816406 20.121094 53.660156 20.242188 C 53.554688 20.371094 53.519531 20.523438 53.554688 20.6875 C 53.601562 20.808594 54.070312 21.476562 54.226562 21.699219 C 54.378906 21.921875 54.855469 22.648438 55.074219 22.941406 C 54.832031 23.097656 54.601562 23.265625 54.382812 23.449219 C 54.125 23.6875 53.890625 23.941406 53.671875 24.21875 C 53.578125 24.339844 53.441406 24.570312 53.335938 24.753906 C 53.105469 24.179688 52.816406 23.503906 52.683594 23.238281 C 52.542969 22.9375 52.332031 22.695312 52.050781 22.511719 C 51.734375 22.511719 51.4375 22.582031 51.15625 22.726562 C 50.910156 22.847656 50.65625 22.933594 50.386719 22.988281 C 50.1875 23.023438 49.992188 23.015625 49.796875 22.964844 C 49.734375 22.941406 49.703125 22.84375 49.703125 22.84375 C 49.664062 22.847656 49.628906 22.847656 49.589844 22.839844 C 49.433594 22.773438 49.292969 22.683594 49.167969 22.570312 C 49.09375 22.476562 49.066406 22.375 49.082031 22.257812 C 49.359375 22.03125 49.660156 21.832031 49.976562 21.664062 C 50.277344 21.484375 50.851562 21.066406 50.925781 20.78125 M 67.523438 36.746094 L 67.523438 36.71875 Z M 84.964844 36.964844 C 84.894531 37.027344 84.855469 37.105469 84.855469 37.199219 L 84.855469 47.175781 C 84.855469 47.269531 84.878906 47.359375 84.917969 47.449219 L 85.582031 48.761719 C 85.582031 48.761719 85.644531 48.890625 85.503906 48.890625 L 82 48.890625 C 82 48.890625 81.855469 48.890625 81.921875 48.761719 L 82.648438 47.320312 L 82.648438 37.199219 C 82.644531 37.105469 82.613281 37.023438 82.554688 36.949219 C 81.980469 36.539062 81.347656 36.378906 80.652344 36.46875 C 80.035156 36.46875 78.75 36.820312 78.75 37.625 L 78.75 47.175781 C 78.75 47.269531 78.769531 47.363281 78.796875 47.453125 C 78.964844 47.9375 79.304688 48.625 79.414062 49.050781 L 79.386719 49.113281 C 79.386719 49.113281 79.355469 49.175781 79.210938 49.175781 C 78.535156 49.261719 77.941406 49.070312 77.441406 48.605469 C 75.214844 45.941406 75.214844 45.941406 69.128906 38.691406 C 69.128906 38.691406 69.035156 38.582031 69.035156 38.726562 L 69.035156 47.175781 C 69.039062 47.269531 69.058594 47.359375 69.097656 47.449219 L 69.742188 48.761719 C 69.742188 48.761719 69.804688 48.890625 69.664062 48.890625 L 66.898438 48.890625 C 66.898438 48.890625 66.753906 48.890625 66.816406 48.761719 L 67.460938 47.449219 C 67.5 47.359375 67.519531 47.269531 67.523438 47.175781 L 67.523438 36.714844 C 67.519531 36.621094 67.5 36.527344 67.460938 36.441406 L 66.996094 35.441406 C 66.996094 35.441406 66.953125 35.347656 67.027344 35.320312 C 67.0625 35.183594 67.121094 35.0625 67.210938 34.953125 C 67.300781 34.863281 67.402344 34.792969 67.515625 34.742188 C 67.539062 34.425781 67.523438 34.105469 67.472656 33.792969 C 67.402344 33.347656 67.296875 32.914062 67.160156 32.484375 C 67.074219 32.28125 66.957031 32.097656 66.800781 31.941406 C 66.703125 31.847656 65.800781 30.972656 65.320312 30.382812 C 64.824219 29.777344 64.023438 28.589844 63.753906 28.28125 C 63.472656 27.925781 63.171875 27.589844 62.851562 27.273438 C 62.632812 27.09375 62.386719 26.980469 62.105469 26.9375 C 61.871094 26.917969 61.664062 26.984375 61.480469 27.128906 C 61.273438 27.257812 59.554688 28.476562 59.234375 28.6875 C 58.914062 28.898438 58.097656 29.304688 57.929688 29.402344 C 57.742188 29.527344 57.5625 29.664062 57.394531 29.8125 C 57.296875 30.046875 57.226562 30.289062 57.183594 30.535156 C 57.097656 30.980469 57.070312 31.429688 57.09375 31.882812 C 57.121094 32.273438 57.164062 32.660156 57.191406 32.863281 C 57.226562 33.140625 57.21875 33.417969 57.164062 33.691406 C 57.101562 33.898438 57.039062 34.167969 56.996094 34.300781 C 56.953125 34.4375 56.917969 34.640625 56.890625 34.722656 C 56.90625 34.867188 56.871094 34.992188 56.777344 35.101562 C 56.714844 35.183594 56.640625 35.253906 56.550781 35.308594 L 57.222656 35.308594 C 57.222656 35.308594 57.363281 35.308594 57.304688 35.441406 L 56.839844 36.4375 C 56.800781 36.527344 56.78125 36.617188 56.777344 36.714844 L 56.777344 44.148438 C 56.777344 46.378906 58.386719 47.527344 60.441406 47.527344 C 62.351562 47.527344 63.464844 46.164062 63.464844 45.363281 L 63.464844 36.714844 C 63.460938 36.621094 63.441406 36.527344 63.402344 36.441406 L 62.941406 35.441406 C 62.941406 35.441406 62.878906 35.3125 63.023438 35.3125 L 63.777344 35.3125 C 63.746094 35.296875 63.726562 35.28125 63.726562 35.25 C 63.785156 35.101562 63.875 34.976562 63.996094 34.878906 C 64.117188 34.789062 64.246094 34.71875 64.386719 34.667969 C 64.519531 34.414062 64.628906 34.152344 64.710938 33.878906 C 64.832031 33.347656 64.886719 32.8125 64.875 32.269531 C 64.855469 31.871094 64.765625 31.488281 64.605469 31.125 C 64.414062 30.792969 63.84375 29.78125 63.652344 29.335938 C 63.453125 28.921875 63.320312 28.488281 63.253906 28.03125 C 63.375 28.175781 63.488281 28.316406 63.578125 28.417969 C 63.84375 28.730469 64.648438 29.917969 65.140625 30.519531 C 65.363281 30.792969 65.671875 31.125 65.953125 31.410156 C 65.929688 31.679688 65.894531 31.949219 65.84375 32.214844 C 65.734375 32.683594 65.582031 33.449219 65.472656 33.734375 C 65.363281 34.019531 65.054688 34.671875 64.964844 34.828125 C 64.921875 34.917969 64.878906 35.089844 64.832031 35.160156 C 64.773438 35.226562 64.707031 35.273438 64.628906 35.308594 L 66.113281 35.308594 C 66.113281 35.308594 66.257812 35.308594 66.195312 35.441406 L 65.734375 36.441406 C 65.695312 36.527344 65.675781 36.621094 65.671875 36.714844 L 65.671875 47.167969 C 65.671875 47.265625 65.695312 47.359375 65.734375 47.449219 L 66.378906 48.761719 C 66.378906 48.761719 66.441406 48.890625 66.296875 48.890625 L 64.085938 48.890625 C 63.988281 48.890625 63.929688 48.84375 63.914062 48.746094 C 63.867188 48.449219 63.796875 48.15625 63.703125 47.867188 C 63.695312 47.832031 63.671875 47.808594 63.636719 47.792969 C 63.601562 47.78125 63.566406 47.789062 63.539062 47.8125 C 62.933594 48.226562 62.109375 49.027344 59.417969 49.027344 C 57.34375 49.027344 54.558594 48.136719 54.558594 44.683594 L 54.558594 36.714844 C 54.554688 36.621094 54.535156 36.527344 54.496094 36.441406 L 54.054688 35.445312 C 54.054688 35.445312 53.992188 35.3125 54.136719 35.3125 L 54.605469 35.3125 C 54.574219 35.285156 54.5625 35.25 54.574219 35.210938 C 54.636719 35.0625 54.730469 34.945312 54.855469 34.851562 C 54.9375 34.789062 55.027344 34.746094 55.125 34.722656 C 55.175781 34.710938 55.199219 34.6875 55.234375 34.613281 C 55.355469 34.367188 55.457031 34.113281 55.53125 33.851562 C 55.644531 33.3125 55.695312 32.765625 55.695312 32.214844 C 55.660156 31.753906 55.570312 30.789062 55.503906 30.355469 C 55.472656 30.164062 55.4375 29.914062 55.40625 29.671875 C 55.546875 29.945312 55.652344 30.230469 55.726562 30.527344 C 55.90625 31.179688 56.054688 31.839844 56.164062 32.507812 C 56.191406 32.777344 56.25 33.199219 56.269531 33.453125 C 56.257812 33.558594 56.234375 33.667969 56.210938 33.769531 C 56.113281 34.089844 55.949219 34.570312 55.921875 34.699219 C 55.863281 34.746094 55.800781 34.785156 55.742188 34.835938 C 55.578125 34.957031 55.472656 35.117188 55.421875 35.3125 L 55.640625 35.3125 C 55.691406 35.191406 55.769531 35.089844 55.875 35.007812 C 55.992188 34.917969 56.113281 34.839844 56.242188 34.769531 C 56.273438 34.75 56.296875 34.722656 56.304688 34.683594 C 56.351562 34.492188 56.394531 34.351562 56.425781 34.234375 C 56.472656 34.035156 56.496094 33.832031 56.496094 33.625 C 56.496094 33.46875 56.417969 32.847656 56.378906 32.484375 C 56.265625 31.804688 56.117188 31.132812 55.933594 30.472656 C 55.835938 29.996094 55.632812 29.566406 55.332031 29.183594 C 54.964844 28.746094 54.65625 28.269531 54.402344 27.757812 C 54.21875 27.363281 53.785156 25.984375 53.640625 25.539062 L 53.609375 25.453125 C 53.699219 25.242188 53.804688 25.042969 53.917969 24.847656 C 54.140625 24.457031 54.410156 24.101562 54.730469 23.785156 C 54.933594 23.589844 55.160156 23.425781 55.410156 23.292969 C 55.910156 23.691406 56.464844 23.972656 57.078125 24.136719 C 57.90625 24.394531 58.75 24.507812 59.613281 24.480469 C 60.621094 24.480469 62.628906 24.320312 63.136719 24.324219 C 63.636719 24.3125 64.128906 24.367188 64.609375 24.5 C 65.429688 24.828125 66.128906 25.328125 66.710938 25.992188 C 67.128906 26.511719 67.433594 27.09375 67.632812 27.730469 C 67.84375 28.320312 68.109375 28.882812 68.429688 29.421875 C 68.621094 29.699219 69.246094 30.378906 69.601562 30.429688 C 69.859375 30.4375 70.121094 30.429688 70.378906 30.40625 C 70.414062 30.460938 70.421875 30.523438 70.402344 30.585938 C 70.378906 30.648438 70.335938 30.691406 70.273438 30.714844 C 69.984375 30.839844 69.679688 30.878906 69.367188 30.832031 C 68.890625 30.757812 68.492188 30.542969 68.164062 30.1875 C 67.839844 29.804688 67.570312 29.390625 67.351562 28.941406 C 67.261719 28.753906 67.160156 28.578125 67.050781 28.40625 C 66.964844 28.703125 66.929688 29.003906 66.9375 29.3125 C 66.992188 29.695312 67.078125 30.074219 67.195312 30.441406 C 67.28125 30.738281 67.410156 31.203125 67.507812 31.429688 C 67.625 31.722656 67.796875 31.976562 68.027344 32.195312 C 68.039062 32.210938 68.046875 32.234375 68.050781 32.257812 C 68.050781 32.773438 68.042969 33.351562 68.027344 33.609375 C 68.015625 33.941406 68.027344 34.269531 68.054688 34.601562 C 68.066406 34.671875 68.074219 34.746094 68.074219 34.820312 C 68.070312 34.953125 68.035156 35.074219 67.960938 35.183594 C 67.925781 35.230469 67.886719 35.269531 67.84375 35.308594 L 68.894531 35.308594 C 68.988281 35.3125 69.066406 35.347656 69.125 35.417969 C 74.570312 42.195312 74.570312 42.195312 77.144531 45.292969 C 77.144531 45.292969 77.238281 45.402344 77.238281 45.257812 L 77.238281 36.726562 C 77.238281 36.632812 77.214844 36.539062 77.179688 36.449219 L 76.714844 35.4375 C 76.714844 35.4375 76.652344 35.304688 76.796875 35.304688 L 95.78125 35.304688 C 95.875 35.304688 95.925781 35.355469 95.929688 35.449219 L 96.046875 37.171875 L 96.019531 37.222656 C 96.019531 37.222656 95.996094 37.277344 95.871094 37.203125 C 95.160156 36.765625 94.382812 36.523438 93.546875 36.484375 C 92.878906 36.414062 92.238281 36.507812 91.617188 36.769531 C 91.566406 36.847656 91.542969 36.933594 91.546875 37.027344 C 91.566406 38.144531 91.566406 38.144531 91.546875 40.734375 C 91.542969 40.832031 91.589844 40.878906 91.6875 40.878906 L 94.675781 40.878906 C 94.777344 40.875 94.824219 40.925781 94.820312 41.023438 L 94.820312 42.609375 C 94.820312 42.628906 94.8125 42.636719 94.796875 42.632812 C 94.796875 42.632812 94.773438 42.632812 94.65625 42.554688 C 94.34375 42.265625 93.980469 42.09375 93.558594 42.035156 L 91.546875 42.035156 L 91.5625 46.875 C 91.5625 46.972656 91.582031 47.0625 91.617188 47.152344 C 91.71875 47.386719 93.230469 47.472656 93.710938 47.464844 C 94.847656 47.421875 95.964844 47.265625 97.066406 46.988281 L 97.066406 47.066406 C 97.058594 47.140625 97.035156 47.207031 96.992188 47.269531 C 96.703125 47.75 96.441406 48.242188 96.203125 48.75 C 96.160156 48.832031 96.089844 48.875 95.996094 48.878906 L 88.703125 48.878906 C 88.703125 48.878906 88.558594 48.878906 88.625 48.75 L 89.277344 47.453125 C 89.320312 47.367188 89.339844 47.277344 89.34375 47.183594 L 89.335938 36.609375 C 89.332031 36.511719 89.304688 36.425781 89.25 36.347656 L 89.070312 36.113281 L 88.359375 37.136719 C 88.359375 37.136719 88.25 37.277344 88.175781 37.15625 C 87.863281 36.648438 87.597656 36.464844 86.574219 36.464844 C 85.988281 36.460938 85.453125 36.625 84.972656 36.960938 M 102.527344 35.308594 C 103.980469 35.308594 106.15625 36.496094 106.15625 38.679688 C 106.148438 39.625 105.78125 40.402344 105.058594 41.011719 C 104.449219 41.496094 103.769531 41.84375 103.023438 42.050781 C 102.84375 42.109375 102.9375 42.300781 102.996094 42.386719 C 105.3125 45.625 108.058594 48.445312 111.238281 50.839844 C 111.472656 51.003906 111.71875 51.152344 111.96875 51.289062 C 111.96875 51.289062 112.09375 51.363281 111.953125 51.386719 C 109.019531 51.863281 107.433594 50.53125 106.148438 49.285156 C 103.957031 47.144531 102.132812 44.726562 100.679688 42.03125 C 100.632812 41.945312 100.722656 41.859375 100.804688 41.851562 C 101.492188 41.785156 102.109375 41.546875 102.660156 41.132812 C 103.214844 40.714844 103.613281 40.1875 103.867188 39.546875 C 104.011719 39.082031 104.003906 38.621094 103.84375 38.164062 C 103.683594 37.707031 103.40625 37.34375 103.003906 37.070312 C 102.472656 36.722656 101.894531 36.539062 101.261719 36.519531 C 100.289062 36.519531 100.289062 36.519531 100.136719 36.636719 C 100.0625 36.695312 100.023438 36.773438 100.019531 36.867188 L 100.019531 47.175781 C 100.023438 47.269531 100.046875 47.359375 100.085938 47.445312 L 100.75 48.761719 C 100.75 48.761719 100.816406 48.890625 100.671875 48.890625 L 97.164062 48.890625 C 97.164062 48.890625 97.019531 48.890625 97.085938 48.761719 L 97.746094 47.445312 C 97.785156 47.359375 97.808594 47.269531 97.8125 47.171875 L 97.8125 36.734375 C 97.808594 36.640625 97.789062 36.546875 97.75 36.460938 L 97.285156 35.445312 C 97.285156 35.445312 97.226562 35.3125 97.375 35.3125 Z M 52.855469 36.445312 C 52.816406 36.53125 52.796875 36.621094 52.792969 36.71875 L 52.800781 47.175781 C 52.804688 47.269531 52.824219 47.359375 52.867188 47.449219 L 53.527344 48.761719 C 53.527344 48.761719 53.59375 48.890625 53.449219 48.890625 L 49.941406 48.890625 C 49.941406 48.890625 49.796875 48.890625 49.863281 48.761719 L 50.523438 47.449219 C 50.566406 47.359375 50.585938 47.269531 50.589844 47.175781 L 50.582031 42.300781 C 50.582031 42.203125 50.535156 42.15625 50.4375 42.15625 L 44.0625 42.15625 C 43.964844 42.15625 43.917969 42.203125 43.921875 42.300781 L 43.921875 47.175781 C 43.921875 47.269531 43.945312 47.359375 43.984375 47.449219 L 44.648438 48.761719 C 44.648438 48.761719 44.710938 48.890625 44.570312 48.890625 L 41.058594 48.890625 C 41.058594 48.890625 40.917969 48.890625 40.980469 48.761719 L 41.644531 47.449219 C 41.683594 47.359375 41.707031 47.269531 41.710938 47.175781 L 41.710938 36.714844 C 41.707031 36.621094 41.6875 36.527344 41.648438 36.441406 L 41.183594 35.441406 C 41.183594 35.441406 41.125 35.3125 41.265625 35.3125 L 44.363281 35.3125 C 44.363281 35.3125 44.503906 35.3125 44.445312 35.441406 L 43.980469 36.441406 C 43.941406 36.527344 43.921875 36.621094 43.921875 36.714844 L 43.921875 40.582031 C 43.917969 40.679688 43.964844 40.726562 44.0625 40.726562 L 50.441406 40.726562 C 50.539062 40.726562 50.585938 40.679688 50.582031 40.582031 L 50.582031 36.714844 C 50.578125 36.621094 50.558594 36.527344 50.523438 36.441406 L 50.058594 35.441406 C 50.058594 35.441406 49.996094 35.3125 50.140625 35.3125 L 53.234375 35.3125 C 53.234375 35.3125 53.378906 35.3125 53.316406 35.441406 Z M 111.347656 44.296875 C 111.628906 44.292969 111.898438 44.339844 112.160156 44.445312 C 112.421875 44.546875 112.652344 44.699219 112.855469 44.894531 C 113.054688 45.089844 113.210938 45.316406 113.324219 45.574219 C 113.433594 45.832031 113.492188 46.101562 113.496094 46.382812 C 113.5 46.664062 113.449219 46.933594 113.34375 47.195312 C 113.242188 47.457031 113.089844 47.6875 112.894531 47.886719 C 112.699219 48.089844 112.46875 48.242188 112.210938 48.351562 C 111.953125 48.464844 111.683594 48.519531 111.402344 48.523438 C 111.121094 48.523438 110.851562 48.472656 110.589844 48.367188 C 110.328125 48.261719 110.097656 48.109375 109.898438 47.910156 C 109.699219 47.714844 109.546875 47.484375 109.4375 47.226562 C 109.328125 46.96875 109.273438 46.699219 109.273438 46.417969 C 109.269531 46.140625 109.320312 45.871094 109.421875 45.613281 C 109.527344 45.355469 109.675781 45.128906 109.871094 44.929688 C 110.066406 44.730469 110.289062 44.574219 110.546875 44.464844 C 110.800781 44.355469 111.066406 44.300781 111.347656 44.296875 M 111.347656 44.582031 C 111.101562 44.578125 110.867188 44.625 110.644531 44.714844 C 110.417969 44.804688 110.21875 44.9375 110.046875 45.105469 C 109.871094 45.277344 109.738281 45.472656 109.644531 45.699219 C 109.546875 45.921875 109.5 46.15625 109.5 46.398438 C 109.496094 46.640625 109.542969 46.875 109.636719 47.101562 C 109.726562 47.328125 109.859375 47.523438 110.03125 47.699219 C 110.203125 47.871094 110.398438 48.003906 110.625 48.097656 C 110.847656 48.191406 111.082031 48.238281 111.324219 48.238281 C 111.566406 48.238281 111.800781 48.191406 112.027344 48.097656 C 112.25 48.003906 112.449219 47.875 112.621094 47.699219 C 112.792969 47.527344 112.925781 47.332031 113.019531 47.105469 C 113.109375 46.882812 113.15625 46.648438 113.15625 46.402344 C 113.15625 46.164062 113.109375 45.929688 113.019531 45.707031 C 112.929688 45.484375 112.796875 45.289062 112.628906 45.117188 C 112.457031 44.945312 112.261719 44.816406 112.039062 44.722656 C 111.820312 44.628906 111.585938 44.582031 111.347656 44.582031 M 110.96875 47.492188 C 110.835938 47.515625 110.699219 47.519531 110.5625 47.503906 C 110.574219 47.175781 110.574219 46.84375 110.574219 46.515625 C 110.574219 45.757812 110.554688 45.492188 110.554688 45.128906 L 110.640625 45.128906 L 110.980469 45.125 L 111.183594 45.125 C 111.359375 45.113281 111.535156 45.132812 111.707031 45.179688 C 111.839844 45.21875 111.945312 45.292969 112.023438 45.40625 C 112.105469 45.515625 112.140625 45.640625 112.128906 45.777344 C 112.128906 45.945312 112.074219 46.089844 111.96875 46.214844 C 111.859375 46.34375 111.726562 46.417969 111.5625 46.445312 C 111.617188 46.523438 111.878906 46.90625 111.941406 46.996094 C 112.042969 47.144531 112.09375 47.210938 112.296875 47.488281 C 112.230469 47.515625 112.15625 47.527344 112.082031 47.527344 C 112.003906 47.53125 111.925781 47.53125 111.847656 47.527344 L 111.808594 47.457031 C 111.710938 47.28125 111.597656 47.121094 111.488281 46.957031 C 111.289062 46.648438 111.269531 46.613281 111.1875 46.507812 C 111.082031 46.507812 111.066406 46.511719 110.949219 46.507812 C 110.949219 46.691406 110.953125 47.214844 110.972656 47.5 M 110.9375 46.222656 C 111.183594 46.261719 111.414062 46.214844 111.628906 46.089844 C 111.714844 46.011719 111.753906 45.917969 111.753906 45.804688 C 111.753906 45.722656 111.730469 45.644531 111.6875 45.570312 C 111.582031 45.40625 111.402344 45.398438 111.152344 45.398438 C 111.109375 45.398438 111.046875 45.398438 110.933594 45.398438 C 110.933594 45.792969 110.933594 45.84375 110.933594 46.222656 " fill-opacity="1" fill-rule="nonzero"/></svg>