<svg xmlns="http://www.w3.org/2000/svg" xmlns:xlink="http://www.w3.org/1999/xlink" width="200" zoomAndPan="magnify" viewBox="0 0 150 74.999997" height="100" preserveAspectRatio="xMidYMid meet" version="1.0"><defs><clipPath id="fffc3a45d7"><path d="M 39.253906 8.277344 L 110.503906 8.277344 L 110.503906 66.777344 L 39.253906 66.777344 Z M 39.253906 8.277344 " clip-rule="nonzero"/></clipPath></defs><g clip-path="url(#fffc3a45d7)"><path fill="#1b2b45" d="M 83.296875 66.496094 L 83.046875 66.273438 L 82.910156 66.347656 C 82.804688 66.40625 82.648438 66.421875 82.207031 66.421875 C 81.675781 66.421875 81.621094 66.414062 81.40625 66.300781 C 81.09375 66.136719 80.734375 65.738281 80.609375 65.410156 C 80.484375 65.085938 80.441406 64.410156 80.523438 64.039062 C 80.71875 63.148438 81.433594 62.621094 82.347656 62.683594 C 83.335938 62.75 83.933594 63.457031 83.933594 64.550781 C 83.933594 65.054688 83.824219 65.46875 83.617188 65.757812 L 83.480469 65.945312 L 83.648438 66.101562 C 83.742188 66.191406 83.835938 66.261719 83.855469 66.261719 C 83.929688 66.265625 83.878906 66.40625 83.746094 66.558594 C 83.667969 66.648438 83.59375 66.71875 83.578125 66.71875 C 83.5625 66.71875 83.433594 66.617188 83.296875 66.496094 Z M 82.46875 65.871094 C 82.574219 65.84375 82.570312 65.839844 82.414062 65.710938 C 82.324219 65.636719 82.25 65.550781 82.25 65.519531 C 82.25 65.488281 82.320312 65.394531 82.40625 65.3125 L 82.5625 65.160156 L 82.757812 65.324219 C 82.863281 65.417969 82.964844 65.492188 82.980469 65.492188 C 83.039062 65.492188 83.210938 65.054688 83.25 64.808594 C 83.269531 64.671875 83.269531 64.445312 83.25 64.308594 C 83.152344 63.601562 82.742188 63.226562 82.117188 63.269531 C 81.746094 63.296875 81.503906 63.464844 81.320312 63.828125 C 81.148438 64.167969 81.109375 64.699219 81.226562 65.101562 C 81.390625 65.667969 81.945312 66.011719 82.46875 65.871094 Z M 61.65625 66.363281 C 61.230469 66.210938 60.878906 65.851562 60.6875 65.367188 C 60.597656 65.144531 60.582031 65.023438 60.585938 64.558594 C 60.585938 64.105469 60.601562 63.96875 60.6875 63.761719 C 60.988281 63.003906 61.574219 62.640625 62.417969 62.679688 C 63.019531 62.710938 63.457031 62.957031 63.757812 63.4375 C 64 63.824219 64.105469 64.453125 64.015625 64.972656 C 63.910156 65.578125 63.621094 66.007812 63.140625 66.265625 C 62.875 66.410156 62.820312 66.421875 62.375 66.433594 C 62 66.445312 61.847656 66.429688 61.65625 66.363281 Z M 62.773438 65.769531 C 63.523438 65.386719 63.570312 63.898438 62.851562 63.40625 C 62.648438 63.265625 62.316406 63.214844 62.054688 63.28125 C 61.75 63.363281 61.539062 63.535156 61.390625 63.84375 C 61.277344 64.078125 61.261719 64.152344 61.261719 64.558594 C 61.261719 64.964844 61.273438 65.039062 61.390625 65.277344 C 61.664062 65.835938 62.242188 66.039062 62.773438 65.769531 Z M 67.457031 66.382812 C 67.117188 66.289062 66.878906 66.09375 66.71875 65.789062 L 66.582031 65.519531 L 66.570312 64.140625 L 66.554688 62.761719 L 67.242188 62.761719 L 67.242188 64.046875 C 67.242188 65.476562 67.257812 65.550781 67.550781 65.746094 C 67.832031 65.9375 68.398438 65.925781 68.625 65.726562 C 68.835938 65.542969 68.855469 65.402344 68.871094 64.046875 L 68.886719 62.761719 L 69.570312 62.761719 L 69.550781 64.09375 C 69.527344 65.570312 69.507812 65.6875 69.21875 66.023438 C 68.984375 66.300781 68.679688 66.414062 68.128906 66.429688 C 67.84375 66.441406 67.59375 66.421875 67.457031 66.382812 Z M 87.316406 66.363281 C 87.019531 66.261719 86.878906 66.167969 86.738281 65.980469 C 86.503906 65.667969 86.480469 65.507812 86.480469 64.078125 L 86.480469 62.761719 L 87.109375 62.761719 L 87.125 64.046875 C 87.144531 65.429688 87.152344 65.472656 87.398438 65.703125 C 87.53125 65.828125 87.898438 65.914062 88.140625 65.875 C 88.425781 65.828125 88.574219 65.730469 88.667969 65.523438 C 88.746094 65.351562 88.753906 65.210938 88.753906 64.046875 L 88.753906 62.761719 L 89.441406 62.761719 L 89.429688 64.136719 L 89.414062 65.515625 L 89.292969 65.773438 C 89.152344 66.074219 88.90625 66.273438 88.558594 66.378906 C 88.242188 66.472656 87.609375 66.464844 87.316406 66.363281 Z M 55.191406 64.585938 L 55.191406 62.761719 L 56.171875 62.761719 C 56.726562 62.761719 57.234375 62.785156 57.347656 62.8125 C 57.589844 62.871094 57.863281 63.09375 57.949219 63.292969 C 58.09375 63.640625 57.988281 64.128906 57.730469 64.320312 L 57.601562 64.414062 L 57.78125 64.523438 C 58.066406 64.691406 58.167969 64.902344 58.167969 65.3125 C 58.167969 65.617188 58.152344 65.683594 58.03125 65.878906 C 57.925781 66.050781 57.832031 66.136719 57.625 66.242188 L 57.355469 66.378906 L 55.191406 66.410156 Z M 57.3125 65.691406 C 57.578125 65.492188 57.566406 65.054688 57.285156 64.867188 C 57.144531 64.769531 57.085938 64.761719 56.480469 64.761719 L 55.828125 64.761719 L 55.828125 65.816406 L 56.507812 65.800781 C 57.113281 65.789062 57.199219 65.777344 57.3125 65.691406 Z M 57.132812 64.15625 C 57.308594 64.066406 57.386719 63.839844 57.324219 63.613281 C 57.257812 63.371094 57.152344 63.335938 56.453125 63.316406 L 55.828125 63.300781 L 55.828125 64.273438 L 56.40625 64.253906 C 56.824219 64.238281 57.027344 64.210938 57.132812 64.15625 Z M 73.019531 64.878906 L 73.019531 63.351562 L 71.882812 63.351562 L 71.882812 62.761719 L 74.839844 62.761719 L 74.839844 63.351562 L 73.699219 63.351562 L 73.699219 66.402344 L 73.019531 66.402344 Z M 77.25 64.582031 L 77.25 62.761719 L 77.929688 62.761719 L 77.929688 66.402344 L 77.25 66.402344 Z M 92.121094 64.582031 L 92.121094 62.761719 L 94.757812 62.761719 L 94.757812 63.308594 L 92.804688 63.308594 L 92.804688 64.21875 L 94.621094 64.21875 L 94.621094 64.761719 L 92.804688 64.761719 L 92.804688 65.808594 L 94.804688 65.808594 L 94.804688 66.402344 L 92.121094 66.402344 Z M 98.878906 62.234375 C 98.285156 62.089844 97.738281 61.65625 97.492188 61.125 C 97.328125 60.777344 97.324219 60.171875 97.484375 59.816406 C 97.757812 59.199219 98.542969 58.832031 99.265625 58.984375 C 99.652344 59.0625 99.664062 59.085938 99.449219 59.296875 C 99.097656 59.652344 99.027344 60.28125 99.289062 60.761719 C 99.535156 61.214844 99.90625 61.375 100.417969 61.25 C 100.960938 61.113281 101.347656 60.746094 101.734375 59.988281 C 102.160156 59.15625 102.40625 58.113281 102.535156 56.597656 C 102.558594 56.300781 102.582031 55.953125 102.582031 55.828125 L 102.582031 55.597656 L 102.378906 56.007812 C 102.117188 56.535156 101.78125 56.976562 101.402344 57.289062 C 100.769531 57.8125 100.359375 57.964844 99.652344 57.933594 C 99.253906 57.914062 99.152344 57.890625 98.890625 57.765625 C 98.347656 57.507812 97.945312 56.929688 97.753906 56.132812 C 97.628906 55.625 97.621094 54.695312 97.730469 54.109375 C 98.035156 52.527344 98.964844 51.199219 100.203125 50.578125 C 100.730469 50.3125 101.214844 50.199219 101.925781 50.175781 C 102.644531 50.148438 102.796875 50.191406 102.898438 50.429688 C 102.992188 50.660156 102.953125 50.703125 102.511719 50.851562 C 101.507812 51.1875 100.757812 51.886719 100.214844 53.003906 C 99.886719 53.667969 99.753906 54.230469 99.75 54.941406 C 99.742188 55.808594 99.921875 56.289062 100.328125 56.484375 C 100.925781 56.773438 101.578125 56.351562 102.078125 55.355469 C 102.472656 54.574219 102.671875 53.8125 102.96875 51.96875 C 103.164062 50.773438 103.421875 50.132812 103.863281 49.734375 C 104.070312 49.546875 104.589844 49.253906 104.714844 49.253906 C 104.777344 49.253906 104.777344 49.21875 104.695312 49.84375 C 104.65625 50.132812 104.605469 51.074219 104.582031 51.9375 C 104.488281 55.300781 104.253906 57.136719 103.695312 58.835938 C 103.03125 60.859375 101.996094 61.949219 100.457031 62.242188 C 100.03125 62.324219 99.230469 62.320312 98.878906 62.234375 Z M 40.933594 58.195312 C 40.515625 58.0625 40.046875 57.832031 39.828125 57.644531 C 39.625 57.472656 39.421875 57.121094 39.335938 56.789062 C 39.207031 56.308594 39.265625 55.460938 39.589844 53.121094 C 39.917969 50.769531 40.019531 49.589844 40.019531 48.152344 L 40.023438 46.980469 L 40.226562 46.980469 C 40.519531 46.980469 41.222656 47.136719 41.441406 47.246094 C 41.835938 47.449219 42 47.816406 42 48.5 C 42 49.015625 41.925781 49.675781 41.613281 51.890625 C 41.082031 55.660156 41 56.882812 41.210938 57.933594 C 41.25 58.117188 41.273438 58.273438 41.265625 58.28125 C 41.257812 58.289062 41.105469 58.246094 40.933594 58.195312 Z M 44.34375 58.089844 C 43.515625 57.976562 42.769531 57.511719 42.511719 56.949219 C 42.359375 56.617188 42.378906 56.082031 42.558594 55.730469 C 42.773438 55.3125 43.1875 55.042969 43.683594 54.996094 C 43.925781 54.976562 44.410156 55.050781 44.410156 55.109375 C 44.410156 55.125 44.359375 55.203125 44.296875 55.289062 C 43.839844 55.882812 43.917969 56.707031 44.464844 57.042969 C 44.863281 57.292969 45.464844 57.246094 45.839844 56.933594 C 46.046875 56.761719 46.140625 56.558594 46.136719 56.292969 C 46.128906 55.855469 45.890625 55.511719 45.289062 55.070312 C 43.859375 54.023438 43.605469 53.796875 43.347656 53.335938 C 43.113281 52.921875 43.035156 52.558594 43.054688 52.027344 C 43.070312 51.648438 43.089844 51.550781 43.214844 51.296875 C 43.484375 50.75 44.007812 50.324219 44.691406 50.097656 C 45.398438 49.863281 46.578125 49.890625 47.199219 50.160156 C 47.480469 50.28125 47.847656 50.628906 47.996094 50.914062 C 48.144531 51.203125 48.160156 51.699219 48.035156 52.0625 C 47.9375 52.347656 47.613281 52.722656 47.351562 52.855469 C 47.113281 52.976562 46.632812 53.015625 46.28125 52.9375 L 46.011719 52.882812 L 46.21875 52.625 C 46.480469 52.304688 46.597656 52.042969 46.625 51.714844 C 46.652344 51.386719 46.550781 51.191406 46.253906 51.003906 C 46.070312 50.890625 45.984375 50.867188 45.753906 50.867188 C 45.519531 50.867188 45.433594 50.890625 45.25 51.007812 C 44.941406 51.195312 44.820312 51.421875 44.820312 51.800781 C 44.820312 52.425781 45.179688 52.863281 46.304688 53.621094 C 47.125 54.175781 47.449219 54.464844 47.726562 54.890625 C 48.539062 56.148438 47.617188 57.722656 45.875 58.058594 C 45.566406 58.117188 44.675781 58.136719 44.34375 58.089844 Z M 106.765625 58.058594 C 105.996094 57.894531 105.433594 57.542969 105.136719 57.039062 C 105.027344 56.851562 105.015625 56.78125 105.015625 56.417969 C 105.015625 56.097656 105.035156 55.960938 105.109375 55.800781 C 105.324219 55.339844 105.746094 55.042969 106.257812 54.996094 C 106.539062 54.972656 106.992188 55.054688 106.992188 55.128906 C 106.992188 55.152344 106.933594 55.246094 106.859375 55.339844 C 106.472656 55.824219 106.5 56.542969 106.921875 56.929688 C 107.226562 57.210938 107.574219 57.277344 108.03125 57.144531 C 108.289062 57.066406 108.550781 56.863281 108.65625 56.664062 C 108.746094 56.484375 108.738281 56.089844 108.632812 55.867188 C 108.496094 55.566406 108.257812 55.339844 107.503906 54.792969 C 106.574219 54.117188 106.144531 53.714844 105.929688 53.308594 C 105.726562 52.917969 105.628906 52.550781 105.628906 52.167969 C 105.632812 51.5625 105.789062 51.179688 106.222656 50.746094 C 106.601562 50.363281 107.101562 50.109375 107.675781 50 C 108.195312 49.898438 109.117188 49.933594 109.542969 50.066406 C 110.324219 50.316406 110.761719 50.898438 110.710938 51.613281 C 110.671875 52.175781 110.394531 52.617188 109.941406 52.84375 C 109.710938 52.960938 109.605469 52.984375 109.347656 52.984375 C 109.054688 52.984375 108.628906 52.910156 108.628906 52.859375 C 108.628906 52.847656 108.699219 52.757812 108.789062 52.660156 C 109.171875 52.238281 109.332031 51.582031 109.132812 51.265625 C 108.960938 50.992188 108.542969 50.816406 108.195312 50.867188 C 107.914062 50.910156 107.609375 51.128906 107.492188 51.375 C 107.414062 51.535156 107.394531 51.636719 107.410156 51.859375 C 107.449219 52.460938 107.816406 52.894531 108.902344 53.621094 C 109.703125 54.15625 110.167969 54.589844 110.390625 55.007812 C 110.800781 55.789062 110.664062 56.601562 110.007812 57.253906 C 109.664062 57.597656 109.265625 57.839844 108.789062 57.988281 C 108.382812 58.117188 107.234375 58.15625 106.765625 58.058594 Z M 49.890625 58.027344 C 49.410156 57.957031 49.136719 57.847656 48.929688 57.640625 C 48.652344 57.363281 48.582031 57.082031 48.582031 56.304688 C 48.585938 55.695312 48.632812 55.199219 48.9375 52.710938 C 49.351562 49.363281 49.460938 48.144531 49.457031 46.945312 C 49.457031 46.15625 49.425781 45.738281 49.34375 45.417969 C 49.3125 45.289062 49.3125 45.289062 49.464844 45.320312 C 49.710938 45.371094 50.277344 45.648438 50.480469 45.816406 C 50.585938 45.902344 50.734375 46.09375 50.816406 46.242188 C 51.203125 46.96875 51.195312 47.589844 50.753906 51.324219 C 50.433594 54.0625 50.296875 56.066406 50.347656 57.316406 L 50.378906 58.078125 L 50.273438 58.070312 C 50.214844 58.070312 50.042969 58.046875 49.890625 58.027344 Z M 53.644531 58.011719 C 52.890625 57.839844 52.105469 57.226562 51.757812 56.539062 C 51.320312 55.660156 51.253906 54.425781 51.578125 53.203125 C 51.804688 52.363281 52.191406 51.707031 52.808594 51.117188 C 53.636719 50.332031 54.371094 50.027344 55.464844 50.027344 C 56.535156 50.027344 57.191406 50.347656 57.523438 51.03125 C 57.828125 51.65625 57.800781 52.574219 57.460938 53.214844 C 57.175781 53.746094 56.496094 54.21875 55.734375 54.414062 C 55.1875 54.554688 53.855469 54.550781 53.488281 54.410156 C 53.332031 54.351562 53.382812 55.398438 53.554688 55.925781 C 53.816406 56.710938 54.394531 57.117188 55.078125 56.992188 C 55.628906 56.890625 56.289062 56.433594 56.65625 55.902344 C 56.78125 55.722656 56.804688 55.707031 56.933594 55.730469 C 57.105469 55.761719 57.328125 55.992188 57.328125 56.136719 C 57.328125 56.253906 57.269531 56.347656 56.929688 56.769531 C 56.480469 57.324219 55.832031 57.761719 55.191406 57.9375 C 54.734375 58.066406 54.03125 58.097656 53.644531 58.011719 Z M 54.394531 53.6875 C 54.808594 53.582031 55.113281 53.414062 55.339844 53.171875 C 56.019531 52.445312 56.109375 51.28125 55.507812 50.96875 C 55.210938 50.8125 54.722656 50.953125 54.410156 51.285156 C 54.019531 51.699219 53.652344 52.613281 53.488281 53.585938 L 53.457031 53.757812 L 53.792969 53.757812 C 53.976562 53.757812 54.246094 53.726562 54.394531 53.6875 Z M 61.550781 58.015625 C 61.277344 57.941406 61.046875 57.765625 60.9375 57.546875 C 60.796875 57.257812 60.828125 56.105469 61.019531 54.722656 C 61.105469 54.117188 61.15625 53.621094 61.140625 53.621094 C 61.121094 53.621094 60.996094 53.660156 60.863281 53.710938 C 60.734375 53.761719 60.613281 53.800781 60.59375 53.800781 C 60.53125 53.800781 60.503906 53.3125 60.554688 53.050781 C 60.617188 52.703125 60.792969 52.449219 61.082031 52.292969 C 61.207031 52.222656 61.324219 52.160156 61.34375 52.152344 C 61.402344 52.132812 61.574219 50.6875 61.671875 49.386719 L 61.699219 48.992188 L 61.351562 48.972656 C 60.789062 48.933594 60.65625 48.765625 60.652344 48.050781 C 60.648438 47.738281 60.707031 47.175781 60.75 47.136719 C 60.757812 47.132812 60.996094 47.152344 61.285156 47.1875 C 63.144531 47.402344 65.484375 47.367188 67.128906 47.09375 C 67.742188 46.992188 67.699219 46.976562 67.625 47.304688 C 67.460938 48.003906 67.011719 48.453125 66.25 48.679688 C 65.894531 48.785156 65.183594 48.878906 64.335938 48.933594 C 63.921875 48.960938 63.578125 48.992188 63.566406 49.003906 C 63.558594 49.011719 63.460938 49.707031 63.359375 50.542969 L 63.167969 52.066406 L 63.675781 52.097656 C 64.550781 52.152344 65.304688 52.050781 65.753906 51.8125 C 65.882812 51.746094 66.007812 51.679688 66.027344 51.671875 C 66.089844 51.644531 66.0625 52.507812 65.992188 52.738281 C 65.917969 52.996094 65.710938 53.21875 65.472656 53.296875 C 65.375 53.328125 64.90625 53.347656 64.171875 53.347656 L 63.023438 53.347656 L 62.996094 53.496094 C 62.847656 54.339844 62.746094 57.1875 62.84375 57.839844 L 62.878906 58.078125 L 62.320312 58.074219 C 62.011719 58.074219 61.667969 58.046875 61.550781 58.015625 Z M 68.710938 58.03125 C 67.640625 57.839844 66.742188 56.953125 66.417969 55.777344 C 66.277344 55.277344 66.265625 53.847656 66.394531 53.257812 C 66.710938 51.820312 67.503906 50.671875 68.558594 50.125 C 69.171875 49.804688 69.492188 49.753906 69.695312 49.941406 C 69.828125 50.066406 69.8125 50.121094 69.601562 50.277344 C 69.109375 50.640625 68.652344 51.246094 68.414062 51.847656 C 68.226562 52.324219 68.226562 52.390625 68.414062 52.050781 C 68.871094 51.203125 69.335938 50.730469 70.03125 50.394531 C 70.285156 50.273438 70.589844 50.152344 70.707031 50.125 C 71.015625 50.050781 71.652344 50.058594 71.882812 50.140625 C 72.175781 50.246094 72.5 50.507812 72.722656 50.820312 C 73.148438 51.417969 73.304688 52.007812 73.304688 53.027344 C 73.304688 53.832031 73.230469 54.335938 73.011719 55.019531 C 72.40625 56.917969 71.15625 57.976562 69.433594 58.050781 C 69.167969 58.0625 68.839844 58.054688 68.710938 58.03125 Z M 70.046875 56.917969 C 70.527344 56.675781 70.949219 56.0625 71.242188 55.175781 C 71.621094 54.035156 71.632812 52.335938 71.265625 51.617188 C 70.988281 51.070312 70.433594 50.9375 69.855469 51.277344 C 69.453125 51.515625 68.925781 52.222656 68.636719 52.921875 C 68.402344 53.480469 68.328125 53.839844 68.300781 54.492188 C 68.25 55.785156 68.527344 56.667969 69.070312 56.933594 C 69.351562 57.074219 69.746094 57.066406 70.046875 56.917969 Z M 84.183594 58.03125 C 83.710938 57.976562 83.050781 57.828125 82.570312 57.660156 C 82.195312 57.527344 81.523438 57.183594 81.523438 57.121094 C 81.523438 57.105469 81.613281 56.476562 81.726562 55.730469 C 82.207031 52.519531 82.394531 50.441406 82.402344 48.253906 C 82.40625 47.257812 82.394531 46.996094 82.328125 46.738281 C 82.285156 46.566406 82.25 46.410156 82.25 46.390625 C 82.25 46.320312 82.707031 46.472656 83.140625 46.683594 C 83.527344 46.871094 83.882812 47.171875 84.046875 47.445312 C 84.089844 47.515625 84.121094 47.511719 84.410156 47.382812 C 85.011719 47.125 85.488281 47.019531 86.183594 46.996094 C 86.886719 46.96875 87.261719 47.023438 87.753906 47.222656 C 88.980469 47.71875 89.871094 48.960938 90.214844 50.664062 C 90.332031 51.238281 90.378906 52.457031 90.304688 53.058594 C 90.097656 54.742188 89.339844 56.171875 88.199219 57.035156 C 87.601562 57.484375 86.855469 57.816406 86.097656 57.96875 C 85.6875 58.050781 84.65625 58.085938 84.183594 58.03125 Z M 85.5 56.894531 C 85.941406 56.78125 86.300781 56.59375 86.695312 56.257812 C 87.683594 55.429688 88.257812 54.058594 88.332031 52.371094 C 88.375 51.328125 88.21875 50.496094 87.835938 49.710938 C 87.449219 48.925781 86.867188 48.417969 86.167969 48.253906 C 85.828125 48.175781 84.90625 48.21875 84.546875 48.332031 L 84.273438 48.417969 L 84.242188 48.960938 C 84.199219 49.660156 84.105469 50.683594 83.910156 52.527344 C 83.695312 54.609375 83.613281 55.507812 83.578125 56.203125 L 83.546875 56.808594 L 83.773438 56.871094 C 84.136719 56.972656 84.160156 56.976562 84.664062 56.980469 C 85.011719 56.984375 85.246094 56.960938 85.5 56.894531 Z M 92.910156 58.03125 C 91.832031 57.835938 90.9375 56.980469 90.621094 55.847656 C 90.351562 54.863281 90.429688 53.460938 90.816406 52.433594 C 91.269531 51.222656 92.089844 50.339844 93.105469 49.957031 C 93.554688 49.785156 93.820312 49.808594 93.9375 50.023438 C 93.976562 50.09375 93.9375 50.144531 93.6875 50.351562 C 93.160156 50.785156 92.742188 51.390625 92.523438 52.023438 C 92.402344 52.371094 92.417969 52.367188 92.621094 51.988281 C 93.019531 51.261719 93.570312 50.699219 94.171875 50.402344 C 94.667969 50.160156 95.019531 50.074219 95.519531 50.074219 C 95.882812 50.074219 95.957031 50.089844 96.203125 50.210938 C 97.019531 50.621094 97.484375 51.632812 97.488281 53 C 97.488281 55.210938 96.511719 57.074219 94.992188 57.746094 C 94.414062 58 93.46875 58.132812 92.910156 58.03125 Z M 94.21875 56.925781 C 94.644531 56.71875 94.984375 56.285156 95.273438 55.582031 C 95.546875 54.917969 95.667969 54.308594 95.699219 53.484375 C 95.769531 51.574219 95.222656 50.753906 94.179688 51.210938 C 93.738281 51.40625 93.375 51.816406 92.996094 52.558594 C 92.570312 53.386719 92.40625 54.152344 92.460938 55.007812 C 92.535156 56.097656 92.796875 56.714844 93.28125 56.949219 C 93.503906 57.054688 93.972656 57.042969 94.21875 56.925781 Z M 74.746094 57.832031 C 74.253906 57.722656 74.019531 57.507812 73.921875 57.082031 C 73.855469 56.796875 73.890625 56.421875 74.132812 54.8125 C 74.371094 53.234375 74.433594 52.589844 74.433594 51.710938 C 74.433594 50.96875 74.335938 50.082031 74.21875 49.78125 C 74.191406 49.710938 74.203125 49.703125 74.296875 49.730469 C 74.355469 49.746094 74.574219 49.839844 74.78125 49.9375 C 75.253906 50.160156 75.59375 50.472656 75.785156 50.859375 C 75.980469 51.261719 76.019531 51.464844 76.019531 52.210938 L 76.023438 52.871094 L 76.203125 52.398438 C 76.539062 51.515625 76.949219 50.855469 77.429688 50.421875 C 77.769531 50.117188 78.027344 50.003906 78.386719 50.007812 C 79.117188 50.015625 79.527344 50.574219 79.53125 51.5625 C 79.53125 52.152344 79.382812 52.589844 79.039062 53.015625 C 78.777344 53.335938 78.257812 53.53125 77.832031 53.464844 C 77.507812 53.417969 77.496094 53.394531 77.652344 53.113281 C 77.816406 52.824219 77.929688 52.410156 77.929688 52.109375 C 77.929688 51.933594 77.90625 51.863281 77.820312 51.777344 C 77.671875 51.628906 77.53125 51.636719 77.308594 51.796875 C 76.957031 52.050781 76.550781 52.773438 76.296875 53.613281 C 75.980469 54.636719 75.863281 55.621094 75.894531 56.917969 C 75.917969 57.832031 75.917969 57.84375 75.820312 57.867188 C 75.65625 57.914062 75.011719 57.890625 74.746094 57.832031 Z M 71.835938 43.75 C 65.757812 43.511719 59.960938 42.613281 56.152344 41.320312 C 53.441406 40.398438 52.015625 39.441406 51.929688 38.484375 C 51.875 37.910156 52.253906 37.429688 53.191406 36.882812 C 54.925781 35.871094 58.921875 34.933594 63.761719 34.410156 C 66.550781 34.105469 70.351562 33.863281 70.691406 33.964844 C 70.902344 34.027344 71.023438 34.152344 71.425781 34.726562 C 71.785156 35.234375 71.824219 35.398438 71.636719 35.585938 C 71.519531 35.703125 71.558594 35.695312 70.289062 35.816406 C 67.601562 36.074219 65.503906 36.605469 64.863281 37.195312 C 64.417969 37.605469 64.597656 37.964844 65.445312 38.367188 C 66.570312 38.902344 68.695312 39.289062 71.789062 39.53125 C 72.8125 39.609375 77.1875 39.609375 78.203125 39.53125 C 80.6875 39.335938 82.53125 39.050781 83.707031 38.675781 C 84.867188 38.308594 85.34375 37.988281 85.34375 37.566406 C 85.34375 37.242188 84.742188 36.859375 83.753906 36.546875 C 82.613281 36.1875 81.1875 35.953125 78.714844 35.71875 C 78.484375 35.699219 78.414062 35.671875 78.339844 35.578125 C 78.171875 35.363281 78.214844 35.214844 78.621094 34.636719 C 79.128906 33.90625 79.132812 33.90625 80.089844 33.945312 C 84.695312 34.140625 89.402344 34.699219 92.558594 35.433594 C 95.796875 36.183594 97.734375 37.128906 98.015625 38.09375 C 98.105469 38.414062 98.074219 38.652344 97.898438 38.960938 C 96.691406 41.070312 89.128906 43.074219 80.273438 43.636719 C 77.8125 43.792969 74.207031 43.839844 71.835938 43.75 Z M 74.8125 37.75 C 74.761719 37.730469 73.199219 35.554688 71.339844 32.921875 C 69.480469 30.285156 67.941406 28.109375 67.917969 28.085938 C 67.894531 28.058594 67.839844 28.082031 67.773438 28.144531 C 67.703125 28.210938 67.609375 28.242188 67.496094 28.242188 C 67.347656 28.242188 67.292969 28.210938 67.148438 28.058594 C 66.820312 27.699219 66.539062 27.011719 66.375 26.148438 C 66.242188 25.453125 66.246094 25.464844 66.175781 25.632812 C 65.996094 26.050781 65.496094 26 65.375 25.546875 C 65.34375 25.441406 65.269531 25.117188 65.210938 24.832031 C 65.070312 24.164062 65.019531 22.84375 65.117188 22.230469 L 65.175781 21.839844 L 65.066406 21.925781 C 64.957031 22.011719 64.726562 22.039062 64.585938 21.984375 C 64.449219 21.929688 64.390625 21.71875 64.355469 21.191406 C 64.25 19.375 64.824219 17.199219 65.871094 15.445312 L 66.089844 15.074219 L 66.046875 14.394531 C 66 13.625 66.054688 12.320312 66.175781 11.460938 C 66.417969 9.6875 66.988281 8.554688 67.742188 8.328125 C 68.179688 8.195312 68.859375 8.324219 69.585938 8.679688 C 70.261719 9.011719 70.226562 8.960938 70.082031 9.402344 C 70.011719 9.609375 69.9375 9.777344 69.914062 9.777344 C 69.890625 9.777344 69.816406 9.738281 69.75 9.691406 C 69.550781 9.550781 69.007812 9.292969 68.707031 9.191406 C 68.394531 9.089844 68.140625 9.0625 67.984375 9.113281 C 67.894531 9.140625 67.960938 9.210938 68.550781 9.703125 C 69.367188 10.382812 69.574219 10.605469 69.753906 10.984375 C 69.976562 11.46875 69.972656 12.046875 69.742188 12.375 C 69.691406 12.445312 69.410156 12.679688 69.117188 12.898438 C 68.074219 13.679688 67.3125 14.585938 66.472656 16.054688 C 65.953125 16.957031 65.585938 17.910156 65.363281 18.921875 C 65.25 19.429688 65.152344 20.160156 65.152344 20.488281 L 65.152344 20.65625 L 65.375 20.492188 C 65.863281 20.128906 66.253906 20.085938 66.402344 20.378906 C 66.496094 20.558594 66.488281 20.640625 66.335938 20.945312 C 65.941406 21.746094 65.785156 22.808594 65.894531 23.980469 C 65.929688 24.359375 65.9375 24.378906 66 24.285156 C 66.039062 24.230469 66.152344 24.128906 66.253906 24.054688 C 66.480469 23.890625 66.703125 23.878906 66.847656 24.023438 C 66.941406 24.117188 66.957031 24.203125 67.007812 24.789062 C 67.0625 25.472656 67.152344 26.039062 67.269531 26.457031 L 67.335938 26.695312 L 67.453125 26.621094 C 67.542969 26.5625 67.601562 26.554688 67.734375 26.585938 C 67.886719 26.625 68.097656 26.910156 71.429688 31.628906 C 73.375 34.382812 74.976562 36.628906 74.996094 36.625 C 75.015625 36.621094 76.59375 34.398438 78.503906 31.691406 C 80.414062 28.980469 82.03125 26.71875 82.09375 26.660156 C 82.226562 26.542969 82.359375 26.53125 82.53125 26.625 L 82.652344 26.6875 L 82.746094 26.292969 C 82.890625 25.695312 82.933594 25.386719 82.972656 24.742188 C 83.003906 24.207031 83.019531 24.140625 83.113281 24.035156 C 83.195312 23.953125 83.269531 23.921875 83.398438 23.921875 C 83.542969 23.921875 83.613281 23.957031 83.792969 24.128906 C 83.984375 24.304688 84.019531 24.324219 84.046875 24.253906 C 84.109375 24.09375 84.128906 22.808594 84.074219 22.425781 C 83.996094 21.890625 83.859375 21.40625 83.679688 21.015625 C 83.496094 20.613281 83.484375 20.457031 83.636719 20.304688 C 83.832031 20.105469 84.203125 20.1875 84.660156 20.527344 C 84.746094 20.59375 84.820312 20.640625 84.828125 20.632812 C 84.835938 20.625 84.820312 20.390625 84.796875 20.113281 C 84.648438 18.421875 84.085938 16.882812 83.015625 15.25 C 82.351562 14.238281 81.671875 13.496094 80.832031 12.875 C 80.191406 12.402344 80.066406 12.203125 80.070312 11.644531 C 80.070312 11.285156 80.203125 10.933594 80.460938 10.59375 C 80.558594 10.464844 80.960938 10.09375 81.355469 9.765625 C 81.832031 9.371094 82.058594 9.15625 82.027344 9.125 C 81.96875 9.070312 81.664062 9.078125 81.414062 9.144531 C 81.128906 9.222656 80.714844 9.402344 80.371094 9.605469 C 80.199219 9.703125 80.050781 9.773438 80.035156 9.761719 C 80.023438 9.746094 79.964844 9.605469 79.910156 9.449219 C 79.855469 9.292969 79.796875 9.132812 79.777344 9.09375 C 79.734375 8.996094 80.28125 8.6875 80.871094 8.472656 C 81.5 8.246094 81.996094 8.214844 82.355469 8.378906 C 83.09375 8.71875 83.5625 9.730469 83.828125 11.578125 C 83.886719 11.988281 83.90625 12.488281 83.914062 13.628906 L 83.925781 15.140625 L 84.089844 15.40625 C 84.386719 15.898438 84.882812 16.980469 85.089844 17.589844 C 85.480469 18.742188 85.632812 19.730469 85.609375 20.976562 C 85.59375 21.75 85.589844 21.78125 85.484375 21.894531 C 85.335938 22.050781 85.058594 22.058594 84.898438 21.910156 L 84.785156 21.808594 L 84.8125 21.925781 C 84.894531 22.257812 84.945312 23.042969 84.917969 23.558594 C 84.867188 24.585938 84.640625 25.679688 84.445312 25.832031 C 84.210938 26.019531 83.890625 25.902344 83.785156 25.59375 L 83.722656 25.398438 L 83.691406 25.707031 C 83.605469 26.539062 83.183594 27.6875 82.824219 28.070312 C 82.691406 28.214844 82.636719 28.242188 82.480469 28.242188 C 82.347656 28.242188 82.265625 28.214844 82.191406 28.140625 L 82.09375 28.039062 L 78.679688 32.867188 C 76.675781 35.707031 75.226562 37.71875 75.164062 37.746094 C 75.042969 37.800781 74.941406 37.800781 74.8125 37.75 Z M 83.117188 12.777344 C 83.039062 11.59375 82.882812 10.679688 82.660156 10.085938 L 82.5625 9.824219 L 81.882812 10.394531 C 81.175781 10.988281 80.96875 11.21875 80.878906 11.507812 C 80.796875 11.785156 80.847656 11.867188 81.328125 12.210938 C 81.796875 12.546875 82.652344 13.367188 82.957031 13.773438 L 83.136719 14.011719 L 83.152344 13.769531 C 83.160156 13.636719 83.144531 13.191406 83.117188 12.777344 Z M 67.714844 13.027344 C 67.96875 12.777344 68.378906 12.417969 68.628906 12.230469 C 69.078125 11.894531 69.085938 11.882812 69.097656 11.683594 C 69.117188 11.332031 68.933594 11.085938 68.148438 10.433594 C 67.769531 10.125 67.445312 9.867188 67.421875 9.867188 C 67.371094 9.867188 67.183594 10.46875 67.089844 10.914062 C 66.960938 11.546875 66.875 12.34375 66.851562 13.164062 L 66.824219 13.984375 L 67.042969 13.734375 C 67.160156 13.597656 67.464844 13.277344 67.714844 13.027344 Z M 73.816406 30.21875 C 72.859375 30.039062 72.054688 29.71875 71.304688 29.210938 C 70.351562 28.566406 69.289062 27.382812 69.289062 26.96875 C 69.292969 26.699219 69.5 26.53125 69.769531 26.578125 C 69.894531 26.601562 69.964844 26.671875 70.175781 26.972656 C 71.042969 28.210938 72.339844 29.074219 73.796875 29.382812 C 74.359375 29.503906 75.425781 29.527344 75.976562 29.429688 C 77.472656 29.164062 78.910156 28.25 79.78125 27.007812 C 79.925781 26.800781 80.085938 26.625 80.152344 26.597656 C 80.40625 26.503906 80.703125 26.703125 80.703125 26.972656 C 80.703125 27.332031 79.511719 28.65625 78.707031 29.191406 C 78 29.660156 77.253906 29.980469 76.382812 30.179688 C 75.945312 30.285156 74.289062 30.308594 73.816406 30.21875 Z M 74.074219 24.464844 C 73.195312 24.238281 72.652344 23.730469 72.414062 22.929688 C 72.324219 22.621094 72.300781 22.585938 72.132812 22.5 C 71.867188 22.367188 71.402344 22.03125 71.292969 21.890625 C 71.160156 21.71875 71.171875 21.53125 71.332031 21.371094 C 71.527344 21.175781 71.667969 21.195312 72.035156 21.464844 C 72.617188 21.886719 73.089844 22.046875 73.527344 21.964844 C 73.730469 21.925781 74.15625 21.726562 74.15625 21.667969 C 74.15625 21.660156 74.074219 21.609375 73.976562 21.558594 C 73.699219 21.417969 73.359375 21.046875 73.191406 20.703125 C 73.046875 20.410156 73.042969 20.375 73.042969 19.875 C 73.042969 19.382812 73.050781 19.335938 73.167969 19.136719 C 73.3125 18.890625 73.527344 18.726562 73.859375 18.613281 C 74.203125 18.492188 75.75 18.496094 76.121094 18.617188 C 76.433594 18.71875 76.714844 18.949219 76.847656 19.207031 C 77.046875 19.597656 77 20.289062 76.738281 20.800781 C 76.617188 21.039062 76.273438 21.402344 76.03125 21.542969 C 75.800781 21.679688 75.816406 21.722656 76.167969 21.878906 C 76.632812 22.078125 77.167969 21.980469 77.75 21.589844 C 78.3125 21.210938 78.289062 21.222656 78.46875 21.265625 C 78.675781 21.316406 78.8125 21.550781 78.757812 21.761719 C 78.710938 21.9375 78.035156 22.449219 77.667969 22.585938 C 77.660156 22.585938 77.625 22.707031 77.585938 22.855469 C 77.367188 23.691406 76.707031 24.300781 75.816406 24.488281 C 75.355469 24.585938 74.488281 24.574219 74.074219 24.464844 Z M 75.816406 23.644531 C 76.171875 23.535156 76.441406 23.339844 76.613281 23.070312 C 76.6875 22.953125 76.75 22.84375 76.75 22.828125 C 76.75 22.8125 76.601562 22.785156 76.417969 22.769531 C 76.019531 22.738281 75.46875 22.484375 75.171875 22.195312 L 74.984375 22.015625 L 74.878906 22.132812 C 74.574219 22.464844 73.871094 22.785156 73.445312 22.785156 C 73.207031 22.785156 73.195312 22.835938 73.375 23.085938 C 73.566406 23.34375 73.695312 23.449219 73.972656 23.574219 C 74.453125 23.792969 75.238281 23.824219 75.816406 23.644531 Z M 69.875 19.183594 C 69.632812 19.117188 69.359375 18.863281 69.210938 18.566406 C 69.097656 18.332031 69.085938 18.257812 69.085938 17.828125 C 69.085938 17.378906 69.09375 17.328125 69.234375 17.046875 C 69.40625 16.691406 69.691406 16.414062 70.054688 16.242188 C 70.28125 16.136719 70.371094 16.121094 70.765625 16.121094 C 71.164062 16.121094 71.253906 16.136719 71.480469 16.242188 C 71.828125 16.40625 72.15625 16.71875 72.308594 17.035156 C 72.421875 17.261719 72.433594 17.335938 72.421875 17.621094 C 72.40625 17.894531 72.382812 17.984375 72.273438 18.140625 C 71.976562 18.566406 70.605469 19.261719 70.117188 19.230469 C 70.074219 19.230469 69.964844 19.207031 69.875 19.183594 Z M 79.523438 19.191406 C 79.242188 19.132812 78.269531 18.644531 77.976562 18.414062 C 77.515625 18.050781 77.410156 17.546875 77.679688 17.011719 C 78.132812 16.117188 79.351562 15.8125 80.1875 16.386719 C 80.683594 16.726562 80.964844 17.324219 80.921875 17.9375 C 80.851562 18.832031 80.285156 19.339844 79.523438 19.191406 Z M 74.59375 12.820312 C 74.496094 12.796875 74.316406 12.722656 74.195312 12.65625 L 73.972656 12.535156 L 73.613281 12.660156 C 72.699219 12.980469 71.78125 12.804688 71.15625 12.195312 C 70.707031 11.753906 70.425781 11.058594 70.425781 10.386719 C 70.425781 9.671875 70.738281 8.996094 71.214844 8.667969 C 71.597656 8.40625 71.796875 8.351562 72.335938 8.351562 C 72.75 8.355469 72.875 8.375 73.246094 8.5 C 73.484375 8.578125 73.746094 8.679688 73.832031 8.726562 C 73.984375 8.808594 73.988281 8.808594 74.175781 8.703125 C 74.277344 8.644531 74.492188 8.566406 74.652344 8.523438 C 75 8.433594 75.359375 8.480469 75.734375 8.667969 L 75.976562 8.785156 L 76.378906 8.625 C 77.625 8.125 78.5625 8.273438 79.160156 9.0625 C 79.476562 9.480469 79.636719 10.261719 79.527344 10.828125 C 79.460938 11.15625 79.28125 11.589844 79.101562 11.859375 C 78.492188 12.761719 77.289062 13.070312 76.199219 12.605469 C 75.996094 12.519531 75.988281 12.519531 75.878906 12.601562 C 75.609375 12.8125 75.003906 12.914062 74.59375 12.820312 Z M 74.59375 12.820312 " fill-opacity="1" fill-rule="nonzero"/></g></svg>