<svg xmlns="http://www.w3.org/2000/svg" xmlns:xlink="http://www.w3.org/1999/xlink" width="200" zoomAndPan="magnify" viewBox="0 0 150 74.999997" height="100" preserveAspectRatio="xMidYMid meet" version="1.0"><defs><clipPath id="2a7cc77bdd"><path d="M 15.890625 14.375 L 134.390625 14.375 L 134.390625 60.875 L 15.890625 60.875 Z M 15.890625 14.375 " clip-rule="nonzero"/></clipPath></defs><g clip-path="url(#2a7cc77bdd)"><path fill="#1b2b45" d="M 39.148438 60.574219 C 37.804688 60.453125 36.644531 60.203125 35.828125 59.859375 C 33.5625 58.910156 32.285156 57.089844 31.996094 54.40625 C 31.949219 53.992188 31.921875 51.410156 31.921875 47.578125 L 31.921875 41.417969 L 33.222656 41.417969 L 33.246094 48.074219 C 33.269531 54.71875 33.269531 54.734375 33.425781 55.316406 C 33.925781 57.214844 35.070312 58.429688 36.914062 59.027344 C 37.847656 59.328125 38.851562 59.460938 40.25 59.457031 C 42.105469 59.453125 43.179688 59.25 44.378906 58.675781 C 45.003906 58.371094 45.179688 58.25 45.691406 57.734375 C 46.171875 57.25 46.339844 57.03125 46.566406 56.554688 C 46.914062 55.832031 47.101562 55.097656 47.195312 54.113281 C 47.238281 53.65625 47.265625 50.996094 47.265625 47.386719 L 47.265625 41.417969 L 48.511719 41.417969 L 48.488281 48.109375 C 48.464844 54.636719 48.460938 54.816406 48.320312 55.390625 C 47.597656 58.324219 45.6875 59.957031 42.410156 60.441406 C 41.683594 60.550781 39.753906 60.628906 39.148438 60.574219 Z M 15.957031 50.808594 L 15.957031 41.417969 L 29.515625 41.417969 L 29.515625 42.585938 L 17.195312 42.585938 L 17.195312 49.949219 L 28.894531 49.949219 L 28.894531 51.050781 L 17.195312 51.050781 L 17.195312 60.203125 L 15.957031 60.203125 Z M 52.222656 50.808594 L 52.222656 41.414062 L 53.15625 41.433594 L 54.085938 41.449219 L 58.605469 49.992188 L 63.125 58.53125 L 65.253906 54.5 C 66.425781 52.28125 68.460938 48.4375 69.769531 45.957031 L 72.152344 41.449219 L 73.09375 41.433594 L 74.035156 41.414062 L 74.035156 60.203125 L 72.730469 60.203125 L 72.710938 51.769531 L 72.695312 43.335938 L 68.222656 51.769531 L 63.75 60.199219 L 63.125 60.199219 L 62.5 60.203125 L 57.996094 51.71875 L 53.496094 43.234375 L 53.476562 51.71875 L 53.460938 60.203125 L 52.222656 60.203125 Z M 77.890625 50.808594 L 77.890625 41.417969 L 92.683594 41.417969 L 92.683594 42.585938 L 79.128906 42.585938 L 79.128906 49.949219 L 92.132812 49.949219 L 92.132812 51.050781 L 79.128906 51.050781 L 79.128906 59.03125 L 92.820312 59.03125 L 92.820312 60.203125 L 77.890625 60.203125 Z M 98.1875 58.964844 L 98.1875 58.070312 L 97.84375 58.070312 C 97.507812 58.070312 97.5 58.066406 97.5 57.863281 L 97.5 57.65625 L 99.359375 57.65625 L 99.359375 57.863281 C 99.359375 58.066406 99.351562 58.070312 99.015625 58.070312 L 98.671875 58.070312 L 98.671875 59.859375 L 98.1875 59.859375 Z M 99.703125 58.757812 L 99.703125 57.65625 L 100.429688 57.65625 L 100.703125 58.378906 L 100.980469 59.105469 L 101.253906 58.378906 L 101.523438 57.65625 L 102.25 57.65625 L 102.25 59.859375 L 101.773438 59.859375 L 101.753906 59.117188 L 101.734375 58.378906 L 101.457031 59.117188 C 101.191406 59.832031 101.175781 59.859375 100.976562 59.859375 C 100.777344 59.859375 100.761719 59.832031 100.496094 59.117188 L 100.21875 58.378906 L 100.199219 59.117188 L 100.179688 59.859375 L 99.703125 59.859375 Z M 112.054688 58 C 111.289062 57.777344 109.597656 56.90625 108.476562 56.152344 C 106.679688 54.949219 105.027344 53.597656 103.296875 51.917969 C 101.210938 49.886719 99.808594 48.144531 99.136719 46.742188 C 98.882812 46.214844 98.847656 46.074219 98.820312 45.550781 C 98.664062 42.207031 101.675781 37.917969 106.34375 34.839844 C 109.496094 32.761719 112.492188 31.730469 114.652344 31.980469 C 117.652344 32.332031 120.050781 34.320312 121.859375 37.960938 C 123.488281 41.242188 124.277344 45.152344 123.894531 48.035156 C 123.4375 51.460938 121.574219 54.53125 118.84375 56.355469 C 117.675781 57.136719 116.792969 57.535156 115.460938 57.878906 C 114.796875 58.050781 114.5 58.085938 113.601562 58.109375 C 112.683594 58.132812 112.46875 58.117188 112.054688 58 Z M 127.742188 38.425781 C 126.921875 38.273438 126.476562 38.066406 126.078125 37.664062 C 125.582031 37.15625 125.476562 36.785156 125.476562 35.566406 C 125.476562 34.421875 125.621094 33.808594 126.15625 32.710938 C 127.066406 30.839844 128.589844 29.484375 130.253906 29.058594 C 130.585938 28.972656 130.914062 28.953125 131.566406 28.972656 C 132.382812 29 132.460938 29.011719 132.898438 29.226562 C 133.417969 29.484375 133.683594 29.785156 133.882812 30.359375 C 133.988281 30.664062 134.007812 30.949219 134.003906 32.300781 C 134.003906 33.726562 133.992188 33.9375 133.851562 34.445312 C 133.265625 36.566406 132.042969 38.019531 130.492188 38.421875 C 129.992188 38.550781 128.4375 38.554688 127.742188 38.425781 Z M 16.714844 26.65625 L 16.714844 16.230469 L 22.238281 16.230469 C 25.367188 16.230469 28.097656 16.261719 28.539062 16.300781 C 30.550781 16.480469 31.898438 17.019531 32.9375 18.070312 C 33.34375 18.480469 33.5 18.707031 33.773438 19.277344 C 34.195312 20.148438 34.335938 20.765625 34.382812 21.894531 C 34.464844 23.964844 33.9375 25.601562 32.792969 26.808594 C 31.945312 27.707031 30.941406 28.25 29.546875 28.570312 C 28.964844 28.703125 28.671875 28.710938 24.40625 28.738281 L 19.878906 28.761719 L 19.878906 37.082031 L 16.714844 37.082031 Z M 28.722656 25.839844 C 29.398438 25.644531 29.835938 25.410156 30.226562 25.039062 C 30.917969 24.386719 31.230469 23.542969 31.234375 22.316406 C 31.234375 20.695312 30.53125 19.652344 29.113281 19.175781 C 28.660156 19.023438 28.601562 19.019531 24.265625 19 L 19.878906 18.976562 L 19.878906 26.007812 L 24.09375 25.984375 C 27.867188 25.964844 28.351562 25.949219 28.722656 25.839844 Z M 35.9375 36.925781 C 35.960938 36.839844 38.066406 32.15625 40.617188 26.519531 L 45.257812 16.265625 L 47.039062 16.246094 L 48.824219 16.230469 L 48.945312 16.488281 C 49.394531 17.425781 58.207031 36.960938 58.207031 37.015625 C 58.207031 37.054688 57.53125 37.082031 56.429688 37.082031 L 54.652344 37.082031 L 53.769531 35.070312 C 53.289062 33.960938 52.691406 32.597656 52.445312 32.039062 L 52 31.023438 L 46.941406 31.042969 L 41.882812 31.058594 L 40.566406 34.070312 L 39.253906 37.082031 L 35.898438 37.082031 Z M 50.757812 28.082031 C 49.109375 24.253906 46.953125 19.328125 46.925781 19.328125 C 46.890625 19.328125 43.195312 27.992188 43.152344 28.179688 C 43.132812 28.257812 43.804688 28.273438 46.984375 28.273438 L 50.839844 28.273438 Z M 61.933594 26.742188 C 60.0625 21.054688 58.519531 16.363281 58.503906 16.316406 C 58.480469 16.25 58.847656 16.230469 60.191406 16.230469 L 61.910156 16.230469 L 62.042969 16.660156 C 63.019531 19.832031 67.191406 32.953125 67.222656 32.953125 C 67.246094 32.953125 68.5 29.191406 70.011719 24.59375 L 72.761719 16.230469 L 76.484375 16.230469 L 79.296875 24.574219 C 80.84375 29.164062 82.128906 32.941406 82.148438 32.964844 C 82.171875 32.992188 83.242188 29.664062 84.527344 25.570312 C 85.808594 21.472656 86.996094 17.699219 87.160156 17.175781 L 87.460938 16.230469 L 89.074219 16.230469 C 90.335938 16.230469 90.6875 16.25 90.6875 16.320312 C 90.6875 16.367188 89.113281 21.050781 87.1875 26.726562 L 83.6875 37.046875 L 81.972656 37.0625 L 80.261719 37.082031 L 77.417969 28.566406 C 75.851562 23.882812 74.546875 20.027344 74.523438 20 C 74.496094 19.96875 73.195312 23.800781 71.632812 28.515625 L 68.792969 37.082031 L 67.0625 37.078125 L 65.332031 37.078125 Z M 98.496094 34.894531 C 97.917969 34.691406 97.492188 34.402344 96.875 33.785156 C 96.191406 33.097656 95.699219 32.394531 95.191406 31.375 C 94.460938 29.902344 94.226562 28.910156 94.285156 27.519531 C 94.441406 23.867188 96.011719 21.933594 98.84375 21.914062 C 99.484375 21.910156 99.554688 21.921875 99.902344 22.113281 C 100.746094 22.578125 101.695312 23.835938 102.5625 25.625 C 103.460938 27.480469 104.289062 29.875 104.363281 30.835938 C 104.398438 31.261719 104.382812 31.339844 104.171875 31.765625 C 103.640625 32.851562 101.609375 34.363281 99.957031 34.910156 C 99.53125 35.050781 98.929688 35.042969 98.496094 34.894531 Z M 119.589844 29.890625 C 118.203125 29.578125 117.019531 28.5 116.421875 27.003906 C 115.695312 25.1875 115.734375 23.300781 116.550781 20.859375 C 117.421875 18.257812 118.828125 16.191406 120.457031 15.132812 C 121.238281 14.617188 121.820312 14.429688 122.730469 14.390625 C 123.609375 14.351562 123.964844 14.433594 124.648438 14.84375 C 125.835938 15.554688 127.054688 17.367188 127.765625 19.464844 C 127.980469 20.105469 128.007812 20.265625 128.003906 20.875 C 128 22.175781 127.609375 23.710938 126.917969 25.140625 C 126.34375 26.328125 125.792969 27.097656 124.855469 28.03125 C 123.914062 28.972656 123.273438 29.398438 122.296875 29.734375 C 121.777344 29.914062 121.570312 29.949219 120.863281 29.96875 C 120.308594 29.984375 119.890625 29.957031 119.589844 29.890625 Z M 108.808594 29.4375 C 106.46875 29.046875 104.742188 26.636719 104.375 23.257812 C 104.1875 21.519531 104.636719 19.015625 105.417969 17.460938 C 106.207031 15.886719 107.394531 14.820312 108.75 14.476562 C 109.351562 14.324219 110.5625 14.339844 111.222656 14.507812 C 113.152344 15.003906 114.605469 16.785156 114.910156 19.039062 C 115.003906 19.742188 114.941406 20.226562 114.5625 21.746094 C 113.96875 24.125 112.414062 28.960938 112.242188 28.960938 C 112.183594 28.960938 111.839844 29.054688 111.476562 29.164062 C 110.386719 29.5 109.640625 29.574219 108.808594 29.4375 Z M 108.808594 29.4375 " fill-opacity="1" fill-rule="nonzero"/></g></svg>