<svg xmlns="http://www.w3.org/2000/svg" xmlns:xlink="http://www.w3.org/1999/xlink" width="500" zoomAndPan="magnify" viewBox="0 0 375 374.999991" height="500" preserveAspectRatio="xMidYMid meet" version="1.0"><defs><g/><clipPath id="ea6f31e8d3"><path d="M 139 140 L 236 140 L 236 192.292969 L 139 192.292969 Z M 139 140 " clip-rule="nonzero"/></clipPath></defs><g clip-path="url(#ea6f31e8d3)"><path fill="#eceff4" d="M 235.40625 165.652344 C 235.527344 162.085938 232.554688 158.996094 228.988281 158.996094 C 228.988281 158.996094 228.871094 158.996094 228.871094 158.996094 C 225.304688 158.996094 222.332031 161.847656 222.332031 165.414062 C 222.210938 173.023438 215.792969 179.324219 208.066406 179.324219 C 201.527344 179.324219 195.941406 174.925781 194.277344 168.625 C 193.800781 166.839844 194.277344 164.9375 195.226562 163.394531 L 204.617188 148.652344 C 206.996094 144.964844 204.382812 140.210938 199.984375 140.210938 L 174.542969 140.210938 C 170.261719 140.210938 167.648438 144.964844 169.90625 148.652344 L 179.296875 163.394531 C 180.25 164.9375 180.722656 166.839844 180.25 168.625 C 178.585938 174.925781 172.996094 179.324219 166.457031 179.324219 C 158.730469 179.324219 152.429688 173.023438 152.195312 165.414062 C 152.074219 161.847656 149.222656 158.996094 145.65625 158.996094 C 145.65625 158.996094 145.535156 158.996094 145.535156 158.996094 C 141.96875 159.113281 139 162.085938 139.117188 165.652344 C 139.472656 180.390625 151.71875 192.398438 166.457031 192.398438 C 174.660156 192.398438 182.152344 188.714844 187.261719 182.769531 C 192.375 188.714844 199.863281 192.398438 208.066406 192.398438 C 222.925781 192.398438 235.171875 180.390625 235.40625 165.652344 Z M 235.40625 165.652344 " fill-opacity="1" fill-rule="nonzero"/></g><path fill="#eceff4" d="M 138.285156 93.253906 C 127.824219 103.714844 127.824219 120.835938 138.285156 131.296875 C 148.746094 141.757812 165.863281 141.757812 176.324219 131.296875 C 186.785156 120.835938 186.785156 103.714844 176.324219 93.253906 C 165.863281 82.792969 148.746094 82.792969 138.285156 93.253906 Z M 165.984375 112.273438 C 165.984375 117.03125 162.179688 120.835938 157.425781 120.835938 C 152.667969 120.835938 148.863281 117.03125 148.863281 112.273438 C 148.863281 107.519531 152.667969 103.714844 157.425781 103.714844 C 162.058594 103.597656 165.984375 107.519531 165.984375 112.273438 Z M 165.984375 112.273438 " fill-opacity="1" fill-rule="nonzero"/><path fill="#eceff4" d="M 225.777344 112.273438 C 225.777344 112.835938 225.722656 113.394531 225.613281 113.945312 C 225.503906 114.496094 225.34375 115.03125 225.128906 115.550781 C 224.914062 116.070312 224.648438 116.5625 224.335938 117.03125 C 224.023438 117.496094 223.667969 117.929688 223.273438 118.328125 C 222.875 118.726562 222.441406 119.078125 221.976562 119.390625 C 221.507812 119.703125 221.015625 119.96875 220.496094 120.183594 C 219.976562 120.398438 219.441406 120.558594 218.890625 120.671875 C 218.339844 120.78125 217.78125 120.835938 217.21875 120.835938 C 216.65625 120.835938 216.101562 120.78125 215.550781 120.671875 C 215 120.558594 214.464844 120.398438 213.945312 120.183594 C 213.425781 119.96875 212.933594 119.703125 212.464844 119.390625 C 211.996094 119.078125 211.566406 118.726562 211.167969 118.328125 C 210.769531 117.929688 210.414062 117.496094 210.101562 117.03125 C 209.789062 116.5625 209.527344 116.070312 209.3125 115.550781 C 209.097656 115.03125 208.933594 114.496094 208.824219 113.945312 C 208.714844 113.394531 208.660156 112.835938 208.660156 112.273438 C 208.660156 111.714844 208.714844 111.15625 208.824219 110.605469 C 208.933594 110.054688 209.097656 109.519531 209.3125 109 C 209.527344 108.480469 209.789062 107.988281 210.101562 107.519531 C 210.414062 107.054688 210.769531 106.621094 211.167969 106.222656 C 211.566406 105.824219 211.996094 105.472656 212.464844 105.160156 C 212.933594 104.847656 213.425781 104.582031 213.945312 104.367188 C 214.464844 104.152344 215 103.988281 215.550781 103.878906 C 216.101562 103.769531 216.65625 103.714844 217.21875 103.714844 C 217.78125 103.714844 218.339844 103.769531 218.890625 103.878906 C 219.441406 103.988281 219.976562 104.152344 220.496094 104.367188 C 221.015625 104.582031 221.507812 104.847656 221.976562 105.160156 C 222.441406 105.472656 222.875 105.824219 223.273438 106.222656 C 223.667969 106.621094 224.023438 107.054688 224.335938 107.519531 C 224.648438 107.988281 224.914062 108.480469 225.128906 109 C 225.34375 109.519531 225.503906 110.054688 225.613281 110.605469 C 225.722656 111.15625 225.777344 111.714844 225.777344 112.273438 Z M 225.777344 112.273438 " fill-opacity="1" fill-rule="nonzero"/><g fill="#eceff4" fill-opacity="1"><g transform="translate(95.120881, 244.67373)"><g><path d="M 2.25 -31 L 11.875 -31 C 14.78125 -31 17.097656 -30.378906 18.828125 -29.140625 C 20.554688 -27.898438 21.421875 -25.890625 21.421875 -23.109375 C 21.421875 -20.003906 20.128906 -17.785156 17.546875 -16.453125 C 21.953125 -15.679688 24.15625 -13.078125 24.15625 -8.640625 C 24.15625 -6.035156 23.253906 -3.941406 21.453125 -2.359375 C 19.648438 -0.785156 17.171875 0 14.015625 0 L 2.25 0 Z M 9.3125 -18.859375 L 9.890625 -18.859375 C 11.460938 -18.859375 12.632812 -19.132812 13.40625 -19.6875 C 14.1875 -20.238281 14.578125 -21.140625 14.578125 -22.390625 C 14.578125 -24.492188 13.015625 -25.546875 9.890625 -25.546875 L 9.3125 -25.546875 Z M 9.3125 -5.453125 L 11.53125 -5.453125 C 14.988281 -5.453125 16.71875 -6.601562 16.71875 -8.90625 C 16.71875 -10.28125 16.285156 -11.269531 15.421875 -11.875 C 14.554688 -12.476562 13.257812 -12.78125 11.53125 -12.78125 L 9.3125 -12.78125 Z M 9.3125 -5.453125 "/></g></g></g><g fill="#eceff4" fill-opacity="1"><g transform="translate(120.150516, 244.67373)"><g><path d="M 18 -31 L 30.515625 0 L 22.921875 0 L 20.625 -6.203125 L 8.828125 -6.203125 L 6.53125 0 L -1.046875 0 L 11.46875 -31 Z M 18.21875 -12.40625 L 14.765625 -21.421875 L 14.6875 -21.421875 L 11.234375 -12.40625 Z M 18.21875 -12.40625 "/></g></g></g><g fill="#eceff4" fill-opacity="1"><g transform="translate(149.614839, 244.67373)"><g><path d="M 2.25 -31 L 13.34375 -31 C 16.320312 -31 18.75 -30.203125 20.625 -28.609375 C 22.507812 -27.023438 23.453125 -24.753906 23.453125 -21.796875 C 23.453125 -19.515625 22.878906 -17.601562 21.734375 -16.0625 C 20.597656 -14.519531 19.050781 -13.4375 17.09375 -12.8125 L 27.765625 0 L 18.78125 0 L 9.3125 -12.25 L 9.3125 0 L 2.25 0 Z M 9.3125 -17.25 L 10.140625 -17.25 C 10.796875 -17.25 11.347656 -17.257812 11.796875 -17.28125 C 12.242188 -17.3125 12.753906 -17.398438 13.328125 -17.546875 C 13.910156 -17.703125 14.375 -17.914062 14.71875 -18.1875 C 15.070312 -18.457031 15.375 -18.851562 15.625 -19.375 C 15.882812 -19.90625 16.015625 -20.546875 16.015625 -21.296875 C 16.015625 -22.054688 15.882812 -22.695312 15.625 -23.21875 C 15.375 -23.75 15.070312 -24.148438 14.71875 -24.421875 C 14.375 -24.703125 13.910156 -24.914062 13.328125 -25.0625 C 12.753906 -25.21875 12.242188 -25.304688 11.796875 -25.328125 C 11.347656 -25.347656 10.796875 -25.359375 10.140625 -25.359375 L 9.3125 -25.359375 Z M 9.3125 -17.25 "/></g></g></g><g fill="#eceff4" fill-opacity="1"><g transform="translate(176.523582, 244.67373)"><g><path d="M 30.46875 0 L 20.75 0 L 9.3125 -13.15625 L 9.3125 0 L 2.25 0 L 2.25 -31 L 9.3125 -31 L 9.3125 -18.34375 L 19.953125 -31 L 28.515625 -31 L 16.046875 -16.3125 Z M 30.46875 0 "/></g></g></g><g fill="#eceff4" fill-opacity="1"><g transform="translate(206.10064, 244.67373)"><g><path d="M 9.3125 -31 L 9.3125 0 L 2.25 0 L 2.25 -31 Z M 9.3125 -31 "/></g></g></g><g fill="#eceff4" fill-opacity="1"><g transform="translate(217.675904, 244.67373)"><g><path d="M 9.3125 -19.234375 L 9.3125 0 L 2.25 0 L 2.25 -31 L 9.3125 -31 L 21.640625 -11.765625 L 21.71875 -11.765625 L 21.71875 -31 L 28.78125 -31 L 28.78125 0 L 21.71875 0 L 9.390625 -19.234375 Z M 9.3125 -19.234375 "/></g></g></g><g fill="#eceff4" fill-opacity="1"><g transform="translate(248.718664, 244.67373)"><g><path d="M 30.28125 -17.359375 L 30.28125 -10.640625 C 29.476562 -6.953125 27.722656 -4.160156 25.015625 -2.265625 C 22.316406 -0.378906 19.300781 0.5625 15.96875 0.5625 C 11.78125 0.5625 8.210938 -1 5.265625 -4.125 C 2.328125 -7.257812 0.859375 -11.046875 0.859375 -15.484375 C 0.859375 -19.992188 2.296875 -23.800781 5.171875 -26.90625 C 8.054688 -30.007812 11.65625 -31.5625 15.96875 -31.5625 C 21.007812 -31.5625 24.992188 -29.796875 27.921875 -26.265625 L 23.296875 -21.1875 C 21.640625 -23.84375 19.335938 -25.171875 16.390625 -25.171875 C 14.203125 -25.171875 12.335938 -24.222656 10.796875 -22.328125 C 9.265625 -20.441406 8.5 -18.160156 8.5 -15.484375 C 8.5 -12.847656 9.265625 -10.597656 10.796875 -8.734375 C 12.335938 -6.867188 14.203125 -5.9375 16.390625 -5.9375 C 18.191406 -5.9375 19.757812 -6.476562 21.09375 -7.5625 C 22.4375 -8.65625 23.109375 -10.101562 23.109375 -11.90625 L 15.96875 -11.90625 L 15.96875 -17.359375 Z M 30.28125 -17.359375 "/></g></g></g><g fill="#eceff4" fill-opacity="1"><g transform="translate(160.817231, 292.905068)"><g><path d="M 0.890625 0 L 0.890625 -6.15625 L 3.03125 -6.15625 C 3.65625 -6.15625 4.203125 -6.023438 4.671875 -5.765625 C 5.148438 -5.503906 5.519531 -5.144531 5.78125 -4.6875 C 6.050781 -4.226562 6.1875 -3.691406 6.1875 -3.078125 C 6.1875 -2.472656 6.050781 -1.9375 5.78125 -1.46875 C 5.519531 -1.007812 5.148438 -0.648438 4.671875 -0.390625 C 4.203125 -0.128906 3.65625 0 3.03125 0 Z M 1.671875 -0.734375 L 3.03125 -0.734375 C 3.5 -0.734375 3.910156 -0.832031 4.265625 -1.03125 C 4.617188 -1.226562 4.894531 -1.503906 5.09375 -1.859375 C 5.289062 -2.210938 5.390625 -2.617188 5.390625 -3.078125 C 5.390625 -3.546875 5.285156 -3.953125 5.078125 -4.296875 C 4.878906 -4.648438 4.601562 -4.925781 4.25 -5.125 C 3.894531 -5.320312 3.472656 -5.421875 2.984375 -5.421875 L 1.671875 -5.421875 Z M 1.671875 -0.734375 "/></g></g></g><g fill="#eceff4" fill-opacity="1"><g transform="translate(167.51682, 292.905068)"><g><path d="M 3.6875 0.109375 C 3.070312 0.109375 2.519531 -0.0234375 2.03125 -0.296875 C 1.550781 -0.566406 1.175781 -0.941406 0.90625 -1.421875 C 0.644531 -1.898438 0.515625 -2.453125 0.515625 -3.078125 C 0.515625 -3.703125 0.644531 -4.253906 0.90625 -4.734375 C 1.175781 -5.210938 1.550781 -5.585938 2.03125 -5.859375 C 2.519531 -6.128906 3.070312 -6.265625 3.6875 -6.265625 C 4.320312 -6.265625 4.875 -6.128906 5.34375 -5.859375 C 5.820312 -5.585938 6.195312 -5.210938 6.46875 -4.734375 C 6.75 -4.253906 6.890625 -3.703125 6.890625 -3.078125 C 6.890625 -2.453125 6.75 -1.898438 6.46875 -1.421875 C 6.195312 -0.941406 5.820312 -0.566406 5.34375 -0.296875 C 4.875 -0.0234375 4.320312 0.109375 3.6875 0.109375 Z M 1.296875 -3.078125 C 1.296875 -2.597656 1.394531 -2.175781 1.59375 -1.8125 C 1.800781 -1.457031 2.082031 -1.175781 2.4375 -0.96875 C 2.800781 -0.757812 3.21875 -0.65625 3.6875 -0.65625 C 4.164062 -0.65625 4.582031 -0.757812 4.9375 -0.96875 C 5.300781 -1.175781 5.582031 -1.457031 5.78125 -1.8125 C 5.988281 -2.175781 6.09375 -2.597656 6.09375 -3.078125 C 6.09375 -3.554688 5.988281 -3.972656 5.78125 -4.328125 C 5.582031 -4.691406 5.300781 -4.976562 4.9375 -5.1875 C 4.582031 -5.394531 4.164062 -5.5 3.6875 -5.5 C 3.21875 -5.5 2.800781 -5.394531 2.4375 -5.1875 C 2.082031 -4.976562 1.800781 -4.691406 1.59375 -4.328125 C 1.394531 -3.972656 1.296875 -3.554688 1.296875 -3.078125 Z M 1.296875 -3.078125 "/></g></g></g><g fill="#eceff4" fill-opacity="1"><g transform="translate(174.911904, 292.905068)"><g><path d="M 3.640625 0.109375 C 3.191406 0.109375 2.773438 0.03125 2.390625 -0.125 C 2.015625 -0.28125 1.679688 -0.5 1.390625 -0.78125 C 1.109375 -1.070312 0.890625 -1.410156 0.734375 -1.796875 C 0.585938 -2.191406 0.515625 -2.617188 0.515625 -3.078125 C 0.515625 -3.546875 0.585938 -3.972656 0.734375 -4.359375 C 0.890625 -4.742188 1.109375 -5.078125 1.390625 -5.359375 C 1.671875 -5.648438 2 -5.875 2.375 -6.03125 C 2.757812 -6.1875 3.175781 -6.265625 3.625 -6.265625 C 4.09375 -6.265625 4.523438 -6.179688 4.921875 -6.015625 C 5.328125 -5.847656 5.671875 -5.609375 5.953125 -5.296875 C 6.242188 -4.992188 6.457031 -4.640625 6.59375 -4.234375 L 5.75 -4.234375 C 5.550781 -4.640625 5.269531 -4.953125 4.90625 -5.171875 C 4.539062 -5.390625 4.125 -5.5 3.65625 -5.5 C 3.195312 -5.5 2.789062 -5.394531 2.4375 -5.1875 C 2.082031 -4.976562 1.800781 -4.691406 1.59375 -4.328125 C 1.394531 -3.972656 1.296875 -3.554688 1.296875 -3.078125 C 1.296875 -2.597656 1.394531 -2.175781 1.59375 -1.8125 C 1.800781 -1.457031 2.082031 -1.175781 2.4375 -0.96875 C 2.789062 -0.757812 3.195312 -0.65625 3.65625 -0.65625 C 4.070312 -0.65625 4.441406 -0.738281 4.765625 -0.90625 C 5.085938 -1.070312 5.347656 -1.296875 5.546875 -1.578125 C 5.753906 -1.867188 5.882812 -2.210938 5.9375 -2.609375 L 3.4375 -2.609375 L 3.4375 -3.34375 L 6.78125 -3.34375 C 6.789062 -2.664062 6.664062 -2.066406 6.40625 -1.546875 C 6.144531 -1.035156 5.773438 -0.628906 5.296875 -0.328125 C 4.828125 -0.0351562 4.273438 0.109375 3.640625 0.109375 Z M 3.640625 0.109375 "/></g></g></g><g fill="#eceff4" fill-opacity="1"><g transform="translate(182.174927, 292.905068)"><g/></g></g><g fill="#eceff4" fill-opacity="1"><g transform="translate(184.358242, 292.905068)"><g><path d="M 4.9375 0 L 4.9375 -2.765625 L 1.671875 -2.765625 L 1.671875 0 L 0.890625 0 L 0.890625 -6.15625 L 1.671875 -6.15625 L 1.671875 -3.515625 L 4.9375 -3.515625 L 4.9375 -6.15625 L 5.703125 -6.15625 L 5.703125 0 Z M 4.9375 0 "/></g></g></g><g fill="#eceff4" fill-opacity="1"><g transform="translate(190.969798, 292.905068)"><g><path d="M 3.6875 0.109375 C 3.070312 0.109375 2.519531 -0.0234375 2.03125 -0.296875 C 1.550781 -0.566406 1.175781 -0.941406 0.90625 -1.421875 C 0.644531 -1.898438 0.515625 -2.453125 0.515625 -3.078125 C 0.515625 -3.703125 0.644531 -4.253906 0.90625 -4.734375 C 1.175781 -5.210938 1.550781 -5.585938 2.03125 -5.859375 C 2.519531 -6.128906 3.070312 -6.265625 3.6875 -6.265625 C 4.320312 -6.265625 4.875 -6.128906 5.34375 -5.859375 C 5.820312 -5.585938 6.195312 -5.210938 6.46875 -4.734375 C 6.75 -4.253906 6.890625 -3.703125 6.890625 -3.078125 C 6.890625 -2.453125 6.75 -1.898438 6.46875 -1.421875 C 6.195312 -0.941406 5.820312 -0.566406 5.34375 -0.296875 C 4.875 -0.0234375 4.320312 0.109375 3.6875 0.109375 Z M 1.296875 -3.078125 C 1.296875 -2.597656 1.394531 -2.175781 1.59375 -1.8125 C 1.800781 -1.457031 2.082031 -1.175781 2.4375 -0.96875 C 2.800781 -0.757812 3.21875 -0.65625 3.6875 -0.65625 C 4.164062 -0.65625 4.582031 -0.757812 4.9375 -0.96875 C 5.300781 -1.175781 5.582031 -1.457031 5.78125 -1.8125 C 5.988281 -2.175781 6.09375 -2.597656 6.09375 -3.078125 C 6.09375 -3.554688 5.988281 -3.972656 5.78125 -4.328125 C 5.582031 -4.691406 5.300781 -4.976562 4.9375 -5.1875 C 4.582031 -5.394531 4.164062 -5.5 3.6875 -5.5 C 3.21875 -5.5 2.800781 -5.394531 2.4375 -5.1875 C 2.082031 -4.976562 1.800781 -4.691406 1.59375 -4.328125 C 1.394531 -3.972656 1.296875 -3.554688 1.296875 -3.078125 Z M 1.296875 -3.078125 "/></g></g></g><g fill="#eceff4" fill-opacity="1"><g transform="translate(198.364881, 292.905068)"><g><path d="M 2.390625 0 L 2.390625 -5.421875 L 0.296875 -5.421875 L 0.296875 -6.15625 L 5.234375 -6.15625 L 5.234375 -5.421875 L 3.15625 -5.421875 L 3.15625 0 Z M 2.390625 0 "/></g></g></g><g fill="#eceff4" fill-opacity="1"><g transform="translate(203.911194, 292.905068)"><g><path d="M 0.890625 0 L 0.890625 -6.15625 L 4.640625 -6.15625 L 4.640625 -5.4375 L 1.671875 -5.4375 L 1.671875 -3.5 L 4.421875 -3.5 L 4.421875 -2.78125 L 1.671875 -2.78125 L 1.671875 -0.71875 L 4.734375 -0.71875 L 4.734375 0 Z M 0.890625 0 "/></g></g></g><g fill="#eceff4" fill-opacity="1"><g transform="translate(209.219805, 292.905068)"><g><path d="M 0.890625 0 L 0.890625 -6.15625 L 1.671875 -6.15625 L 1.671875 -0.734375 L 4.65625 -0.734375 L 4.65625 0 Z M 0.890625 0 "/></g></g></g><g fill="#eceff4" fill-opacity="1"><g transform="translate(149.202908, 278.306876)"><g><path d="M 9.3125 -31 L 9.3125 -6.203125 L 19.984375 -6.203125 L 19.984375 0 L 2.25 0 L 2.25 -31 Z M 9.3125 -31 "/></g></g></g><g fill="#eceff4" fill-opacity="1"><g transform="translate(170.436755, 278.306876)"><g><path d="M 0.859375 -15.515625 C 0.859375 -20.003906 2.382812 -23.800781 5.4375 -26.90625 C 8.5 -30.007812 12.1875 -31.5625 16.5 -31.5625 C 20.832031 -31.5625 24.515625 -30.015625 27.546875 -26.921875 C 30.578125 -23.828125 32.09375 -20.023438 32.09375 -15.515625 C 32.09375 -10.984375 30.597656 -7.171875 27.609375 -4.078125 C 24.628906 -0.984375 20.925781 0.5625 16.5 0.5625 C 11.957031 0.5625 8.210938 -0.96875 5.265625 -4.03125 C 2.328125 -7.101562 0.859375 -10.929688 0.859375 -15.515625 Z M 8.5 -15.515625 C 8.5 -13.890625 8.75 -12.40625 9.25 -11.0625 C 9.75 -9.726562 10.625 -8.597656 11.875 -7.671875 C 13.125 -6.742188 14.664062 -6.28125 16.5 -6.28125 C 19.125 -6.28125 21.109375 -7.179688 22.453125 -8.984375 C 23.796875 -10.785156 24.46875 -12.960938 24.46875 -15.515625 C 24.46875 -18.046875 23.785156 -20.21875 22.421875 -22.03125 C 21.054688 -23.851562 19.082031 -24.765625 16.5 -24.765625 C 13.9375 -24.765625 11.960938 -23.851562 10.578125 -22.03125 C 9.191406 -20.21875 8.5 -18.046875 8.5 -15.515625 Z M 8.5 -15.515625 "/></g></g></g><g fill="#eceff4" fill-opacity="1"><g transform="translate(203.396207, 278.306876)"><g><path d="M 0.296875 -24.796875 L 0.296875 -31 L 22.09375 -31 L 22.09375 -24.796875 L 14.734375 -24.796875 L 14.734375 0 L 7.671875 0 L 7.671875 -24.796875 Z M 0.296875 -24.796875 "/></g></g></g><g fill="#eceff4" fill-opacity="1"><g transform="translate(172.956813, 211.294424)"><g><path d="M 0.125 -9.90625 L 0.125 -12.375 L 8.8125 -12.375 L 8.8125 -9.90625 L 5.875 -9.90625 L 5.875 0 L 3.0625 0 L 3.0625 -9.90625 Z M 0.125 -9.90625 "/></g></g></g><g fill="#eceff4" fill-opacity="1"><g transform="translate(181.896799, 211.294424)"><g><path d="M 3.71875 -4.96875 L 3.71875 0 L 0.90625 0 L 0.90625 -12.375 L 3.71875 -12.375 L 3.71875 -7.4375 L 7.703125 -7.4375 L 7.703125 -12.375 L 10.53125 -12.375 L 10.53125 0 L 7.703125 0 L 7.703125 -4.96875 Z M 3.71875 -4.96875 "/></g></g></g><g fill="#eceff4" fill-opacity="1"><g transform="translate(193.326791, 211.294424)"><g><path d="M 7.984375 -12.375 L 7.984375 -9.90625 L 3.71875 -9.90625 L 3.71875 -7.4375 L 7.796875 -7.4375 L 7.796875 -4.96875 L 3.71875 -4.96875 L 3.71875 -2.46875 L 7.984375 -2.46875 L 7.984375 0 L 0.90625 0 L 0.90625 -12.375 Z M 7.984375 -12.375 "/></g></g></g></svg>