<svg xmlns="http://www.w3.org/2000/svg" xmlns:xlink="http://www.w3.org/1999/xlink" width="40" zoomAndPan="magnify" viewBox="0 0 30 44.999999" height="60" preserveAspectRatio="xMidYMid meet" version="1.0"><defs><clipPath id="4676fbe979"><path d="M 8 23 L 30 23 L 30 38.3125 L 8 38.3125 Z M 8 23 " clip-rule="nonzero"/></clipPath></defs><g clip-path="url(#4676fbe979)"><path fill="#1D3557" d="M 28.804688 28.074219 C 27.789062 24.222656 24.511719 22.652344 21.875 25.003906 C 20.046875 23.53125 17.117188 23.53125 15.289062 25.003906 C 12.644531 22.648438 9.371094 24.230469 8.359375 28.074219 C 8.035156 29.175781 7.910156 30.902344 9.246094 31.4375 C 11.3125 32.265625 12.257812 30 12.257812 30 C 12.023438 33.03125 13.640625 33.980469 13.640625 34.925781 L 13.640625 36.027344 C 13.640625 37.40625 15.289062 38.230469 16.386719 38.230469 C 17.484375 38.230469 18.171875 37.679688 18.582031 37.128906 C 18.992188 37.679688 19.679688 38.230469 20.777344 38.230469 C 21.875 38.230469 23.523438 37.40625 23.523438 36.027344 L 23.523438 34.925781 C 23.523438 33.980469 25.136719 33.03125 24.90625 30 C 25.910156 32.554688 30.015625 32.179688 28.804688 28.074219 Z M 15.835938 31.617188 C 15.230469 31.617188 14.738281 31.125 14.738281 30.515625 C 14.738281 29.90625 15.230469 29.414062 15.835938 29.414062 C 16.445312 29.414062 16.933594 29.90625 16.933594 30.515625 C 16.933594 31.125 16.445312 31.617188 15.835938 31.617188 Z M 20.070312 33.640625 L 18.960938 34.753906 C 18.753906 34.964844 18.410156 34.964844 18.203125 34.753906 L 17.09375 33.640625 C 16.753906 33.300781 16.996094 32.71875 17.472656 32.71875 L 19.6875 32.71875 C 20.167969 32.71875 20.410156 33.300781 20.070312 33.640625 Z M 21.328125 31.617188 C 20.71875 31.617188 20.230469 31.125 20.230469 30.515625 C 20.230469 29.90625 20.71875 29.414062 21.328125 29.414062 C 21.933594 29.414062 22.425781 29.90625 22.425781 30.515625 C 22.425781 31.125 21.933594 31.617188 21.328125 31.617188 Z M 21.328125 31.617188 " fill-opacity="1" fill-rule="nonzero"/></g><path fill="#1D3557" d="M 8.738281 16.496094 C 8.527344 16.496094 8.316406 16.417969 8.15625 16.253906 L 7.382812 15.476562 C 7.058594 15.152344 7.058594 14.628906 7.382812 14.308594 C 7.703125 13.984375 8.222656 13.984375 8.546875 14.308594 L 9.320312 15.085938 C 9.644531 15.410156 9.644531 15.933594 9.320312 16.253906 C 9.160156 16.417969 8.949219 16.496094 8.738281 16.496094 Z M 8.738281 16.496094 " fill-opacity="1" fill-rule="nonzero"/><path fill="#1D3557" d="M 5.402344 19.796875 C 5.113281 19.796875 4.835938 19.644531 4.683594 19.378906 L 4.140625 18.417969 C 3.917969 18.023438 4.054688 17.515625 4.449219 17.289062 C 4.847656 17.066406 5.347656 17.207031 5.574219 17.601562 L 6.117188 18.558594 C 6.339844 18.957031 6.203125 19.460938 5.808594 19.6875 C 5.679688 19.761719 5.539062 19.796875 5.402344 19.796875 Z M 5.402344 19.796875 " fill-opacity="1" fill-rule="nonzero"/><path fill="#1D3557" d="M 11.84375 19.617188 C 11.632812 19.617188 11.425781 19.535156 11.261719 19.375 L 10.488281 18.59375 C 10.164062 18.273438 10.164062 17.75 10.488281 17.425781 C 10.808594 17.101562 11.328125 17.101562 11.652344 17.425781 L 12.425781 18.207031 C 12.75 18.527344 12.75 19.050781 12.425781 19.375 C 12.265625 19.535156 12.058594 19.617188 11.84375 19.617188 Z M 11.84375 19.617188 " fill-opacity="1" fill-rule="nonzero"/><path fill="#1D3557" d="M 7.574219 23.628906 C 7.285156 23.628906 7.007812 23.476562 6.855469 23.210938 L 6.3125 22.25 C 6.089844 21.855469 6.226562 21.347656 6.621094 21.121094 C 7.019531 20.894531 7.519531 21.039062 7.746094 21.433594 L 8.289062 22.390625 C 8.511719 22.789062 8.375 23.292969 7.980469 23.519531 C 7.851562 23.59375 7.710938 23.628906 7.574219 23.628906 Z M 7.574219 23.628906 " fill-opacity="1" fill-rule="nonzero"/><path fill="#1D3557" d="M 12.023438 13.144531 C 11.886719 13.144531 11.746094 13.109375 11.617188 13.039062 L 10.660156 12.492188 C 10.265625 12.265625 10.128906 11.761719 10.351562 11.363281 C 10.578125 10.96875 11.078125 10.828125 11.476562 11.054688 L 12.429688 11.597656 C 12.824219 11.824219 12.964844 12.332031 12.738281 12.726562 C 12.585938 12.996094 12.308594 13.144531 12.023438 13.144531 Z M 12.023438 13.144531 " fill-opacity="1" fill-rule="nonzero"/><path fill="#1D3557" d="M 15.839844 15.328125 C 15.699219 15.328125 15.558594 15.292969 15.433594 15.21875 L 14.476562 14.675781 C 14.082031 14.449219 13.945312 13.941406 14.167969 13.546875 C 14.394531 13.152344 14.898438 13.007812 15.292969 13.234375 L 16.246094 13.78125 C 16.640625 14.007812 16.78125 14.511719 16.554688 14.910156 C 16.402344 15.175781 16.125 15.328125 15.839844 15.328125 Z M 15.839844 15.328125 " fill-opacity="1" fill-rule="nonzero"/><path fill="#1D3557" d="M 9.015625 9.328125 C 9.144531 9.457031 9.144531 9.667969 9.015625 9.796875 L 2.890625 15.949219 C 2.761719 16.078125 2.550781 16.078125 2.421875 15.949219 L 1.832031 15.355469 C 0.0117188 13.527344 0.0117188 10.5625 1.832031 8.734375 C 3.652344 6.90625 6.605469 6.90625 8.425781 8.734375 Z M 9.015625 9.328125 " fill-opacity="1" fill-rule="nonzero"/></svg>