<svg xmlns="http://www.w3.org/2000/svg" xmlns:xlink="http://www.w3.org/1999/xlink" width="40" zoomAndPan="magnify" viewBox="0 0 30 44.999999" height="60" preserveAspectRatio="xMidYMid meet" version="1.0"><defs><clipPath id="ef6b157631"><path d="M 0 3.113281 L 30 3.113281 L 30 42.113281 L 0 42.113281 Z M 0 3.113281 " clip-rule="nonzero"/></clipPath></defs><g clip-path="url(#ef6b157631)"><path fill="#1D3557" d="M 26.929688 3.15625 L 3.070312 3.15625 C 2.660156 3.15625 2.269531 3.238281 1.890625 3.394531 C 1.515625 3.550781 1.183594 3.773438 0.894531 4.066406 C 0.605469 4.355469 0.382812 4.6875 0.226562 5.066406 C 0.0703125 5.449219 -0.0078125 5.84375 -0.0078125 6.253906 L -0.0078125 17.585938 C -0.0078125 17.996094 0.0703125 18.390625 0.226562 18.769531 C 0.382812 19.148438 0.605469 19.480469 0.894531 19.773438 C 1.183594 20.0625 1.515625 20.285156 1.890625 20.445312 C 2.269531 20.601562 2.660156 20.679688 3.070312 20.679688 L 8.628906 20.679688 C 8.746094 21.519531 9.019531 22.304688 9.445312 23.039062 C 9.871094 23.769531 10.417969 24.394531 11.085938 24.910156 L 10.332031 36.792969 C 10.285156 37.5 10.375 38.1875 10.609375 38.859375 C 10.84375 39.527344 11.199219 40.125 11.675781 40.644531 C 11.886719 40.875 12.121094 41.082031 12.375 41.265625 C 12.628906 41.445312 12.898438 41.601562 13.1875 41.726562 C 13.472656 41.851562 13.769531 41.945312 14.074219 42.011719 C 14.378906 42.074219 14.6875 42.105469 15 42.105469 C 15.3125 42.105469 15.621094 42.074219 15.925781 42.011719 C 16.230469 41.945312 16.527344 41.851562 16.8125 41.726562 C 17.101562 41.601562 17.371094 41.445312 17.625 41.265625 C 17.878906 41.082031 18.113281 40.875 18.324219 40.644531 C 18.800781 40.125 19.15625 39.527344 19.390625 38.859375 C 19.625 38.1875 19.714844 37.5 19.667969 36.792969 L 18.914062 24.910156 C 19.582031 24.394531 20.128906 23.769531 20.554688 23.039062 C 20.980469 22.304688 21.253906 21.519531 21.371094 20.679688 L 26.929688 20.679688 C 27.339844 20.679688 27.730469 20.601562 28.109375 20.445312 C 28.484375 20.285156 28.816406 20.0625 29.105469 19.773438 C 29.394531 19.480469 29.617188 19.148438 29.773438 18.769531 C 29.929688 18.390625 30.007812 17.996094 30.007812 17.585938 L 30.007812 6.253906 C 30.007812 5.84375 29.929688 5.449219 29.773438 5.066406 C 29.617188 4.6875 29.394531 4.355469 29.105469 4.066406 C 28.816406 3.773438 28.484375 3.550781 28.109375 3.394531 C 27.730469 3.238281 27.339844 3.15625 26.929688 3.15625 Z M 17.183594 25.875 L 17.871094 36.917969 C 17.941406 37.875 17.652344 38.703125 17.007812 39.410156 C 16.753906 39.695312 16.449219 39.914062 16.101562 40.066406 C 15.753906 40.21875 15.386719 40.296875 15.007812 40.296875 C 14.625 40.296875 14.261719 40.21875 13.914062 40.066406 C 13.566406 39.914062 13.261719 39.695312 13.003906 39.410156 C 12.355469 38.707031 12.0625 37.875 12.128906 36.917969 L 12.816406 25.875 L 12.921875 25.90625 C 13.027344 25.945312 13.132812 25.976562 13.238281 26.003906 L 13.476562 26.066406 C 13.59375 26.097656 13.710938 26.121094 13.84375 26.144531 L 14.035156 26.175781 C 14.167969 26.195312 14.304688 26.214844 14.441406 26.230469 L 14.476562 26.230469 C 14.652344 26.230469 14.839844 26.253906 15 26.253906 C 15.160156 26.253906 15.363281 26.253906 15.523438 26.230469 L 15.558594 26.230469 C 15.695312 26.230469 15.832031 26.195312 15.964844 26.175781 L 16.15625 26.144531 C 16.277344 26.121094 16.394531 26.097656 16.523438 26.066406 L 16.761719 26.003906 C 16.867188 25.976562 16.972656 25.945312 17.078125 25.90625 Z M 17.492188 23.710938 C 17.175781 23.914062 16.835938 24.078125 16.480469 24.195312 C 16.121094 24.316406 15.757812 24.390625 15.378906 24.421875 C 15.003906 24.453125 14.632812 24.4375 14.257812 24.375 C 13.886719 24.3125 13.527344 24.207031 13.183594 24.058594 C 12.835938 23.910156 12.511719 23.71875 12.210938 23.492188 C 11.910156 23.261719 11.640625 23.003906 11.40625 22.707031 C 11.167969 22.414062 10.96875 22.09375 10.808594 21.75 C 10.648438 21.410156 10.53125 21.050781 10.457031 20.679688 L 19.558594 20.679688 C 19.433594 21.308594 19.191406 21.890625 18.832031 22.421875 C 18.472656 22.949219 18.023438 23.386719 17.484375 23.730469 Z M 28.214844 17.585938 C 28.214844 17.753906 28.183594 17.917969 28.117188 18.074219 C 28.054688 18.234375 27.960938 18.371094 27.84375 18.492188 C 27.722656 18.613281 27.585938 18.703125 27.429688 18.769531 C 27.273438 18.835938 27.109375 18.867188 26.941406 18.867188 L 3.070312 18.867188 C 2.898438 18.867188 2.738281 18.835938 2.582031 18.769531 C 2.425781 18.703125 2.289062 18.613281 2.167969 18.492188 C 2.046875 18.371094 1.957031 18.234375 1.890625 18.074219 C 1.828125 17.917969 1.792969 17.753906 1.792969 17.585938 L 1.792969 6.253906 C 1.792969 6.082031 1.828125 5.917969 1.890625 5.761719 C 1.957031 5.605469 2.046875 5.464844 2.167969 5.34375 C 2.289062 5.222656 2.425781 5.132812 2.582031 5.066406 C 2.738281 5 2.898438 4.96875 3.070312 4.964844 L 26.929688 4.964844 C 27.101562 4.96875 27.261719 5 27.417969 5.066406 C 27.574219 5.132812 27.710938 5.222656 27.832031 5.34375 C 27.953125 5.464844 28.042969 5.605469 28.109375 5.761719 C 28.171875 5.917969 28.207031 6.082031 28.207031 6.253906 Z M 28.214844 17.585938 " fill-opacity="1" fill-rule="nonzero"/></g><path fill="#1D3557" d="M 5.703125 7.335938 C 5.679688 7.28125 5.652344 7.230469 5.617188 7.183594 C 5.585938 7.132812 5.546875 7.085938 5.503906 7.042969 C 5.328125 6.875 5.113281 6.789062 4.871094 6.789062 C 4.625 6.789062 4.414062 6.875 4.234375 7.042969 C 4.191406 7.085938 4.152344 7.132812 4.121094 7.183594 C 4.089844 7.230469 4.0625 7.28125 4.039062 7.335938 C 4.015625 7.390625 4 7.449219 3.988281 7.507812 C 3.960938 7.628906 3.960938 7.753906 3.988281 7.875 C 3.996094 7.933594 4.015625 7.992188 4.039062 8.046875 C 4.0625 8.101562 4.085938 8.152344 4.117188 8.199219 C 4.152344 8.25 4.191406 8.296875 4.234375 8.339844 C 4.316406 8.425781 4.414062 8.492188 4.523438 8.539062 C 4.636719 8.585938 4.761719 8.609375 4.886719 8.605469 C 4.945312 8.605469 5.003906 8.597656 5.0625 8.589844 C 5.121094 8.578125 5.175781 8.558594 5.230469 8.539062 C 5.285156 8.515625 5.335938 8.484375 5.382812 8.453125 C 5.433594 8.421875 5.480469 8.382812 5.519531 8.339844 C 5.5625 8.296875 5.601562 8.25 5.632812 8.199219 C 5.667969 8.152344 5.695312 8.101562 5.714844 8.046875 C 5.742188 7.992188 5.761719 7.933594 5.765625 7.875 C 5.792969 7.753906 5.792969 7.628906 5.765625 7.507812 C 5.753906 7.449219 5.734375 7.390625 5.703125 7.335938 Z M 5.703125 7.335938 " fill-opacity="1" fill-rule="nonzero"/><path fill="#1D3557" d="M 5.703125 11.414062 C 5.679688 11.359375 5.652344 11.308594 5.617188 11.257812 C 5.585938 11.210938 5.546875 11.164062 5.503906 11.125 C 5.277344 10.894531 5.007812 10.8125 4.691406 10.875 C 4.632812 10.882812 4.578125 10.898438 4.523438 10.921875 C 4.46875 10.949219 4.417969 10.976562 4.367188 11.011719 C 4.320312 11.042969 4.273438 11.082031 4.234375 11.125 C 4.191406 11.164062 4.152344 11.210938 4.121094 11.257812 C 4.089844 11.308594 4.0625 11.359375 4.039062 11.414062 C 4.015625 11.46875 4 11.527344 3.988281 11.585938 C 3.980469 11.644531 3.980469 11.703125 3.988281 11.761719 C 3.984375 12.011719 4.074219 12.226562 4.253906 12.402344 C 4.335938 12.488281 4.429688 12.554688 4.539062 12.601562 C 4.710938 12.671875 4.882812 12.6875 5.0625 12.652344 C 5.121094 12.640625 5.179688 12.621094 5.234375 12.601562 C 5.289062 12.574219 5.339844 12.546875 5.386719 12.515625 C 5.4375 12.484375 5.484375 12.445312 5.523438 12.402344 C 5.703125 12.226562 5.789062 12.011719 5.789062 11.761719 C 5.796875 11.703125 5.796875 11.644531 5.789062 11.585938 C 5.769531 11.523438 5.738281 11.464844 5.703125 11.414062 Z M 5.703125 11.414062 " fill-opacity="1" fill-rule="nonzero"/><path fill="#1D3557" d="M 4.234375 15.199219 C 4.058594 15.375 3.96875 15.589844 3.96875 15.839844 C 3.96875 16.089844 4.058594 16.304688 4.234375 16.480469 C 4.316406 16.5625 4.414062 16.628906 4.523438 16.675781 C 4.640625 16.722656 4.761719 16.746094 4.886719 16.742188 C 4.945312 16.742188 5.003906 16.738281 5.0625 16.722656 C 5.121094 16.714844 5.175781 16.699219 5.230469 16.675781 C 5.285156 16.652344 5.335938 16.625 5.382812 16.589844 C 5.433594 16.558594 5.480469 16.523438 5.519531 16.480469 C 5.695312 16.304688 5.785156 16.089844 5.785156 15.839844 C 5.785156 15.589844 5.695312 15.375 5.519531 15.199219 C 5.339844 15.023438 5.125 14.9375 4.875 14.9375 C 4.628906 14.9375 4.414062 15.023438 4.234375 15.199219 Z M 4.234375 15.199219 " fill-opacity="1" fill-rule="nonzero"/><path fill="#1D3557" d="M 25.960938 7.335938 C 25.9375 7.28125 25.910156 7.230469 25.878906 7.183594 C 25.847656 7.132812 25.808594 7.089844 25.765625 7.046875 C 25.539062 6.820312 25.269531 6.734375 24.953125 6.796875 C 24.894531 6.804688 24.835938 6.824219 24.78125 6.84375 C 24.730469 6.871094 24.679688 6.902344 24.628906 6.933594 C 24.53125 7 24.449219 7.085938 24.382812 7.183594 C 24.347656 7.230469 24.320312 7.28125 24.292969 7.335938 C 24.273438 7.390625 24.257812 7.449219 24.246094 7.507812 C 24.234375 7.566406 24.226562 7.625 24.230469 7.683594 C 24.226562 7.742188 24.234375 7.800781 24.246094 7.859375 C 24.253906 7.917969 24.269531 7.976562 24.292969 8.03125 C 24.320312 8.085938 24.347656 8.136719 24.378906 8.1875 C 24.414062 8.234375 24.453125 8.28125 24.496094 8.324219 C 24.667969 8.503906 24.882812 8.59375 25.128906 8.59375 C 25.378906 8.59375 25.589844 8.503906 25.765625 8.324219 C 25.808594 8.28125 25.847656 8.238281 25.878906 8.1875 C 25.945312 8.085938 25.992188 7.980469 26.011719 7.859375 C 26.019531 7.800781 26.019531 7.742188 26.011719 7.683594 C 26.019531 7.625 26.019531 7.566406 26.011719 7.507812 C 26 7.449219 25.984375 7.390625 25.960938 7.335938 Z M 25.960938 7.335938 " fill-opacity="1" fill-rule="nonzero"/><path fill="#1D3557" d="M 25.960938 11.414062 C 25.9375 11.359375 25.910156 11.308594 25.878906 11.257812 C 25.847656 11.210938 25.808594 11.164062 25.765625 11.125 C 25.539062 10.894531 25.269531 10.8125 24.953125 10.875 C 24.894531 10.882812 24.835938 10.898438 24.78125 10.921875 C 24.730469 10.945312 24.679688 10.976562 24.628906 11.011719 C 24.53125 11.078125 24.449219 11.160156 24.382812 11.257812 C 24.347656 11.308594 24.320312 11.359375 24.292969 11.414062 C 24.273438 11.46875 24.257812 11.527344 24.246094 11.585938 C 24.222656 11.707031 24.222656 11.828125 24.246094 11.953125 C 24.253906 12.011719 24.269531 12.070312 24.292969 12.125 C 24.320312 12.175781 24.347656 12.230469 24.378906 12.277344 C 24.414062 12.328125 24.453125 12.375 24.496094 12.417969 C 24.625 12.542969 24.777344 12.625 24.957031 12.660156 C 25.132812 12.695312 25.308594 12.679688 25.472656 12.609375 C 25.640625 12.539062 25.777344 12.429688 25.878906 12.277344 C 25.980469 12.125 26.03125 11.957031 26.03125 11.777344 C 26.035156 11.71875 26.035156 11.660156 26.03125 11.601562 C 26.015625 11.535156 25.992188 11.472656 25.960938 11.414062 Z M 25.960938 11.414062 " fill-opacity="1" fill-rule="nonzero"/><path fill="#1D3557" d="M 25.960938 15.488281 C 25.9375 15.4375 25.910156 15.386719 25.878906 15.335938 C 25.847656 15.285156 25.808594 15.242188 25.765625 15.199219 C 25.539062 14.972656 25.269531 14.890625 24.953125 14.953125 C 24.894531 14.960938 24.835938 14.976562 24.78125 15 C 24.730469 15.023438 24.679688 15.054688 24.628906 15.085938 C 24.578125 15.117188 24.535156 15.15625 24.496094 15.199219 C 24.453125 15.242188 24.414062 15.285156 24.382812 15.335938 C 24.347656 15.382812 24.316406 15.433594 24.292969 15.488281 C 24.273438 15.546875 24.257812 15.601562 24.246094 15.660156 C 24.234375 15.71875 24.226562 15.777344 24.230469 15.835938 C 24.230469 15.957031 24.25 16.074219 24.292969 16.1875 C 24.34375 16.296875 24.410156 16.394531 24.496094 16.480469 C 24.671875 16.65625 24.882812 16.742188 25.128906 16.742188 C 25.378906 16.742188 25.589844 16.65625 25.765625 16.480469 C 25.851562 16.394531 25.917969 16.296875 25.960938 16.1875 C 26.035156 16.015625 26.050781 15.84375 26.011719 15.660156 C 26 15.601562 25.984375 15.546875 25.960938 15.488281 Z M 25.960938 15.488281 " fill-opacity="1" fill-rule="nonzero"/><path fill="#1D3557" d="M 19.542969 7.046875 C 19.496094 7.085938 19.460938 7.128906 19.429688 7.183594 C 19.398438 7.230469 19.367188 7.28125 19.34375 7.335938 C 19.320312 7.390625 19.304688 7.449219 19.296875 7.507812 C 19.289062 7.566406 19.289062 7.625 19.296875 7.683594 C 19.296875 7.9375 19.382812 8.148438 19.5625 8.324219 C 19.644531 8.410156 19.738281 8.476562 19.847656 8.523438 C 20.019531 8.59375 20.191406 8.613281 20.371094 8.574219 C 20.429688 8.5625 20.484375 8.546875 20.542969 8.523438 C 20.59375 8.5 20.644531 8.472656 20.695312 8.4375 C 20.742188 8.40625 20.789062 8.371094 20.828125 8.324219 C 21.007812 8.148438 21.09375 7.9375 21.09375 7.6875 C 21.09375 7.4375 21.007812 7.222656 20.828125 7.046875 C 20.652344 6.871094 20.4375 6.78125 20.1875 6.78125 C 19.9375 6.78125 19.722656 6.871094 19.542969 7.046875 Z M 19.542969 7.046875 " fill-opacity="1" fill-rule="nonzero"/><path fill="#1D3557" d="M 19.542969 11.125 C 19.367188 11.300781 19.277344 11.511719 19.277344 11.761719 C 19.277344 12.011719 19.367188 12.226562 19.542969 12.402344 C 19.625 12.488281 19.722656 12.554688 19.832031 12.601562 C 19.949219 12.648438 20.070312 12.671875 20.195312 12.667969 C 20.445312 12.667969 20.65625 12.578125 20.832031 12.402344 C 21.003906 12.222656 21.09375 12.011719 21.09375 11.761719 C 21.09375 11.511719 21.003906 11.296875 20.824219 11.125 C 20.648438 10.949219 20.433594 10.859375 20.183594 10.859375 C 19.933594 10.859375 19.722656 10.949219 19.542969 11.125 Z M 19.542969 11.125 " fill-opacity="1" fill-rule="nonzero"/><path fill="#1D3557" d="M 21.011719 15.488281 C 20.988281 15.433594 20.957031 15.382812 20.921875 15.335938 C 20.894531 15.285156 20.855469 15.238281 20.8125 15.199219 C 20.632812 15.03125 20.421875 14.945312 20.175781 14.945312 C 19.933594 14.945312 19.722656 15.03125 19.542969 15.199219 C 19.496094 15.238281 19.460938 15.285156 19.429688 15.335938 C 19.394531 15.382812 19.367188 15.433594 19.34375 15.488281 C 19.320312 15.546875 19.304688 15.601562 19.296875 15.660156 C 19.289062 15.71875 19.289062 15.777344 19.296875 15.835938 C 19.296875 16.089844 19.382812 16.300781 19.5625 16.480469 C 19.644531 16.566406 19.738281 16.632812 19.847656 16.675781 C 19.964844 16.722656 20.085938 16.746094 20.214844 16.742188 C 20.273438 16.742188 20.332031 16.738281 20.386719 16.722656 C 20.449219 16.714844 20.503906 16.699219 20.558594 16.675781 C 20.613281 16.652344 20.664062 16.625 20.710938 16.589844 C 20.761719 16.558594 20.808594 16.523438 20.847656 16.480469 C 21.027344 16.304688 21.113281 16.089844 21.113281 15.835938 C 21.121094 15.777344 21.121094 15.71875 21.113281 15.660156 C 21.085938 15.601562 21.050781 15.542969 21.011719 15.488281 Z M 21.011719 15.488281 " fill-opacity="1" fill-rule="nonzero"/><path fill="#1D3557" d="M 10.65625 7.335938 C 10.632812 7.28125 10.601562 7.230469 10.570312 7.183594 C 10.539062 7.128906 10.503906 7.085938 10.457031 7.046875 C 10.230469 6.820312 9.960938 6.734375 9.648438 6.796875 C 9.589844 6.804688 9.53125 6.824219 9.476562 6.84375 C 9.421875 6.871094 9.371094 6.898438 9.324219 6.933594 C 9.273438 6.964844 9.230469 7.003906 9.1875 7.046875 C 9.144531 7.085938 9.105469 7.128906 9.078125 7.183594 C 9.042969 7.230469 9.011719 7.28125 8.988281 7.335938 C 8.964844 7.390625 8.949219 7.449219 8.941406 7.507812 C 8.933594 7.566406 8.933594 7.625 8.941406 7.683594 C 8.933594 7.742188 8.933594 7.800781 8.941406 7.859375 C 8.949219 7.917969 8.964844 7.976562 8.988281 8.03125 C 9.011719 8.085938 9.039062 8.136719 9.070312 8.1875 C 9.105469 8.238281 9.144531 8.285156 9.1875 8.324219 C 9.230469 8.371094 9.273438 8.40625 9.324219 8.4375 C 9.371094 8.472656 9.421875 8.5 9.476562 8.523438 C 9.53125 8.546875 9.589844 8.5625 9.648438 8.574219 C 9.707031 8.585938 9.765625 8.59375 9.824219 8.59375 C 10.070312 8.59375 10.28125 8.503906 10.457031 8.324219 C 10.5 8.285156 10.539062 8.238281 10.570312 8.1875 C 10.605469 8.136719 10.632812 8.085938 10.65625 8.03125 C 10.679688 7.976562 10.695312 7.917969 10.703125 7.859375 C 10.710938 7.800781 10.710938 7.742188 10.703125 7.683594 C 10.710938 7.625 10.710938 7.566406 10.703125 7.507812 C 10.695312 7.449219 10.679688 7.390625 10.65625 7.335938 Z M 10.65625 7.335938 " fill-opacity="1" fill-rule="nonzero"/><path fill="#1D3557" d="M 10.65625 11.414062 C 10.632812 11.359375 10.601562 11.308594 10.570312 11.257812 C 10.539062 11.207031 10.503906 11.160156 10.457031 11.125 C 10.417969 11.078125 10.371094 11.042969 10.320312 11.011719 C 10.273438 10.976562 10.21875 10.945312 10.164062 10.921875 C 10.109375 10.898438 10.054688 10.882812 9.996094 10.875 C 9.875 10.851562 9.753906 10.851562 9.632812 10.875 C 9.574219 10.882812 9.515625 10.898438 9.460938 10.921875 C 9.410156 10.945312 9.359375 10.976562 9.308594 11.011719 C 9.257812 11.042969 9.214844 11.078125 9.175781 11.125 C 9.128906 11.160156 9.089844 11.207031 9.0625 11.257812 C 9.027344 11.308594 8.996094 11.359375 8.972656 11.414062 C 8.953125 11.46875 8.9375 11.527344 8.925781 11.585938 C 8.921875 11.644531 8.921875 11.703125 8.925781 11.761719 C 8.921875 12.007812 9.003906 12.222656 9.175781 12.402344 C 9.214844 12.445312 9.257812 12.484375 9.308594 12.515625 C 9.355469 12.550781 9.410156 12.578125 9.460938 12.601562 C 9.519531 12.621094 9.574219 12.640625 9.632812 12.652344 C 9.691406 12.65625 9.75 12.65625 9.808594 12.652344 C 10.207031 12.644531 10.484375 12.457031 10.640625 12.089844 C 10.6875 11.972656 10.710938 11.851562 10.707031 11.722656 C 10.714844 11.664062 10.714844 11.605469 10.707031 11.546875 C 10.695312 11.503906 10.675781 11.457031 10.65625 11.414062 Z M 10.65625 11.414062 " fill-opacity="1" fill-rule="nonzero"/><path fill="#1D3557" d="M 10.320312 15.085938 C 10.273438 15.050781 10.222656 15.023438 10.164062 15 C 10.109375 14.976562 10.054688 14.960938 9.996094 14.953125 C 9.875 14.925781 9.753906 14.925781 9.632812 14.953125 C 9.574219 14.960938 9.515625 14.976562 9.460938 15 C 9.40625 15.023438 9.355469 15.050781 9.308594 15.085938 C 9.257812 15.117188 9.214844 15.15625 9.175781 15.199219 C 8.996094 15.375 8.910156 15.589844 8.910156 15.835938 C 8.902344 15.894531 8.902344 15.953125 8.910156 16.011719 C 8.917969 16.074219 8.933594 16.128906 8.957031 16.1875 C 8.980469 16.238281 9.003906 16.289062 9.035156 16.339844 C 9.070312 16.390625 9.113281 16.4375 9.15625 16.480469 C 9.332031 16.65625 9.542969 16.742188 9.789062 16.742188 C 10.039062 16.742188 10.25 16.65625 10.421875 16.480469 C 10.46875 16.4375 10.507812 16.390625 10.535156 16.339844 C 10.570312 16.292969 10.601562 16.242188 10.625 16.1875 C 10.644531 16.128906 10.660156 16.074219 10.671875 16.011719 C 10.675781 15.953125 10.675781 15.894531 10.671875 15.835938 C 10.671875 15.589844 10.582031 15.375 10.40625 15.199219 C 10.382812 15.160156 10.355469 15.121094 10.320312 15.085938 Z M 10.320312 15.085938 " fill-opacity="1" fill-rule="nonzero"/><path fill="#1D3557" d="M 15.832031 7.335938 C 15.808594 7.28125 15.78125 7.230469 15.746094 7.183594 C 15.71875 7.128906 15.679688 7.085938 15.632812 7.046875 C 15.59375 7.003906 15.546875 6.964844 15.5 6.933594 C 15.449219 6.898438 15.398438 6.871094 15.34375 6.84375 C 15.289062 6.824219 15.234375 6.804688 15.175781 6.796875 C 14.859375 6.734375 14.589844 6.820312 14.367188 7.046875 C 14.320312 7.085938 14.28125 7.128906 14.253906 7.183594 C 14.21875 7.230469 14.191406 7.28125 14.167969 7.335938 C 14.144531 7.390625 14.128906 7.449219 14.117188 7.507812 C 14.113281 7.566406 14.113281 7.625 14.117188 7.683594 C 14.117188 7.9375 14.207031 8.148438 14.382812 8.324219 C 14.558594 8.503906 14.769531 8.59375 15.019531 8.59375 C 15.265625 8.59375 15.476562 8.503906 15.652344 8.324219 C 15.828125 8.148438 15.917969 7.933594 15.917969 7.683594 C 15.925781 7.625 15.925781 7.566406 15.917969 7.507812 C 15.898438 7.449219 15.867188 7.390625 15.832031 7.335938 Z M 15.832031 7.335938 " fill-opacity="1" fill-rule="nonzero"/><path fill="#1D3557" d="M 15.832031 11.414062 C 15.808594 11.359375 15.78125 11.308594 15.746094 11.257812 C 15.71875 11.207031 15.679688 11.160156 15.632812 11.125 C 15.59375 11.078125 15.546875 11.042969 15.5 11.011719 C 15.449219 10.972656 15.398438 10.945312 15.34375 10.921875 C 15.289062 10.898438 15.234375 10.882812 15.175781 10.875 C 14.859375 10.8125 14.589844 10.894531 14.367188 11.125 C 14.324219 11.167969 14.292969 11.21875 14.273438 11.277344 C 14.238281 11.324219 14.207031 11.378906 14.183594 11.429688 C 14.160156 11.488281 14.144531 11.542969 14.136719 11.605469 C 14.128906 11.664062 14.128906 11.722656 14.136719 11.78125 C 14.136719 12.027344 14.226562 12.242188 14.402344 12.417969 C 14.574219 12.597656 14.789062 12.683594 15.035156 12.683594 C 15.285156 12.683594 15.496094 12.597656 15.671875 12.417969 C 15.847656 12.242188 15.9375 12.027344 15.9375 11.78125 C 15.941406 11.722656 15.941406 11.664062 15.9375 11.605469 C 15.910156 11.535156 15.878906 11.472656 15.832031 11.414062 Z M 15.832031 11.414062 " fill-opacity="1" fill-rule="nonzero"/><path fill="#1D3557" d="M 15.832031 15.488281 C 15.808594 15.433594 15.78125 15.382812 15.746094 15.335938 C 15.71875 15.285156 15.679688 15.238281 15.632812 15.199219 C 15.59375 15.15625 15.550781 15.117188 15.5 15.085938 C 15.449219 15.050781 15.398438 15.023438 15.34375 15 C 15.289062 14.976562 15.234375 14.960938 15.175781 14.953125 C 14.859375 14.890625 14.589844 14.972656 14.367188 15.199219 C 14.320312 15.238281 14.28125 15.285156 14.253906 15.335938 C 14.21875 15.382812 14.191406 15.433594 14.167969 15.488281 C 14.144531 15.546875 14.128906 15.601562 14.117188 15.660156 C 14.113281 15.71875 14.113281 15.777344 14.117188 15.835938 C 14.117188 16.085938 14.207031 16.300781 14.382812 16.476562 C 14.558594 16.652344 14.769531 16.742188 15.019531 16.742188 C 15.265625 16.742188 15.476562 16.652344 15.652344 16.476562 C 15.828125 16.300781 15.917969 16.085938 15.917969 15.835938 C 15.925781 15.777344 15.925781 15.71875 15.917969 15.660156 C 15.898438 15.601562 15.867188 15.542969 15.832031 15.488281 Z M 15.832031 15.488281 " fill-opacity="1" fill-rule="nonzero"/></svg>