<svg xmlns="http://www.w3.org/2000/svg" xmlns:xlink="http://www.w3.org/1999/xlink" width="40" zoomAndPan="magnify" viewBox="0 0 30 44.999999" height="60" preserveAspectRatio="xMidYMid meet" version="1.0"><defs><clipPath id="789bd6225c"><path d="M 1 8.175781 L 29 8.175781 L 29 36 L 1 36 Z M 1 8.175781 " clip-rule="nonzero"/></clipPath><clipPath id="4df527727e"><path d="M 5 8.175781 L 23 8.175781 L 23 36.675781 L 5 36.675781 Z M 5 8.175781 " clip-rule="nonzero"/></clipPath></defs><g clip-path="url(#789bd6225c)"><path fill="#000000" d="M 22.550781 8.621094 C 22.742188 8.417969 23.082031 8.425781 23.308594 8.640625 L 25.417969 10.621094 L 28.050781 13.101562 L 27.625 13.554688 L 24.988281 11.078125 L 24.46875 11.628906 L 27.105469 14.105469 L 26.675781 14.5625 L 24.042969 12.082031 L 23.523438 12.632812 L 26.160156 15.113281 L 25.730469 15.566406 L 23.09375 13.089844 L 22.578125 13.640625 L 25.210938 16.117188 L 24.785156 16.574219 L 22.148438 14.097656 L 21.628906 14.648438 L 24.265625 17.125 L 23.839844 17.582031 L 21.203125 15.101562 L 20.683594 15.652344 L 23.320312 18.132812 L 22.890625 18.585938 L 20.257812 16.109375 L 19.738281 16.660156 L 22.375 19.136719 L 21.945312 19.59375 L 19.308594 17.117188 L 18.792969 17.667969 L 21.425781 20.144531 L 21 20.601562 L 18.363281 18.121094 L 17.84375 18.671875 L 20.480469 21.152344 L 20.054688 21.605469 L 17.417969 19.128906 L 16.898438 19.679688 L 19.535156 22.15625 L 19.105469 22.613281 L 16.472656 20.136719 L 15.953125 20.6875 L 18.589844 23.164062 L 18.160156 23.621094 L 15.523438 21.140625 L 15.007812 21.691406 L 17.640625 24.171875 L 17.214844 24.625 L 14.578125 22.148438 L 14.273438 22.472656 L 16.910156 24.949219 L 16.667969 25.207031 L 14.03125 22.730469 L 13.804688 22.96875 L 16.441406 25.449219 L 16.199219 25.707031 L 13.5625 23.226562 L 13.335938 23.46875 L 15.972656 25.949219 L 15.726562 26.207031 L 13.09375 23.726562 L 12.867188 23.96875 L 15.5 26.449219 L 15.257812 26.707031 L 12.621094 24.226562 L 12.394531 24.46875 L 15.03125 26.945312 L 14.789062 27.203125 L 12.152344 24.726562 L 11.925781 24.96875 L 14.5625 27.445312 L 14.320312 27.703125 L 11.683594 25.226562 L 11.457031 25.46875 L 14.09375 27.945312 L 13.847656 28.203125 L 11.214844 25.726562 L 10.988281 25.96875 L 13.621094 28.445312 L 13.378906 28.703125 L 10.746094 26.226562 L 10.515625 26.464844 L 13.152344 28.945312 L 12.910156 29.203125 L 10.273438 26.726562 L 10.046875 26.964844 L 12.683594 29.445312 L 12.441406 29.703125 L 9.804688 27.222656 L 9.578125 27.464844 L 12.214844 29.945312 L 11.972656 30.203125 L 9.335938 27.722656 L 9.109375 27.964844 L 11.742188 30.445312 L 11.5 30.703125 L 8.867188 28.222656 L 8.636719 28.464844 L 11.273438 30.941406 L 11.03125 31.199219 L 8.394531 28.722656 L 8.167969 28.964844 L 10.804688 31.441406 L 10.5625 31.699219 L 7.925781 29.222656 L 7.699219 29.464844 L 10.335938 31.941406 L 10.09375 32.199219 L 7.457031 29.722656 L 7.230469 29.964844 L 9.863281 32.441406 L 9.621094 32.699219 L 6.988281 30.222656 L 6.761719 30.460938 L 9.394531 32.941406 L 9.152344 33.199219 L 6.515625 30.722656 L 6.289062 30.960938 L 8.925781 33.441406 L 8.683594 33.699219 L 6.046875 31.21875 L 5.820312 31.460938 L 8.457031 33.941406 L 8.214844 34.199219 L 5.578125 31.71875 L 5.351562 31.960938 L 7.984375 34.4375 L 7.742188 34.699219 L 5.109375 32.21875 L 4.882812 32.460938 L 7.515625 34.9375 L 7.273438 35.195312 L 4.636719 32.71875 L 4.410156 32.960938 L 7.046875 35.4375 L 6.804688 35.695312 L 4.167969 33.21875 L 2.117188 31.289062 C 1.859375 31.046875 1.828125 30.660156 2.042969 30.429688 L 22.550781 8.621094 " fill-opacity="1" fill-rule="nonzero"/></g><g clip-path="url(#4df527727e)"><path fill="#ffffff" d="M 19.347656 32.011719 C 19.167969 32.023438 19 32.074219 18.847656 32.167969 C 18.765625 32.214844 18.691406 32.277344 18.625 32.347656 C 18.203125 32.800781 18.167969 33.5625 18.542969 34.203125 C 18.851562 34.734375 19.382812 35.058594 19.902344 35.035156 C 20.085938 35.027344 20.253906 34.976562 20.40625 34.882812 C 20.484375 34.832031 20.558594 34.773438 20.625 34.703125 C 21.046875 34.25 21.082031 33.488281 20.710938 32.847656 C 20.402344 32.316406 19.867188 31.988281 19.347656 32.011719 Z M 19.941406 36.757812 C 18.78125 36.8125 17.671875 36.175781 17.046875 35.101562 C 16.308594 33.832031 16.433594 32.253906 17.339844 31.234375 C 15.652344 27.363281 14.496094 24.792969 14.320312 24.503906 L 6.515625 11.398438 L 5.464844 9.640625 C 4.964844 8.796875 4.964844 8.796875 5.0625 8.617188 L 5.300781 8.175781 L 5.644531 8.539062 C 8.425781 11.453125 12.070312 15.746094 16.484375 21.300781 C 16.777344 21.667969 16.898438 22.152344 16.824219 22.664062 C 16.664062 23.796875 17.652344 26.914062 19.234375 30.300781 C 19.261719 30.296875 19.285156 30.296875 19.3125 30.292969 C 20.472656 30.242188 21.582031 30.875 22.207031 31.949219 C 22.957031 33.238281 22.816406 34.847656 21.867188 35.867188 C 21.691406 36.054688 21.492188 36.214844 21.277344 36.347656 C 20.871094 36.597656 20.421875 36.738281 19.941406 36.757812 " fill-opacity="1" fill-rule="nonzero"/><path fill="#000000" d="M 21.023438 32.667969 C 21.476562 33.441406 21.421875 34.382812 20.890625 34.949219 C 20.804688 35.042969 20.703125 35.125 20.59375 35.191406 C 19.824219 35.667969 18.761719 35.304688 18.226562 34.382812 C 17.777344 33.605469 17.832031 32.667969 18.359375 32.101562 C 18.449219 32.007812 18.546875 31.925781 18.65625 31.859375 C 19.429688 31.382812 20.492188 31.746094 21.023438 32.667969 Z M 14.632812 24.3125 C 14.910156 24.773438 17.0625 29.683594 17.773438 31.3125 C 17.730469 31.351562 17.691406 31.390625 17.652344 31.429688 C 16.8125 32.332031 16.691406 33.765625 17.359375 34.917969 C 18.164062 36.304688 19.835938 36.808594 21.085938 36.039062 C 21.273438 35.921875 21.449219 35.78125 21.601562 35.617188 C 22.441406 34.714844 22.5625 33.28125 21.894531 32.132812 C 21.261719 31.042969 20.09375 30.503906 19.015625 30.691406 C 17.480469 27.449219 16.273438 23.976562 16.464844 22.613281 C 16.523438 22.21875 16.441406 21.824219 16.203125 21.527344 C 12.714844 17.136719 8.691406 12.261719 5.382812 8.789062 C 5.375 8.777344 14.632812 24.3125 14.632812 24.3125 " fill-opacity="1" fill-rule="nonzero"/></g><path fill="#ffffff" d="M 26.351562 24.675781 C 25.96875 24.691406 25.632812 24.835938 25.40625 25.082031 C 25.339844 25.152344 25.28125 25.230469 25.238281 25.316406 C 25.066406 25.644531 25.113281 25.964844 25.183594 26.175781 C 25.316406 26.570312 25.632812 26.917969 26.050781 27.121094 C 26.339844 27.261719 26.648438 27.328125 26.949219 27.3125 C 27.332031 27.296875 27.671875 27.152344 27.898438 26.90625 C 27.964844 26.835938 28.019531 26.757812 28.0625 26.671875 C 28.234375 26.34375 28.1875 26.023438 28.121094 25.8125 C 27.988281 25.417969 27.671875 25.070312 27.25 24.867188 C 26.964844 24.726562 26.65625 24.660156 26.351562 24.675781 Z M 26.976562 29.03125 C 26.386719 29.058594 25.796875 28.9375 25.261719 28.675781 C 24.097656 28.109375 23.378906 26.972656 23.402344 25.789062 C 20.226562 24.578125 17.328125 23.839844 15.964844 23.90625 C 15.816406 23.910156 15.691406 23.929688 15.589844 23.953125 C 15.480469 23.980469 15.367188 23.996094 15.257812 24 C 14.90625 24.015625 14.570312 23.925781 14.289062 23.730469 C 8.40625 19.71875 3.84375 16.378906 0.726562 13.808594 L 0 13.214844 C 0 13.214844 0.941406 13.167969 0.941406 13.167969 C 1.035156 13.164062 1.054688 13.175781 3.648438 14.472656 L 17.289062 21.316406 C 17.59375 21.472656 20.246094 22.441406 24.230469 23.847656 C 24.777344 23.308594 25.515625 22.992188 26.328125 22.953125 C 26.914062 22.925781 27.507812 23.050781 28.042969 23.3125 C 28.863281 23.710938 29.484375 24.410156 29.757812 25.234375 C 30.003906 25.976562 29.941406 26.761719 29.589844 27.4375 C 29.472656 27.660156 29.324219 27.871094 29.148438 28.058594 C 28.601562 28.648438 27.828125 28.992188 26.976562 29.03125 " fill-opacity="1" fill-rule="nonzero"/><path fill="#000000" d="M 28.386719 26.839844 C 28.328125 26.953125 28.253906 27.058594 28.164062 27.152344 C 27.636719 27.722656 26.699219 27.839844 25.894531 27.449219 C 24.9375 26.980469 24.5 25.949219 24.917969 25.148438 C 24.976562 25.035156 25.050781 24.929688 25.140625 24.835938 C 25.667969 24.265625 26.601562 24.144531 27.410156 24.539062 C 28.367188 25.007812 28.804688 26.039062 28.386719 26.839844 Z M 27.882812 23.636719 C 26.683594 23.054688 25.261719 23.273438 24.421875 24.175781 C 24.390625 24.207031 24.363281 24.238281 24.335938 24.269531 C 22.660156 23.679688 17.605469 21.886719 17.125 21.640625 C 17.125 21.640625 0.945312 13.523438 0.957031 13.53125 C 4.671875 16.589844 9.851562 20.261719 14.492188 23.433594 C 14.78125 23.628906 15.148438 23.6875 15.503906 23.601562 C 16.8125 23.28125 20.394531 24.234375 23.78125 25.546875 C 23.648438 26.644531 24.273438 27.789062 25.421875 28.351562 C 26.617188 28.933594 28.042969 28.714844 28.882812 27.8125 C 29.035156 27.648438 29.164062 27.464844 29.265625 27.269531 C 29.945312 25.96875 29.324219 24.339844 27.882812 23.636719 " fill-opacity="1" fill-rule="nonzero"/><path fill="#000000" d="M 13.734375 22.21875 C 14.050781 22.511719 14.5625 22.476562 14.875 22.140625 C 15.1875 21.804688 15.183594 21.296875 14.871094 21 C 14.554688 20.707031 14.042969 20.742188 13.730469 21.078125 C 13.417969 21.414062 13.417969 21.925781 13.734375 22.21875 " fill-opacity="1" fill-rule="nonzero"/><path fill="#ffffff" d="M 11.1875 22.019531 C 11.1875 24.070312 12.851562 25.734375 14.902344 25.734375 C 16.953125 25.734375 18.617188 24.070312 18.617188 22.019531 C 18.617188 19.964844 16.953125 18.304688 14.902344 18.304688 C 12.851562 18.304688 11.1875 19.964844 11.1875 22.019531 " fill-opacity="1" fill-rule="nonzero"/><path fill="#000000" d="M 11.515625 22.019531 C 11.515625 23.890625 13.03125 25.40625 14.902344 25.40625 C 16.773438 25.40625 18.292969 23.890625 18.292969 22.019531 C 18.292969 20.144531 16.773438 18.628906 14.902344 18.628906 C 13.03125 18.628906 11.515625 20.144531 11.515625 22.019531 " fill-opacity="1" fill-rule="nonzero"/><path fill="#ffffff" d="M 13.683594 20.871094 C 13.773438 21.25 14.078125 21.503906 14.363281 21.4375 C 14.648438 21.375 14.808594 21.015625 14.71875 20.636719 C 14.628906 20.257812 14.324219 20.003906 14.039062 20.066406 C 13.753906 20.132812 13.59375 20.492188 13.683594 20.871094 " fill-opacity="1" fill-rule="nonzero"/><path fill="#ffffff" d="M 15.078125 20.707031 C 15.039062 21.09375 15.242188 21.429688 15.539062 21.460938 C 15.832031 21.488281 16.101562 21.199219 16.144531 20.8125 C 16.183594 20.425781 15.976562 20.089844 15.683594 20.058594 C 15.390625 20.03125 15.121094 20.320312 15.078125 20.707031 " fill-opacity="1" fill-rule="nonzero"/><path fill="#ffffff" d="M 16.144531 21.5 C 15.992188 21.8125 16.066406 22.15625 16.308594 22.269531 C 16.550781 22.382812 16.871094 22.226562 17.023438 21.914062 C 17.175781 21.601562 17.101562 21.257812 16.859375 21.144531 C 16.617188 21.027344 16.296875 21.1875 16.144531 21.5 " fill-opacity="1" fill-rule="nonzero"/><path fill="#ffffff" d="M 13.660156 21.511719 C 13.816406 21.820312 13.746094 22.164062 13.503906 22.28125 C 13.261719 22.398438 12.941406 22.242188 12.785156 21.933594 C 12.628906 21.621094 12.699219 21.277344 12.941406 21.160156 C 13.183594 21.042969 13.507812 21.199219 13.660156 21.511719 " fill-opacity="1" fill-rule="nonzero"/><path fill="#ffffff" d="M 13.867188 22.4375 C 14.058594 22.242188 14.15625 21.972656 14.359375 21.789062 C 14.457031 21.695312 14.582031 21.625 14.71875 21.59375 C 14.726562 21.589844 14.890625 21.566406 14.890625 21.582031 C 14.890625 21.566406 15.054688 21.589844 15.0625 21.589844 C 15.199219 21.621094 15.324219 21.695312 15.425781 21.785156 C 15.628906 21.96875 15.730469 22.234375 15.921875 22.429688 C 16.199219 22.703125 16.527344 22.953125 16.476562 23.382812 C 16.425781 23.84375 16.007812 24.054688 15.574219 23.9375 C 14.992188 23.78125 14.902344 23.808594 14.902344 23.808594 C 14.902344 23.808594 14.808594 23.78125 14.226562 23.945312 C 13.796875 24.066406 13.375 23.855469 13.320312 23.394531 C 13.265625 22.964844 13.59375 22.710938 13.867188 22.4375 " fill-opacity="1" fill-rule="nonzero"/></svg>