<svg xmlns="http://www.w3.org/2000/svg" xmlns:xlink="http://www.w3.org/1999/xlink" width="40" zoomAndPan="magnify" viewBox="0 0 30 44.999999" height="60" preserveAspectRatio="xMidYMid meet" version="1.0"><defs><clipPath id="1a9f430db0"><path d="M 3 25 L 27 25 L 27 34.386719 L 3 34.386719 Z M 3 25 " clip-rule="nonzero"/></clipPath><clipPath id="ca1f25914c"><path d="M 3 10.386719 L 27 10.386719 L 27 20 L 3 20 Z M 3 10.386719 " clip-rule="nonzero"/></clipPath></defs><g clip-path="url(#1a9f430db0)"><path fill="#1D3557" d="M 25.414062 25.6875 C 25.449219 26.164062 25.347656 26.617188 25.082031 27.023438 C 24.804688 27.449219 24.339844 27.671875 24.019531 28.0625 C 23.84375 28.273438 23.695312 28.5 23.585938 28.75 C 23.480469 29 23.429688 29.257812 23.34375 29.511719 C 23.21875 29.894531 22.945312 30.265625 22.625 30.496094 C 22.210938 30.792969 21.738281 30.835938 21.273438 31.046875 C 20.769531 31.273438 20.417969 31.644531 20.089844 32.070312 C 19.796875 32.445312 19.386719 32.703125 18.925781 32.8125 C 18.417969 32.933594 17.910156 32.753906 17.390625 32.804688 C 17.074219 32.835938 16.777344 32.910156 16.484375 33.035156 C 16.242188 33.140625 16.03125 33.300781 15.789062 33.402344 C 15.3125 33.605469 14.777344 33.605469 14.296875 33.433594 C 14.261719 33.421875 14.230469 33.410156 14.199219 33.394531 C 14.191406 33.390625 14.050781 33.328125 14.105469 33.355469 C 14.160156 33.382812 14.074219 33.335938 14.070312 33.335938 C 14.046875 33.320312 14.019531 33.308594 13.992188 33.292969 C 13.949219 33.269531 13.90625 33.238281 13.859375 33.214844 C 13.742188 33.152344 13.625 33.09375 13.507812 33.035156 C 13.230469 32.898438 12.898438 32.832031 12.597656 32.800781 C 12.277344 32.773438 11.976562 32.84375 11.664062 32.863281 C 11.382812 32.878906 11.113281 32.839844 10.847656 32.746094 C 10.816406 32.738281 10.789062 32.726562 10.757812 32.714844 C 10.816406 32.738281 10.792969 32.730469 10.78125 32.726562 C 10.789062 32.726562 10.628906 32.660156 10.703125 32.691406 C 10.761719 32.71875 10.65625 32.671875 10.644531 32.664062 C 10.53125 32.609375 10.417969 32.542969 10.3125 32.472656 C 10.117188 32.332031 9.957031 32.152344 9.816406 31.960938 C 9.371094 31.359375 8.78125 31.011719 8.066406 30.824219 C 7.625 30.710938 7.214844 30.445312 6.941406 30.082031 C 6.632812 29.675781 6.585938 29.195312 6.386719 28.738281 C 6.273438 28.480469 6.121094 28.246094 5.9375 28.027344 C 5.753906 27.808594 5.554688 27.667969 5.34375 27.503906 C 4.976562 27.21875 4.722656 26.816406 4.609375 26.371094 C 4.554688 26.144531 4.542969 25.925781 4.558594 25.6875 L 4.148438 26.097656 L 6.316406 26.097656 C 8.039062 26.097656 9.761719 26.097656 11.484375 26.097656 C 13.570312 26.097656 15.660156 26.097656 17.75 26.097656 L 23.164062 26.097656 C 24.035156 26.097656 24.914062 26.121094 25.789062 26.097656 C 25.800781 26.097656 25.8125 26.097656 25.824219 26.097656 C 26.355469 26.097656 26.355469 25.28125 25.824219 25.28125 L 6.808594 25.28125 C 5.9375 25.28125 5.058594 25.257812 4.183594 25.28125 C 4.171875 25.28125 4.160156 25.28125 4.148438 25.28125 C 3.914062 25.28125 3.75 25.46875 3.734375 25.6875 C 3.699219 26.242188 3.828125 26.804688 4.101562 27.292969 C 4.238281 27.535156 4.417969 27.765625 4.621094 27.957031 C 4.8125 28.136719 5.039062 28.273438 5.226562 28.464844 C 5.40625 28.644531 5.554688 28.863281 5.652344 29.101562 C 5.753906 29.335938 5.78125 29.578125 5.871094 29.8125 C 6.074219 30.355469 6.421875 30.816406 6.894531 31.160156 C 7.265625 31.433594 7.6875 31.554688 8.121094 31.691406 C 8.191406 31.714844 8.261719 31.746094 8.332031 31.761719 C 8.40625 31.78125 8.269531 31.742188 8.265625 31.730469 C 8.269531 31.742188 8.332031 31.765625 8.339844 31.773438 C 8.457031 31.835938 8.582031 31.894531 8.691406 31.96875 C 8.929688 32.140625 9.09375 32.371094 9.269531 32.59375 C 9.449219 32.820312 9.660156 33.011719 9.898438 33.175781 C 10.011719 33.253906 10.128906 33.324219 10.253906 33.382812 C 10.285156 33.394531 10.53125 33.5 10.414062 33.449219 C 10.296875 33.398438 10.546875 33.503906 10.570312 33.511719 C 10.863281 33.625 11.1875 33.679688 11.503906 33.679688 C 11.828125 33.683594 12.144531 33.597656 12.46875 33.609375 C 12.640625 33.617188 12.789062 33.65625 12.953125 33.703125 C 13.011719 33.722656 13.089844 33.761719 13.152344 33.761719 C 13.1875 33.761719 13.03125 33.703125 13.085938 33.734375 C 13.113281 33.753906 13.140625 33.765625 13.171875 33.777344 C 13.300781 33.84375 13.425781 33.914062 13.550781 33.984375 C 13.621094 34.023438 13.691406 34.058594 13.761719 34.089844 C 13.855469 34.132812 13.925781 34.121094 13.785156 34.101562 C 13.921875 34.121094 14.078125 34.226562 14.214844 34.265625 C 14.503906 34.347656 14.816406 34.386719 15.117188 34.371094 C 15.417969 34.355469 15.707031 34.304688 15.980469 34.199219 C 16.269531 34.089844 16.511719 33.917969 16.789062 33.789062 C 17.03125 33.675781 17.304688 33.613281 17.570312 33.609375 C 17.859375 33.601562 18.140625 33.675781 18.429688 33.679688 C 18.976562 33.691406 19.535156 33.535156 19.992188 33.242188 C 20.230469 33.089844 20.453125 32.90625 20.636719 32.6875 C 20.820312 32.472656 20.960938 32.25 21.175781 32.066406 C 21.347656 31.917969 21.554688 31.796875 21.769531 31.71875 C 22.007812 31.632812 22.253906 31.59375 22.488281 31.496094 C 23.007812 31.285156 23.433594 30.9375 23.757812 30.488281 C 23.910156 30.277344 24.023438 30.042969 24.113281 29.800781 C 24.203125 29.558594 24.230469 29.316406 24.332031 29.089844 C 24.433594 28.859375 24.574219 28.652344 24.746094 28.476562 C 24.941406 28.28125 25.179688 28.140625 25.375 27.949219 C 25.773438 27.566406 26.0625 27.054688 26.175781 26.515625 C 26.234375 26.242188 26.257812 25.964844 26.238281 25.6875 C 26.222656 25.46875 26.058594 25.28125 25.828125 25.28125 C 25.617188 25.28125 25.398438 25.46875 25.414062 25.6875 Z M 25.414062 25.6875 " fill-opacity="1" fill-rule="nonzero"/></g><g clip-path="url(#ca1f25914c)"><path fill="#1D3557" d="M 4.558594 19.117188 C 4.527344 18.648438 4.621094 18.203125 4.878906 17.804688 C 5.140625 17.386719 5.582031 17.171875 5.902344 16.804688 C 6.082031 16.601562 6.242188 16.375 6.355469 16.128906 C 6.46875 15.882812 6.53125 15.625 6.609375 15.363281 C 6.726562 14.964844 6.964844 14.617188 7.296875 14.347656 C 7.425781 14.242188 7.644531 14.117188 7.796875 14.058594 C 8.027344 13.96875 8.273438 13.933594 8.503906 13.84375 C 9.039062 13.632812 9.480469 13.289062 9.820312 12.828125 C 10.082031 12.472656 10.425781 12.1875 10.847656 12.046875 C 11.074219 11.972656 11.28125 11.9375 11.519531 11.9375 C 11.789062 11.941406 12.046875 12.007812 12.316406 12.011719 C 12.609375 12.015625 12.914062 11.972656 13.195312 11.882812 C 13.476562 11.792969 13.738281 11.636719 14.007812 11.492188 C 14.480469 11.230469 15.046875 11.179688 15.5625 11.332031 C 15.789062 11.398438 15.984375 11.523438 16.191406 11.628906 C 16.601562 11.839844 17.007812 11.984375 17.476562 12.007812 C 17.777344 12.023438 18.070312 11.949219 18.367188 11.941406 C 18.644531 11.929688 18.910156 11.976562 19.167969 12.070312 C 19.628906 12.238281 19.9375 12.566406 20.230469 12.941406 C 20.417969 13.179688 20.664062 13.417969 20.921875 13.578125 C 21.035156 13.648438 21.15625 13.710938 21.273438 13.769531 C 21.523438 13.894531 21.800781 13.9375 22.0625 14.027344 C 22.300781 14.105469 22.394531 14.15625 22.617188 14.316406 C 22.785156 14.441406 22.941406 14.597656 23.0625 14.765625 C 23.359375 15.1875 23.40625 15.683594 23.617188 16.140625 C 23.730469 16.390625 23.890625 16.613281 24.070312 16.820312 C 24.242188 17.015625 24.449219 17.15625 24.648438 17.320312 C 25.003906 17.609375 25.25 18 25.363281 18.4375 C 25.417969 18.660156 25.429688 18.878906 25.414062 19.117188 L 25.824219 18.707031 L 6.808594 18.707031 C 5.9375 18.707031 5.058594 18.683594 4.1875 18.707031 C 4.171875 18.707031 4.160156 18.707031 4.148438 18.707031 C 3.617188 18.707031 3.617188 19.523438 4.148438 19.523438 L 6.316406 19.523438 C 8.039062 19.523438 9.761719 19.523438 11.484375 19.523438 C 13.574219 19.523438 15.660156 19.523438 17.75 19.523438 L 23.164062 19.523438 C 24.039062 19.523438 24.917969 19.546875 25.789062 19.523438 C 25.800781 19.523438 25.816406 19.523438 25.828125 19.523438 C 26.058594 19.523438 26.222656 19.335938 26.238281 19.117188 C 26.273438 18.570312 26.148438 18.019531 25.886719 17.535156 C 25.753906 17.300781 25.585938 17.078125 25.394531 16.886719 C 25.199219 16.699219 24.976562 16.566406 24.785156 16.382812 C 24.597656 16.199219 24.464844 16.003906 24.355469 15.78125 C 24.242188 15.554688 24.210938 15.304688 24.128906 15.070312 C 23.953125 14.550781 23.636719 14.082031 23.203125 13.738281 C 23.09375 13.652344 22.976562 13.5625 22.855469 13.5 C 22.703125 13.417969 22.964844 13.582031 22.828125 13.492188 C 22.75 13.441406 22.671875 13.398438 22.589844 13.359375 C 22.441406 13.296875 22.289062 13.234375 22.128906 13.195312 C 21.972656 13.152344 21.8125 13.121094 21.664062 13.054688 C 21.746094 13.09375 21.597656 13.015625 21.574219 13.003906 C 21.507812 12.964844 21.4375 12.917969 21.363281 12.886719 C 21.269531 12.847656 21.476562 12.984375 21.359375 12.890625 C 21.296875 12.839844 21.234375 12.785156 21.167969 12.734375 C 21.015625 12.613281 20.898438 12.46875 20.78125 12.3125 C 20.589844 12.058594 20.375 11.84375 20.113281 11.65625 C 19.65625 11.328125 19.089844 11.140625 18.523438 11.125 C 18.214844 11.113281 17.914062 11.195312 17.605469 11.195312 C 17.46875 11.195312 17.335938 11.1875 17.203125 11.15625 C 17.128906 11.140625 17.054688 11.121094 16.984375 11.101562 C 16.953125 11.089844 16.921875 11.078125 16.894531 11.070312 C 16.800781 11.042969 16.921875 11.085938 16.890625 11.070312 C 16.667969 10.964844 16.457031 10.84375 16.242188 10.730469 C 15.765625 10.484375 15.199219 10.386719 14.664062 10.449219 C 14.328125 10.492188 14.011719 10.582031 13.703125 10.730469 C 13.449219 10.851562 13.222656 11.023438 12.949219 11.105469 C 12.691406 11.183594 12.433594 11.207031 12.164062 11.191406 C 11.882812 11.171875 11.617188 11.109375 11.332031 11.128906 C 10.78125 11.167969 10.25 11.351562 9.808594 11.683594 C 9.578125 11.855469 9.378906 12.054688 9.207031 12.285156 C 9.058594 12.476562 8.910156 12.664062 8.710938 12.808594 C 8.292969 13.121094 7.785156 13.164062 7.320312 13.378906 C 6.851562 13.597656 6.460938 13.957031 6.175781 14.378906 C 6.03125 14.59375 5.917969 14.832031 5.835938 15.074219 C 5.761719 15.304688 5.726562 15.546875 5.621094 15.765625 C 5.507812 15.992188 5.367188 16.195312 5.1875 16.371094 C 5 16.554688 4.769531 16.691406 4.578125 16.875 C 4.191406 17.257812 3.910156 17.761719 3.796875 18.292969 C 3.738281 18.5625 3.714844 18.839844 3.734375 19.117188 C 3.75 19.335938 3.914062 19.523438 4.148438 19.523438 C 4.359375 19.523438 4.574219 19.335938 4.558594 19.117188 Z M 4.558594 19.117188 " fill-opacity="1" fill-rule="nonzero"/></g><path fill="#1D3557" d="M 22.492188 25.578125 C 21.546875 27.847656 19.53125 29.625 17.136719 30.28125 C 14.6875 30.949219 11.96875 30.410156 9.988281 28.835938 C 8.902344 27.972656 8.03125 26.84375 7.503906 25.578125 C 7.371094 25.75 7.238281 25.921875 7.105469 26.09375 L 20.949219 26.09375 C 21.585938 26.09375 22.226562 26.117188 22.863281 26.09375 C 22.871094 26.09375 22.882812 26.09375 22.890625 26.09375 C 23.421875 26.09375 23.421875 25.28125 22.890625 25.28125 L 9.046875 25.28125 C 8.410156 25.28125 7.769531 25.257812 7.132812 25.28125 C 7.125 25.28125 7.117188 25.28125 7.105469 25.28125 C 6.867188 25.28125 6.605469 25.546875 6.710938 25.796875 C 7.769531 28.332031 9.933594 30.320312 12.617188 31.058594 C 15.367188 31.820312 18.34375 31.1875 20.570312 29.429688 C 21.78125 28.472656 22.699219 27.207031 23.289062 25.796875 C 23.375 25.59375 23.195312 25.347656 23 25.292969 C 22.765625 25.230469 22.578125 25.375 22.492188 25.578125 Z M 22.492188 25.578125 " fill-opacity="1" fill-rule="nonzero"/><path fill="#1D3557" d="M 7.503906 19.222656 C 8.449219 16.957031 10.464844 15.175781 12.859375 14.523438 C 15.308594 13.855469 18.027344 14.394531 20.007812 15.96875 C 21.09375 16.832031 21.964844 17.960938 22.492188 19.222656 C 22.625 19.050781 22.757812 18.878906 22.890625 18.707031 L 9.046875 18.707031 C 8.410156 18.707031 7.769531 18.6875 7.132812 18.707031 C 7.125 18.707031 7.117188 18.707031 7.105469 18.707031 C 6.578125 18.707031 6.578125 19.523438 7.105469 19.523438 L 20.949219 19.523438 C 21.585938 19.523438 22.226562 19.546875 22.863281 19.523438 C 22.871094 19.523438 22.882812 19.523438 22.890625 19.523438 C 23.132812 19.523438 23.394531 19.257812 23.289062 19.007812 C 22.230469 16.46875 20.0625 14.484375 17.378906 13.742188 C 14.628906 12.984375 11.652344 13.617188 9.425781 15.375 C 8.21875 16.332031 7.300781 17.59375 6.710938 19.007812 C 6.625 19.210938 6.800781 19.457031 6.996094 19.511719 C 7.234375 19.574219 7.417969 19.429688 7.503906 19.226562 Z M 7.503906 19.222656 " fill-opacity="1" fill-rule="nonzero"/><path fill="#1D3557" d="M 27.519531 22.609375 C 27.996094 23.566406 28.472656 24.527344 28.949219 25.488281 C 29.019531 25.625 29.085938 25.757812 29.152344 25.894531 C 29.269531 25.6875 29.390625 25.484375 29.507812 25.28125 L 26.617188 25.28125 C 25.578125 25.28125 24.542969 25.28125 23.503906 25.28125 C 22.230469 25.28125 20.957031 25.28125 19.683594 25.28125 L 1.667969 25.28125 C 1.292969 25.28125 0.914062 25.261719 0.539062 25.28125 C 0.523438 25.28125 0.503906 25.28125 0.488281 25.28125 C 0.609375 25.484375 0.726562 25.6875 0.84375 25.894531 C 1.328125 24.921875 1.808594 23.953125 2.292969 22.980469 C 2.355469 22.855469 2.417969 22.734375 2.476562 22.609375 C 2.589844 22.363281 2.46875 22.179688 2.363281 21.96875 C 2.085938 21.40625 1.804688 20.84375 1.527344 20.285156 C 1.300781 19.824219 1.074219 19.367188 0.84375 18.910156 C 0.726562 19.113281 0.609375 19.320312 0.488281 19.523438 L 3.378906 19.523438 C 4.417969 19.523438 5.457031 19.523438 6.496094 19.523438 C 7.769531 19.523438 9.039062 19.523438 10.3125 19.523438 C 11.703125 19.523438 13.089844 19.523438 14.480469 19.523438 C 15.867188 19.523438 17.285156 19.523438 18.6875 19.523438 C 20 19.523438 21.3125 19.523438 22.625 19.523438 L 28.332031 19.523438 C 28.707031 19.523438 29.085938 19.539062 29.460938 19.523438 C 29.476562 19.523438 29.492188 19.523438 29.507812 19.523438 C 29.390625 19.320312 29.269531 19.113281 29.152344 18.910156 C 28.675781 19.871094 28.199219 20.832031 27.722656 21.792969 C 27.652344 21.925781 27.585938 22.0625 27.519531 22.195312 C 27.421875 22.394531 27.464844 22.636719 27.667969 22.753906 C 27.847656 22.859375 28.132812 22.804688 28.230469 22.609375 C 28.707031 21.648438 29.183594 20.6875 29.664062 19.726562 C 29.730469 19.589844 29.796875 19.457031 29.863281 19.320312 C 30 19.050781 29.835938 18.707031 29.507812 18.707031 L 26.621094 18.707031 C 25.582031 18.707031 24.542969 18.707031 23.503906 18.707031 C 22.230469 18.707031 20.957031 18.707031 19.683594 18.707031 C 18.296875 18.707031 16.90625 18.707031 15.519531 18.707031 L 1.667969 18.707031 C 1.289062 18.707031 0.914062 18.699219 0.539062 18.707031 C 0.523438 18.707031 0.503906 18.707031 0.488281 18.707031 C 0.160156 18.707031 0 19.050781 0.132812 19.320312 C 0.609375 20.28125 1.089844 21.242188 1.566406 22.203125 C 1.632812 22.335938 1.699219 22.472656 1.765625 22.609375 L 1.765625 22.195312 C 1.289062 23.15625 0.8125 24.117188 0.335938 25.078125 C 0.269531 25.210938 0.199219 25.347656 0.132812 25.480469 C 0 25.753906 0.160156 26.09375 0.488281 26.09375 L 14.480469 26.09375 C 15.882812 26.09375 17.285156 26.09375 18.683594 26.09375 C 19.996094 26.09375 21.3125 26.09375 22.625 26.09375 L 28.332031 26.09375 C 28.707031 26.09375 29.082031 26.101562 29.460938 26.09375 C 29.476562 26.09375 29.492188 26.09375 29.507812 26.09375 C 29.835938 26.09375 30 25.753906 29.863281 25.480469 C 29.386719 24.519531 28.910156 23.5625 28.433594 22.601562 C 28.363281 22.464844 28.296875 22.332031 28.230469 22.195312 C 28.132812 21.996094 27.847656 21.945312 27.667969 22.050781 C 27.464844 22.167969 27.421875 22.410156 27.519531 22.605469 Z M 27.519531 22.609375 " fill-opacity="1" fill-rule="nonzero"/><path fill="#1D3557" d="M 14.984375 15.75 L 14.988281 15.75 C 14.988281 15.75 14.992188 15.75 14.992188 15.75 L 15 15.75 L 15.019531 15.753906 L 15.035156 15.757812 L 15.039062 15.761719 L 15.042969 15.761719 L 15.050781 15.765625 L 15.074219 15.785156 L 15.078125 15.785156 L 15.078125 15.789062 L 15.082031 15.789062 C 15.089844 15.800781 15.097656 15.808594 15.101562 15.824219 L 15.308594 16.265625 C 15.316406 16.285156 15.332031 16.300781 15.347656 16.3125 L 15.367188 16.324219 L 15.375 16.328125 C 15.382812 16.332031 15.394531 16.335938 15.40625 16.335938 L 15.878906 16.40625 C 15.949219 16.417969 15.996094 16.480469 15.988281 16.550781 C 15.984375 16.578125 15.972656 16.601562 15.953125 16.621094 L 15.871094 16.707031 C 15.871094 16.707031 15.597656 16.980469 15.597656 16.980469 C 15.570312 17.007812 15.558594 17.050781 15.5625 17.089844 L 15.648438 17.589844 C 15.652344 17.605469 15.648438 17.617188 15.648438 17.632812 L 15.648438 17.640625 C 15.648438 17.640625 15.640625 17.652344 15.640625 17.652344 L 15.632812 17.671875 L 15.628906 17.679688 L 15.625 17.683594 L 15.613281 17.699219 L 15.597656 17.714844 L 15.589844 17.71875 L 15.578125 17.722656 L 15.558594 17.734375 L 15.550781 17.734375 L 15.542969 17.738281 L 15.523438 17.738281 C 15.523438 17.738281 15.511719 17.738281 15.511719 17.738281 L 15.503906 17.738281 C 15.488281 17.734375 15.472656 17.730469 15.460938 17.722656 L 15.050781 17.492188 C 15.039062 17.488281 15.03125 17.484375 15.019531 17.480469 L 14.988281 17.476562 L 14.957031 17.480469 C 14.945312 17.484375 14.933594 17.488281 14.925781 17.492188 L 14.511719 17.722656 C 14.5 17.730469 14.488281 17.734375 14.472656 17.738281 L 14.46875 17.738281 C 14.46875 17.738281 14.464844 17.738281 14.464844 17.738281 L 14.429688 17.738281 C 14.429688 17.738281 14.425781 17.734375 14.425781 17.734375 L 14.417969 17.734375 L 14.398438 17.722656 L 14.382812 17.71875 L 14.34375 17.679688 L 14.339844 17.671875 L 14.332031 17.652344 L 14.328125 17.640625 L 14.328125 17.636719 C 14.328125 17.636719 14.328125 17.632812 14.328125 17.632812 C 14.324219 17.621094 14.324219 17.605469 14.328125 17.589844 L 14.410156 17.089844 C 14.417969 17.050781 14.40625 17.007812 14.375 16.980469 L 14.164062 16.765625 C 14.164062 16.765625 14.023438 16.621094 14.023438 16.621094 C 14.003906 16.601562 13.992188 16.578125 13.988281 16.550781 C 13.976562 16.484375 14.023438 16.417969 14.09375 16.410156 L 14.570312 16.339844 C 14.582031 16.335938 14.589844 16.332031 14.601562 16.328125 L 14.609375 16.324219 L 14.628906 16.3125 C 14.644531 16.300781 14.65625 16.285156 14.667969 16.265625 L 14.871094 15.824219 C 14.878906 15.8125 14.886719 15.800781 14.894531 15.789062 L 14.898438 15.789062 L 14.898438 15.785156 L 14.902344 15.785156 L 14.921875 15.765625 L 14.929688 15.765625 L 14.933594 15.761719 L 14.941406 15.757812 L 14.957031 15.753906 L 14.976562 15.75 Z M 14.984375 15.75 " fill-opacity="1" fill-rule="evenodd"/><path fill="#1D3557" d="M 17.546875 16.121094 L 17.550781 16.121094 C 17.550781 16.121094 17.554688 16.121094 17.554688 16.121094 L 17.5625 16.125 L 17.578125 16.125 L 17.589844 16.132812 L 17.597656 16.132812 L 17.597656 16.136719 L 17.605469 16.136719 L 17.621094 16.152344 L 17.625 16.152344 L 17.625 16.15625 L 17.628906 16.15625 C 17.636719 16.164062 17.644531 16.175781 17.648438 16.183594 L 17.820312 16.554688 C 17.828125 16.570312 17.839844 16.585938 17.851562 16.59375 L 17.875 16.605469 C 17.882812 16.609375 17.890625 16.613281 17.902344 16.613281 L 18.300781 16.671875 C 18.355469 16.679688 18.398438 16.734375 18.390625 16.792969 C 18.386719 16.816406 18.375 16.835938 18.359375 16.851562 L 18.289062 16.921875 C 18.289062 16.921875 18.0625 17.152344 18.0625 17.152344 C 18.039062 17.175781 18.027344 17.210938 18.035156 17.242188 L 18.105469 17.660156 C 18.105469 17.671875 18.105469 17.683594 18.105469 17.695312 L 18.101562 17.699219 L 18.101562 17.703125 C 18.101562 17.703125 18.097656 17.710938 18.097656 17.710938 L 18.09375 17.730469 L 18.089844 17.734375 L 18.085938 17.742188 L 18.074219 17.75 L 18.066406 17.761719 L 18.058594 17.765625 L 18.054688 17.769531 L 18.042969 17.773438 L 18.027344 17.78125 L 18.023438 17.78125 L 18.015625 17.785156 L 18 17.785156 C 18 17.785156 17.988281 17.785156 17.988281 17.785156 L 17.980469 17.785156 C 17.96875 17.78125 17.957031 17.777344 17.949219 17.773438 L 17.601562 17.582031 C 17.59375 17.574219 17.585938 17.574219 17.578125 17.570312 L 17.550781 17.566406 L 17.523438 17.570312 C 17.515625 17.574219 17.507812 17.574219 17.496094 17.582031 L 17.152344 17.773438 C 17.140625 17.777344 17.128906 17.78125 17.117188 17.785156 C 17.117188 17.785156 17.113281 17.785156 17.113281 17.785156 L 17.082031 17.785156 C 17.082031 17.785156 17.078125 17.78125 17.078125 17.78125 L 17.070312 17.78125 L 17.054688 17.773438 L 17.042969 17.769531 L 17.023438 17.75 L 17.011719 17.742188 L 17.011719 17.734375 L 17.007812 17.730469 L 17 17.710938 L 16.996094 17.703125 L 16.996094 17.699219 C 16.996094 17.699219 16.996094 17.695312 16.996094 17.695312 C 16.992188 17.683594 16.992188 17.671875 16.996094 17.660156 L 17.066406 17.242188 C 17.070312 17.210938 17.058594 17.175781 17.035156 17.152344 L 16.855469 16.972656 C 16.855469 16.972656 16.738281 16.851562 16.738281 16.851562 C 16.722656 16.835938 16.714844 16.816406 16.710938 16.792969 C 16.703125 16.734375 16.742188 16.683594 16.800781 16.671875 L 17.199219 16.613281 C 17.207031 16.613281 17.214844 16.609375 17.222656 16.609375 L 17.230469 16.605469 L 17.246094 16.59375 C 17.261719 16.585938 17.273438 16.570312 17.277344 16.554688 L 17.453125 16.183594 C 17.457031 16.175781 17.464844 16.164062 17.46875 16.15625 L 17.472656 16.15625 L 17.472656 16.152344 L 17.476562 16.152344 L 17.492188 16.136719 L 17.5 16.136719 L 17.503906 16.132812 L 17.507812 16.132812 L 17.519531 16.125 L 17.546875 16.125 Z M 17.546875 16.121094 " fill-opacity="1" fill-rule="evenodd"/><path fill="#1D3557" d="M 12.429688 16.121094 L 12.433594 16.121094 C 12.433594 16.121094 12.4375 16.121094 12.4375 16.121094 L 12.445312 16.125 L 12.460938 16.125 L 12.472656 16.132812 L 12.480469 16.132812 L 12.480469 16.136719 L 12.488281 16.136719 L 12.503906 16.152344 L 12.507812 16.152344 L 12.507812 16.15625 L 12.511719 16.15625 C 12.519531 16.164062 12.523438 16.175781 12.53125 16.183594 L 12.699219 16.554688 C 12.707031 16.570312 12.71875 16.585938 12.734375 16.59375 L 12.746094 16.601562 L 12.753906 16.605469 C 12.761719 16.609375 12.769531 16.613281 12.78125 16.613281 L 13.171875 16.671875 C 13.230469 16.679688 13.269531 16.734375 13.261719 16.792969 C 13.257812 16.816406 13.246094 16.835938 13.230469 16.851562 L 13.164062 16.921875 C 13.164062 16.921875 12.941406 17.152344 12.941406 17.152344 C 12.917969 17.175781 12.90625 17.210938 12.910156 17.242188 L 12.980469 17.660156 C 12.984375 17.671875 12.984375 17.683594 12.980469 17.695312 L 12.980469 17.703125 C 12.980469 17.703125 12.976562 17.710938 12.976562 17.710938 L 12.96875 17.730469 L 12.964844 17.734375 L 12.960938 17.742188 L 12.933594 17.769531 L 12.921875 17.773438 L 12.90625 17.78125 L 12.898438 17.78125 L 12.894531 17.785156 L 12.875 17.785156 C 12.875 17.785156 12.867188 17.785156 12.867188 17.785156 L 12.859375 17.785156 C 12.847656 17.78125 12.835938 17.777344 12.824219 17.773438 L 12.484375 17.582031 C 12.476562 17.574219 12.46875 17.574219 12.460938 17.570312 L 12.433594 17.566406 L 12.40625 17.570312 C 12.398438 17.574219 12.390625 17.574219 12.382812 17.582031 L 12.042969 17.773438 C 12.03125 17.777344 12.019531 17.78125 12.007812 17.785156 L 11.972656 17.785156 C 11.972656 17.785156 11.96875 17.78125 11.96875 17.78125 L 11.960938 17.78125 L 11.949219 17.773438 L 11.933594 17.769531 L 11.925781 17.761719 L 11.917969 17.75 L 11.90625 17.742188 L 11.902344 17.734375 L 11.898438 17.730469 L 11.894531 17.710938 L 11.886719 17.703125 L 11.886719 17.699219 C 11.886719 17.699219 11.886719 17.695312 11.886719 17.695312 C 11.886719 17.683594 11.886719 17.671875 11.886719 17.660156 L 11.957031 17.242188 C 11.960938 17.210938 11.953125 17.175781 11.929688 17.152344 L 11.75 16.972656 C 11.75 16.972656 11.636719 16.851562 11.636719 16.851562 C 11.621094 16.835938 11.609375 16.816406 11.605469 16.792969 C 11.597656 16.734375 11.636719 16.683594 11.695312 16.671875 L 12.089844 16.613281 C 12.097656 16.613281 12.105469 16.609375 12.113281 16.609375 L 12.121094 16.605469 L 12.136719 16.59375 C 12.148438 16.585938 12.160156 16.570312 12.167969 16.554688 L 12.339844 16.183594 C 12.34375 16.175781 12.347656 16.164062 12.355469 16.15625 L 12.359375 16.15625 L 12.359375 16.152344 L 12.363281 16.152344 L 12.378906 16.136719 L 12.386719 16.136719 L 12.390625 16.132812 L 12.394531 16.132812 L 12.40625 16.125 L 12.429688 16.125 Z M 12.429688 16.121094 " fill-opacity="1" fill-rule="evenodd"/><path fill="#1D3557" d="M 14.984375 27.066406 L 14.988281 27.066406 C 14.988281 27.066406 14.992188 27.066406 14.992188 27.066406 L 15 27.070312 L 15.019531 27.070312 L 15.035156 27.078125 L 15.039062 27.078125 L 15.042969 27.082031 L 15.050781 27.085938 L 15.074219 27.101562 L 15.082031 27.109375 C 15.089844 27.117188 15.097656 27.128906 15.101562 27.140625 L 15.308594 27.585938 C 15.316406 27.601562 15.332031 27.621094 15.347656 27.632812 L 15.367188 27.644531 L 15.375 27.648438 C 15.382812 27.652344 15.394531 27.65625 15.40625 27.65625 L 15.878906 27.726562 C 15.949219 27.738281 15.996094 27.800781 15.988281 27.871094 C 15.984375 27.898438 15.972656 27.921875 15.953125 27.941406 L 15.871094 28.023438 C 15.871094 28.023438 15.597656 28.296875 15.597656 28.296875 C 15.570312 28.328125 15.558594 28.367188 15.5625 28.410156 L 15.648438 28.910156 C 15.652344 28.921875 15.648438 28.9375 15.648438 28.953125 L 15.648438 28.960938 C 15.648438 28.960938 15.640625 28.96875 15.640625 28.96875 L 15.632812 28.992188 L 15.628906 28.996094 L 15.625 29.003906 L 15.613281 29.015625 L 15.601562 29.03125 L 15.597656 29.03125 L 15.589844 29.035156 L 15.578125 29.042969 L 15.558594 29.050781 L 15.550781 29.050781 L 15.542969 29.054688 L 15.523438 29.054688 C 15.523438 29.054688 15.511719 29.054688 15.511719 29.054688 L 15.503906 29.054688 C 15.488281 29.050781 15.472656 29.046875 15.460938 29.039062 L 15.050781 28.8125 C 15.039062 28.804688 15.03125 28.800781 15.019531 28.800781 L 14.988281 28.796875 L 14.957031 28.800781 C 14.945312 28.800781 14.933594 28.804688 14.925781 28.8125 L 14.511719 29.039062 C 14.5 29.046875 14.488281 29.050781 14.472656 29.054688 L 14.46875 29.054688 C 14.46875 29.054688 14.464844 29.054688 14.464844 29.054688 L 14.429688 29.054688 C 14.429688 29.054688 14.425781 29.054688 14.425781 29.054688 L 14.417969 29.050781 L 14.398438 29.042969 L 14.382812 29.039062 L 14.375 29.03125 L 14.363281 29.015625 L 14.347656 29.003906 L 14.34375 28.996094 L 14.339844 28.992188 L 14.332031 28.96875 L 14.328125 28.960938 L 14.328125 28.957031 C 14.328125 28.957031 14.328125 28.953125 14.328125 28.953125 C 14.324219 28.9375 14.324219 28.921875 14.328125 28.910156 L 14.410156 28.410156 C 14.417969 28.367188 14.40625 28.328125 14.375 28.300781 L 14.164062 28.082031 C 14.164062 28.082031 14.023438 27.941406 14.023438 27.941406 C 14.003906 27.921875 13.992188 27.898438 13.988281 27.871094 C 13.976562 27.800781 14.023438 27.738281 14.09375 27.726562 L 14.570312 27.65625 C 14.582031 27.65625 14.589844 27.652344 14.601562 27.648438 L 14.609375 27.644531 L 14.628906 27.632812 C 14.644531 27.621094 14.65625 27.605469 14.667969 27.585938 L 14.871094 27.140625 C 14.878906 27.128906 14.886719 27.117188 14.894531 27.109375 L 14.902344 27.101562 L 14.921875 27.085938 L 14.929688 27.082031 L 14.933594 27.078125 L 14.941406 27.078125 L 14.957031 27.070312 L 14.976562 27.070312 Z M 14.984375 27.066406 " fill-opacity="1" fill-rule="evenodd"/><path fill="#1D3557" d="M 17.546875 27.066406 L 17.550781 27.066406 C 17.550781 27.066406 17.554688 27.066406 17.554688 27.066406 L 17.5625 27.070312 L 17.578125 27.070312 L 17.589844 27.074219 L 17.605469 27.082031 L 17.621094 27.097656 L 17.625 27.097656 L 17.628906 27.101562 C 17.636719 27.109375 17.644531 27.117188 17.648438 27.128906 L 17.820312 27.5 C 17.828125 27.515625 17.839844 27.527344 17.851562 27.539062 L 17.875 27.550781 C 17.882812 27.554688 17.890625 27.558594 17.902344 27.558594 L 18.300781 27.617188 C 18.355469 27.625 18.398438 27.679688 18.390625 27.738281 C 18.386719 27.757812 18.375 27.78125 18.359375 27.796875 L 18.289062 27.867188 C 18.289062 27.867188 18.0625 28.09375 18.0625 28.09375 C 18.039062 28.121094 18.027344 28.152344 18.035156 28.1875 L 18.105469 28.605469 C 18.105469 28.617188 18.105469 28.628906 18.105469 28.640625 L 18.101562 28.644531 L 18.101562 28.648438 C 18.101562 28.648438 18.097656 28.65625 18.097656 28.65625 L 18.09375 28.675781 L 18.074219 28.695312 L 18.066406 28.707031 L 18.058594 28.710938 L 18.054688 28.710938 L 18.042969 28.71875 L 18.027344 28.726562 L 18 28.726562 C 18 28.726562 17.988281 28.730469 17.988281 28.730469 L 17.984375 28.726562 L 17.980469 28.726562 C 17.96875 28.726562 17.957031 28.722656 17.949219 28.714844 L 17.601562 28.523438 C 17.59375 28.519531 17.585938 28.515625 17.578125 28.515625 L 17.550781 28.511719 L 17.523438 28.515625 C 17.515625 28.515625 17.507812 28.519531 17.496094 28.523438 L 17.152344 28.714844 C 17.140625 28.722656 17.128906 28.726562 17.117188 28.726562 C 17.117188 28.726562 17.113281 28.730469 17.113281 28.730469 L 17.101562 28.726562 L 17.082031 28.726562 C 17.082031 28.726562 17.078125 28.726562 17.078125 28.726562 L 17.070312 28.726562 L 17.054688 28.71875 L 17.042969 28.710938 L 17.039062 28.710938 L 17.011719 28.683594 L 17.011719 28.679688 L 17.007812 28.675781 L 17 28.65625 L 16.996094 28.648438 L 16.996094 28.644531 C 16.996094 28.644531 16.996094 28.640625 16.996094 28.640625 C 16.992188 28.628906 16.992188 28.617188 16.996094 28.605469 L 17.066406 28.1875 C 17.070312 28.152344 17.058594 28.121094 17.035156 28.097656 L 16.855469 27.914062 C 16.855469 27.914062 16.738281 27.796875 16.738281 27.796875 C 16.722656 27.78125 16.714844 27.761719 16.710938 27.738281 C 16.703125 27.679688 16.742188 27.625 16.800781 27.617188 L 17.199219 27.558594 C 17.207031 27.558594 17.214844 27.554688 17.222656 27.550781 L 17.246094 27.539062 C 17.261719 27.527344 17.273438 27.515625 17.277344 27.5 L 17.453125 27.128906 C 17.457031 27.117188 17.464844 27.109375 17.46875 27.101562 L 17.472656 27.097656 L 17.476562 27.097656 L 17.492188 27.082031 L 17.5 27.078125 L 17.507812 27.078125 L 17.519531 27.070312 L 17.539062 27.070312 Z M 17.546875 27.066406 " fill-opacity="1" fill-rule="evenodd"/><path fill="#1D3557" d="M 12.429688 27.066406 L 12.433594 27.066406 C 12.433594 27.066406 12.4375 27.066406 12.4375 27.066406 L 12.445312 27.070312 L 12.460938 27.070312 L 12.472656 27.074219 L 12.488281 27.082031 L 12.503906 27.097656 L 12.507812 27.097656 L 12.511719 27.101562 C 12.519531 27.109375 12.523438 27.117188 12.53125 27.128906 L 12.699219 27.5 C 12.707031 27.515625 12.71875 27.527344 12.734375 27.539062 L 12.746094 27.546875 L 12.753906 27.550781 C 12.761719 27.554688 12.769531 27.558594 12.78125 27.558594 L 13.171875 27.617188 C 13.230469 27.625 13.269531 27.679688 13.261719 27.738281 C 13.257812 27.757812 13.246094 27.78125 13.230469 27.796875 L 13.164062 27.867188 C 13.164062 27.867188 12.941406 28.09375 12.941406 28.09375 C 12.917969 28.121094 12.90625 28.152344 12.910156 28.1875 L 12.980469 28.605469 C 12.984375 28.617188 12.984375 28.628906 12.980469 28.640625 L 12.980469 28.648438 C 12.980469 28.648438 12.976562 28.65625 12.976562 28.65625 L 12.96875 28.675781 L 12.960938 28.683594 L 12.953125 28.695312 L 12.9375 28.710938 L 12.933594 28.710938 L 12.921875 28.71875 L 12.90625 28.726562 L 12.875 28.726562 C 12.875 28.726562 12.867188 28.730469 12.867188 28.730469 L 12.863281 28.726562 L 12.859375 28.726562 C 12.847656 28.726562 12.835938 28.722656 12.824219 28.714844 L 12.484375 28.523438 C 12.476562 28.519531 12.46875 28.515625 12.460938 28.515625 L 12.433594 28.511719 L 12.40625 28.515625 C 12.398438 28.515625 12.390625 28.519531 12.382812 28.523438 L 12.042969 28.714844 C 12.03125 28.722656 12.019531 28.726562 12.007812 28.726562 L 12.003906 28.726562 C 12.003906 28.726562 12.003906 28.730469 12.003906 28.730469 L 11.992188 28.726562 L 11.972656 28.726562 C 11.972656 28.726562 11.96875 28.726562 11.96875 28.726562 L 11.960938 28.726562 L 11.949219 28.71875 L 11.933594 28.710938 L 11.929688 28.710938 L 11.925781 28.707031 L 11.917969 28.695312 L 11.898438 28.675781 L 11.894531 28.65625 L 11.886719 28.648438 L 11.886719 28.644531 C 11.886719 28.644531 11.886719 28.640625 11.886719 28.640625 C 11.886719 28.628906 11.886719 28.617188 11.886719 28.605469 L 11.957031 28.1875 C 11.960938 28.152344 11.953125 28.121094 11.929688 28.097656 L 11.75 27.914062 C 11.75 27.914062 11.636719 27.796875 11.636719 27.796875 C 11.621094 27.78125 11.609375 27.761719 11.605469 27.738281 C 11.597656 27.679688 11.636719 27.625 11.695312 27.617188 L 12.089844 27.558594 C 12.097656 27.558594 12.105469 27.554688 12.113281 27.550781 L 12.136719 27.539062 C 12.148438 27.527344 12.160156 27.515625 12.167969 27.5 L 12.339844 27.128906 C 12.34375 27.117188 12.347656 27.109375 12.355469 27.101562 L 12.359375 27.097656 L 12.363281 27.097656 L 12.378906 27.082031 L 12.386719 27.078125 L 12.394531 27.078125 L 12.40625 27.070312 L 12.421875 27.070312 Z M 12.429688 27.066406 " fill-opacity="1" fill-rule="evenodd"/><path fill="#1D3557" d="M 18.957031 21.675781 L 18.734375 23.0625 L 19.183594 23.0625 Z M 14.425781 21.308594 C 14.289062 21.308594 14.199219 21.351562 14.152344 21.433594 C 14.105469 21.515625 14.082031 21.636719 14.082031 21.796875 L 14.082031 23.316406 C 14.082031 23.476562 14.105469 23.597656 14.152344 23.683594 C 14.199219 23.765625 14.289062 23.808594 14.425781 23.808594 C 14.5625 23.808594 14.652344 23.765625 14.699219 23.679688 C 14.746094 23.59375 14.769531 23.472656 14.769531 23.316406 L 14.769531 21.796875 C 14.769531 21.636719 14.746094 21.519531 14.699219 21.433594 C 14.652344 21.351562 14.5625 21.3125 14.425781 21.3125 Z M 24.664062 20.90625 L 25.226562 20.90625 L 25.636719 22.214844 L 26.019531 20.90625 L 26.570312 20.90625 L 25.910156 22.949219 L 25.910156 24.207031 L 25.335938 24.207031 L 25.335938 22.949219 Z M 22.921875 20.90625 L 24.566406 20.90625 L 24.566406 21.351562 L 24.054688 21.351562 L 24.054688 24.207031 L 23.449219 24.207031 L 23.449219 21.351562 L 22.921875 21.351562 Z M 22.015625 20.90625 L 22.609375 20.90625 L 22.609375 24.207031 L 22.015625 24.207031 Z M 20.273438 20.90625 L 20.875 20.90625 L 20.875 23.796875 L 21.679688 23.796875 L 21.679688 24.207031 L 20.273438 24.207031 Z M 18.632812 20.90625 L 19.277344 20.90625 L 19.9375 24.207031 L 19.378906 24.207031 L 19.246094 23.445312 L 18.671875 23.445312 L 18.539062 24.207031 L 17.96875 24.207031 Z M 15.796875 20.90625 L 16.386719 20.90625 L 16.386719 23.210938 C 16.386719 23.398438 16.410156 23.546875 16.453125 23.648438 C 16.5 23.753906 16.589844 23.804688 16.730469 23.804688 C 16.867188 23.804688 16.964844 23.753906 17.007812 23.648438 C 17.054688 23.546875 17.078125 23.398438 17.078125 23.210938 L 17.078125 20.90625 L 17.660156 20.90625 L 17.660156 23.140625 C 17.660156 23.386719 17.632812 23.589844 17.578125 23.75 C 17.523438 23.910156 17.429688 24.035156 17.292969 24.121094 C 17.15625 24.210938 16.96875 24.253906 16.730469 24.253906 C 16.488281 24.253906 16.300781 24.210938 16.167969 24.121094 C 16.03125 24.035156 15.933594 23.914062 15.878906 23.75 C 15.824219 23.589844 15.796875 23.386719 15.796875 23.140625 Z M 10.128906 20.90625 L 10.726562 20.90625 L 10.726562 22.285156 L 11.402344 22.285156 L 11.402344 20.90625 L 12.003906 20.90625 L 12.003906 24.207031 L 11.402344 24.207031 L 11.402344 22.714844 L 10.726562 22.714844 L 10.726562 24.207031 L 10.128906 24.207031 Z M 6.730469 20.90625 L 7.328125 20.90625 L 7.328125 24.207031 L 6.730469 24.207031 Z M 4.335938 20.90625 L 4.933594 20.90625 L 4.933594 22.285156 L 5.609375 22.285156 L 5.609375 20.90625 L 6.214844 20.90625 L 6.214844 24.207031 L 5.609375 24.207031 L 5.609375 22.714844 L 4.933594 22.714844 L 4.933594 24.207031 L 4.335938 24.207031 Z M 14.425781 20.871094 C 14.765625 20.871094 15.011719 20.960938 15.15625 21.140625 C 15.304688 21.320312 15.378906 21.582031 15.378906 21.933594 L 15.378906 23.171875 C 15.378906 23.679688 15.226562 24.007812 14.921875 24.152344 C 15.046875 24.308594 15.160156 24.414062 15.25 24.46875 L 15.136719 24.867188 C 15.039062 24.824219 14.929688 24.738281 14.804688 24.621094 C 14.683594 24.5 14.578125 24.375 14.496094 24.25 C 14.480469 24.253906 14.457031 24.253906 14.425781 24.253906 C 14.082031 24.253906 13.839844 24.160156 13.691406 23.976562 C 13.542969 23.792969 13.472656 23.527344 13.472656 23.171875 L 13.472656 21.933594 C 13.472656 21.582031 13.542969 21.320312 13.691406 21.140625 C 13.839844 20.960938 14.082031 20.871094 14.425781 20.871094 Z M 8.726562 20.871094 C 9.050781 20.871094 9.285156 20.949219 9.425781 21.113281 C 9.566406 21.273438 9.640625 21.515625 9.640625 21.832031 L 9.640625 22.003906 L 9.0625 22.003906 L 9.0625 21.816406 C 9.0625 21.695312 9.054688 21.601562 9.039062 21.53125 C 9.027344 21.460938 8.996094 21.40625 8.945312 21.367188 C 8.898438 21.328125 8.828125 21.308594 8.734375 21.308594 C 8.632812 21.308594 8.558594 21.335938 8.507812 21.382812 C 8.460938 21.433594 8.425781 21.496094 8.410156 21.570312 C 8.398438 21.648438 8.390625 21.746094 8.390625 21.871094 L 8.390625 23.25 C 8.390625 23.4375 8.414062 23.578125 8.464844 23.671875 C 8.515625 23.761719 8.609375 23.808594 8.75 23.808594 C 8.886719 23.808594 8.980469 23.761719 9.03125 23.664062 C 9.085938 23.566406 9.113281 23.417969 9.113281 23.222656 L 9.113281 22.914062 L 8.757812 22.914062 L 8.757812 22.535156 L 9.65625 22.535156 L 9.65625 24.210938 L 9.261719 24.210938 L 9.222656 23.886719 C 9.117188 24.132812 8.933594 24.253906 8.664062 24.253906 C 8.351562 24.253906 8.125 24.15625 7.988281 23.960938 C 7.851562 23.769531 7.78125 23.488281 7.78125 23.121094 L 7.78125 22.011719 C 7.78125 21.632812 7.851562 21.347656 7.992188 21.15625 C 8.136719 20.964844 8.378906 20.871094 8.722656 20.871094 Z M 8.726562 20.871094 " fill-opacity="1" fill-rule="evenodd"/></svg>