<svg xmlns="http://www.w3.org/2000/svg" xmlns:xlink="http://www.w3.org/1999/xlink" width="40" zoomAndPan="magnify" viewBox="0 0 30 44.999999" height="60" preserveAspectRatio="xMidYMid meet" version="1.0"><defs><clipPath id="6a2abd8513"><path d="M 0 5.382812 L 30 5.382812 L 30 39.882812 L 0 39.882812 Z M 0 5.382812 " clip-rule="nonzero"/></clipPath></defs><path fill="#1D3557" d="M 14.300781 21.296875 C 14.417969 21.363281 14.515625 21.453125 14.597656 21.558594 C 14.679688 21.667969 14.738281 21.785156 14.769531 21.914062 C 14.804688 22.046875 14.8125 22.175781 14.792969 22.3125 C 14.777344 22.445312 14.734375 22.570312 14.664062 22.683594 C 14.597656 22.800781 14.507812 22.898438 14.402344 22.980469 C 14.296875 23.0625 14.175781 23.121094 14.046875 23.15625 C 13.914062 23.1875 13.785156 23.195312 13.652344 23.179688 C 13.515625 23.160156 13.390625 23.117188 13.277344 23.050781 C 13.160156 22.980469 13.0625 22.894531 12.980469 22.785156 C 12.898438 22.679688 12.839844 22.558594 12.804688 22.429688 C 12.773438 22.300781 12.765625 22.167969 12.78125 22.035156 C 12.800781 21.902344 12.84375 21.777344 12.914062 21.660156 C 12.980469 21.542969 13.066406 21.445312 13.175781 21.363281 C 13.28125 21.28125 13.402344 21.226562 13.53125 21.191406 C 13.660156 21.15625 13.792969 21.148438 13.925781 21.167969 C 14.058594 21.183594 14.183594 21.226562 14.300781 21.296875 Z M 14.300781 21.296875 " fill-opacity="1" fill-rule="nonzero"/><g clip-path="url(#6a2abd8513)"><path fill="#1D3557" d="M 29.761719 9.484375 C 29.976562 9.28125 29.980469 8.9375 29.777344 8.726562 C 29.570312 8.511719 29.226562 8.503906 29.015625 8.710938 C 28.929688 8.792969 20.519531 16.921875 19.308594 17.988281 C 18.75 18.476562 17.6875 18.773438 16.835938 18.679688 L 15.152344 18.488281 C 14.828125 18.441406 14.503906 18.421875 14.175781 18.429688 L 11.285156 18.503906 C 11.28125 18.503906 11.277344 18.503906 11.273438 18.503906 C 10.832031 18.503906 10.488281 18.207031 10.46875 17.804688 C 10.457031 17.59375 10.53125 17.390625 10.679688 17.234375 C 10.824219 17.082031 11.019531 16.992188 11.238281 16.992188 L 16.347656 16.863281 C 16.644531 16.855469 16.878906 16.609375 16.871094 16.3125 C 16.867188 16.015625 16.617188 15.78125 16.320312 15.789062 L 11.21875 15.914062 C 10.710938 15.921875 10.238281 16.128906 9.894531 16.5 C 9.546875 16.867188 9.371094 17.34375 9.394531 17.847656 L 8.085938 18.191406 L 8.578125 17.859375 C 8.824219 17.695312 8.890625 17.359375 8.722656 17.113281 C 8.558594 16.867188 8.222656 16.800781 7.976562 16.96875 L 4.195312 19.503906 C 3.835938 19.75 3.402344 19.839844 2.972656 19.753906 C 2.703125 19.703125 2.460938 19.585938 2.257812 19.417969 L 7.117188 15.464844 C 7.253906 15.367188 7.402344 15.296875 7.5625 15.257812 C 8.46875 15.023438 10.070312 14.429688 11.355469 13.953125 C 12.0625 13.691406 12.859375 13.398438 13.027344 13.359375 C 13.359375 13.324219 16.175781 13.304688 17.792969 13.3125 C 17.800781 13.3125 17.804688 13.3125 17.808594 13.3125 C 18.722656 13.3125 19.59375 12.875 20.144531 12.144531 C 20.144531 12.140625 20.148438 12.136719 20.152344 12.132812 L 24.277344 6.300781 C 24.449219 6.058594 24.394531 5.722656 24.152344 5.550781 C 23.90625 5.378906 23.570312 5.4375 23.398438 5.679688 L 19.277344 11.503906 C 18.929688 11.960938 18.382812 12.234375 17.808594 12.234375 C 17.804688 12.234375 17.800781 12.234375 17.800781 12.234375 C 16.871094 12.230469 13.269531 12.234375 12.867188 12.292969 C 12.667969 12.324219 12.21875 12.488281 10.984375 12.945312 C 9.71875 13.410156 8.148438 13.992188 7.292969 14.214844 C 7 14.289062 6.722656 14.417969 6.476562 14.597656 C 6.464844 14.605469 6.457031 14.609375 6.449219 14.617188 L 1.144531 18.933594 C 0.929688 19.109375 0.882812 19.417969 1.035156 19.648438 C 1.433594 20.257812 2.046875 20.667969 2.761719 20.8125 C 2.835938 20.824219 2.90625 20.835938 2.980469 20.84375 C 2.6875 21.300781 2.46875 21.804688 2.339844 22.34375 C 2.339844 22.359375 2.335938 22.371094 2.332031 22.382812 L 0.828125 31.855469 C 0.625 32.753906 0.832031 33.679688 1.402344 34.402344 C 1.5 34.523438 1.605469 34.640625 1.71875 34.742188 L 0.121094 38.875 C 0.0117188 39.152344 0.152344 39.464844 0.429688 39.574219 C 0.492188 39.597656 0.558594 39.609375 0.621094 39.609375 C 0.839844 39.609375 1.042969 39.476562 1.125 39.265625 L 2.644531 35.335938 C 2.996094 35.476562 3.375 35.550781 3.765625 35.554688 L 6.976562 35.566406 C 6.980469 35.566406 6.984375 35.566406 6.988281 35.566406 C 7.886719 35.566406 8.730469 35.171875 9.308594 34.484375 C 9.886719 33.789062 10.125 32.882812 9.960938 31.992188 L 8.695312 25.125 C 8.640625 24.832031 8.359375 24.640625 8.066406 24.695312 C 7.773438 24.746094 7.582031 25.027344 7.636719 25.320312 L 8.902344 32.1875 C 9.011719 32.761719 8.855469 33.34375 8.484375 33.792969 C 8.109375 34.238281 7.5625 34.496094 6.980469 34.492188 L 3.769531 34.476562 C 3.367188 34.476562 2.980469 34.351562 2.660156 34.125 C 2.65625 34.125 2.652344 34.121094 2.648438 34.117188 C 2.5 34.011719 2.363281 33.882812 2.246094 33.734375 C 1.878906 33.265625 1.742188 32.664062 1.878906 32.082031 C 1.882812 32.070312 1.886719 32.058594 1.886719 32.042969 L 3.394531 22.574219 C 3.703125 21.292969 4.671875 20.257812 5.933594 19.867188 L 9.769531 18.863281 C 10.117188 19.308594 10.675781 19.589844 11.304688 19.578125 L 14.203125 19.507812 C 14.472656 19.5 14.742188 19.515625 15.003906 19.554688 C 15.011719 19.554688 15.015625 19.558594 15.023438 19.558594 L 15.871094 19.652344 L 17.488281 21.839844 C 17.601562 21.992188 17.789062 22.074219 17.976562 22.054688 L 23.441406 21.449219 C 23.496094 21.445312 23.53125 21.464844 23.554688 21.484375 C 23.574219 21.503906 23.601562 21.539062 23.605469 21.589844 L 23.71875 25.25 C 23.683594 26.753906 23.085938 27.605469 21.578125 28.28125 L 13.601562 31.257812 C 13.320312 31.359375 13.179688 31.671875 13.285156 31.949219 C 13.363281 32.164062 13.570312 32.300781 13.789062 32.300781 C 13.851562 32.300781 13.914062 32.289062 13.976562 32.265625 L 16.375 31.371094 C 16.367188 32.015625 16.371094 33.097656 16.421875 34.261719 C 16.539062 36.796875 16.835938 38.507812 17.3125 39.335938 C 17.410156 39.511719 17.59375 39.609375 17.777344 39.609375 C 17.871094 39.609375 17.960938 39.585938 18.046875 39.539062 C 18.304688 39.390625 18.394531 39.0625 18.246094 38.804688 C 17.480469 37.464844 17.414062 32.863281 17.457031 30.96875 L 21.96875 29.285156 C 21.980469 29.28125 21.992188 29.273438 22 29.269531 C 22.867188 28.886719 23.515625 28.417969 23.96875 27.839844 C 24.363281 28.007812 25.09375 28.355469 25.773438 28.914062 C 26.082031 29.167969 26.421875 29.292969 26.761719 29.292969 C 27.101562 29.292969 27.433594 29.171875 27.734375 28.921875 C 28.335938 28.421875 28.71875 27.394531 28.285156 26.605469 C 27.898438 25.902344 26.746094 24.816406 24.785156 24.910156 L 24.679688 21.558594 C 24.667969 21.21875 24.515625 20.894531 24.261719 20.671875 C 24.003906 20.449219 23.664062 20.34375 23.324219 20.382812 L 18.167969 20.949219 L 17.296875 19.769531 C 18.304688 19.742188 19.359375 19.375 20.019531 18.796875 C 21.246094 17.714844 29.414062 9.820312 29.761719 9.484375 Z M 27.339844 27.121094 C 27.480469 27.378906 27.339844 27.851562 27.046875 28.09375 C 26.792969 28.304688 26.597656 28.199219 26.457031 28.082031 C 25.738281 27.492188 24.980469 27.109375 24.5 26.898438 C 24.609375 26.617188 24.6875 26.316406 24.734375 25.992188 C 26.238281 25.886719 27.089844 26.667969 27.339844 27.121094 Z M 27.339844 27.121094 " fill-opacity="1" fill-rule="nonzero"/></g></svg>