<svg xmlns="http://www.w3.org/2000/svg" xmlns:xlink="http://www.w3.org/1999/xlink" width="40" zoomAndPan="magnify" viewBox="0 0 30 44.999999" height="60" preserveAspectRatio="xMidYMid meet" version="1.0"><defs><clipPath id="1dc90605d4"><path d="M 15 31 L 19 31 L 19 32.886719 L 15 32.886719 Z M 15 31 " clip-rule="nonzero"/></clipPath><clipPath id="ff9d7d4a06"><path d="M 10 28 L 16 28 L 16 32.886719 L 10 32.886719 Z M 10 28 " clip-rule="nonzero"/></clipPath><clipPath id="803ae98b75"><path d="M 0 11.886719 L 30 11.886719 L 30 32 L 0 32 Z M 0 11.886719 " clip-rule="nonzero"/></clipPath></defs><path fill="#1D3557" d="M 23.746094 15.960938 C 23.980469 16.007812 24.210938 16.074219 24.445312 16.167969 C 24.90625 16.296875 25.351562 16.488281 25.730469 16.753906 C 26.332031 17.097656 26.871094 17.53125 27.285156 18.066406 C 27.285156 18.066406 27.289062 18.066406 27.289062 18.066406 C 27.335938 18.066406 27.378906 18.070312 27.410156 18.078125 C 26.597656 16.417969 24.636719 15.519531 22.785156 15.421875 C 21.632812 15.355469 20.46875 15.558594 19.40625 16.015625 C 18.882812 16.238281 18.375 16.542969 17.957031 16.925781 C 17.761719 17.101562 17.582031 17.300781 17.433594 17.519531 C 17.289062 17.742188 17.207031 18.027344 17.128906 18.277344 C 17.09375 18.367188 17.242188 18.433594 17.277344 18.335938 C 17.441406 17.894531 17.84375 17.480469 18.207031 17.175781 C 18.582031 16.871094 19.007812 16.648438 19.449219 16.449219 C 20.167969 16.140625 20.953125 15.949219 21.738281 15.890625 C 22.199219 15.8125 22.671875 15.824219 23.140625 15.910156 C 23.347656 15.917969 23.546875 15.929688 23.746094 15.960938 Z M 23.746094 15.960938 " fill-opacity="1" fill-rule="nonzero"/><g clip-path="url(#1dc90605d4)"><path fill="#1D3557" d="M 18.308594 31.351562 C 18.261719 31.316406 18.207031 31.277344 18.160156 31.246094 C 17.1875 31.753906 16.195312 32.222656 15.183594 32.636719 C 15.070312 32.683594 15.117188 32.867188 15.242188 32.847656 C 16.4375 32.65625 17.507812 32.15625 18.554688 31.589844 C 18.574219 31.582031 18.589844 31.570312 18.609375 31.5625 C 18.5 31.503906 18.402344 31.429688 18.308594 31.351562 Z M 18.308594 31.351562 " fill-opacity="1" fill-rule="nonzero"/></g><path fill="#1D3557" d="M 21.765625 29.136719 C 21.738281 29.148438 21.71875 29.164062 21.691406 29.167969 C 21.6875 29.175781 21.679688 29.183594 21.671875 29.183594 C 21.1875 29.5 20.695312 29.808594 20.195312 30.105469 C 20.214844 30.152344 20.226562 30.191406 20.246094 30.238281 C 20.28125 30.308594 20.308594 30.375 20.3125 30.46875 C 20.320312 30.515625 20.328125 30.554688 20.328125 30.597656 C 20.746094 30.355469 21.160156 30.113281 21.566406 29.855469 C 23.339844 28.753906 25.03125 27.449219 26.246094 25.761719 C 26.171875 25.761719 26.097656 25.765625 26.019531 25.765625 C 24.777344 27.097656 23.339844 28.210938 21.765625 29.136719 Z M 21.765625 29.136719 " fill-opacity="1" fill-rule="nonzero"/><g clip-path="url(#ff9d7d4a06)"><path fill="#1D3557" d="M 15.203125 32.648438 C 13.929688 31.660156 12.722656 30.578125 11.597656 29.433594 C 11.292969 29.351562 11.003906 29.234375 10.738281 29.089844 C 10.730469 29.089844 10.726562 29.082031 10.710938 29.082031 C 10.652344 29.078125 10.585938 29.050781 10.53125 29.015625 C 10.511719 29.003906 10.492188 28.992188 10.464844 28.984375 C 11.046875 29.589844 11.636719 30.175781 12.246094 30.757812 C 13.105469 31.574219 13.992188 32.347656 15.089844 32.839844 C 15.203125 32.886719 15.296875 32.722656 15.203125 32.648438 Z M 15.203125 32.648438 " fill-opacity="1" fill-rule="nonzero"/></g><path fill="#1D3557" d="M 17.203125 17.5 C 17.121094 17.246094 17.003906 17.011719 16.863281 16.792969 C 16.5625 16.3125 16.15625 15.890625 15.714844 15.535156 C 14.824219 14.816406 13.757812 14.3125 12.632812 14.070312 C 10.9375 13.707031 8.960938 13.992188 7.699219 15.15625 C 8.679688 14.636719 9.804688 14.367188 10.839844 14.4375 C 10.84375 14.4375 10.84375 14.4375 10.851562 14.4375 C 11.578125 14.394531 12.3125 14.464844 12.964844 14.636719 C 13.910156 14.882812 14.804688 15.335938 15.554688 15.941406 C 15.929688 16.246094 16.277344 16.574219 16.550781 16.964844 C 16.824219 17.351562 17.089844 17.855469 17.128906 18.328125 C 17.136719 18.433594 17.296875 18.410156 17.289062 18.308594 C 17.277344 18.039062 17.28125 17.75 17.203125 17.5 Z M 17.203125 17.5 " fill-opacity="1" fill-rule="nonzero"/><g clip-path="url(#803ae98b75)"><path fill="#1D3557" d="M 26.957031 25.9375 C 27.378906 26.011719 27.769531 26.164062 28.175781 26.292969 C 28.285156 26.328125 28.398438 26.367188 28.503906 26.40625 C 28.351562 26.222656 28.117188 26.128906 27.902344 26.03125 C 27.597656 25.898438 27.277344 25.792969 26.949219 25.71875 C 26.683594 25.660156 26.402344 25.632812 26.125 25.640625 C 25.511719 25.621094 24.933594 25.867188 24.34375 26.042969 C 24.011719 26.140625 23.660156 26.222656 23.3125 26.15625 C 23.359375 26.070312 23.40625 25.984375 23.453125 25.898438 C 23.511719 25.785156 23.359375 25.6875 23.265625 25.753906 C 23.046875 25.910156 22.785156 25.992188 22.527344 25.996094 C 22.699219 25.773438 22.746094 25.496094 22.753906 25.207031 C 22.753906 25.128906 22.625 25.074219 22.585938 25.152344 C 22.527344 25.273438 22.425781 25.378906 22.3125 25.476562 C 22.28125 25.503906 22.238281 25.527344 22.207031 25.550781 C 22.09375 25.628906 21.988281 25.707031 21.878906 25.785156 C 21.660156 25.945312 21.421875 26.089844 21.160156 26.1875 C 20.894531 26.289062 20.605469 26.320312 20.320312 26.308594 C 20.160156 26.300781 20.007812 26.28125 19.847656 26.269531 C 19.769531 26.261719 19.6875 26.253906 19.609375 26.246094 C 19.761719 26.003906 19.828125 25.679688 19.59375 25.476562 C 19.5625 25.445312 19.519531 25.457031 19.488281 25.476562 C 19.453125 25.484375 19.433594 25.507812 19.421875 25.550781 C 19.339844 25.785156 19.207031 26.011719 18.988281 26.140625 C 18.769531 26.273438 18.476562 26.289062 18.253906 26.148438 C 18.261719 26.136719 18.269531 26.121094 18.269531 26.109375 C 18.320312 25.996094 18.394531 25.890625 18.480469 25.792969 C 18.679688 25.574219 18.960938 25.417969 19.214844 25.265625 C 19.273438 25.234375 19.226562 25.121094 19.160156 25.140625 C 18.769531 25.246094 18.386719 25.449219 18.148438 25.792969 C 18.09375 25.871094 18.042969 25.957031 18.007812 26.042969 C 17.730469 26.148438 17.460938 26.308594 17.195312 26.4375 C 16.949219 26.5625 16.703125 26.675781 16.449219 26.78125 C 16.296875 26.820312 16.136719 26.855469 15.984375 26.886719 C 15.476562 26.992188 14.964844 27.058594 14.449219 27.078125 C 13.765625 27.113281 13.050781 27.078125 12.363281 26.953125 C 12.304688 26.945312 12.246094 26.933594 12.183594 26.925781 C 11.804688 26.855469 11.40625 26.753906 11.050781 26.609375 C 10.945312 26.5625 10.859375 26.511719 10.773438 26.445312 C 10.652344 26.375 10.546875 26.28125 10.445312 26.175781 C 10.140625 25.851562 9.90625 25.4375 9.800781 25 C 9.765625 24.929688 9.734375 24.851562 9.707031 24.777344 C 9.765625 24.785156 9.824219 24.785156 9.878906 24.777344 C 9.886719 24.777344 9.890625 24.769531 9.890625 24.769531 C 10.1875 24.726562 10.464844 24.539062 10.605469 24.28125 C 10.679688 24.144531 10.707031 23.992188 10.679688 23.839844 C 10.660156 23.734375 10.613281 23.5625 10.511719 23.511719 C 10.503906 23.511719 10.503906 23.503906 10.5 23.503906 C 10.492188 23.503906 10.480469 23.5 10.472656 23.5 C 10.417969 23.484375 10.378906 23.53125 10.40625 23.578125 C 10.511719 23.753906 10.558594 23.960938 10.472656 24.152344 C 10.230469 24.269531 10.003906 24.347656 9.726562 24.347656 C 9.441406 24.347656 9.191406 24.25 8.933594 24.164062 C 9.007812 24.105469 9.078125 24.039062 9.160156 23.980469 C 9.613281 23.628906 10.105469 23.375 10.679688 23.292969 C 11.265625 23.214844 11.859375 23.234375 12.445312 23.148438 C 12.785156 23.101562 13.117188 23.03125 13.449219 22.953125 C 13.75 22.871094 14.082031 22.800781 14.351562 22.640625 C 14.371094 22.628906 14.371094 22.613281 14.371094 22.601562 C 14.0625 22.679688 13.757812 22.742188 13.445312 22.78125 C 13.445312 22.78125 13.4375 22.78125 13.4375 22.78125 C 13.429688 22.78125 13.417969 22.78125 13.410156 22.78125 C 13.191406 22.804688 12.972656 22.820312 12.75 22.824219 C 12.382812 22.839844 12.019531 22.839844 11.652344 22.867188 C 11.292969 22.890625 10.9375 22.9375 10.597656 23.050781 C 10.484375 23.082031 10.378906 23.121094 10.265625 23.167969 C 10.199219 23.1875 10.132812 23.207031 10.058594 23.226562 C 9.757812 23.328125 9.480469 23.480469 9.226562 23.648438 C 9.085938 23.742188 8.953125 23.839844 8.820312 23.945312 C 8.714844 24.03125 8.554688 24.132812 8.492188 24.261719 C 8.351562 24.574219 8.832031 24.652344 9.027344 24.707031 C 9.085938 24.71875 9.140625 24.730469 9.199219 24.746094 C 9.199219 24.75 9.207031 24.75 9.207031 24.757812 C 9.371094 25.007812 9.5 25.285156 9.640625 25.550781 C 9.644531 25.570312 9.660156 25.589844 9.671875 25.609375 C 9.6875 25.632812 9.707031 25.667969 9.71875 25.695312 C 9.578125 25.640625 9.441406 25.59375 9.300781 25.542969 C 9.121094 25.46875 8.945312 25.390625 8.773438 25.304688 C 8.421875 25.128906 8.074219 24.921875 7.765625 24.671875 C 7.460938 24.429688 7.1875 24.136719 6.980469 23.808594 C 6.867188 23.628906 6.773438 23.4375 6.726562 23.234375 C 6.699219 23.128906 6.6875 23.015625 6.695312 22.910156 C 6.699219 22.824219 6.722656 22.753906 6.742188 22.667969 C 6.886719 22.660156 7.039062 22.640625 7.179688 22.609375 C 7.378906 22.5625 7.519531 22.464844 7.566406 22.253906 C 7.582031 22.1875 7.585938 22.121094 7.585938 22.054688 C 7.59375 22.015625 7.585938 21.96875 7.574219 21.921875 C 7.558594 21.824219 7.527344 21.730469 7.480469 21.652344 C 7.433594 21.574219 7.367188 21.480469 7.28125 21.414062 C 8.171875 21.050781 9.085938 20.742188 10.039062 20.589844 C 10.378906 20.539062 10.71875 20.503906 11.066406 20.5 C 11.324219 20.492188 11.585938 20.511719 11.851562 20.519531 C 11.558594 20.453125 11.257812 20.40625 10.953125 20.394531 C 10.820312 20.386719 10.683594 20.386719 10.558594 20.386719 C 10.3125 20.398438 10.074219 20.417969 9.824219 20.445312 C 9.300781 20.511719 8.78125 20.605469 8.273438 20.75 C 8.125 20.800781 7.988281 20.855469 7.847656 20.90625 C 7.515625 21.039062 7.179688 21.171875 6.847656 21.304688 C 6.753906 21.34375 6.660156 21.375 6.566406 21.414062 C 6.554688 21.414062 6.546875 21.414062 6.535156 21.414062 C 6.46875 21.410156 6.394531 21.382812 6.339844 21.335938 C 6.269531 21.269531 6.269531 21.175781 6.292969 21.078125 C 6.3125 21.046875 6.335938 21.011719 6.355469 20.988281 C 6.496094 20.808594 6.722656 20.675781 6.921875 20.570312 C 6.960938 20.550781 7 20.53125 7.039062 20.511719 C 7.128906 20.480469 7.214844 20.445312 7.292969 20.414062 C 7.847656 20.195312 8.414062 20.003906 9 19.898438 C 9.066406 19.886719 9.125 19.878906 9.191406 19.867188 C 9.199219 19.867188 9.207031 19.867188 9.214844 19.867188 C 9.257812 19.859375 9.3125 19.847656 9.367188 19.847656 C 10.492188 19.71875 11.617188 19.9375 12.746094 20.070312 C 14.738281 20.300781 16.761719 20.417969 18.761719 20.269531 C 18.875 20.261719 18.980469 20.261719 19.09375 20.253906 C 19.460938 20.234375 19.820312 20.203125 20.179688 20.167969 C 20.921875 20.097656 21.652344 20.015625 22.386719 19.90625 C 23.03125 19.8125 23.644531 19.632812 24.246094 19.390625 C 24.8125 19.160156 25.359375 18.890625 25.925781 18.652344 C 26.023438 18.613281 26.125 18.574219 26.222656 18.535156 C 26.417969 18.472656 26.609375 18.421875 26.804688 18.375 C 26.816406 18.367188 26.835938 18.367188 26.851562 18.363281 C 27.402344 18.21875 27.988281 18.144531 28.5625 18.164062 C 29.054688 18.175781 29.523438 18.304688 29.996094 18.414062 C 29.996094 18.363281 29.976562 18.308594 29.914062 18.28125 C 29.535156 18.113281 29.121094 18.019531 28.703125 17.980469 C 28.324219 17.925781 27.945312 17.90625 27.558594 17.921875 C 27.4375 17.921875 27.316406 17.925781 27.195312 17.941406 C 27.089844 17.941406 26.984375 17.953125 26.898438 17.960938 C 26.699219 17.972656 26.496094 18.007812 26.304688 18.046875 C 25.898438 18.132812 25.492188 18.261719 25.105469 18.402344 C 24.492188 18.625 23.890625 18.882812 23.285156 19.132812 C 22.773438 19.273438 22.265625 19.429688 21.753906 19.550781 C 21.152344 19.6875 20.546875 19.800781 19.941406 19.878906 C 18.703125 20.042969 17.441406 20.097656 16.195312 20.070312 C 15.828125 20.0625 15.46875 20.050781 15.101562 20.03125 C 14.910156 19.804688 14.691406 19.601562 14.476562 19.398438 C 14.230469 19.160156 13.984375 18.929688 13.730469 18.710938 C 13.476562 18.492188 13.21875 18.277344 12.949219 18.066406 C 12.851562 17.941406 12.691406 17.847656 12.570312 17.75 C 12.398438 17.609375 12.226562 17.472656 12.058594 17.332031 C 11.730469 17.0625 11.40625 16.792969 11.058594 16.542969 C 10.390625 16.054688 9.660156 15.632812 8.847656 15.453125 C 8.71875 15.429688 8.601562 15.410156 8.472656 15.394531 C 8.425781 15.367188 8.375 15.335938 8.332031 15.308594 C 8.171875 15.199219 8.027344 15.078125 7.878906 14.945312 C 7.582031 14.667969 7.3125 14.347656 7.066406 14.023438 C 6.601562 13.410156 6.199219 12.738281 5.882812 12.039062 C 5.839844 11.988281 5.792969 11.941406 5.753906 11.894531 C 5.742188 11.894531 5.734375 11.886719 5.722656 11.886719 C 5.714844 11.921875 5.714844 11.960938 5.707031 12 C 5.722656 12.058594 5.742188 12.125 5.753906 12.183594 C 5.773438 12.269531 5.792969 12.355469 5.820312 12.441406 C 5.914062 12.640625 6.015625 12.832031 6.121094 13.023438 C 6.535156 13.746094 7.019531 14.445312 7.613281 15.03125 C 7.742188 15.15625 7.875 15.277344 8.019531 15.386719 C 7.945312 15.394531 7.867188 15.402344 7.792969 15.414062 C 7.253906 15.375 6.695312 15.402344 6.179688 15.507812 C 6.148438 15.515625 6.148438 15.566406 6.179688 15.566406 C 6.859375 15.613281 7.546875 15.574219 8.226562 15.679688 C 8.933594 15.789062 9.574219 16.046875 10.179688 16.417969 C 11.320312 17.101562 12.40625 17.894531 13.410156 18.75 C 13.691406 18.988281 13.964844 19.226562 14.230469 19.46875 C 14.429688 19.648438 14.625 19.847656 14.824219 20.023438 C 14.039062 19.976562 13.25 19.898438 12.464844 19.8125 C 11.804688 19.734375 11.144531 19.632812 10.480469 19.601562 C 10.050781 19.582031 9.632812 19.601562 9.214844 19.660156 C 9.171875 19.648438 9.132812 19.628906 9.09375 19.613281 C 8.980469 19.5625 8.878906 19.488281 8.785156 19.410156 C 8.699219 19.332031 8.621094 19.234375 8.558594 19.132812 C 8.5 19.027344 8.460938 18.910156 8.394531 18.8125 C 8.359375 18.757812 8.28125 18.785156 8.273438 18.84375 C 8.234375 19.101562 8.441406 19.390625 8.613281 19.5625 C 8.667969 19.613281 8.738281 19.675781 8.820312 19.734375 C 8.738281 19.746094 8.667969 19.765625 8.585938 19.785156 C 7.941406 19.945312 7.273438 20.164062 6.6875 20.480469 C 6.621094 20.519531 6.554688 20.558594 6.488281 20.609375 C 6.460938 20.628906 6.433594 20.644531 6.40625 20.664062 C 6.3125 20.730469 6.222656 20.808594 6.148438 20.902344 C 6.148438 20.894531 6.132812 20.886719 6.128906 20.886719 C 5.859375 20.921875 5.582031 21.222656 5.648438 21.492188 C 5.675781 21.605469 5.761719 21.683594 5.875 21.730469 C 5.722656 21.824219 5.609375 21.96875 5.542969 22.132812 C 5.519531 22.503906 6.085938 22.632812 6.386719 22.675781 C 6.386719 22.910156 6.425781 23.15625 6.460938 23.394531 C 6.472656 23.464844 6.480469 23.539062 6.5 23.605469 C 6.355469 23.578125 6.179688 23.605469 6.074219 23.617188 C 5.839844 23.648438 5.628906 23.742188 5.453125 23.902344 C 5.433594 23.921875 5.429688 23.953125 5.441406 23.972656 C 5.789062 23.808594 6.167969 23.703125 6.535156 23.777344 C 6.539062 23.796875 6.546875 23.816406 6.554688 23.835938 C 6.554688 23.839844 6.5625 23.855469 6.566406 23.859375 C 6.566406 23.875 6.574219 23.886719 6.582031 23.902344 C 6.585938 23.925781 6.601562 23.960938 6.621094 23.988281 C 6.628906 24.007812 6.632812 24.019531 6.640625 24.039062 C 6.808594 24.421875 7.074219 24.757812 7.394531 25.027344 C 7.746094 25.324219 8.160156 25.550781 8.59375 25.714844 C 8.707031 25.761719 8.828125 25.800781 8.941406 25.839844 C 8.917969 25.839844 8.898438 25.847656 8.886719 25.847656 C 8.59375 25.890625 8.28125 26.011719 8.105469 26.269531 C 8.195312 26.207031 8.292969 26.164062 8.386719 26.121094 C 8.601562 26.035156 8.828125 25.976562 9.054688 25.957031 C 9.285156 25.9375 9.539062 25.953125 9.765625 26.015625 C 9.824219 26.035156 9.886719 26.0625 9.925781 26.097656 C 9.960938 26.148438 9.992188 26.203125 10.03125 26.253906 C 10.144531 26.40625 10.277344 26.542969 10.425781 26.65625 C 10.457031 26.683594 10.503906 26.714844 10.546875 26.75 C 10.660156 26.835938 10.773438 26.921875 10.890625 26.992188 C 10.785156 27.011719 10.683594 27.046875 10.585938 27.078125 C 10.324219 27.175781 9.945312 27.347656 9.90625 27.660156 C 9.90625 27.664062 9.90625 27.664062 9.90625 27.671875 C 9.933594 27.640625 9.960938 27.605469 9.992188 27.574219 C 10.046875 27.507812 10.113281 27.453125 10.1875 27.402344 C 10.457031 27.203125 10.804688 27.105469 11.125 27.15625 C 11.132812 27.15625 11.136719 27.15625 11.144531 27.15625 C 11.160156 27.15625 11.171875 27.15625 11.183594 27.15625 C 11.210938 27.171875 11.238281 27.183594 11.257812 27.199219 C 11.273438 27.203125 11.292969 27.210938 11.304688 27.21875 C 11.386719 27.242188 11.464844 27.28125 11.539062 27.324219 C 11.683594 27.382812 11.839844 27.429688 11.992188 27.472656 C 12.097656 27.5 12.210938 27.527344 12.316406 27.554688 C 12.542969 27.644531 12.757812 27.757812 12.964844 27.902344 C 13.257812 28.105469 13.5625 28.378906 13.644531 28.746094 C 13.71875 29.101562 13.558594 29.457031 13.191406 29.558594 C 12.882812 29.636719 12.558594 29.5625 12.257812 29.5 C 10.851562 29.175781 9.480469 28.660156 8.21875 27.960938 C 6.960938 27.261719 5.808594 26.367188 4.863281 25.292969 C 3.914062 24.21875 3.234375 22.964844 2.570312 21.707031 C 2.203125 21.011719 1.835938 20.328125 1.417969 19.660156 C 1.203125 19.324219 0.984375 18.996094 0.738281 18.683594 C 0.570312 18.472656 0.398438 18.257812 0.199219 18.070312 C 0.128906 18.039062 0.0703125 18.011719 0.00390625 17.992188 C 0.0234375 18.050781 0.0429688 18.117188 0.0703125 18.175781 C 0.230469 18.375 0.398438 18.574219 0.550781 18.777344 C 0.769531 19.074219 0.984375 19.371094 1.175781 19.6875 C 1.523438 20.234375 1.828125 20.796875 2.128906 21.367188 C 2.324219 21.949219 2.601562 22.488281 2.890625 23.023438 C 3.25 23.695312 3.609375 24.375 4.054688 24.996094 C 4.835938 26.078125 5.855469 26.972656 6.992188 27.671875 C 7.640625 28.066406 8.332031 28.429688 9.058594 28.667969 C 9.074219 28.675781 9.078125 28.675781 9.085938 28.675781 C 10.152344 29.175781 11.285156 29.558594 12.429688 29.78125 C 12.746094 29.839844 13.089844 29.875 13.390625 29.742188 C 13.703125 29.605469 13.882812 29.300781 13.890625 28.972656 C 13.902344 28.390625 13.464844 27.957031 12.976562 27.660156 C 13.390625 27.691406 13.8125 27.691406 14.222656 27.660156 C 14.242188 27.660156 14.265625 27.660156 14.277344 27.652344 C 14.515625 27.8125 14.796875 27.894531 15.082031 27.976562 C 14.996094 28 14.917969 28.042969 14.855469 28.066406 C 14.644531 28.171875 14.46875 28.339844 14.355469 28.542969 C 14.351562 28.554688 14.355469 28.5625 14.363281 28.570312 C 14.515625 28.339844 14.785156 28.179688 15.042969 28.101562 C 15.101562 28.082031 15.164062 28.066406 15.222656 28.0625 C 15.402344 28.023438 15.597656 28.054688 15.777344 28.113281 C 15.894531 28.152344 16.015625 28.207031 16.136719 28.257812 C 16.347656 28.351562 16.550781 28.484375 16.734375 28.613281 C 16.789062 28.65625 16.84375 28.695312 16.890625 28.734375 C 17.089844 28.878906 17.253906 29.082031 17.367188 29.289062 C 17.429688 29.386719 17.480469 29.5 17.515625 29.605469 C 17.617188 29.855469 17.628906 30.117188 17.46875 30.367188 C 17.308594 30.621094 17.023438 30.660156 16.742188 30.632812 C 16.429688 30.597656 16.117188 30.527344 15.808594 30.449219 C 15.4375 30.363281 15.078125 30.25 14.710938 30.132812 C 14.355469 30.011719 14.003906 29.867188 13.644531 29.769531 C 13.617188 29.761719 13.597656 29.800781 13.625 29.820312 C 13.925781 30.019531 14.257812 30.152344 14.589844 30.277344 C 14.929688 30.402344 15.277344 30.515625 15.621094 30.605469 C 15.960938 30.699219 16.316406 30.789062 16.667969 30.835938 C 16.9375 30.871094 17.214844 30.855469 17.441406 30.707031 C 17.617188 30.949219 17.855469 31.152344 18.089844 31.332031 C 18.347656 31.535156 18.628906 31.726562 18.941406 31.847656 C 19.222656 31.953125 19.546875 32.003906 19.835938 31.886719 C 20.113281 31.765625 20.308594 31.503906 20.402344 31.226562 C 20.613281 30.605469 20.414062 29.933594 20.035156 29.417969 C 19.746094 29.035156 19.375 28.734375 18.980469 28.464844 C 19.214844 28.554688 19.449219 28.632812 19.695312 28.699219 C 19.960938 28.773438 20.265625 28.859375 20.554688 28.867188 C 20.59375 28.867188 20.640625 28.867188 20.679688 28.859375 C 20.714844 28.859375 20.746094 28.851562 20.78125 28.847656 C 20.792969 28.847656 20.808594 28.847656 20.820312 28.847656 C 20.886719 28.839844 20.953125 28.820312 21.019531 28.800781 C 21.054688 28.785156 21.082031 28.773438 21.113281 28.761719 C 21.234375 28.6875 21.320312 28.574219 21.394531 28.449219 C 21.601562 28.066406 21.621094 27.632812 21.398438 27.25 C 21.246094 26.988281 20.988281 26.730469 20.695312 26.570312 C 20.878906 26.558594 21.066406 26.519531 21.246094 26.457031 C 21.511719 26.367188 21.765625 26.222656 22 26.0625 C 22.09375 25.996094 22.191406 25.925781 22.28125 25.851562 C 22.238281 25.90625 22.191406 25.953125 22.132812 25.996094 C 22.046875 26.058594 22.09375 26.183594 22.1875 26.203125 C 22.472656 26.261719 22.765625 26.234375 23.03125 26.136719 L 23.007812 26.183594 C 22.980469 26.234375 23.011719 26.320312 23.074219 26.339844 C 23.617188 26.511719 24.160156 26.386719 24.691406 26.226562 C 25.398438 25.890625 26.199219 25.804688 26.957031 25.9375 Z M 5.808594 21.433594 C 5.628906 21.203125 5.960938 21.039062 6.121094 20.925781 C 6.121094 20.925781 6.113281 20.933594 6.113281 20.933594 C 6.082031 21.019531 6.046875 21.113281 6.042969 21.203125 C 6.035156 21.324219 6.066406 21.429688 6.101562 21.535156 C 6 21.539062 5.894531 21.539062 5.808594 21.433594 Z M 6.320312 22.238281 C 6.292969 22.238281 6.261719 22.234375 6.226562 22.226562 C 6.175781 22.21875 6.128906 22.210938 6.082031 22.191406 C 6.019531 22.167969 5.980469 22.128906 5.96875 22.082031 C 5.960938 22.066406 5.960938 22.046875 5.960938 22.027344 C 5.960938 22.027344 5.953125 22.023438 5.953125 22.023438 C 5.960938 22.015625 5.960938 22.007812 5.96875 22.007812 C 5.972656 21.976562 5.996094 21.941406 6.027344 21.910156 C 6.128906 21.8125 6.28125 21.75 6.425781 21.710938 C 6.5 21.683594 6.585938 21.660156 6.667969 21.644531 C 6.820312 21.597656 7 21.578125 7.152344 21.621094 C 7.402344 21.691406 7.441406 21.976562 7.226562 22.113281 C 6.96875 22.265625 6.601562 22.265625 6.320312 22.238281 Z M 18.996094 28.660156 C 19.109375 28.746094 19.214844 28.839844 19.316406 28.945312 C 19.359375 28.992188 19.40625 29.035156 19.453125 29.082031 C 19.527344 29.164062 19.601562 29.253906 19.667969 29.347656 C 20.027344 29.742188 20.289062 30.238281 20.261719 30.777344 C 20.253906 30.863281 20.246094 30.941406 20.226562 31.027344 C 20.214844 31.066406 20.199219 31.105469 20.179688 31.148438 C 20.113281 31.273438 20.007812 31.371094 19.894531 31.449219 C 19.613281 31.640625 19.269531 31.582031 18.960938 31.476562 C 18.6875 31.382812 18.441406 31.238281 18.222656 31.054688 C 18.007812 30.875 17.875 30.644531 17.707031 30.433594 C 17.921875 30.070312 17.84375 29.585938 17.621094 29.234375 C 17.457031 28.964844 17.207031 28.742188 16.957031 28.535156 C 16.695312 28.324219 16.414062 28.132812 16.101562 28 C 15.65625 27.816406 15.167969 27.738281 14.710938 27.578125 C 15.242188 27.515625 15.761719 27.386719 16.269531 27.222656 C 16.375 27.191406 16.484375 27.152344 16.589844 27.113281 C 16.816406 27.210938 17.027344 27.316406 17.222656 27.480469 C 17.441406 27.660156 17.648438 27.84375 17.882812 28.007812 C 17.835938 28.015625 17.796875 28.023438 17.753906 28.027344 C 17.535156 28.082031 17.320312 28.148438 17.136719 28.277344 C 17.308594 28.179688 17.589844 28.113281 17.660156 28.101562 C 17.6875 28.09375 17.707031 28.09375 17.734375 28.09375 C 18.207031 28.023438 18.660156 28.359375 18.996094 28.660156 Z M 20.800781 26.925781 C 20.988281 27.066406 21.148438 27.230469 21.246094 27.441406 C 21.332031 27.625 21.351562 27.902344 21.292969 28.148438 C 21.246094 28.304688 21.148438 28.417969 21.027344 28.488281 C 20.960938 28.535156 20.886719 28.570312 20.792969 28.59375 C 20.425781 28.679688 20.019531 28.535156 19.679688 28.421875 C 19.207031 28.273438 18.769531 28.066406 18.328125 27.84375 C 18.222656 27.789062 18.121094 27.730469 18.023438 27.664062 C 17.910156 27.597656 17.78125 27.535156 17.6875 27.449219 C 17.601562 27.386719 17.523438 27.328125 17.433594 27.261719 C 17.296875 27.15625 17.167969 27.039062 17.035156 26.925781 C 17.128906 26.886719 17.222656 26.839844 17.308594 26.796875 C 17.507812 26.691406 17.734375 26.585938 17.933594 26.445312 C 17.957031 26.609375 18.09375 26.703125 18.261719 26.75 C 18.648438 26.855469 19.132812 26.730469 19.433594 26.464844 C 19.449219 26.457031 19.453125 26.445312 19.46875 26.4375 C 19.59375 26.480469 19.726562 26.492188 19.855469 26.511719 C 19.996094 26.539062 20.132812 26.558594 20.273438 26.570312 C 20.433594 26.703125 20.632812 26.800781 20.800781 26.925781 Z M 20.800781 26.925781 " fill-opacity="1" fill-rule="nonzero"/></g><path fill="#1D3557" d="M 16.476562 14.628906 C 16.476562 14.628906 16.476562 14.636719 16.476562 14.628906 C 16.484375 14.636719 16.484375 14.628906 16.476562 14.628906 Z M 16.476562 14.628906 " fill-opacity="1" fill-rule="nonzero"/></svg>