<svg xmlns="http://www.w3.org/2000/svg" xmlns:xlink="http://www.w3.org/1999/xlink" width="40" zoomAndPan="magnify" viewBox="0 0 30 44.999999" height="60" preserveAspectRatio="xMidYMid meet" version="1.0"><defs><clipPath id="de2eeed5b0"><path d="M 10 5.058594 L 16 5.058594 L 16 15 L 10 15 Z M 10 5.058594 " clip-rule="nonzero"/></clipPath><clipPath id="8b8baa926e"><path d="M 0 15 L 30 15 L 30 40.308594 L 0 40.308594 Z M 0 15 " clip-rule="nonzero"/></clipPath></defs><g clip-path="url(#de2eeed5b0)"><path fill="#1D3557" d="M 11.320312 9.609375 C 11.042969 10.015625 10.726562 10.476562 10.726562 11.261719 C 10.726562 12.675781 11.65625 13.8125 13.277344 14.378906 C 13.394531 14.421875 13.515625 14.429688 13.640625 14.410156 C 13.761719 14.386719 13.875 14.335938 13.972656 14.257812 C 14.066406 14.175781 14.140625 14.078125 14.1875 13.960938 C 14.234375 13.84375 14.25 13.722656 14.234375 13.597656 L 14.234375 13.59375 C 14.089844 12.417969 14.5 11.566406 15.058594 10.386719 L 15.269531 9.949219 C 16.429688 7.402344 14.675781 5.480469 11.925781 5.109375 C 11.769531 5.082031 11.621094 5.105469 11.480469 5.179688 C 11.339844 5.253906 11.234375 5.363281 11.167969 5.507812 C 11.09375 5.652344 11.074219 5.804688 11.097656 5.960938 C 11.125 6.121094 11.199219 6.253906 11.3125 6.367188 C 11.996094 7.035156 12.128906 7.871094 11.714844 8.917969 C 11.609375 9.164062 11.476562 9.394531 11.320312 9.609375 Z M 12.390625 9.191406 C 12.917969 7.855469 12.726562 6.726562 11.820312 5.835938 C 14.085938 6.164062 15.5625 7.527344 14.613281 9.632812 L 14.40625 10.070312 C 13.835938 11.261719 13.34375 12.292969 13.515625 13.6875 C 12.746094 13.417969 11.453125 12.742188 11.453125 11.261719 C 11.453125 10.707031 11.660156 10.40625 11.917969 10.027344 C 12.109375 9.765625 12.265625 9.488281 12.390625 9.191406 Z M 12.390625 9.191406 " fill-opacity="1" fill-rule="nonzero"/></g><path fill="#1D3557" d="M 17.351562 14.304688 C 17.585938 14.402344 17.808594 14.375 18.011719 14.21875 C 18.234375 14.054688 18.339844 13.839844 18.324219 13.5625 C 18.296875 12.960938 18.535156 12.480469 18.871094 11.820312 L 19.015625 11.546875 C 19.328125 10.914062 19.359375 10.289062 19.097656 9.746094 C 18.789062 9.085938 18.078125 8.605469 17.09375 8.394531 C 16.949219 8.359375 16.804688 8.371094 16.664062 8.433594 C 16.527344 8.492188 16.417969 8.585938 16.339844 8.71875 C 16.160156 9 16.167969 9.273438 16.367188 9.539062 C 16.527344 9.753906 16.703125 10.113281 16.425781 10.777344 C 16.359375 10.921875 16.277344 11.054688 16.179688 11.179688 C 15.285156 12.226562 15.890625 13.832031 17.351562 14.304688 Z M 16.769531 11.613281 C 16.898438 11.441406 17.007812 11.257812 17.09375 11.0625 C 17.488281 10.136719 17.242188 9.488281 16.964844 9.113281 C 18.164062 9.390625 18.902344 10.09375 18.359375 11.21875 L 18.222656 11.480469 C 17.867188 12.1875 17.554688 12.796875 17.605469 13.621094 C 16.835938 13.394531 16.039062 12.421875 16.769531 11.613281 Z M 16.769531 11.613281 " fill-opacity="1" fill-rule="nonzero"/><g clip-path="url(#8b8baa926e)"><path fill="#1D3557" d="M 7.359375 40.308594 L 22.640625 40.308594 C 26.691406 40.308594 29.988281 36.183594 29.988281 31.117188 C 29.988281 25.988281 26.054688 23.679688 23.183594 21.996094 C 22.824219 21.785156 22.472656 21.589844 22.136719 21.402344 C 20.105469 20.273438 18.636719 19.457031 18.636719 17.144531 C 18.636719 16.898438 18.589844 16.664062 18.5 16.441406 C 18.40625 16.214844 18.273438 16.015625 18.105469 15.84375 C 17.933594 15.671875 17.738281 15.539062 17.515625 15.445312 C 17.292969 15.351562 17.058594 15.304688 16.820312 15.304688 L 13.179688 15.304688 C 12.941406 15.304688 12.707031 15.351562 12.484375 15.445312 C 12.261719 15.539062 12.066406 15.671875 11.894531 15.84375 C 11.726562 16.015625 11.59375 16.214844 11.5 16.441406 C 11.410156 16.664062 11.363281 16.898438 11.363281 17.144531 C 11.363281 19.457031 9.894531 20.273438 7.863281 21.402344 C 7.523438 21.589844 7.171875 21.785156 6.816406 21.996094 C 3.945312 23.679688 0.0117188 25.988281 0.0117188 31.117188 C 0.0117188 36.183594 3.308594 40.308594 7.359375 40.308594 Z M 7.179688 22.632812 C 7.535156 22.425781 7.878906 22.230469 8.214844 22.046875 C 10.292969 20.890625 12.089844 19.890625 12.089844 17.144531 C 12.089844 16.996094 12.117188 16.855469 12.171875 16.722656 C 12.230469 16.585938 12.308594 16.46875 12.410156 16.363281 C 12.511719 16.261719 12.628906 16.179688 12.765625 16.125 C 12.898438 16.070312 13.035156 16.042969 13.179688 16.039062 L 16.820312 16.039062 C 16.964844 16.042969 17.101562 16.070312 17.234375 16.125 C 17.371094 16.179688 17.488281 16.261719 17.589844 16.363281 C 17.691406 16.46875 17.769531 16.585938 17.828125 16.722656 C 17.882812 16.855469 17.910156 16.996094 17.910156 17.144531 C 17.910156 19.890625 19.707031 20.890625 21.785156 22.046875 C 22.117188 22.230469 22.464844 22.425781 22.820312 22.632812 C 24.71875 23.746094 26.4375 24.863281 27.621094 26.335938 L 2.378906 26.335938 C 3.5625 24.863281 5.28125 23.746094 7.179688 22.632812 Z M 1.84375 27.070312 L 28.152344 27.070312 C 28.71875 27.972656 29.058594 28.953125 29.183594 30.011719 L 0.816406 30.011719 C 0.9375 28.953125 1.28125 27.972656 1.84375 27.070312 Z M 0.757812 30.746094 L 29.242188 30.746094 C 29.25 30.871094 29.257812 30.988281 29.257812 31.117188 C 29.257812 35.777344 26.289062 39.570312 22.640625 39.570312 L 7.359375 39.570312 C 3.710938 39.570312 0.738281 35.777344 0.738281 31.117188 C 0.742188 30.988281 0.75 30.871094 0.757812 30.746094 Z M 0.757812 30.746094 " fill-opacity="1" fill-rule="nonzero"/></g><path fill="#1D3557" d="M 15 37.367188 C 15.289062 37.367188 15.566406 37.308594 15.835938 37.199219 C 16.101562 37.085938 16.339844 36.925781 16.542969 36.71875 C 16.746094 36.511719 16.90625 36.273438 17.015625 36.003906 C 17.128906 35.734375 17.183594 35.453125 17.183594 35.160156 C 17.183594 34.867188 17.128906 34.585938 17.015625 34.316406 C 16.90625 34.046875 16.746094 33.808594 16.542969 33.601562 C 16.339844 33.394531 16.101562 33.234375 15.835938 33.121094 C 15.566406 33.011719 15.289062 32.953125 15 32.953125 C 14.710938 32.953125 14.433594 33.011719 14.164062 33.121094 C 13.898438 33.234375 13.660156 33.394531 13.457031 33.601562 C 13.253906 33.808594 13.09375 34.046875 12.984375 34.316406 C 12.871094 34.585938 12.816406 34.867188 12.816406 35.160156 C 12.816406 35.453125 12.875 35.734375 12.984375 36.003906 C 13.09375 36.273438 13.253906 36.511719 13.457031 36.71875 C 13.660156 36.925781 13.898438 37.085938 14.164062 37.199219 C 14.433594 37.308594 14.710938 37.367188 15 37.367188 Z M 15 33.6875 C 15.191406 33.6875 15.378906 33.726562 15.558594 33.800781 C 15.734375 33.875 15.890625 33.980469 16.027344 34.121094 C 16.164062 34.257812 16.269531 34.417969 16.34375 34.597656 C 16.417969 34.777344 16.453125 34.964844 16.453125 35.160156 C 16.453125 35.355469 16.417969 35.542969 16.34375 35.722656 C 16.269531 35.902344 16.164062 36.0625 16.027344 36.199219 C 15.890625 36.335938 15.734375 36.445312 15.558594 36.519531 C 15.378906 36.59375 15.191406 36.628906 15 36.628906 C 14.808594 36.628906 14.621094 36.59375 14.441406 36.519531 C 14.265625 36.445312 14.109375 36.335938 13.972656 36.199219 C 13.835938 36.0625 13.730469 35.902344 13.65625 35.722656 C 13.582031 35.542969 13.546875 35.355469 13.546875 35.160156 C 13.546875 34.964844 13.582031 34.777344 13.65625 34.597656 C 13.730469 34.417969 13.835938 34.257812 13.972656 34.121094 C 14.109375 33.984375 14.265625 33.875 14.445312 33.800781 C 14.621094 33.726562 14.808594 33.691406 15 33.6875 Z M 15 33.6875 " fill-opacity="1" fill-rule="nonzero"/></svg>