<svg xmlns="http://www.w3.org/2000/svg" xmlns:xlink="http://www.w3.org/1999/xlink" width="40" zoomAndPan="magnify" viewBox="0 0 30 44.999999" height="60" preserveAspectRatio="xMidYMid meet" version="1.0"><path fill="#1D3557" d="M 20.371094 41.746094 C 20.074219 42.40625 20.089844 43.160156 20.050781 43.863281 C 20.03125 44.238281 20.011719 44.5625 20.429688 44.667969 C 20.707031 44.738281 21.007812 44.632812 21.195312 44.441406 C 21.464844 45 22.429688 44.980469 22.640625 44.453125 C 22.886719 44.703125 23.082031 44.847656 23.484375 44.699219 C 23.644531 44.640625 23.835938 44.519531 23.929688 44.378906 C 24.183594 44.453125 24.503906 44.382812 24.648438 44.167969 C 24.75 44.011719 24.757812 43.648438 24.71875 43.371094 C 24.878906 43.398438 25.074219 43.347656 25.21875 43.25 C 26.035156 43.515625 26.050781 42.363281 25.925781 41.894531 C 25.785156 41.355469 25.230469 41.121094 24.992188 40.636719 C 25.398438 40.46875 25.605469 39.902344 25.640625 39.496094 C 26.359375 39.308594 26.835938 39.105469 27.347656 38.546875 C 27.84375 38.007812 27.960938 37.445312 28.132812 36.789062 C 28.3125 36.117188 28.703125 35.445312 28.558594 34.730469 C 28.425781 34.078125 27.917969 33.644531 27.617188 33.070312 C 27.394531 32.644531 27.261719 31.730469 26.820312 31.425781 C 26.839844 31.050781 26.59375 30.695312 26.195312 30.621094 C 26.203125 30.515625 26.207031 30.410156 26.207031 30.296875 C 26.203125 28.820312 26.160156 27.355469 26.160156 25.863281 C 26.160156 25.125 26.0625 24.535156 25.738281 23.890625 C 25.652344 23.722656 25.566406 23.554688 25.480469 23.382812 C 25.613281 22.574219 25.640625 21.789062 25.597656 20.9375 C 25.53125 19.523438 25 18.3125 24.714844 16.941406 C 24.582031 16.292969 24.503906 15.558594 24.246094 14.9375 C 24.0625 14.484375 23.785156 14.242188 23.636719 13.878906 C 23.992188 12.960938 23.933594 12.058594 23.945312 11.070312 C 24.269531 10.421875 24.339844 9.78125 24.425781 8.9375 C 24.496094 8.210938 24.984375 7.429688 25.386719 6.761719 C 25.636719 6.621094 25.882812 6.457031 26.113281 6.386719 C 26.429688 6.289062 26.945312 6.144531 27.359375 6.132812 C 27.300781 6.390625 27.382812 6.617188 27.570312 6.847656 C 27.792969 7.113281 28.078125 7.265625 28.292969 7.539062 C 28.464844 7.765625 28.566406 8.042969 28.738281 8.277344 C 29.105469 8.78125 29.972656 9.402344 29.96875 8.355469 C 29.964844 7.738281 29.539062 7.199219 29.273438 6.65625 C 29.136719 6.375 28.96875 5.859375 28.75 5.484375 C 28.613281 5.074219 28.433594 4.675781 28.148438 4.371094 C 27.695312 3.886719 26.878906 3.636719 26.289062 3.339844 C 25.820312 3.003906 25.4375 2.582031 24.976562 2.234375 C 23.808594 1.355469 22.675781 0.726562 21.226562 0.519531 C 20.21875 0.378906 19.242188 0.441406 18.277344 0.628906 C 18.089844 0.132812 17.25 0 16.726562 0.308594 C 16.523438 0.429688 16.328125 0.617188 16.144531 0.832031 C 15.523438 1.289062 14.320312 1.472656 14.003906 2.226562 C 13.792969 2.722656 14.351562 3.957031 14.96875 4.289062 C 14.933594 4.765625 15.011719 5.375 15.410156 4.875 C 15.554688 4.691406 15.730469 4.355469 15.847656 4.046875 C 16.007812 4.742188 15.632812 5.53125 15.636719 6.253906 C 15.636719 6.933594 15.765625 7.480469 15.90625 8.0625 C 15.746094 8.535156 15.515625 9.003906 15.308594 9.433594 C 14.976562 10.109375 14.855469 10.554688 14.992188 11.152344 C 14.496094 11.238281 13.90625 11.480469 13.671875 11.589844 C 13.117188 11.859375 12.683594 12.289062 12.289062 12.734375 C 11.433594 13.699219 10.730469 14.800781 9.820312 15.710938 C 9.753906 15.777344 9.683594 15.839844 9.609375 15.898438 C 9.3125 15.589844 9.074219 15.042969 8.925781 14.703125 C 8.640625 14.054688 8.574219 13.371094 8.539062 12.65625 C 8.46875 11.214844 8.183594 10.167969 7.375 8.972656 C 7.015625 8.445312 6.546875 8.144531 6.058594 7.71875 C 5.5625 7.285156 5.175781 6.84375 4.636719 6.488281 C 3.527344 5.757812 2.011719 5.417969 0.867188 6.332031 C 0.359375 6.734375 0.0234375 7.34375 0.03125 7.953125 C 0.0429688 8.683594 0.621094 8.820312 1.230469 8.734375 C 1.609375 9.480469 2.589844 9.40625 3.238281 8.878906 C 3.71875 9.1875 3.996094 10.003906 4.363281 10.511719 C 4.171875 10.949219 4.566406 11.460938 4.964844 11.84375 C 4.960938 12.445312 4.96875 12.976562 5.238281 13.515625 C 5.5625 14.167969 5.734375 14.683594 5.8125 15.386719 C 5.886719 16.105469 5.914062 16.84375 5.992188 17.546875 C 6.027344 17.898438 6.003906 18.246094 6.046875 18.609375 C 6.085938 18.945312 6.242188 19.253906 6.292969 19.585938 C 6.398438 20.242188 6.121094 21.125 6.578125 21.6875 C 7.011719 22.226562 7.753906 22.265625 8.351562 22.144531 C 9.738281 21.867188 11.167969 21.53125 12.578125 21.84375 C 12.585938 21.847656 12.59375 21.847656 12.605469 21.851562 C 12.785156 22.289062 12.820312 22.921875 12.851562 23.277344 C 12.917969 24.003906 12.851562 24.710938 12.8125 25.414062 C 12.738281 26.855469 13.023438 28.292969 13.238281 29.667969 C 13.339844 30.332031 13.472656 30.898438 13.730469 31.425781 C 12.6875 31.777344 11.507812 32.945312 11.359375 33.832031 C 11.113281 35.296875 11.65625 36.394531 12.382812 37.59375 C 12.882812 38.417969 13.566406 39.3125 14.542969 39.691406 C 14.003906 39.789062 13.4375 39.824219 12.992188 39.578125 C 12.515625 39.3125 11.921875 39.113281 11.6875 39.832031 C 11.359375 40.847656 13.257812 41.03125 14.378906 41.097656 C 13.980469 41.441406 13.757812 42.117188 13.800781 42.5625 C 13.839844 42.960938 14.464844 43.667969 14.839844 43.238281 C 15.164062 43.636719 15.925781 43.652344 16.171875 43.269531 C 16.828125 43.777344 17.460938 42.820312 17.878906 42.464844 C 18.253906 42.144531 19.414062 42.097656 19.382812 41.492188 C 19.601562 41.78125 20.050781 41.917969 20.371094 41.746094 Z M 20.371094 41.746094 " fill-opacity="1" fill-rule="nonzero"/></svg>