<svg xmlns="http://www.w3.org/2000/svg" xmlns:xlink="http://www.w3.org/1999/xlink" width="40" zoomAndPan="magnify" viewBox="0 0 30 44.999999" height="60" preserveAspectRatio="xMidYMid meet" version="1.0"><defs><clipPath id="3c00ca510c"><path d="M 0 12.414062 L 30 12.414062 L 30 30 L 0 30 Z M 0 12.414062 " clip-rule="nonzero"/></clipPath><clipPath id="aaff009fc7"><path d="M 10 30 L 20 30 L 20 32.664062 L 10 32.664062 Z M 10 30 " clip-rule="nonzero"/></clipPath></defs><g clip-path="url(#3c00ca510c)"><path fill="#1D3557" d="M 29.6875 23.914062 L 27.234375 18.984375 C 27.113281 18.734375 26.953125 18.511719 26.75 18.320312 L 22.722656 14.515625 L 22.722656 12.972656 C 22.722656 12.78125 22.566406 12.625 22.375 12.625 C 22.183594 12.625 22.03125 12.78125 22.03125 12.972656 L 22.03125 14.664062 C 22.03125 14.761719 22.070312 14.851562 22.140625 14.917969 L 26.273438 18.828125 C 26.414062 18.960938 26.527344 19.117188 26.613281 19.292969 L 29.070312 24.222656 C 29.222656 24.53125 29.117188 24.898438 28.828125 25.074219 C 28.671875 25.171875 28.484375 25.199219 28.308594 25.148438 C 28.132812 25.097656 27.988281 24.980469 27.90625 24.816406 L 26.707031 22.457031 L 26.164062 21.332031 C 26.082031 21.160156 25.875 21.089844 25.703125 21.171875 C 25.53125 21.257812 25.457031 21.464844 25.542969 21.636719 L 27.878906 26.476562 C 28.023438 26.777344 27.90625 27.132812 27.609375 27.285156 C 27.460938 27.363281 27.292969 27.375 27.132812 27.320312 C 26.972656 27.265625 26.847656 27.152344 26.777344 27 L 26.015625 25.355469 L 24.460938 21.914062 C 24.382812 21.738281 24.179688 21.660156 24.003906 21.738281 C 23.828125 21.820312 23.753906 22.023438 23.832031 22.199219 L 25.375 25.621094 L 25.375 25.625 L 26.539062 28.203125 C 26.617188 28.378906 26.621094 28.570312 26.550781 28.75 C 26.484375 28.929688 26.347656 29.070312 26.171875 29.144531 C 25.820312 29.289062 25.421875 29.136719 25.261719 28.789062 L 24.53125 27.199219 C 24.527344 27.195312 24.527344 27.1875 24.523438 27.179688 L 23.710938 25.421875 L 22.097656 21.910156 C 22.015625 21.738281 21.8125 21.660156 21.636719 21.742188 C 21.464844 21.820312 21.386719 22.027344 21.46875 22.203125 L 22.671875 24.820312 C 22.671875 24.824219 22.671875 24.824219 22.671875 24.824219 L 22.953125 25.429688 L 23.898438 27.484375 C 24.070312 27.875 23.902344 28.335938 23.519531 28.519531 C 23.132812 28.703125 22.664062 28.539062 22.464844 28.132812 L 18.394531 20.941406 C 18.320312 20.808594 18.164062 20.742188 18.015625 20.773438 C 17.867188 20.808594 17.757812 20.9375 17.75 21.09375 L 17.523438 24.917969 C 17.484375 25.558594 17.070312 26.097656 16.460938 26.296875 C 16.304688 26.351562 16.132812 26.324219 15.996094 26.230469 C 15.859375 26.136719 15.777344 25.984375 15.769531 25.820312 L 15.347656 17.648438 L 15.347656 12.765625 C 15.347656 12.574219 15.195312 12.417969 15.003906 12.417969 C 14.8125 12.417969 14.65625 12.574219 14.65625 12.765625 L 14.65625 17.628906 L 14.238281 25.820312 C 14.230469 25.984375 14.144531 26.136719 14.007812 26.230469 C 13.871094 26.324219 13.703125 26.347656 13.542969 26.296875 C 12.9375 26.097656 12.519531 25.558594 12.480469 24.917969 L 12.257812 21.09375 C 12.246094 20.9375 12.140625 20.808594 11.988281 20.773438 C 11.84375 20.742188 11.6875 20.808594 11.609375 20.941406 L 7.53125 28.152344 C 7.34375 28.539062 6.875 28.703125 6.484375 28.519531 C 6.101562 28.335938 5.9375 27.875 6.109375 27.484375 L 7.082031 25.363281 L 7.332031 24.824219 C 7.332031 24.824219 7.332031 24.824219 7.332031 24.820312 L 8.539062 22.203125 C 8.617188 22.027344 8.542969 21.820312 8.367188 21.742188 C 8.195312 21.660156 7.988281 21.738281 7.90625 21.910156 L 6.285156 25.4375 L 5.484375 27.179688 C 5.480469 27.1875 5.480469 27.191406 5.476562 27.199219 L 4.746094 28.789062 C 4.585938 29.136719 4.1875 29.292969 3.835938 29.144531 C 3.660156 29.070312 3.523438 28.929688 3.453125 28.75 C 3.382812 28.570312 3.390625 28.378906 3.46875 28.203125 L 6.175781 22.199219 C 6.253906 22.023438 6.175781 21.820312 6.003906 21.738281 C 5.828125 21.660156 5.625 21.738281 5.542969 21.914062 L 4.003906 25.328125 L 3.226562 27 C 3.15625 27.152344 3.03125 27.265625 2.875 27.320312 C 2.714844 27.375 2.546875 27.363281 2.398438 27.285156 C 2.101562 27.132812 1.980469 26.777344 2.128906 26.476562 L 4.464844 21.636719 C 4.546875 21.464844 4.476562 21.257812 4.304688 21.171875 C 4.132812 21.089844 3.925781 21.160156 3.839844 21.332031 L 3.296875 22.457031 L 2.101562 24.816406 C 2.015625 24.980469 1.875 25.097656 1.695312 25.148438 C 1.519531 25.199219 1.335938 25.171875 1.179688 25.074219 C 0.886719 24.898438 0.785156 24.53125 0.9375 24.222656 L 3.394531 19.289062 C 3.476562 19.113281 3.589844 18.960938 3.730469 18.828125 L 7.867188 14.917969 C 7.9375 14.851562 7.976562 14.761719 7.976562 14.664062 L 7.976562 12.972656 C 7.976562 12.78125 7.820312 12.625 7.628906 12.625 C 7.4375 12.625 7.28125 12.78125 7.28125 12.972656 L 7.28125 14.515625 L 3.257812 18.320312 C 3.054688 18.511719 2.890625 18.734375 2.769531 18.980469 L 0.316406 23.914062 C 0.00390625 24.546875 0.21875 25.300781 0.816406 25.667969 C 1.03125 25.800781 1.273438 25.867188 1.519531 25.867188 C 1.566406 25.867188 1.613281 25.855469 1.660156 25.847656 L 1.503906 26.171875 C 1.191406 26.816406 1.445312 27.578125 2.082031 27.90625 C 2.269531 28 2.46875 28.050781 2.675781 28.050781 C 2.714844 28.050781 2.757812 28.03125 2.800781 28.027344 C 2.6875 28.347656 2.683594 28.6875 2.808594 29.003906 C 2.945312 29.359375 3.214844 29.636719 3.566406 29.785156 C 3.742188 29.859375 3.929688 29.894531 4.109375 29.894531 C 4.636719 29.894531 5.136719 29.59375 5.375 29.082031 L 5.589844 28.613281 C 5.734375 28.835938 5.933594 29.023438 6.1875 29.144531 C 6.394531 29.242188 6.609375 29.289062 6.824219 29.289062 C 7.371094 29.289062 7.898438 28.984375 8.144531 28.476562 L 11.636719 22.304688 L 11.792969 24.960938 C 11.84375 25.886719 12.449219 26.671875 13.328125 26.960938 C 13.695312 27.078125 14.085938 27.023438 14.402344 26.804688 C 14.714844 26.585938 14.910156 26.238281 14.929688 25.855469 L 15.003906 24.414062 L 15.078125 25.855469 C 15.097656 26.238281 15.289062 26.585938 15.605469 26.804688 C 15.921875 27.019531 16.308594 27.078125 16.675781 26.960938 C 17.554688 26.671875 18.160156 25.886719 18.214844 24.960938 L 18.371094 22.304688 L 21.851562 28.457031 C 22.105469 28.980469 22.636719 29.289062 23.183594 29.289062 C 23.398438 29.289062 23.613281 29.242188 23.816406 29.144531 C 24.070312 29.023438 24.273438 28.835938 24.414062 28.613281 L 24.632812 29.082031 C 24.867188 29.59375 25.367188 29.894531 25.894531 29.894531 C 26.078125 29.894531 26.261719 29.859375 26.441406 29.785156 C 26.789062 29.636719 27.058594 29.359375 27.195312 29.003906 C 27.320312 28.6875 27.320312 28.347656 27.207031 28.027344 C 27.25 28.035156 27.289062 28.050781 27.332031 28.050781 C 27.535156 28.050781 27.738281 28 27.925781 27.90625 C 28.558594 27.578125 28.8125 26.816406 28.5 26.171875 L 28.34375 25.847656 C 28.390625 25.855469 28.4375 25.867188 28.484375 25.867188 C 28.730469 25.867188 28.976562 25.800781 29.1875 25.667969 C 29.789062 25.300781 30.003906 24.546875 29.6875 23.914062 " fill-opacity="1" fill-rule="nonzero"/></g><path fill="#1D3557" d="M 19.140625 28.027344 C 19.132812 28.039062 18.238281 29.148438 15.003906 29.148438 C 11.769531 29.148438 10.875 28.039062 10.867188 28.03125 C 10.757812 27.875 10.539062 27.839844 10.386719 27.953125 C 10.230469 28.066406 10.195312 28.285156 10.308594 28.441406 C 10.347656 28.496094 11.363281 29.84375 15.003906 29.84375 C 18.644531 29.84375 19.65625 28.496094 19.699219 28.441406 C 19.808594 28.285156 19.777344 28.074219 19.625 27.960938 C 19.472656 27.84375 19.257812 27.875 19.140625 28.027344 " fill-opacity="1" fill-rule="nonzero"/><g clip-path="url(#aaff009fc7)"><path fill="#1D3557" d="M 19.140625 30.84375 C 19.132812 30.855469 18.238281 31.964844 15.003906 31.964844 C 11.769531 31.964844 10.875 30.855469 10.867188 30.847656 C 10.757812 30.695312 10.539062 30.660156 10.386719 30.773438 C 10.230469 30.882812 10.195312 31.101562 10.308594 31.257812 C 10.347656 31.3125 11.363281 32.660156 15.003906 32.660156 C 18.644531 32.660156 19.65625 31.3125 19.699219 31.257812 C 19.808594 31.101562 19.777344 30.890625 19.625 30.777344 C 19.472656 30.664062 19.257812 30.695312 19.140625 30.84375 " fill-opacity="1" fill-rule="nonzero"/></g></svg>