<svg xmlns="http://www.w3.org/2000/svg" xmlns:xlink="http://www.w3.org/1999/xlink" width="40" zoomAndPan="magnify" viewBox="0 0 30 44.999999" height="60" preserveAspectRatio="xMidYMid meet" version="1.0"><defs><clipPath id="876bbae1e3"><path d="M 0.167969 10.023438 L 30 10.023438 L 30 34.773438 L 0.167969 34.773438 Z M 0.167969 10.023438 " clip-rule="nonzero"/></clipPath></defs><g clip-path="url(#876bbae1e3)"><path fill="#000000" d="M 15.292969 10.042969 C 8.699219 10.042969 3.273438 14.914062 2.535156 21.1875 L 1.089844 20.820312 C 0.839844 20.753906 0.496094 20.890625 0.363281 21.109375 C 0.230469 21.324219 0.269531 21.683594 0.441406 21.871094 L 2.703125 24.3125 C 2.816406 24.433594 2.992188 24.515625 3.160156 24.519531 C 3.136719 24.519531 3.1875 24.523438 3.195312 24.523438 C 3.199219 24.523438 3.203125 24.519531 3.203125 24.519531 C 3.375 24.515625 3.558594 24.4375 3.671875 24.3125 L 5.9375 21.871094 C 6.109375 21.683594 6.144531 21.324219 6.011719 21.109375 C 5.878906 20.890625 5.539062 20.753906 5.289062 20.820312 L 3.863281 21.179688 C 4.601562 15.628906 9.433594 11.332031 15.292969 11.332031 C 20.300781 11.332031 24.738281 14.5 26.273438 19.171875 C 26.277344 19.175781 26.277344 19.179688 26.277344 19.183594 C 26.351562 19.46875 26.617188 19.667969 26.914062 19.667969 C 27.277344 19.664062 27.570312 19.382812 27.570312 19.027344 C 27.570312 18.949219 27.558594 18.871094 27.535156 18.808594 C 27.535156 18.808594 27.535156 18.804688 27.53125 18.804688 C 25.828125 13.582031 20.882812 10.042969 15.292969 10.042969 Z M 10.535156 13.402344 C 10.421875 13.402344 10.316406 13.472656 10.273438 13.566406 L 9.75 14.75 C 9.738281 14.785156 9.707031 14.8125 9.671875 14.828125 L 8.464844 15.339844 C 8.363281 15.382812 8.296875 15.484375 8.296875 15.597656 C 8.296875 15.707031 8.363281 15.808594 8.464844 15.851562 L 9.671875 16.367188 C 9.707031 16.378906 9.734375 16.40625 9.75 16.441406 L 10.273438 17.625 C 10.316406 17.722656 10.421875 17.789062 10.535156 17.789062 C 10.648438 17.789062 10.753906 17.722656 10.796875 17.625 L 11.320312 16.441406 C 11.335938 16.40625 11.363281 16.378906 11.398438 16.367188 L 12.605469 15.851562 C 12.710938 15.808594 12.773438 15.710938 12.773438 15.597656 C 12.773438 15.484375 12.707031 15.382812 12.605469 15.339844 L 11.398438 14.828125 C 11.363281 14.8125 11.335938 14.785156 11.320312 14.75 L 10.796875 13.566406 C 10.753906 13.46875 10.648438 13.398438 10.535156 13.402344 Z M 18.746094 14.011719 C 18.75 14.027344 18.757812 14.042969 18.765625 14.058594 C 18.753906 14.023438 18.75 14.019531 18.746094 14.011719 Z M 15.355469 15.667969 C 14.976562 15.667969 14.582031 15.847656 14.363281 16.152344 C 13.191406 17.621094 12.121094 19.167969 11.179688 20.792969 C 11.160156 20.828125 11.140625 20.863281 11.121094 20.894531 C 11.277344 21 11.40625 21.144531 11.480469 21.320312 L 11.925781 22.324219 C 12.074219 22.039062 12.230469 21.757812 12.394531 21.472656 C 13.269531 19.964844 14.265625 18.523438 15.355469 17.148438 C 16.445312 18.523438 17.441406 19.964844 18.316406 21.472656 C 18.765625 22.253906 19.171875 23.023438 19.449219 23.820312 C 19.71875 24.609375 19.859375 25.421875 19.789062 26.191406 C 19.703125 27.09375 19.316406 27.984375 18.722656 28.714844 C 18.640625 28.816406 18.546875 28.917969 18.441406 29.03125 C 18.433594 29.039062 18.425781 29.046875 18.417969 29.054688 C 17.652344 29.898438 16.519531 30.394531 15.355469 30.394531 C 14.195312 30.394531 13.0625 29.898438 12.296875 29.054688 C 12.289062 29.046875 12.28125 29.039062 12.273438 29.03125 C 12.164062 28.917969 12.070312 28.816406 11.992188 28.714844 C 11.695312 28.355469 11.457031 27.957031 11.273438 27.539062 C 11.085938 27.726562 10.824219 27.839844 10.542969 27.839844 C 10.246094 27.839844 9.964844 27.710938 9.773438 27.496094 C 10.011719 28.25 10.398438 28.957031 10.898438 29.570312 C 11.007812 29.710938 11.128906 29.839844 11.25 29.96875 C 12.285156 31.113281 13.796875 31.765625 15.355469 31.765625 C 16.917969 31.765625 18.425781 31.113281 19.460938 29.96875 C 19.585938 29.84375 19.703125 29.710938 19.816406 29.570312 C 20.570312 28.644531 21.070312 27.511719 21.183594 26.316406 C 21.277344 25.304688 21.089844 24.304688 20.773438 23.378906 C 20.453125 22.457031 20.003906 21.605469 19.53125 20.792969 C 18.59375 19.167969 17.519531 17.621094 16.347656 16.152344 C 16.128906 15.847656 15.738281 15.667969 15.355469 15.667969 Z M 22.570312 17.28125 C 22.460938 17.28125 22.351562 17.351562 22.3125 17.449219 L 21.789062 18.628906 C 21.773438 18.664062 21.746094 18.691406 21.710938 18.707031 L 20.503906 19.222656 C 20.402344 19.265625 20.335938 19.367188 20.335938 19.476562 C 20.335938 19.589844 20.398438 19.6875 20.503906 19.734375 L 21.710938 20.246094 C 21.746094 20.261719 21.773438 20.289062 21.789062 20.324219 L 22.3125 21.507812 C 22.355469 21.605469 22.457031 21.671875 22.574219 21.671875 C 22.6875 21.671875 22.789062 21.605469 22.832031 21.507812 L 23.359375 20.324219 C 23.375 20.289062 23.402344 20.261719 23.4375 20.246094 L 24.640625 19.734375 C 24.75 19.6875 24.8125 19.589844 24.8125 19.476562 C 24.8125 19.367188 24.742188 19.265625 24.640625 19.222656 L 23.4375 18.707031 C 23.402344 18.691406 23.375 18.664062 23.359375 18.628906 L 22.832031 17.449219 C 22.789062 17.347656 22.6875 17.28125 22.574219 17.28125 Z M 27.132812 20.339844 C 26.960938 20.34375 26.777344 20.425781 26.664062 20.550781 L 24.398438 22.992188 C 24.226562 23.175781 24.191406 23.539062 24.324219 23.753906 C 24.457031 23.96875 24.800781 24.105469 25.046875 24.042969 L 26.472656 23.679688 C 25.738281 29.234375 20.90625 33.53125 15.042969 33.53125 C 10.035156 33.53125 5.597656 30.363281 4.0625 25.691406 C 4.0625 25.6875 4.058594 25.679688 4.058594 25.675781 C 3.984375 25.390625 3.722656 25.195312 3.421875 25.195312 C 3.058594 25.195312 2.769531 25.480469 2.765625 25.835938 C 2.765625 25.914062 2.777344 25.988281 2.800781 26.050781 C 2.800781 26.054688 2.804688 26.054688 2.804688 26.058594 C 4.507812 31.277344 9.453125 34.820312 15.042969 34.820312 C 21.640625 34.820312 27.0625 29.949219 27.800781 23.675781 L 29.246094 24.042969 C 29.496094 24.105469 29.839844 23.96875 29.972656 23.753906 C 30.105469 23.539062 30.070312 23.175781 29.894531 22.992188 L 27.632812 20.550781 C 27.519531 20.429688 27.34375 20.347656 27.175781 20.339844 C 27.199219 20.339844 27.152344 20.339844 27.140625 20.339844 C 27.136719 20.339844 27.136719 20.339844 27.132812 20.339844 Z M 16.605469 20.6875 C 16.492188 20.6875 16.402344 20.78125 16.402344 20.890625 C 16.402344 20.910156 16.402344 20.925781 16.410156 20.941406 L 16.40625 20.941406 C 16.535156 21.429688 16.652344 21.921875 16.761719 22.410156 C 16.894531 23.007812 17.027344 23.621094 17.054688 24.25 C 17.082031 24.882812 16.992188 25.535156 16.699219 26.117188 C 16.410156 26.691406 15.960938 27.136719 15.578125 27.589844 C 15.40625 27.796875 15.246094 28.003906 15.125 28.226562 C 15.003906 28.445312 14.925781 28.683594 14.914062 28.921875 C 14.914062 28.925781 14.914062 28.933594 14.914062 28.941406 C 14.910156 28.960938 14.910156 28.980469 14.910156 29 C 14.910156 29.390625 15.230469 29.707031 15.628906 29.707031 C 15.722656 29.707031 15.816406 29.6875 15.90625 29.652344 C 15.90625 29.652344 15.90625 29.648438 15.910156 29.648438 C 15.917969 29.644531 15.929688 29.640625 15.9375 29.636719 C 16.472656 29.421875 16.957031 29.097656 17.339844 28.675781 C 17.347656 28.667969 17.355469 28.65625 17.363281 28.648438 C 17.460938 28.546875 17.550781 28.449219 17.628906 28.355469 C 18.1875 27.667969 18.550781 26.835938 18.628906 25.988281 C 18.695312 25.265625 18.5625 24.507812 18.308594 23.765625 C 18.050781 23.019531 17.671875 22.292969 17.246094 21.5625 C 17.097656 21.304688 16.945312 21.046875 16.785156 20.792969 C 16.75 20.730469 16.679688 20.6875 16.605469 20.6875 Z M 10.542969 21.351562 C 10.394531 21.351562 10.253906 21.449219 10.195312 21.574219 L 9.5 23.152344 C 9.480469 23.199219 9.441406 23.234375 9.394531 23.253906 L 7.785156 23.9375 C 7.648438 23.996094 7.558594 24.132812 7.558594 24.28125 C 7.558594 24.429688 7.644531 24.5625 7.785156 24.621094 L 9.394531 25.304688 C 9.441406 25.324219 9.480469 25.363281 9.5 25.410156 L 10.195312 26.988281 C 10.253906 27.117188 10.390625 27.203125 10.542969 27.203125 C 10.699219 27.203125 10.835938 27.117188 10.890625 26.988281 L 11.59375 25.410156 C 11.613281 25.363281 11.648438 25.324219 11.695312 25.304688 L 13.304688 24.621094 C 13.445312 24.558594 13.527344 24.433594 13.53125 24.28125 C 13.53125 24.132812 13.441406 23.996094 13.304688 23.9375 L 11.695312 23.253906 C 11.648438 23.234375 11.613281 23.199219 11.59375 23.152344 L 10.890625 21.574219 C 10.832031 21.441406 10.695312 21.351562 10.542969 21.351562 Z M 10.542969 21.351562 " fill-opacity="1" fill-rule="nonzero"/></g></svg>