<svg xmlns="http://www.w3.org/2000/svg" xmlns:xlink="http://www.w3.org/1999/xlink" width="500" zoomAndPan="magnify" viewBox="0 0 375 374.999991" height="500" preserveAspectRatio="xMidYMid meet" version="1.0"><defs><clipPath id="f6062f4d68"><path d="M 18.410156 359 L 356.660156 359 L 356.660156 375 L 18.410156 375 Z M 18.410156 359 " clip-rule="nonzero"/></clipPath></defs><path fill="#1d3557" d="M 246.160156 285.015625 C 244.214844 259.984375 218.613281 240.109375 187.429688 240.109375 C 156.242188 240.109375 130.636719 259.984375 128.691406 285.015625 Z M 246.160156 285.015625 " fill-opacity="1" fill-rule="nonzero"/><path fill="#1d3557" d="M 310.660156 0 L 64.195312 0 L 64.195312 55.570312 L 310.660156 55.570312 Z M 123.835938 47.671875 L 107.394531 38.839844 L 90.929688 47.671875 L 97.445312 30.363281 L 88.332031 20.355469 L 101.871094 20.355469 L 107.394531 7.898438 L 112.914062 20.355469 L 126.480469 20.355469 L 117.34375 30.363281 Z M 203.902344 47.671875 L 187.4375 38.839844 L 170.996094 47.671875 L 177.488281 30.363281 L 168.347656 20.355469 L 181.917969 20.355469 L 187.4375 7.898438 L 192.960938 20.355469 L 206.496094 20.355469 L 197.386719 30.363281 Z M 283.953125 47.671875 L 267.492188 38.839844 L 251.050781 47.671875 L 257.539062 30.363281 L 248.402344 20.355469 L 261.96875 20.355469 L 267.492188 7.898438 L 273.015625 20.355469 L 286.550781 20.355469 L 277.441406 30.363281 Z M 283.953125 47.671875 " fill-opacity="1" fill-rule="nonzero"/><path fill="#1d3557" d="M 127.1875 291.164062 L 125.496094 291.164062 C 123.796875 291.164062 122.421875 289.789062 122.421875 288.089844 C 122.421875 258.242188 151.582031 233.964844 187.425781 233.964844 C 223.269531 233.964844 252.425781 258.242188 252.425781 288.089844 C 252.425781 289.789062 251.050781 291.164062 249.351562 291.164062 L 247.691406 291.164062 L 247.691406 353.132812 L 337.367188 353.132812 L 337.367188 61.71875 L 37.484375 61.71875 L 37.484375 353.132812 L 127.191406 353.132812 L 127.191406 291.164062 Z M 281.101562 90.09375 L 315.113281 90.09375 L 315.113281 124.105469 L 281.101562 124.105469 Z M 281.101562 138.296875 L 315.113281 138.296875 L 315.113281 172.304688 L 281.101562 172.304688 Z M 281.101562 186.492188 L 315.113281 186.492188 L 315.113281 220.503906 L 281.101562 220.503906 Z M 263.914062 248.601562 L 315.113281 248.601562 L 315.113281 327.570312 L 263.914062 327.570312 Z M 225.761719 90.09375 L 259.773438 90.09375 L 259.773438 124.105469 L 225.761719 124.105469 Z M 225.761719 138.296875 L 259.773438 138.296875 L 259.773438 172.304688 L 225.761719 172.304688 Z M 225.761719 186.492188 L 259.773438 186.492188 L 259.773438 220.503906 L 225.761719 220.503906 Z M 170.421875 90.09375 L 204.433594 90.09375 L 204.433594 124.105469 L 170.421875 124.105469 Z M 170.421875 138.296875 L 204.433594 138.296875 L 204.433594 172.304688 L 170.421875 172.304688 Z M 170.421875 186.492188 L 204.433594 186.492188 L 204.433594 220.503906 L 170.421875 220.503906 Z M 115.082031 90.09375 L 149.09375 90.09375 L 149.09375 124.105469 L 115.082031 124.105469 Z M 115.082031 138.296875 L 149.09375 138.296875 L 149.09375 172.304688 L 115.082031 172.304688 Z M 59.742188 90.09375 L 93.753906 90.09375 L 93.753906 124.105469 L 59.742188 124.105469 Z M 59.742188 138.296875 L 93.753906 138.296875 L 93.753906 172.304688 L 59.742188 172.304688 Z M 59.742188 186.492188 L 93.753906 186.492188 L 93.753906 220.503906 L 59.742188 220.503906 Z M 110.941406 327.570312 L 59.742188 327.570312 L 59.742188 248.605469 L 110.945312 248.605469 L 110.945312 327.570312 Z M 115.082031 186.492188 L 149.09375 186.492188 L 149.09375 220.503906 L 115.082031 220.503906 Z M 115.082031 186.492188 " fill-opacity="1" fill-rule="nonzero"/><path fill="#1d3557" d="M 232.183594 291.164062 L 241.546875 291.164062 L 241.546875 353.132812 L 232.183594 353.132812 Z M 232.183594 291.164062 " fill-opacity="1" fill-rule="nonzero"/><g clip-path="url(#f6062f4d68)"><path fill="#1d3557" d="M 340.445312 359.28125 L 18.75 359.28125 L 18.75 375 L 356.136719 375 L 356.136719 359.28125 Z M 340.445312 359.28125 " fill-opacity="1" fill-rule="nonzero"/></g><path fill="#1d3557" d="M 133.335938 291.164062 L 142.699219 291.164062 L 142.699219 353.132812 L 133.335938 353.132812 Z M 133.335938 291.164062 " fill-opacity="1" fill-rule="nonzero"/><path fill="#1d3557" d="M 166.265625 307.808594 L 208.589844 307.808594 L 208.589844 353.132812 L 166.265625 353.132812 Z M 166.265625 307.808594 " fill-opacity="1" fill-rule="nonzero"/><path fill="#1d3557" d="M 226.039062 353.132812 L 226.039062 291.164062 L 148.847656 291.164062 L 148.847656 353.132812 L 160.117188 353.132812 L 160.117188 304.738281 C 160.117188 303.035156 161.492188 301.664062 163.191406 301.664062 L 211.660156 301.664062 C 213.363281 301.664062 214.734375 303.035156 214.734375 304.738281 L 214.734375 353.132812 Z M 226.039062 353.132812 " fill-opacity="1" fill-rule="nonzero"/></svg>