<svg xmlns="http://www.w3.org/2000/svg" xmlns:xlink="http://www.w3.org/1999/xlink" width="500" zoomAndPan="magnify" viewBox="0 0 375 374.999991" height="500" preserveAspectRatio="xMidYMid meet" version="1.0"><defs><clipPath id="eb27f53a58"><path d="M 2.140625 4.28125 L 372.640625 4.28125 L 372.640625 374.78125 L 2.140625 374.78125 Z M 2.140625 4.28125 " clip-rule="nonzero"/></clipPath></defs><g clip-path="url(#eb27f53a58)"><path fill="#1d3557" d="M 368.003906 188.496094 C 365.019531 185.511719 360.886719 183.660156 356.34375 183.660156 L 317.808594 183.660156 L 233.308594 65.011719 C 234.492188 60.851562 235.140625 56.46875 235.140625 51.9375 C 235.140625 38.777344 229.804688 26.867188 221.183594 18.238281 C 212.566406 9.621094 200.65625 4.28125 187.496094 4.28125 C 174.335938 4.28125 162.425781 9.621094 153.796875 18.238281 C 145.179688 26.859375 139.839844 38.777344 139.839844 51.9375 C 139.839844 56.476562 140.488281 60.859375 141.675781 65.023438 L 57.183594 183.660156 L 18.636719 183.660156 C 14.113281 183.660156 9.992188 185.511719 7.007812 188.496094 L 6.976562 188.523438 C 3.996094 191.507812 2.140625 195.632812 2.140625 200.15625 L 2.140625 358.496094 C 2.140625 363.035156 3.996094 367.171875 6.976562 370.15625 C 9.972656 373.136719 14.097656 374.992188 18.636719 374.992188 L 356.355469 374.992188 C 360.867188 374.992188 364.992188 373.136719 367.996094 370.136719 L 368.023438 370.109375 C 371.007812 367.113281 372.851562 363 372.851562 358.484375 L 372.851562 200.15625 C 372.851562 195.613281 370.996094 191.488281 368.003906 188.496094 Z M 303.175781 183.660156 L 290.953125 183.660156 L 221.148438 85.644531 C 221.15625 85.632812 221.15625 85.632812 221.164062 85.625 L 221.195312 85.597656 C 223.621094 83.167969 225.773438 80.480469 227.636719 77.578125 Z M 187.496094 99.582031 C 196.335938 99.582031 204.613281 97.152344 211.710938 92.945312 L 276.320312 183.648438 L 98.671875 183.648438 L 163.269531 92.957031 C 170.371094 97.164062 178.644531 99.582031 187.496094 99.582031 Z M 162.25 26.691406 C 168.710938 20.230469 177.636719 16.238281 187.496094 16.238281 C 197.355469 16.238281 206.28125 20.230469 212.742188 26.691406 C 219.199219 33.148438 223.195312 42.074219 223.195312 51.9375 C 223.195312 61.804688 219.199219 70.730469 212.75 77.191406 C 206.292969 83.640625 197.367188 87.636719 187.496094 87.636719 C 177.636719 87.636719 168.710938 83.640625 162.25 77.179688 C 155.789062 70.722656 151.796875 61.796875 151.796875 51.9375 C 151.796875 42.074219 155.789062 33.148438 162.25 26.691406 Z M 147.355469 77.589844 C 149.21875 80.5 151.378906 83.195312 153.808594 85.625 C 153.816406 85.632812 153.828125 85.644531 153.84375 85.652344 L 84.039062 183.660156 L 71.804688 183.660156 Z M 360.894531 358.496094 C 360.894531 359.757812 360.386719 360.894531 359.578125 361.703125 L 359.550781 361.730469 C 358.746094 362.535156 357.605469 363.046875 356.34375 363.046875 L 18.636719 363.046875 C 17.394531 363.046875 16.253906 362.535156 15.429688 361.703125 C 14.605469 360.878906 14.097656 359.738281 14.097656 358.496094 L 14.097656 200.15625 C 14.097656 198.90625 14.605469 197.753906 15.421875 196.941406 C 16.246094 196.125 17.386719 195.613281 18.636719 195.613281 L 356.355469 195.613281 C 357.597656 195.613281 358.738281 196.125 359.5625 196.949219 C 360.386719 197.773438 360.90625 198.914062 360.90625 200.15625 L 360.90625 358.496094 Z M 187.496094 71.925781 C 193.011719 71.925781 198.015625 69.683594 201.628906 66.070312 C 205.242188 62.453125 207.488281 57.449219 207.488281 51.9375 C 207.488281 46.421875 205.242188 41.417969 201.628906 37.804688 C 198.015625 34.1875 193.011719 31.945312 187.496094 31.945312 C 181.980469 31.945312 176.976562 34.1875 173.363281 37.804688 C 169.75 41.417969 167.503906 46.421875 167.503906 51.9375 C 167.503906 57.449219 169.75 62.453125 173.363281 66.070312 C 176.976562 69.683594 181.972656 71.925781 187.496094 71.925781 Z M 181.804688 46.246094 C 183.261719 44.789062 185.273438 43.890625 187.496094 43.890625 C 189.71875 43.890625 191.730469 44.789062 193.1875 46.246094 C 194.640625 47.699219 195.539062 49.710938 195.539062 51.9375 C 195.539062 54.160156 194.640625 56.171875 193.1875 57.625 C 191.730469 59.082031 189.71875 59.980469 187.496094 59.980469 C 185.273438 59.980469 183.261719 59.082031 181.804688 57.625 C 180.351562 56.171875 179.453125 54.160156 179.453125 51.9375 C 179.453125 49.710938 180.359375 47.699219 181.804688 46.246094 Z M 91.601562 238.449219 C 85.46875 232.316406 77.003906 228.503906 67.699219 228.503906 C 58.394531 228.503906 49.933594 232.316406 43.808594 238.449219 L 43.78125 238.476562 C 37.644531 244.613281 33.835938 253.074219 33.835938 262.371094 L 33.835938 296.289062 C 33.835938 305.585938 37.644531 314.054688 43.78125 320.183594 L 43.808594 320.210938 C 49.945312 326.34375 58.40625 330.15625 67.710938 330.15625 C 77.003906 330.15625 85.476562 326.34375 91.601562 320.210938 L 91.628906 320.183594 C 97.765625 314.046875 101.574219 305.585938 101.574219 296.289062 L 101.574219 262.371094 C 101.574219 253.066406 97.765625 244.605469 91.628906 238.476562 Z M 89.609375 296.289062 C 89.609375 302.3125 87.144531 307.800781 83.1875 311.765625 C 79.210938 315.734375 73.734375 318.191406 67.699219 318.191406 C 61.667969 318.191406 56.191406 315.726562 52.222656 311.765625 C 48.257812 307.792969 45.800781 302.3125 45.800781 296.289062 L 45.800781 262.371094 C 45.800781 256.335938 48.265625 250.859375 52.222656 246.894531 C 56.199219 242.925781 61.675781 240.46875 67.710938 240.46875 C 73.734375 240.46875 79.21875 242.9375 83.1875 246.894531 C 87.152344 250.867188 89.609375 256.347656 89.609375 262.371094 Z M 205.03125 240.460938 L 205.03125 273.304688 L 245.566406 273.304688 C 248.867188 273.304688 251.546875 275.984375 251.546875 279.285156 C 251.546875 282.582031 248.867188 285.261719 245.566406 285.261719 L 205.03125 285.261719 L 205.03125 318.097656 L 254.828125 318.097656 C 258.125 318.097656 260.804688 320.777344 260.804688 324.074219 C 260.804688 327.375 258.125 330.054688 254.828125 330.054688 L 199.054688 330.054688 C 195.753906 330.054688 193.074219 327.375 193.074219 324.074219 L 193.074219 234.492188 C 193.074219 231.195312 195.753906 228.515625 199.054688 228.515625 L 254.828125 228.515625 C 258.125 228.515625 260.804688 231.195312 260.804688 234.492188 C 260.804688 237.792969 258.125 240.46875 254.828125 240.46875 L 205.03125 240.46875 Z M 169.257812 239.953125 C 162.195312 232.890625 152.445312 228.503906 141.742188 228.503906 L 118.988281 228.503906 C 115.6875 228.503906 113.011719 231.183594 113.011719 234.484375 L 113.011719 324.066406 C 113.011719 327.363281 115.6875 330.042969 118.988281 330.042969 C 122.289062 330.042969 124.964844 327.363281 124.964844 324.066406 L 124.964844 306.492188 L 141.75 306.492188 C 152.464844 306.492188 162.214844 302.101562 169.292969 295.019531 C 176.355469 287.957031 180.738281 278.207031 180.738281 267.496094 C 180.738281 256.773438 176.355469 247.023438 169.292969 239.953125 Z M 160.832031 286.613281 C 155.949219 291.5 149.183594 294.539062 141.742188 294.539062 L 124.957031 294.539062 L 124.957031 240.460938 L 141.742188 240.460938 C 149.183594 240.460938 155.9375 243.5 160.832031 248.402344 C 165.734375 253.304688 168.773438 260.0625 168.773438 267.496094 C 168.773438 274.945312 165.734375 281.710938 160.832031 286.613281 Z M 341.148438 234.484375 L 341.148438 324.066406 C 341.128906 326.058594 340.136719 328.003906 338.320312 329.136719 C 335.519531 330.878906 331.839844 330.015625 330.097656 327.214844 L 285.371094 255.371094 L 285.371094 324.066406 C 285.371094 327.363281 282.695312 330.042969 279.394531 330.042969 C 276.097656 330.042969 273.417969 327.363281 273.417969 324.066406 L 273.417969 234.484375 C 273.417969 231.183594 276.097656 228.503906 279.394531 228.503906 C 281.664062 228.503906 283.648438 229.773438 284.660156 231.648438 L 329.191406 303.175781 L 329.191406 234.484375 C 329.191406 231.183594 331.871094 228.503906 335.167969 228.503906 C 338.46875 228.503906 341.148438 231.183594 341.148438 234.484375 Z M 187.496094 4.28125 Z M 187.496094 4.28125 " fill-opacity="1" fill-rule="nonzero"/></g></svg>