<svg xmlns="http://www.w3.org/2000/svg" xmlns:xlink="http://www.w3.org/1999/xlink" width="500" zoomAndPan="magnify" viewBox="0 0 375 374.999991" height="500" preserveAspectRatio="xMidYMid meet" version="1.0"><defs><clipPath id="cb1f8b3bc0"><path d="M 0 9.886719 L 375 9.886719 L 375 365.386719 L 0 365.386719 Z M 0 9.886719 " clip-rule="nonzero"/></clipPath></defs><g clip-path="url(#cb1f8b3bc0)"><path fill="#1d3557" d="M 346.003906 279.679688 C 328.117188 261.792969 303.421875 250.683594 276.273438 250.683594 L 242.128906 250.683594 C 242.136719 250.234375 242.164062 249.785156 242.164062 249.332031 L 242.164062 232.945312 C 243.648438 231.660156 245.082031 230.320312 246.46875 228.933594 C 250.6875 224.714844 254.464844 220.035156 257.71875 215.003906 C 274.808594 213.042969 288.160156 207.082031 291.570312 191.207031 C 297 190.140625 301.855469 187.457031 305.625 183.691406 C 310.585938 178.730469 313.667969 171.878906 313.667969 164.347656 L 313.667969 134.003906 C 313.667969 126.464844 310.585938 119.621094 305.625 114.660156 L 305.242188 114.304688 C 301.96875 111.15625 297.929688 108.820312 293.445312 107.582031 C 293.457031 107.472656 293.464844 107.367188 293.464844 107.253906 C 293.464844 80.433594 281.792969 56.078125 262.988281 38.433594 C 244.265625 20.875 218.492188 9.980469 190.171875 9.980469 L 184.835938 9.980469 C 156.515625 9.980469 130.742188 20.875 112.03125 38.433594 C 93.226562 56.078125 81.554688 80.433594 81.554688 107.253906 C 81.554688 107.367188 81.5625 107.472656 81.570312 107.582031 C 76.929688 108.859375 72.757812 111.324219 69.421875 114.652344 L 69.394531 114.679688 C 64.433594 119.648438 61.351562 126.492188 61.351562 134.003906 L 61.351562 164.347656 C 61.351562 171.679688 64.285156 178.363281 69.039062 183.304688 L 69.394531 183.691406 C 74.351562 188.648438 81.195312 191.734375 88.734375 191.734375 C 95.070312 191.734375 100.914062 189.550781 105.5625 185.910156 C 108.804688 202.515625 117 217.402344 128.539062 228.941406 C 130.707031 231.109375 132.984375 233.144531 135.375 235.066406 L 135.375 249.351562 C 135.375 249.800781 135.394531 250.253906 135.414062 250.703125 L 98.738281 250.703125 C 71.578125 250.703125 46.894531 261.8125 29.007812 279.699219 C 11.109375 297.566406 0 322.261719 0 349.410156 L 0 358.953125 C 0 362.292969 2.710938 365.003906 6.046875 365.003906 L 368.953125 365.003906 C 372.289062 365.003906 375 362.292969 375 358.953125 L 375 349.410156 C 375 322.261719 363.890625 297.566406 346.003906 279.679688 Z M 264.871094 201.210938 C 266.859375 196.316406 268.40625 191.191406 269.4375 185.894531 C 272.222656 188.078125 275.445312 189.738281 278.945312 190.710938 C 276.648438 196.046875 271.613281 199.289062 264.871094 201.210938 Z M 297.054688 123.203125 C 299.832031 125.976562 301.554688 129.792969 301.554688 133.992188 L 301.554688 164.339844 C 301.554688 168.539062 299.832031 172.363281 297.054688 175.128906 C 294.28125 177.90625 290.457031 179.628906 286.257812 179.628906 C 282.054688 179.628906 278.230469 177.90625 275.464844 175.128906 L 275.4375 175.128906 C 272.679688 172.375 270.964844 168.546875 270.964844 164.339844 L 270.964844 133.992188 C 270.964844 129.773438 272.679688 125.957031 275.4375 123.203125 L 275.464844 123.175781 C 278.222656 120.417969 282.046875 118.703125 286.265625 118.703125 C 290.34375 118.703125 294.066406 120.304688 296.792969 122.910156 Z M 120.289062 47.21875 C 136.828125 31.703125 159.664062 22.074219 184.828125 22.074219 L 190.164062 22.074219 C 215.316406 22.074219 238.164062 31.703125 254.699219 47.21875 C 271.097656 62.601562 281.296875 83.789062 281.34375 107.066406 C 277.40625 107.789062 273.757812 109.363281 270.589844 111.597656 C 268.714844 91.757812 259.828125 73.878906 246.449219 60.503906 C 231.328125 45.378906 210.449219 35.988281 187.492188 35.988281 C 164.53125 35.988281 143.652344 45.378906 128.53125 60.503906 C 115.152344 73.878906 106.265625 91.757812 104.390625 111.597656 C 101.222656 109.363281 97.574219 107.789062 93.636719 107.066406 C 93.703125 83.789062 103.894531 62.601562 120.289062 47.21875 Z M 258.328125 110.769531 C 244.078125 110.714844 230.390625 108.886719 217.292969 105.304688 C 202.292969 101.199219 187.976562 94.75 174.367188 85.964844 C 172.03125 84.464844 168.871094 84.738281 166.835938 86.789062 C 160.808594 92.828125 153.074219 97.863281 143.625 101.882812 C 135.84375 105.191406 126.890625 107.800781 116.8125 109.730469 C 118.988281 93.972656 126.335938 79.804688 137.101562 69.042969 C 150.039062 56.105469 167.886719 48.070312 187.507812 48.070312 C 207.132812 48.070312 224.980469 56.105469 237.917969 69.042969 C 248.90625 80.039062 256.339844 94.597656 258.328125 110.769531 Z M 88.734375 179.628906 C 84.535156 179.628906 80.710938 177.90625 77.945312 175.128906 L 77.664062 174.867188 C 75.054688 172.128906 73.453125 168.417969 73.453125 164.339844 L 73.453125 133.992188 C 73.453125 129.773438 75.167969 125.957031 77.925781 123.203125 L 77.953125 123.175781 C 80.710938 120.417969 84.535156 118.703125 88.753906 118.703125 C 92.972656 118.703125 96.789062 120.417969 99.542969 123.175781 L 99.542969 123.203125 C 102.320312 125.976562 104.042969 129.792969 104.042969 133.992188 L 104.042969 164.339844 C 104.042969 168.539062 102.320312 172.363281 99.542969 175.128906 C 96.757812 177.90625 92.933594 179.628906 88.734375 179.628906 Z M 116.117188 169.972656 L 116.117188 122.144531 C 128.242188 120.015625 138.984375 116.96875 148.332031 112.984375 C 157.480469 109.09375 165.308594 104.292969 171.824219 98.613281 C 185.242188 106.769531 199.339844 112.878906 214.125 116.921875 C 228.449219 120.839844 243.367188 122.808594 258.882812 122.816406 L 258.882812 169.964844 C 258.882812 182.050781 255.824219 193.449219 250.472656 203.453125 C 241.179688 204.070312 230.632812 203.6875 220.257812 203.292969 L 218.136719 203.21875 C 217.191406 200.113281 215.523438 197.332031 213.328125 195.082031 C 209.773438 191.441406 204.863281 189.183594 199.460938 189.183594 C 194.0625 189.183594 189.148438 191.433594 185.597656 195.082031 C 182.089844 198.671875 179.914062 203.621094 179.914062 209.066406 C 179.914062 214.515625 182.089844 219.464844 185.597656 223.054688 C 189.148438 226.691406 194.0625 228.953125 199.460938 228.953125 C 204.863281 228.953125 209.773438 226.703125 213.328125 223.054688 C 215.4375 220.890625 217.050781 218.238281 218.015625 215.285156 L 219.835938 215.347656 C 227.296875 215.628906 234.824219 215.910156 242.0625 215.855469 C 240.742188 217.421875 239.363281 218.941406 237.917969 220.394531 C 224.980469 233.332031 207.132812 241.363281 187.507812 241.363281 C 175.59375 241.363281 164.34375 238.394531 154.445312 233.171875 C 151.164062 231.390625 148.039062 229.347656 145.117188 227.078125 C 144.722656 226.777344 144.300781 226.535156 143.867188 226.335938 C 141.496094 224.488281 139.226562 222.511719 137.101562 220.394531 C 124.152344 207.445312 116.117188 189.597656 116.117188 169.972656 Z M 206.90625 209.066406 C 206.90625 211.261719 206.054688 213.238281 204.675781 214.644531 C 203.34375 216.015625 201.488281 216.859375 199.445312 216.859375 C 197.398438 216.859375 195.542969 216.015625 194.210938 214.644531 C 192.835938 213.238281 191.980469 211.261719 191.980469 209.066406 C 191.980469 206.875 192.835938 204.894531 194.210938 203.488281 C 195.542969 202.121094 197.398438 201.277344 199.445312 201.277344 C 201.488281 201.277344 203.34375 202.121094 204.675781 203.488281 C 206.054688 204.894531 206.90625 206.875 206.90625 209.066406 Z M 153.308594 246.082031 C 155.765625 247.214844 158.277344 248.246094 160.855469 249.128906 C 168.542969 251.769531 176.757812 253.253906 185.269531 253.410156 C 185.351562 253.410156 185.4375 253.410156 185.523438 253.421875 C 185.925781 253.429688 186.320312 253.449219 186.722656 253.449219 L 190.789062 253.449219 C 199.820312 253.449219 208.527344 251.929688 216.664062 249.136719 C 221.324219 247.535156 225.804688 245.5 230.054688 243.089844 L 230.054688 249.332031 C 230.054688 260.339844 225.542969 270.34375 218.289062 277.597656 C 211.03125 284.855469 201.019531 289.363281 190.023438 289.363281 L 187.5 289.363281 C 176.492188 289.363281 166.492188 284.855469 159.234375 277.597656 C 151.976562 270.34375 147.46875 260.332031 147.46875 249.332031 L 147.46875 243.15625 C 149.371094 244.195312 151.320312 245.179688 153.308594 246.082031 Z M 12.09375 349.410156 C 12.09375 325.589844 21.84375 303.933594 37.546875 288.222656 C 53.25 272.519531 74.914062 262.769531 98.738281 262.769531 L 137.15625 262.769531 C 139.566406 271.730469 144.300781 279.753906 150.683594 286.140625 C 158.773438 294.230469 169.519531 299.6875 181.453125 301.082031 L 181.453125 352.898438 L 12.09375 352.898438 Z M 362.90625 352.910156 L 193.546875 352.910156 L 193.546875 301.328125 C 206.492188 300.457031 218.183594 294.820312 226.847656 286.148438 C 233.230469 279.765625 237.964844 271.730469 240.375 262.777344 L 276.261719 262.777344 C 300.085938 262.777344 321.742188 272.527344 337.445312 288.230469 C 353.148438 303.933594 362.898438 325.597656 362.898438 349.421875 L 362.898438 352.910156 Z M 362.90625 352.910156 " fill-opacity="1" fill-rule="nonzero"/></g></svg>