<svg xmlns="http://www.w3.org/2000/svg" xmlns:xlink="http://www.w3.org/1999/xlink" width="500" zoomAndPan="magnify" viewBox="0 0 375 374.999991" height="500" preserveAspectRatio="xMidYMid meet" version="1.0"><defs><clipPath id="9fbbe7eaea"><path d="M 62 31 L 312.953125 31 L 312.953125 375 L 62 375 Z M 62 31 " clip-rule="nonzero"/></clipPath></defs><path fill="#1d3557" d="M 169.871094 26.335938 C 162.621094 26.308594 156.714844 20.402344 156.699219 13.171875 C 156.714844 5.832031 162.621094 -0.078125 169.871094 0 C 177.191406 -0.078125 183.09375 5.832031 183.035156 13.171875 C 183.09375 20.402344 177.1875 26.308594 169.871094 26.335938 Z M 169.871094 26.335938 " fill-opacity="1" fill-rule="nonzero"/><path fill="#1d3557" d="M 204.984375 26.335938 C 212.246094 26.308594 218.15625 20.402344 218.15625 13.171875 C 218.15625 5.832031 212.246094 -0.0742188 204.984375 0 C 197.671875 -0.078125 191.765625 5.832031 191.816406 13.171875 C 191.765625 20.402344 197.671875 26.308594 204.984375 26.335938 Z M 204.984375 26.335938 " fill-opacity="1" fill-rule="nonzero"/><g clip-path="url(#9fbbe7eaea)"><path fill="#1d3557" d="M 257.273438 292.738281 C 275.542969 289.707031 293.757812 270.621094 293.71875 247.332031 L 293.71875 77.292969 C 293.761719 53.316406 273.5625 31.273438 246.199219 31.300781 L 128.835938 31.300781 C 101.304688 31.273438 81.105469 53.316406 81.128906 77.292969 L 81.128906 247.332031 C 81.105469 270.621094 99.324219 289.710938 117.578125 292.738281 L 62.8125 375 L 94.484375 375 L 133.605469 317.363281 L 241.242188 317.363281 L 280.546875 375 L 312.035156 375 Z M 156.507812 48.867188 C 156.515625 44.605469 160.144531 41.097656 164.328125 41.035156 L 210.515625 41.035156 C 214.707031 41.097656 218.347656 44.605469 218.347656 48.867188 L 218.347656 62.210938 C 218.347656 66.460938 214.910156 70.058594 210.515625 70.042969 L 164.332031 70.042969 C 159.957031 70.058594 156.519531 66.460938 156.511719 62.210938 L 156.511719 48.867188 Z M 127.691406 267.9375 C 116.21875 267.851562 106.867188 258.5 106.894531 246.945312 C 106.867188 235.429688 116.21875 226.085938 127.691406 226.144531 C 139.277344 226.082031 148.628906 235.429688 148.683594 246.945312 C 148.632812 258.503906 139.277344 267.851562 127.691406 267.9375 Z M 130.363281 157.449219 C 117.210938 157.367188 106.480469 148.367188 106.507812 133.585938 L 106.507812 103.058594 C 106.601562 90.324219 114.828125 79.222656 130.363281 79.195312 L 244.480469 79.195312 C 260.035156 79.222656 268.265625 90.324219 268.34375 103.058594 L 268.34375 133.585938 C 268.382812 148.367188 257.65625 157.371094 244.480469 157.449219 Z M 225.785156 246.949219 C 225.753906 235.433594 235.09375 226.089844 246.582031 226.148438 C 258.167969 226.085938 267.519531 235.433594 267.582031 246.949219 C 267.519531 258.503906 258.167969 267.851562 246.582031 267.941406 C 235.09375 267.851562 225.753906 258.503906 225.785156 246.949219 Z M 225.785156 246.949219 " fill-opacity="1" fill-rule="nonzero"/></g></svg>