<svg xmlns="http://www.w3.org/2000/svg" xmlns:xlink="http://www.w3.org/1999/xlink" width="48" zoomAndPan="magnify" viewBox="0 0 36 36.000001" height="48" preserveAspectRatio="xMidYMid meet" version="1.0"><defs><clipPath id="4b0a7aefec"><path d="M 0.488281 0 L 35.511719 0 L 35.511719 35.027344 L 0.488281 35.027344 Z M 0.488281 0 " clip-rule="nonzero"/></clipPath></defs><g clip-path="url(#4b0a7aefec)"><path fill="#000000" d="M 3.671875 17.511719 C 3.671875 17.726562 3.628906 17.929688 3.550781 18.121094 C 3.46875 18.316406 3.355469 18.488281 3.203125 18.640625 C 3.054688 18.789062 2.882812 18.902344 2.6875 18.984375 C 2.492188 19.066406 2.289062 19.105469 2.078125 19.105469 C 1.867188 19.105469 1.664062 19.066406 1.46875 18.984375 C 1.273438 18.902344 1.101562 18.789062 0.953125 18.640625 C 0.804688 18.488281 0.6875 18.316406 0.609375 18.121094 C 0.527344 17.929688 0.488281 17.726562 0.488281 17.511719 C 0.488281 16.941406 0.515625 16.367188 0.570312 15.796875 C 0.628906 15.226562 0.710938 14.660156 0.824219 14.097656 C 0.933594 13.535156 1.074219 12.976562 1.242188 12.429688 C 1.40625 11.878906 1.601562 11.339844 1.820312 10.8125 C 2.039062 10.28125 2.285156 9.761719 2.554688 9.257812 C 2.824219 8.75 3.121094 8.261719 3.4375 7.785156 C 3.757812 7.304688 4.097656 6.847656 4.460938 6.402344 C 4.824219 5.960938 5.210938 5.535156 5.617188 5.128906 C 6.023438 4.722656 6.445312 4.339844 6.890625 3.976562 C 7.332031 3.613281 7.792969 3.269531 8.269531 2.953125 C 8.746094 2.632812 9.238281 2.339844 9.746094 2.066406 C 10.25 1.796875 10.769531 1.550781 11.296875 1.332031 C 11.828125 1.113281 12.367188 0.921875 12.917969 0.753906 C 13.464844 0.585938 14.019531 0.449219 14.582031 0.335938 C 15.144531 0.226562 15.710938 0.140625 16.285156 0.0859375 C 16.855469 0.0273438 17.425781 0 18 0 C 20.039062 0 22.015625 0.347656 23.929688 1.042969 C 25.847656 1.742188 27.585938 2.746094 29.144531 4.058594 L 29.144531 3.453125 C 29.144531 3.242188 29.183594 3.039062 29.265625 2.84375 C 29.347656 2.652344 29.460938 2.476562 29.609375 2.328125 C 29.761719 2.179688 29.933594 2.066406 30.128906 1.984375 C 30.324219 1.902344 30.527344 1.863281 30.738281 1.863281 C 30.949219 1.863281 31.152344 1.902344 31.347656 1.984375 C 31.542969 2.066406 31.714844 2.179688 31.863281 2.328125 C 32.011719 2.476562 32.128906 2.652344 32.207031 2.84375 C 32.289062 3.039062 32.328125 3.242188 32.328125 3.453125 L 32.328125 7.960938 C 32.328125 8.171875 32.289062 8.375 32.207031 8.570312 C 32.128906 8.765625 32.011719 8.9375 31.863281 9.085938 C 31.714844 9.234375 31.542969 9.351562 31.347656 9.429688 C 31.152344 9.511719 30.949219 9.554688 30.738281 9.554688 L 26.230469 9.554688 C 26.019531 9.554688 25.816406 9.511719 25.621094 9.429688 C 25.425781 9.351562 25.253906 9.234375 25.105469 9.085938 C 24.957031 8.9375 24.839844 8.765625 24.761719 8.570312 C 24.679688 8.375 24.640625 8.171875 24.640625 7.960938 C 24.640625 7.75 24.679688 7.546875 24.761719 7.351562 C 24.839844 7.15625 24.957031 6.984375 25.105469 6.835938 C 25.253906 6.6875 25.425781 6.570312 25.621094 6.488281 C 25.816406 6.410156 26.019531 6.367188 26.230469 6.367188 L 26.980469 6.367188 C 25.714844 5.332031 24.308594 4.539062 22.769531 3.992188 C 21.226562 3.445312 19.636719 3.175781 18 3.183594 C 17.058594 3.183594 16.128906 3.277344 15.203125 3.460938 C 14.28125 3.644531 13.386719 3.914062 12.515625 4.273438 C 11.648438 4.636719 10.820312 5.078125 10.039062 5.597656 C 9.257812 6.121094 8.53125 6.714844 7.867188 7.382812 C 7.203125 8.046875 6.609375 8.769531 6.085938 9.550781 C 5.5625 10.335938 5.121094 11.160156 4.761719 12.03125 C 4.402344 12.898438 4.128906 13.796875 3.945312 14.71875 C 3.761719 15.640625 3.671875 16.574219 3.671875 17.511719 Z M 33.921875 15.921875 C 33.710938 15.921875 33.507812 15.960938 33.3125 16.042969 C 33.117188 16.125 32.945312 16.238281 32.796875 16.386719 C 32.644531 16.535156 32.53125 16.710938 32.449219 16.902344 C 32.371094 17.097656 32.328125 17.300781 32.328125 17.511719 C 32.328125 18.453125 32.238281 19.386719 32.054688 20.308594 C 31.871094 21.230469 31.597656 22.128906 31.238281 22.996094 C 30.878906 23.867188 30.4375 24.691406 29.914062 25.472656 C 29.390625 26.257812 28.796875 26.980469 28.132812 27.644531 C 27.46875 28.3125 26.742188 28.90625 25.960938 29.429688 C 25.179688 29.949219 24.351562 30.390625 23.484375 30.753906 C 22.613281 31.113281 21.71875 31.382812 20.796875 31.566406 C 19.871094 31.75 18.941406 31.84375 18 31.84375 C 16.371094 31.847656 14.785156 31.574219 13.25 31.027344 C 11.714844 30.480469 10.3125 29.691406 9.050781 28.660156 L 9.769531 28.660156 C 9.980469 28.660156 10.183594 28.617188 10.378906 28.539062 C 10.574219 28.457031 10.746094 28.339844 10.894531 28.191406 C 11.042969 28.042969 11.160156 27.871094 11.238281 27.675781 C 11.320312 27.480469 11.359375 27.277344 11.359375 27.066406 C 11.359375 26.855469 11.320312 26.652344 11.238281 26.457031 C 11.160156 26.261719 11.042969 26.089844 10.894531 25.941406 C 10.746094 25.792969 10.574219 25.675781 10.378906 25.59375 C 10.183594 25.515625 9.980469 25.472656 9.769531 25.472656 L 5.261719 25.472656 C 5.050781 25.472656 4.847656 25.515625 4.652344 25.59375 C 4.457031 25.675781 4.285156 25.792969 4.136719 25.941406 C 3.988281 26.089844 3.871094 26.261719 3.792969 26.457031 C 3.710938 26.652344 3.671875 26.855469 3.671875 27.066406 L 3.671875 31.570312 C 3.671875 31.785156 3.710938 31.984375 3.792969 32.179688 C 3.871094 32.375 3.988281 32.546875 4.136719 32.699219 C 4.285156 32.847656 4.457031 32.960938 4.652344 33.042969 C 4.847656 33.125 5.050781 33.164062 5.261719 33.164062 C 5.472656 33.164062 5.675781 33.125 5.871094 33.042969 C 6.066406 32.960938 6.238281 32.847656 6.390625 32.699219 C 6.539062 32.546875 6.652344 32.375 6.734375 32.179688 C 6.816406 31.984375 6.855469 31.785156 6.855469 31.570312 L 6.855469 30.96875 C 8.414062 32.28125 10.152344 33.285156 12.070312 33.984375 C 13.984375 34.679688 15.960938 35.027344 18 35.027344 C 18.574219 35.027344 19.144531 35 19.714844 34.941406 C 20.289062 34.886719 20.855469 34.800781 21.417969 34.691406 C 21.980469 34.578125 22.535156 34.4375 23.082031 34.273438 C 23.632812 34.105469 24.171875 33.914062 24.703125 33.695312 C 25.230469 33.472656 25.75 33.230469 26.253906 32.960938 C 26.761719 32.6875 27.253906 32.394531 27.730469 32.074219 C 28.207031 31.757812 28.667969 31.414062 29.109375 31.050781 C 29.554688 30.6875 29.976562 30.304688 30.382812 29.898438 C 30.789062 29.492188 31.175781 29.066406 31.539062 28.625 C 31.902344 28.179688 32.242188 27.71875 32.5625 27.242188 C 32.878906 26.765625 33.175781 26.273438 33.445312 25.769531 C 33.714844 25.261719 33.960938 24.746094 34.179688 24.214844 C 34.398438 23.6875 34.59375 23.144531 34.757812 22.597656 C 34.925781 22.046875 35.066406 21.492188 35.175781 20.929688 C 35.289062 20.367188 35.371094 19.800781 35.429688 19.230469 C 35.484375 18.660156 35.511719 18.085938 35.511719 17.511719 C 35.511719 17.300781 35.472656 17.097656 35.390625 16.902344 C 35.3125 16.710938 35.195312 16.535156 35.046875 16.386719 C 34.898438 16.238281 34.726562 16.125 34.53125 16.042969 C 34.335938 15.960938 34.132812 15.921875 33.921875 15.921875 Z M 23.367188 12.738281 L 16.902344 19.105469 L 14.226562 16.382812 C 14.078125 16.234375 13.90625 16.121094 13.710938 16.039062 C 13.515625 15.960938 13.316406 15.921875 13.105469 15.921875 C 12.894531 15.921875 12.691406 15.960938 12.496094 16.039062 C 12.300781 16.121094 12.132812 16.234375 11.980469 16.382812 C 11.832031 16.53125 11.714844 16.707031 11.632812 16.902344 C 11.550781 17.097656 11.511719 17.300781 11.511719 17.511719 C 11.511719 17.726562 11.550781 17.929688 11.632812 18.125 C 11.714844 18.320312 11.832031 18.496094 11.980469 18.644531 L 15.769531 22.355469 C 16.082031 22.652344 16.453125 22.800781 16.886719 22.800781 C 17.316406 22.800781 17.6875 22.652344 18 22.355469 L 25.578125 14.917969 C 25.777344 14.601562 25.851562 14.257812 25.808594 13.890625 C 25.765625 13.519531 25.609375 13.203125 25.34375 12.941406 C 25.078125 12.679688 24.761719 12.53125 24.390625 12.492188 C 24.019531 12.453125 23.679688 12.535156 23.367188 12.738281 Z M 23.367188 12.738281 " fill-opacity="1" fill-rule="nonzero"/></g></svg>