<svg xmlns="http://www.w3.org/2000/svg" xmlns:xlink="http://www.w3.org/1999/xlink" width="48" zoomAndPan="magnify" viewBox="0 0 36 36.000001" height="48" preserveAspectRatio="xMidYMid meet" version="1.0"><defs><clipPath id="38fe8d2a26"><path d="M 1.273438 0 L 34.84375 0 L 34.84375 35 L 1.273438 35 Z M 1.273438 0 " clip-rule="nonzero"/></clipPath></defs><g clip-path="url(#38fe8d2a26)"><path fill="#000000" d="M 28.777344 3.507812 L 27.148438 3.507812 L 27.148438 1.082031 C 27.148438 0.496094 26.671875 0.0234375 26.089844 0.0234375 C 25.503906 0.0234375 25.03125 0.5 25.03125 1.082031 L 25.03125 3.511719 L 10.480469 3.511719 L 10.480469 1.082031 C 10.480469 0.496094 10.003906 0.0234375 9.421875 0.0234375 C 8.835938 0.0234375 8.363281 0.5 8.363281 1.082031 L 8.363281 3.511719 L 7.332031 3.511719 C 3.988281 3.511719 1.273438 6.214844 1.273438 9.546875 L 1.273438 28.964844 C 1.273438 32.300781 3.988281 35 7.332031 35 L 28.777344 35 C 32.125 35 34.835938 32.300781 34.835938 28.964844 L 34.835938 9.546875 C 34.84375 6.214844 32.125 3.507812 28.777344 3.507812 Z M 25.023438 4.625 L 25.023438 6.816406 C 25.023438 7.398438 25.503906 7.871094 26.082031 7.871094 C 26.671875 7.871094 27.144531 7.394531 27.144531 6.816406 L 27.144531 4.707031 C 27.820312 5.097656 28.28125 5.832031 28.28125 6.667969 C 28.28125 7.917969 27.261719 8.933594 26.003906 8.933594 C 24.75 8.933594 23.730469 7.917969 23.730469 6.667969 C 23.738281 5.765625 24.265625 4.988281 25.023438 4.625 Z M 8.355469 4.664062 L 8.355469 6.816406 C 8.355469 7.398438 8.835938 7.871094 9.417969 7.871094 C 10.003906 7.871094 10.476562 7.394531 10.476562 6.816406 L 10.476562 4.664062 C 11.195312 5.042969 11.6875 5.796875 11.6875 6.664062 C 11.6875 7.914062 10.667969 8.929688 9.410156 8.929688 C 8.15625 8.929688 7.136719 7.914062 7.136719 6.664062 C 7.144531 5.796875 7.640625 5.042969 8.355469 4.664062 Z M 32.71875 28.960938 C 32.71875 31.128906 30.953125 32.882812 28.78125 32.882812 L 7.332031 32.882812 C 5.160156 32.882812 3.394531 31.121094 3.394531 28.960938 L 3.394531 12.878906 L 32.71875 12.878906 Z M 32.71875 28.960938 " fill-opacity="1" fill-rule="nonzero"/></g><path fill="#000000" d="M 10.507812 18.96875 L 7.574219 18.96875 C 7.339844 18.96875 7.144531 18.773438 7.144531 18.539062 L 7.144531 15.617188 C 7.144531 15.378906 7.339844 15.1875 7.574219 15.1875 L 10.507812 15.1875 C 10.746094 15.1875 10.9375 15.378906 10.9375 15.617188 L 10.9375 18.539062 C 10.933594 18.773438 10.746094 18.96875 10.507812 18.96875 Z M 10.507812 18.96875 " fill-opacity="1" fill-rule="nonzero"/><path fill="#000000" d="M 10.507812 24.964844 L 7.574219 24.964844 C 7.339844 24.964844 7.144531 24.773438 7.144531 24.535156 L 7.144531 21.613281 C 7.144531 21.378906 7.339844 21.183594 7.574219 21.183594 L 10.507812 21.183594 C 10.746094 21.183594 10.9375 21.378906 10.9375 21.613281 L 10.9375 24.535156 C 10.933594 24.777344 10.746094 24.964844 10.507812 24.964844 Z M 10.507812 24.964844 " fill-opacity="1" fill-rule="nonzero"/><path fill="#000000" d="M 10.507812 30.964844 L 7.574219 30.964844 C 7.339844 30.964844 7.144531 30.773438 7.144531 30.539062 L 7.144531 27.613281 C 7.144531 27.378906 7.339844 27.1875 7.574219 27.1875 L 10.507812 27.1875 C 10.746094 27.1875 10.9375 27.378906 10.9375 27.613281 L 10.9375 30.542969 C 10.933594 30.773438 10.746094 30.964844 10.507812 30.964844 Z M 10.507812 30.964844 " fill-opacity="1" fill-rule="nonzero"/><path fill="#000000" d="M 16.53125 18.96875 L 13.59375 18.96875 C 13.359375 18.96875 13.164062 18.773438 13.164062 18.539062 L 13.164062 15.617188 C 13.164062 15.378906 13.359375 15.1875 13.59375 15.1875 L 16.53125 15.1875 C 16.765625 15.1875 16.957031 15.378906 16.957031 15.617188 L 16.957031 18.539062 C 16.957031 18.773438 16.765625 18.96875 16.53125 18.96875 Z M 16.53125 18.96875 " fill-opacity="1" fill-rule="nonzero"/><path fill="#000000" d="M 16.53125 24.964844 L 13.59375 24.964844 C 13.359375 24.964844 13.164062 24.773438 13.164062 24.535156 L 13.164062 21.613281 C 13.164062 21.378906 13.359375 21.183594 13.59375 21.183594 L 16.53125 21.183594 C 16.765625 21.183594 16.957031 21.378906 16.957031 21.613281 L 16.957031 24.535156 C 16.957031 24.777344 16.765625 24.964844 16.53125 24.964844 Z M 16.53125 24.964844 " fill-opacity="1" fill-rule="nonzero"/><path fill="#000000" d="M 16.53125 30.964844 L 13.59375 30.964844 C 13.359375 30.964844 13.164062 30.773438 13.164062 30.539062 L 13.164062 27.613281 C 13.164062 27.378906 13.359375 27.1875 13.59375 27.1875 L 16.53125 27.1875 C 16.765625 27.1875 16.957031 27.378906 16.957031 27.613281 L 16.957031 30.542969 C 16.957031 30.773438 16.765625 30.964844 16.53125 30.964844 Z M 16.53125 30.964844 " fill-opacity="1" fill-rule="nonzero"/><path fill="#000000" d="M 22.554688 18.96875 L 19.617188 18.96875 C 19.382812 18.96875 19.1875 18.773438 19.1875 18.539062 L 19.1875 15.617188 C 19.1875 15.378906 19.382812 15.1875 19.617188 15.1875 L 22.554688 15.1875 C 22.789062 15.1875 22.980469 15.378906 22.980469 15.617188 L 22.980469 18.539062 C 22.976562 18.773438 22.789062 18.96875 22.554688 18.96875 Z M 22.554688 18.96875 " fill-opacity="1" fill-rule="nonzero"/><path fill="#000000" d="M 22.554688 24.964844 L 19.617188 24.964844 C 19.382812 24.964844 19.1875 24.773438 19.1875 24.535156 L 19.1875 21.613281 C 19.1875 21.378906 19.382812 21.183594 19.617188 21.183594 L 22.554688 21.183594 C 22.789062 21.183594 22.980469 21.378906 22.980469 21.613281 L 22.980469 24.535156 C 22.976562 24.777344 22.789062 24.964844 22.554688 24.964844 Z M 22.554688 24.964844 " fill-opacity="1" fill-rule="nonzero"/><path fill="#000000" d="M 22.554688 30.964844 L 19.617188 30.964844 C 19.382812 30.964844 19.1875 30.773438 19.1875 30.539062 L 19.1875 27.613281 C 19.1875 27.378906 19.382812 27.1875 19.617188 27.1875 L 22.554688 27.1875 C 22.789062 27.1875 22.980469 27.378906 22.980469 27.613281 L 22.980469 30.542969 C 22.976562 30.773438 22.789062 30.964844 22.554688 30.964844 Z M 22.554688 30.964844 " fill-opacity="1" fill-rule="nonzero"/><path fill="#000000" d="M 28.578125 18.96875 L 25.640625 18.96875 C 25.40625 18.96875 25.214844 18.773438 25.214844 18.539062 L 25.214844 15.617188 C 25.214844 15.378906 25.40625 15.1875 25.640625 15.1875 L 28.578125 15.1875 C 28.8125 15.1875 29.007812 15.378906 29.007812 15.617188 L 29.007812 18.539062 C 29 18.773438 28.808594 18.96875 28.578125 18.96875 Z M 28.578125 18.96875 " fill-opacity="1" fill-rule="nonzero"/><path fill="#000000" d="M 28.578125 24.964844 L 25.640625 24.964844 C 25.40625 24.964844 25.214844 24.773438 25.214844 24.535156 L 25.214844 21.613281 C 25.214844 21.378906 25.40625 21.183594 25.640625 21.183594 L 28.578125 21.183594 C 28.8125 21.183594 29.007812 21.378906 29.007812 21.613281 L 29.007812 24.535156 C 29 24.777344 28.808594 24.964844 28.578125 24.964844 Z M 28.578125 24.964844 " fill-opacity="1" fill-rule="nonzero"/></svg>