<svg xmlns="http://www.w3.org/2000/svg" xmlns:xlink="http://www.w3.org/1999/xlink" width="48" zoomAndPan="magnify" viewBox="0 0 36 36.000001" height="48" preserveAspectRatio="xMidYMid meet" version="1.0"><defs><clipPath id="20ab34ba3a"><path d="M 0.488281 15 L 26 15 L 26 35.027344 L 0.488281 35.027344 Z M 0.488281 15 " clip-rule="nonzero"/></clipPath><clipPath id="1ef06fde79"><path d="M 26 22 L 35.511719 22 L 35.511719 32 L 26 32 Z M 26 22 " clip-rule="nonzero"/></clipPath><clipPath id="176e4eaef5"><path d="M 0.488281 0 L 35.511719 0 L 35.511719 16 L 0.488281 16 Z M 0.488281 0 " clip-rule="nonzero"/></clipPath></defs><g clip-path="url(#20ab34ba3a)"><path fill="#000000" d="M 1.070312 35.027344 L 3.40625 35.027344 C 3.726562 35.027344 3.988281 34.765625 3.988281 34.441406 L 3.988281 32.691406 L 21.503906 32.691406 L 21.503906 34.441406 C 21.503906 34.765625 21.765625 35.027344 22.085938 35.027344 L 24.421875 35.027344 C 24.742188 35.027344 25.003906 34.765625 25.003906 34.441406 L 25.003906 25.101562 C 25.003906 23.695312 24 22.515625 22.671875 22.242188 L 22.671875 16.929688 C 22.671875 15.964844 21.882812 15.179688 20.917969 15.179688 L 4.574219 15.179688 C 3.605469 15.179688 2.820312 15.964844 2.820312 16.929688 L 2.820312 22.242188 C 1.492188 22.515625 0.488281 23.695312 0.488281 25.101562 L 0.488281 34.441406 C 0.488281 34.765625 0.746094 35.027344 1.070312 35.027344 Z M 23.835938 33.859375 L 22.671875 33.859375 L 22.671875 32.109375 C 22.671875 31.785156 22.410156 31.523438 22.085938 31.523438 L 3.40625 31.523438 C 3.082031 31.523438 2.820312 31.785156 2.820312 32.109375 L 2.820312 33.859375 L 1.652344 33.859375 L 1.652344 29.1875 L 23.835938 29.1875 Z M 3.988281 16.929688 C 3.988281 16.609375 4.25 16.347656 4.574219 16.347656 L 20.917969 16.347656 C 21.242188 16.347656 21.503906 16.609375 21.503906 16.929688 L 21.503906 22.183594 L 20.335938 22.183594 L 20.335938 19.847656 C 20.335938 18.882812 19.550781 18.097656 18.582031 18.097656 L 15.082031 18.097656 C 14.117188 18.097656 13.328125 18.882812 13.328125 19.847656 L 13.328125 22.183594 L 12.164062 22.183594 L 12.164062 19.847656 C 12.164062 18.882812 11.375 18.097656 10.410156 18.097656 L 6.90625 18.097656 C 5.941406 18.097656 5.15625 18.882812 5.15625 19.847656 L 5.15625 22.183594 L 3.988281 22.183594 Z M 19.167969 22.183594 L 14.496094 22.183594 L 14.496094 19.847656 C 14.496094 19.527344 14.757812 19.265625 15.082031 19.265625 L 18.582031 19.265625 C 18.90625 19.265625 19.167969 19.527344 19.167969 19.847656 Z M 10.996094 22.183594 L 6.324219 22.183594 L 6.324219 19.847656 C 6.324219 19.527344 6.585938 19.265625 6.90625 19.265625 L 10.410156 19.265625 C 10.734375 19.265625 10.996094 19.527344 10.996094 19.847656 Z M 1.652344 25.101562 C 1.652344 24.136719 2.441406 23.351562 3.40625 23.351562 L 22.085938 23.351562 C 23.050781 23.351562 23.835938 24.136719 23.835938 25.101562 L 23.835938 28.023438 L 1.652344 28.023438 Z M 1.652344 25.101562 " fill-opacity="1" fill-rule="nonzero"/></g><g clip-path="url(#1ef06fde79)"><path fill="#000000" d="M 34.929688 22.183594 L 26.757812 22.183594 C 26.433594 22.183594 26.171875 22.445312 26.171875 22.765625 L 26.171875 31.523438 L 27.339844 31.523438 L 27.339844 28.023438 L 34.347656 28.023438 L 34.347656 31.523438 L 35.511719 31.523438 L 35.511719 22.765625 C 35.511719 22.445312 35.253906 22.183594 34.929688 22.183594 Z M 27.339844 26.855469 L 27.339844 23.351562 L 34.347656 23.351562 L 34.347656 26.855469 Z M 27.339844 26.855469 " fill-opacity="1" fill-rule="nonzero"/></g><path fill="#000000" d="M 29.675781 24.519531 L 32.011719 24.519531 L 32.011719 25.6875 L 29.675781 25.6875 Z M 29.675781 24.519531 " fill-opacity="1" fill-rule="nonzero"/><path fill="#000000" d="M 33.179688 18.097656 C 33.367188 18.097656 33.542969 18.007812 33.652344 17.855469 C 33.761719 17.703125 33.792969 17.507812 33.730469 17.328125 L 32.566406 13.824219 C 32.484375 13.585938 32.261719 13.425781 32.011719 13.425781 L 29.675781 13.425781 C 29.425781 13.425781 29.203125 13.585938 29.121094 13.828125 L 27.953125 17.328125 C 27.894531 17.507812 27.925781 17.703125 28.035156 17.855469 C 28.144531 18.007812 28.320312 18.097656 28.507812 18.097656 L 30.257812 18.097656 L 30.257812 19.847656 L 29.09375 19.847656 L 29.09375 21.015625 L 32.59375 21.015625 L 32.59375 19.847656 L 31.425781 19.847656 L 31.425781 18.097656 Z M 30.097656 14.59375 L 31.589844 14.59375 L 32.367188 16.929688 L 29.316406 16.929688 Z M 30.097656 14.59375 " fill-opacity="1" fill-rule="nonzero"/><g clip-path="url(#176e4eaef5)"><path fill="#000000" d="M 35.167969 7.640625 L 18.238281 0.0507812 C 18.085938 -0.015625 17.914062 -0.015625 17.761719 0.0507812 L 0.832031 7.640625 C 0.621094 7.734375 0.488281 7.941406 0.488281 8.171875 L 0.488281 15.179688 L 1.652344 15.179688 L 1.652344 8.550781 L 18 1.222656 L 34.347656 8.550781 L 34.347656 15.179688 L 35.511719 15.179688 L 35.511719 8.171875 C 35.511719 7.941406 35.378906 7.734375 35.167969 7.640625 Z M 35.167969 7.640625 " fill-opacity="1" fill-rule="nonzero"/></g><path fill="#000000" d="M 13.914062 8.757812 C 13.914062 11.011719 15.746094 12.84375 18 12.84375 C 20.253906 12.84375 22.085938 11.011719 22.085938 8.757812 C 22.085938 8.527344 22.066406 8.300781 22.03125 8.074219 L 20.878906 8.269531 C 20.90625 8.429688 20.917969 8.59375 20.917969 8.757812 C 20.917969 10.367188 19.609375 11.675781 18 11.675781 C 16.390625 11.675781 15.082031 10.367188 15.082031 8.757812 C 15.082031 7.148438 16.390625 5.835938 18 5.835938 C 18.332031 5.835938 18.660156 5.894531 18.972656 6.003906 L 19.363281 4.902344 C 18.925781 4.75 18.46875 4.671875 18 4.671875 C 15.746094 4.671875 13.914062 6.503906 13.914062 8.757812 Z M 13.914062 8.757812 " fill-opacity="1" fill-rule="nonzero"/><path fill="#000000" d="M 17.246094 7.761719 L 16.417969 8.585938 L 17.585938 9.753906 C 17.699219 9.867188 17.851562 9.925781 18 9.925781 C 18.148438 9.925781 18.300781 9.867188 18.414062 9.753906 L 22.5 5.667969 L 21.671875 4.839844 L 18 8.515625 Z M 17.246094 7.761719 " fill-opacity="1" fill-rule="nonzero"/></svg>