<svg xmlns="http://www.w3.org/2000/svg" xmlns:xlink="http://www.w3.org/1999/xlink" width="48" zoomAndPan="magnify" viewBox="0 0 36 36.000001" height="48" preserveAspectRatio="xMidYMid meet" version="1.0"><defs><clipPath id="1ecbaf39c2"><path d="M 19 7 L 35.511719 7 L 35.511719 31 L 19 31 Z M 19 7 " clip-rule="nonzero"/></clipPath><clipPath id="04878741f4"><path d="M 13 4.035156 L 35 4.035156 L 35 9 L 13 9 Z M 13 4.035156 " clip-rule="nonzero"/></clipPath><clipPath id="2833064b90"><path d="M 0.488281 26 L 5 26 L 5 31 L 0.488281 31 Z M 0.488281 26 " clip-rule="nonzero"/></clipPath></defs><g clip-path="url(#1ecbaf39c2)"><path fill="#000000" d="M 33.03125 30.988281 L 19.976562 30.988281 C 19.691406 30.988281 19.464844 30.761719 19.464844 30.476562 C 19.464844 30.195312 19.691406 29.964844 19.976562 29.964844 L 33.03125 29.964844 C 33.746094 29.964844 34.328125 29.382812 34.328125 28.667969 C 34.328125 28.320312 34.191406 27.996094 33.949219 27.75 C 33.703125 27.503906 33.378906 27.371094 33.03125 27.371094 C 32.394531 27.371094 31.9375 26.742188 32.15625 26.128906 C 33.203125 23.265625 33.734375 20.277344 33.738281 17.238281 C 33.742188 13.976562 33.140625 10.785156 31.953125 7.75 C 31.847656 7.484375 31.976562 7.1875 32.242188 7.085938 C 32.503906 6.980469 32.804688 7.109375 32.90625 7.375 C 34.140625 10.53125 34.765625 13.847656 34.761719 17.238281 C 34.761719 20.351562 34.222656 23.417969 33.167969 26.347656 C 34.367188 26.417969 35.351562 27.410156 35.351562 28.667969 C 35.351562 29.949219 34.3125 30.988281 33.03125 30.988281 Z M 33.03125 30.988281 " fill-opacity="1" fill-rule="nonzero"/></g><path fill="#000000" d="M 14.394531 15.277344 C 14.113281 15.25 13.90625 15 13.933594 14.71875 C 14.234375 11.542969 15.042969 8.972656 15.667969 7.375 C 15.773438 7.113281 16.070312 6.980469 16.332031 7.085938 C 16.597656 7.1875 16.726562 7.484375 16.625 7.75 C 16.023438 9.285156 15.242188 11.757812 14.953125 14.8125 C 14.929688 15.09375 14.679688 15.300781 14.394531 15.277344 Z M 14.394531 15.277344 " fill-opacity="1" fill-rule="nonzero"/><g clip-path="url(#04878741f4)"><path fill="#000000" d="M 32.730469 8.074219 L 29.730469 8.074219 C 29.449219 8.074219 29.21875 7.84375 29.21875 7.5625 C 29.21875 7.277344 29.449219 7.050781 29.730469 7.050781 L 32.730469 7.050781 C 33.277344 7.050781 33.726562 6.609375 33.726562 6.054688 C 33.726562 5.503906 33.277344 5.058594 32.730469 5.058594 L 15.84375 5.058594 C 15.300781 5.058594 14.851562 5.5 14.851562 6.054688 C 14.851562 6.601562 15.296875 7.050781 15.84375 7.050781 L 25.628906 7.050781 C 25.914062 7.050781 26.144531 7.277344 26.144531 7.5625 C 26.144531 7.84375 25.914062 8.074219 25.628906 8.074219 L 15.84375 8.074219 C 14.730469 8.074219 13.824219 7.167969 13.824219 6.054688 C 13.824219 4.933594 14.734375 4.035156 15.84375 4.035156 L 32.730469 4.035156 C 33.84375 4.035156 34.75 4.941406 34.75 6.054688 C 34.75 7.171875 33.84375 8.074219 32.730469 8.074219 Z M 32.730469 8.074219 " fill-opacity="1" fill-rule="nonzero"/></g><g clip-path="url(#2833064b90)"><path fill="#000000" d="M 4.34375 30.988281 L 2.546875 30.988281 C 1.417969 30.988281 0.5 30.070312 0.5 28.9375 C 0.5 27.804688 1.414062 26.890625 2.546875 26.890625 L 2.578125 26.890625 C 2.859375 26.890625 3.089844 27.117188 3.089844 27.402344 C 3.089844 27.683594 2.859375 27.914062 2.578125 27.914062 C 2.5625 27.917969 2.15625 27.878906 1.824219 28.214844 C 1.628906 28.40625 1.523438 28.664062 1.523438 28.9375 C 1.523438 29.503906 1.984375 29.964844 2.546875 29.964844 L 4.34375 29.964844 C 4.625 29.964844 4.855469 30.195312 4.855469 30.476562 C 4.855469 30.761719 4.625 30.988281 4.34375 30.988281 Z M 4.34375 30.988281 " fill-opacity="1" fill-rule="nonzero"/></g><path fill="#000000" d="M 19.976562 30.988281 L 8.441406 30.988281 C 8.160156 30.988281 7.929688 30.761719 7.929688 30.476562 C 7.929688 30.195312 8.160156 29.964844 8.441406 29.964844 L 19.976562 29.964844 C 20.542969 29.964844 21 29.507812 21 28.9375 C 21 28.375 20.539062 27.914062 19.976562 27.914062 L 19.945312 27.914062 C 19.664062 27.914062 19.433594 27.683594 19.433594 27.402344 C 19.433594 27.117188 19.664062 26.890625 19.945312 26.890625 L 19.976562 26.890625 C 21.105469 26.890625 22.027344 27.808594 22.027344 28.9375 C 22.027344 29.484375 21.8125 30 21.425781 30.386719 C 21.035156 30.777344 20.523438 30.988281 19.976562 30.988281 Z M 19.976562 30.988281 " fill-opacity="1" fill-rule="nonzero"/><path fill="#000000" d="M 19.945312 27.914062 L 2.578125 27.914062 C 2.269531 27.914062 2.03125 27.644531 2.070312 27.335938 L 3.09375 19.375 C 3.257812 18.105469 4.34375 17.148438 5.625 17.148438 L 16.902344 17.148438 C 18.179688 17.148438 19.269531 18.105469 19.429688 19.375 L 20.457031 27.335938 C 20.496094 27.644531 20.253906 27.914062 19.945312 27.914062 Z M 3.160156 26.890625 L 19.363281 26.890625 L 18.414062 19.507812 C 18.316406 18.746094 17.664062 18.175781 16.902344 18.175781 L 5.625 18.175781 C 4.859375 18.175781 4.207031 18.746094 4.109375 19.507812 Z M 3.160156 26.890625 " fill-opacity="1" fill-rule="nonzero"/><path fill="#000000" d="M 12.8125 24.097656 C 12.804688 24.082031 12.789062 24.070312 12.773438 24.070312 L 9.75 24.070312 C 9.734375 24.070312 9.71875 24.082031 9.714844 24.097656 C 9.441406 24.902344 8.695312 25.4375 7.847656 25.4375 C 7.835938 25.4375 7.820312 25.4375 7.808594 25.4375 C 6.785156 25.414062 5.9375 24.597656 5.882812 23.578125 C 5.863281 23.21875 5.941406 22.863281 6.109375 22.550781 C 6.113281 22.539062 6.113281 22.523438 6.105469 22.511719 C 5.941406 22.199219 5.863281 21.84375 5.882812 21.488281 C 5.9375 20.464844 6.785156 19.648438 7.808594 19.628906 C 8.671875 19.609375 9.4375 20.148438 9.714844 20.964844 C 9.71875 20.984375 9.734375 20.996094 9.75 20.996094 L 12.773438 20.996094 C 12.789062 20.996094 12.804688 20.984375 12.8125 20.964844 C 13.085938 20.15625 13.84375 19.609375 14.714844 19.628906 C 15.738281 19.648438 16.585938 20.464844 16.640625 21.488281 C 16.660156 21.84375 16.582031 22.199219 16.417969 22.515625 C 16.410156 22.523438 16.410156 22.539062 16.417969 22.546875 C 16.582031 22.863281 16.660156 23.21875 16.640625 23.578125 C 16.585938 24.597656 15.738281 25.414062 14.714844 25.4375 C 13.871094 25.457031 13.09375 24.929688 12.8125 24.097656 Z M 9.75 23.042969 L 12.773438 23.042969 C 13.230469 23.042969 13.632812 23.335938 13.78125 23.769531 C 13.914062 24.164062 14.28125 24.417969 14.695312 24.410156 C 15.1875 24.402344 15.589844 24.011719 15.617188 23.523438 C 15.625 23.347656 15.589844 23.179688 15.511719 23.027344 C 15.34375 22.71875 15.34375 22.347656 15.511719 22.035156 C 15.589844 21.886719 15.625 21.714844 15.617188 21.542969 C 15.589844 21.054688 15.1875 20.664062 14.695312 20.652344 C 14.28125 20.644531 13.914062 20.902344 13.78125 21.292969 C 13.632812 21.726562 13.230469 22.019531 12.773438 22.019531 L 9.75 22.019531 C 9.292969 22.019531 8.890625 21.726562 8.742188 21.292969 C 8.613281 20.90625 8.253906 20.652344 7.847656 20.652344 C 7.839844 20.652344 7.835938 20.652344 7.828125 20.652344 C 7.339844 20.664062 6.933594 21.054688 6.90625 21.542969 C 6.898438 21.714844 6.933594 21.886719 7.011719 22.035156 C 7.179688 22.347656 7.175781 22.71875 7.015625 23.027344 C 6.933594 23.179688 6.898438 23.347656 6.90625 23.523438 C 6.933594 24.011719 7.339844 24.402344 7.828125 24.410156 C 8.242188 24.417969 8.609375 24.164062 8.742188 23.769531 C 8.890625 23.335938 9.292969 23.042969 9.75 23.042969 Z M 9.75 23.042969 " fill-opacity="1" fill-rule="nonzero"/><path fill="#000000" d="M 26.351562 24.914062 L 22.863281 24.914062 C 21.84375 24.914062 21.019531 24.085938 21.019531 23.070312 C 21.019531 22.285156 21.148438 21.511719 21.410156 20.769531 C 21.667969 20.03125 22.050781 19.34375 22.539062 18.730469 C 23.589844 17.417969 25.609375 17.402344 26.671875 18.730469 C 27.160156 19.34375 27.542969 20.03125 27.800781 20.769531 C 28.0625 21.511719 28.195312 22.285156 28.195312 23.070312 C 28.195312 23.5625 28.003906 24.027344 27.652344 24.375 C 27.304688 24.722656 26.84375 24.914062 26.351562 24.914062 Z M 23.339844 19.371094 C 22.921875 19.894531 22.597656 20.480469 22.375 21.109375 C 22.15625 21.742188 22.042969 22.402344 22.042969 23.070312 C 22.042969 23.519531 22.410156 23.886719 22.863281 23.886719 L 26.351562 23.886719 C 26.570312 23.886719 26.773438 23.804688 26.929688 23.648438 C 27.082031 23.492188 27.167969 23.289062 27.167969 23.070312 C 27.167969 22.402344 27.054688 21.742188 26.835938 21.109375 C 26.613281 20.476562 26.289062 19.894531 25.871094 19.371094 C 25.21875 18.558594 23.984375 18.566406 23.339844 19.371094 Z M 23.339844 19.371094 " fill-opacity="1" fill-rule="nonzero"/><path fill="#000000" d="M 24.605469 16.710938 C 23.757812 16.710938 23.066406 15.90625 23.066406 14.917969 C 23.066406 13.929688 23.757812 13.125 24.605469 13.125 C 25.453125 13.125 26.144531 13.929688 26.144531 14.917969 C 26.144531 15.90625 25.453125 16.710938 24.605469 16.710938 Z M 24.605469 14.148438 C 24.332031 14.148438 24.09375 14.507812 24.09375 14.917969 C 24.09375 15.328125 24.332031 15.6875 24.605469 15.6875 C 24.878906 15.6875 25.117188 15.328125 25.117188 14.917969 C 25.117188 14.507812 24.878906 14.148438 24.605469 14.148438 Z M 24.605469 14.148438 " fill-opacity="1" fill-rule="nonzero"/><path fill="#000000" d="M 28.046875 18.25 C 27.804688 18.25 27.5625 18.1875 27.347656 18.058594 C 26.621094 17.625 26.441406 16.582031 26.945312 15.730469 C 27.453125 14.882812 28.457031 14.542969 29.183594 14.976562 C 29.914062 15.410156 30.09375 16.457031 29.589844 17.304688 C 29.230469 17.902344 28.628906 18.25 28.046875 18.25 Z M 27.824219 16.253906 C 27.617188 16.605469 27.636719 17.039062 27.875 17.179688 C 28.109375 17.320312 28.496094 17.132812 28.707031 16.78125 C 28.917969 16.429688 28.894531 15.996094 28.660156 15.855469 C 28.390625 15.695312 28.003906 15.957031 27.824219 16.253906 Z M 27.824219 16.253906 " fill-opacity="1" fill-rule="nonzero"/><path fill="#000000" d="M 21.164062 18.25 C 20.585938 18.25 19.980469 17.902344 19.625 17.304688 C 19.117188 16.453125 19.296875 15.410156 20.027344 14.976562 C 20.753906 14.542969 21.757812 14.882812 22.265625 15.730469 C 22.789062 16.609375 22.578125 17.632812 21.863281 18.058594 C 21.648438 18.1875 21.410156 18.25 21.164062 18.25 Z M 20.503906 16.78125 C 20.714844 17.132812 21.105469 17.316406 21.339844 17.179688 C 21.605469 17.019531 21.5625 16.554688 21.386719 16.253906 C 21.175781 15.902344 20.785156 15.71875 20.550781 15.855469 C 20.316406 15.996094 20.296875 16.429688 20.503906 16.78125 Z M 20.503906 16.78125 " fill-opacity="1" fill-rule="nonzero"/><path fill="#000000" d="M 16.351562 17.765625 C 16.25 17.261719 15.917969 16.835938 15.488281 16.65625 C 14.984375 16.445312 14.589844 16.078125 14.386719 15.617188 C 13.898438 14.53125 12.722656 14.183594 11.867188 14.871094 C 11.257812 15.355469 10.40625 15.457031 9.695312 15.132812 C 9.148438 14.882812 8.511719 15.097656 8.164062 15.707031 C 7.921875 16.132812 7.523438 16.460938 7.046875 16.636719 C 6.582031 16.804688 6.265625 17.265625 6.171875 17.757812 C 6.117188 18.035156 5.847656 18.21875 5.570312 18.167969 C 5.292969 18.113281 5.109375 17.84375 5.164062 17.566406 C 5.335938 16.667969 5.933594 15.953125 6.695312 15.671875 C 6.945312 15.582031 7.148438 15.414062 7.273438 15.195312 C 7.894531 14.113281 9.105469 13.734375 10.121094 14.199219 C 10.484375 14.367188 10.917969 14.316406 11.222656 14.070312 C 12.300781 13.207031 13.84375 13.296875 14.832031 14.429688 C 15.027344 14.65625 15.195312 14.914062 15.320312 15.199219 C 15.417969 15.417969 15.617188 15.601562 15.882812 15.710938 C 16.625 16.019531 17.1875 16.726562 17.359375 17.558594 C 17.414062 17.839844 17.234375 18.109375 16.957031 18.164062 C 16.679688 18.222656 16.410156 18.042969 16.351562 17.765625 Z M 16.351562 17.765625 " fill-opacity="1" fill-rule="nonzero"/><path fill="#000000" d="M 28.195312 7.5625 C 28.195312 7.703125 28.144531 7.824219 28.042969 7.925781 C 27.945312 8.023438 27.824219 8.074219 27.679688 8.074219 C 27.539062 8.074219 27.417969 8.023438 27.320312 7.925781 C 27.21875 7.824219 27.167969 7.703125 27.167969 7.5625 C 27.167969 7.421875 27.21875 7.300781 27.320312 7.199219 C 27.417969 7.097656 27.539062 7.050781 27.679688 7.050781 C 27.824219 7.050781 27.945312 7.097656 28.042969 7.199219 C 28.144531 7.300781 28.195312 7.421875 28.195312 7.5625 Z M 28.195312 7.5625 " fill-opacity="1" fill-rule="nonzero"/><path fill="#000000" d="M 6.90625 30.476562 C 6.90625 30.617188 6.855469 30.738281 6.753906 30.839844 C 6.65625 30.9375 6.535156 30.988281 6.394531 30.988281 C 6.25 30.988281 6.128906 30.9375 6.03125 30.839844 C 5.929688 30.738281 5.878906 30.617188 5.878906 30.476562 C 5.878906 30.335938 5.929688 30.214844 6.03125 30.113281 C 6.128906 30.015625 6.25 29.964844 6.394531 29.964844 C 6.535156 29.964844 6.65625 30.015625 6.753906 30.113281 C 6.855469 30.214844 6.90625 30.335938 6.90625 30.476562 Z M 6.90625 30.476562 " fill-opacity="1" fill-rule="nonzero"/></svg>