<svg xmlns="http://www.w3.org/2000/svg" xmlns:xlink="http://www.w3.org/1999/xlink" width="48" zoomAndPan="magnify" viewBox="0 0 36 36.000001" height="48" preserveAspectRatio="xMidYMid meet" version="1.0"><defs><clipPath id="df13f420d4"><path d="M 1.378906 15 L 34.945312 15 L 34.945312 35.027344 L 1.378906 35.027344 Z M 1.378906 15 " clip-rule="nonzero"/></clipPath></defs><g clip-path="url(#df13f420d4)"><path fill="#000000" d="M 34.75 29.042969 L 31.511719 18.113281 C 31.421875 17.796875 31.097656 17.617188 30.773438 17.695312 L 26.730469 18.710938 C 26.574219 18.75 26.433594 18.855469 26.351562 18.992188 C 26.273438 19.132812 26.25 19.308594 26.296875 19.464844 L 26.402344 19.820312 C 25.351562 19.777344 24.316406 19.523438 23.382812 19.058594 L 20.667969 17.699219 C 19.589844 17.164062 18.351562 17.042969 17.179688 17.351562 L 15.019531 17.925781 L 9.757812 18.140625 L 9.867188 17.804688 C 9.914062 17.644531 9.898438 17.476562 9.816406 17.332031 C 9.738281 17.1875 9.605469 17.085938 9.441406 17.035156 L 5.421875 15.949219 C 5.101562 15.863281 4.78125 16.039062 4.675781 16.347656 L 1.503906 26.300781 C 1.457031 26.457031 1.472656 26.625 1.554688 26.773438 C 1.632812 26.917969 1.765625 27.019531 1.933594 27.066406 L 5.953125 28.15625 C 6.007812 28.167969 6.0625 28.179688 6.109375 28.179688 C 6.371094 28.179688 6.609375 28.015625 6.6875 27.757812 L 6.6875 27.75 L 8.132812 29.59375 C 9.207031 30.976562 10.511719 32.171875 12.019531 33.148438 L 14.3125 34.632812 C 14.714844 34.894531 15.179688 35.019531 15.636719 35.019531 C 16.179688 35.019531 16.714844 34.847656 17.148438 34.496094 C 17.515625 34.199219 17.773438 33.808594 17.886719 33.371094 C 18.296875 33.703125 18.789062 33.867188 19.289062 33.867188 C 19.871094 33.867188 20.449219 33.644531 20.871094 33.203125 C 21.082031 32.980469 21.230469 32.71875 21.320312 32.441406 C 21.699219 32.671875 22.125 32.785156 22.554688 32.785156 C 23.167969 32.785156 23.777344 32.550781 24.230469 32.09375 C 24.511719 31.800781 24.695312 31.433594 24.773438 31.046875 C 25.652344 31.453125 26.730469 31.277344 27.410156 30.550781 C 27.609375 30.335938 27.757812 30.085938 27.847656 29.820312 L 29.292969 29.578125 L 29.53125 30.382812 C 29.609375 30.644531 29.855469 30.816406 30.117188 30.816406 C 30.164062 30.816406 30.214844 30.8125 30.269531 30.800781 L 34.3125 29.785156 C 34.472656 29.742188 34.613281 29.640625 34.691406 29.5 C 34.769531 29.363281 34.792969 29.199219 34.75 29.042969 Z M 2.871094 26.078125 L 5.675781 17.277344 L 8.519531 18.046875 L 8.34375 18.59375 C 8.34375 18.59375 8.34375 18.601562 8.34375 18.601562 L 5.890625 26.292969 L 5.714844 26.84375 Z M 26.511719 29.742188 C 26.152344 30.128906 25.492188 30.171875 25.074219 29.839844 L 22.472656 27.804688 C 22.210938 27.597656 21.828125 27.640625 21.621094 27.902344 C 21.414062 28.160156 21.457031 28.539062 21.71875 28.746094 L 23.238281 29.9375 C 23.449219 30.105469 23.578125 30.339844 23.597656 30.601562 C 23.613281 30.847656 23.523438 31.082031 23.351562 31.257812 C 22.957031 31.664062 22.25 31.695312 21.816406 31.3125 L 19.308594 29.125 C 19.058594 28.910156 18.667969 28.933594 18.449219 29.179688 C 18.222656 29.429688 18.246094 29.816406 18.503906 30.03125 L 19.9375 31.28125 C 20.101562 31.425781 20.199219 31.613281 20.207031 31.820312 C 20.210938 32.019531 20.136719 32.210938 19.984375 32.371094 C 19.648438 32.71875 19.039062 32.75 18.660156 32.441406 L 16.046875 30.269531 C 15.394531 29.808594 14.691406 30.636719 15.265625 31.199219 L 16.464844 32.199219 C 16.644531 32.382812 16.742188 32.597656 16.742188 32.839844 C 16.742188 33.117188 16.613281 33.371094 16.375 33.558594 C 15.984375 33.875 15.394531 33.898438 14.972656 33.625 L 12.683594 32.140625 C 11.292969 31.234375 10.085938 30.128906 9.097656 28.855469 L 7.148438 26.355469 L 7.445312 25.40625 L 9.371094 19.367188 L 13.898438 19.179688 L 11.726562 22.195312 C 11.074219 23.101562 11.25 24.3125 12.148438 25.019531 C 13.0625 25.746094 14.429688 25.671875 15.257812 24.855469 L 16.234375 23.890625 C 16.667969 23.460938 17.257812 23.171875 17.894531 23.074219 C 18.730469 22.953125 19.582031 23.171875 20.230469 23.679688 L 26.40625 28.527344 C 26.601562 28.6875 26.726562 28.898438 26.738281 29.125 C 26.753906 29.351562 26.675781 29.566406 26.511719 29.742188 Z M 27.871094 28.605469 C 27.75 28.207031 27.507812 27.859375 27.164062 27.585938 L 20.984375 22.738281 C 20.078125 22.023438 18.882812 21.714844 17.710938 21.886719 C 16.820312 22.019531 15.984375 22.429688 15.367188 23.039062 L 14.390625 24.003906 C 14.007812 24.386719 13.34375 24.421875 12.90625 24.078125 C 12.519531 23.777344 12.441406 23.28125 12.714844 22.894531 L 15.484375 19.054688 L 17.496094 18.515625 C 18.375 18.28125 19.308594 18.371094 20.121094 18.777344 L 22.832031 20.132812 C 24.03125 20.730469 25.359375 21.039062 26.714844 21.039062 C 26.730469 21.039062 26.75 21.039062 26.769531 21.039062 L 28.953125 28.421875 Z M 30.542969 29.5 L 30.316406 28.742188 L 27.804688 20.253906 C 27.804688 20.253906 27.804688 20.253906 27.804688 20.25 L 27.652344 19.722656 L 30.511719 19.003906 L 33.402344 28.777344 Z M 30.542969 29.5 " fill-opacity="1" fill-rule="nonzero"/></g><path fill="#000000" d="M 11.457031 12.410156 C 13.15625 14.289062 15.582031 15.363281 18.132812 15.363281 C 20.691406 15.363281 23.140625 14.277344 24.835938 12.378906 C 24.878906 12.332031 24.914062 12.277344 24.9375 12.222656 C 24.992188 12.101562 25.003906 11.964844 24.976562 11.835938 C 24.402344 9.5 22.695312 7.6875 20.511719 6.921875 C 21.4375 6.214844 22.035156 5.109375 22.035156 3.863281 C 22.027344 1.734375 20.285156 0 18.132812 0 C 15.976562 0 14.234375 1.734375 14.234375 3.859375 C 14.234375 5.101562 14.832031 6.207031 15.757812 6.914062 C 13.59375 7.683594 11.890625 9.46875 11.304688 11.777344 C 11.261719 11.902344 11.261719 12.046875 11.3125 12.175781 C 11.34375 12.265625 11.390625 12.34375 11.457031 12.410156 Z M 15.453125 3.859375 C 15.453125 2.398438 16.65625 1.207031 18.132812 1.207031 C 19.605469 1.207031 20.808594 2.398438 20.808594 3.859375 C 20.808594 5.320312 19.613281 6.503906 18.136719 6.511719 C 18.132812 6.511719 18.132812 6.511719 18.125 6.511719 C 18.121094 6.511719 18.121094 6.511719 18.113281 6.511719 C 16.648438 6.503906 15.453125 5.320312 15.453125 3.859375 Z M 18.113281 7.71875 C 18.121094 7.71875 18.125 7.71875 18.132812 7.71875 C 18.136719 7.71875 18.144531 7.71875 18.148438 7.71875 C 20.730469 7.722656 22.96875 9.390625 23.699219 11.8125 C 22.25 13.304688 20.234375 14.148438 18.132812 14.148438 C 16.027344 14.148438 14.015625 13.296875 12.5625 11.804688 C 13.300781 9.390625 15.539062 7.730469 18.113281 7.71875 Z M 18.113281 7.71875 " fill-opacity="1" fill-rule="nonzero"/></svg>