<svg xmlns="http://www.w3.org/2000/svg" xmlns:xlink="http://www.w3.org/1999/xlink" width="48" zoomAndPan="magnify" viewBox="0 0 36 36.000001" height="48" preserveAspectRatio="xMidYMid meet" version="1.0"><defs><clipPath id="1c999f9696"><path d="M 24 6.367188 L 32.792969 6.367188 L 32.792969 25.273438 L 24 25.273438 Z M 24 6.367188 " clip-rule="nonzero"/></clipPath></defs><path fill="#040606" d="M 19.554688 9.863281 L 23.195312 10.78125 C 23.414062 10.839844 23.679688 10.839844 23.894531 10.726562 L 25.015625 10.1875 L 25.015625 8.183594 C 25.015625 8.074219 25.015625 7.96875 25.070312 7.859375 L 23.359375 8.671875 L 20.09375 7.859375 C 19.554688 7.695312 18.96875 8.074219 18.859375 8.617188 C 18.703125 9.15625 19.019531 9.699219 19.554688 9.863281 " fill-opacity="1" fill-rule="nonzero"/><path fill="#040606" d="M 30.480469 25.453125 C 29.464844 25.777344 28.445312 25.832031 27.371094 25.667969 C 27.214844 28.699219 27.480469 31.351562 28.175781 33.628906 C 28.445312 34.382812 29.246094 34.925781 30.105469 34.65625 C 30.90625 34.382812 31.335938 33.519531 31.121094 32.707031 C 30.480469 30.648438 30.265625 28.265625 30.480469 25.453125 " fill-opacity="1" fill-rule="nonzero"/><path fill="#040606" d="M 26.890625 25.558594 C 26.410156 25.453125 25.980469 25.292969 25.5 25.074219 C 25.234375 28.375 25.5 31.191406 26.25 33.628906 C 26.460938 34.277344 27.054688 34.707031 27.695312 34.707031 C 27.855469 34.707031 28.015625 34.707031 28.175781 34.65625 C 26.945312 33.355469 26.730469 28.046875 26.890625 25.558594 " fill-opacity="1" fill-rule="nonzero"/><path fill="#040606" d="M 31.496094 3.097656 C 31.496094 4.769531 30.152344 6.125 28.5 6.125 C 26.84375 6.125 25.5 4.769531 25.5 3.097656 C 25.5 1.421875 26.84375 0.0664062 28.5 0.0664062 C 30.152344 0.0664062 31.496094 1.421875 31.496094 3.097656 " fill-opacity="1" fill-rule="nonzero"/><g clip-path="url(#1c999f9696)"><path fill="#040606" d="M 31.441406 13.8125 L 31.441406 8.183594 C 31.441406 7.914062 31.335938 7.695312 31.121094 7.535156 C 29.355469 6.398438 27.589844 6.398438 25.820312 7.535156 C 25.660156 7.695312 25.5 7.914062 25.5 8.183594 L 25.5 10.675781 L 27.214844 9.15625 C 27.855469 8.5625 28.816406 8.671875 29.355469 9.265625 C 29.945312 9.917969 29.835938 10.890625 29.246094 11.433594 L 25.339844 14.898438 L 24.105469 23.339844 C 24.105469 23.449219 24.160156 23.609375 24.214844 23.667969 C 26.941406 25.722656 30.050781 25.722656 32.726562 23.667969 C 32.835938 23.609375 32.886719 23.449219 32.835938 23.339844 L 31.441406 13.8125 " fill-opacity="1" fill-rule="nonzero"/></g><path fill="#040606" d="M 28.925781 11.109375 C 29.355469 10.726562 29.410156 10.078125 29.035156 9.644531 C 28.65625 9.214844 28.015625 9.15625 27.589844 9.535156 L 23.570312 13.109375 L 19.878906 11.433594 C 19.34375 11.214844 18.753906 11.433594 18.539062 11.917969 C 18.324219 12.460938 18.539062 13.054688 19.019531 13.273438 L 23.304688 15.273438 C 23.679688 15.4375 24.105469 15.382812 24.429688 15.113281 L 28.925781 11.109375 " fill-opacity="1" fill-rule="nonzero"/><path fill="#040606" d="M 13.933594 19.175781 L 13.078125 19.496094 C 13.078125 19.496094 13.132812 18.46875 12.597656 18.144531 C 12.597656 18.144531 12.171875 16.519531 12.8125 16.144531 C 12.8125 16.144531 13.933594 15.546875 13.933594 14.898438 C 13.933594 14.898438 13.988281 14.679688 13.988281 14.460938 C 13.988281 14.304688 13.773438 14.191406 13.613281 14.246094 C 12.703125 14.519531 12.757812 14.570312 12.597656 14.570312 C 12.113281 14.519531 12.058594 14.460938 11.742188 14.519531 C 11.472656 14.570312 11.097656 14.679688 10.9375 14.898438 C 10.9375 14.898438 10.613281 14.789062 10.5625 14.898438 C 10.5625 14.898438 10.132812 15.382812 10.347656 15.816406 L 9.492188 19.550781 C 9.492188 19.550781 9.0625 21.664062 6.386719 24.367188 C 6.386719 24.367188 5.046875 25.34375 4.03125 24.152344 C 4.03125 24.152344 4.300781 23.285156 5.210938 22.855469 C 5.210938 22.855469 2.90625 22.90625 3.121094 24.859375 C 3.121094 24.859375 3.546875 26.046875 6.65625 25.453125 C 6.65625 25.453125 6.921875 27.019531 7.832031 27.886719 C 7.832031 27.886719 8.046875 28.539062 7.566406 29.351562 C 7.566406 29.351562 7.402344 29.621094 7.722656 30.164062 L 8.476562 31.515625 C 8.476562 31.515625 8.90625 32.058594 9.597656 31.894531 L 9.8125 31.625 C 9.8125 31.625 9.597656 31.296875 9.167969 31.191406 C 9.167969 31.191406 8.632812 30.703125 8.527344 30.054688 C 8.527344 30.054688 9.011719 31.082031 9.597656 30.976562 C 9.597656 30.976562 9.972656 31.191406 10.242188 30.976562 C 10.242188 30.976562 10.667969 30.703125 9.8125 30.433594 C 9.8125 30.433594 8.957031 29.945312 8.902344 29.1875 C 8.902344 29.1875 9.117188 28.105469 9.652344 27.5625 C 9.652344 27.5625 10.027344 26.480469 9.542969 25.453125 C 9.542969 25.453125 9.542969 24.585938 10.777344 23.828125 L 12.222656 22.257812 L 12.8125 21.066406 L 13.078125 21.066406 C 13.078125 21.066406 12.652344 22.203125 12.917969 22.53125 C 12.917969 22.53125 13.1875 22.90625 13.398438 22.421875 L 13.773438 20.851562 C 13.773438 20.851562 13.773438 20.3125 13.507812 20.203125 C 13.507812 20.203125 14.148438 19.878906 13.878906 20.421875 C 13.878906 20.421875 13.71875 21.554688 14.417969 21.449219 C 14.417969 21.449219 14.683594 21.554688 14.578125 20.3125 C 14.738281 20.363281 14.953125 18.957031 13.933594 19.175781 " fill-opacity="1" fill-rule="nonzero"/><path fill="#040606" d="M 15.324219 10.566406 C 14.578125 10.566406 13.988281 11.160156 13.988281 11.917969 C 13.988281 12.679688 14.578125 13.273438 15.324219 13.273438 C 16.078125 13.273438 16.664062 12.679688 16.664062 11.917969 C 16.664062 11.160156 16.078125 10.566406 15.324219 10.566406 " fill-opacity="1" fill-rule="nonzero"/></svg>