<svg xmlns="http://www.w3.org/2000/svg" xmlns:xlink="http://www.w3.org/1999/xlink" width="48" zoomAndPan="magnify" viewBox="0 0 36 36.000001" height="48" preserveAspectRatio="xMidYMid meet" version="1.0"><defs><clipPath id="ccba829f99"><path d="M 2.195312 0 L 33.574219 0 L 33.574219 35 L 2.195312 35 Z M 2.195312 0 " clip-rule="nonzero"/></clipPath></defs><g clip-path="url(#ccba829f99)"><path fill="#000000" d="M 30.210938 14.570312 C 29.074219 18.832031 27.558594 22.351562 25.707031 25.035156 C 22.011719 30.402344 19.054688 32.382812 17.882812 33.011719 C 16.710938 32.382812 13.753906 30.402344 10.058594 25.035156 C 8.210938 22.351562 6.691406 18.832031 5.554688 14.570312 C 4.710938 11.414062 4.304688 8.675781 4.140625 7.355469 C 9.839844 2.269531 17.3125 1.910156 17.882812 1.890625 C 18.152344 1.902344 20.121094 1.996094 22.707031 2.691406 C 25.140625 3.34375 28.632812 4.683594 31.628906 7.355469 C 31.464844 8.675781 31.058594 11.414062 30.210938 14.570312 Z M 33.164062 6.214844 C 26.644531 0.160156 17.882812 0.0078125 17.882812 0.0078125 C 17.882812 0.0078125 9.121094 0.160156 2.601562 6.214844 C 2.332031 6.46875 2.195312 6.835938 2.238281 7.207031 C 2.519531 9.671875 3.886719 19.386719 8.519531 26.109375 C 12.765625 32.269531 16.171875 34.300781 17.394531 34.875 C 17.703125 35.019531 18.0625 35.019531 18.371094 34.875 C 19.59375 34.300781 23 32.269531 27.246094 26.109375 C 31.878906 19.386719 33.246094 9.671875 33.53125 7.207031 C 33.574219 6.835938 33.4375 6.46875 33.164062 6.214844 " fill-opacity="1" fill-rule="nonzero"/></g><path fill="#000000" d="M 18.792969 19.355469 C 18.835938 19.539062 18.695312 19.71875 18.507812 19.71875 L 17.261719 19.71875 C 17.070312 19.71875 16.929688 19.539062 16.972656 19.355469 L 17.445312 17.234375 C 17.117188 17.070312 16.890625 16.730469 16.890625 16.335938 C 16.890625 15.761719 17.375 15.296875 17.957031 15.339844 C 18.441406 15.375 18.839844 15.769531 18.875 16.261719 C 18.902344 16.6875 18.671875 17.0625 18.320312 17.234375 Z M 21.929688 12.035156 L 13.835938 12.035156 C 13.269531 12.035156 12.808594 12.5 12.808594 13.070312 L 12.808594 20.402344 C 12.808594 20.976562 13.269531 21.4375 13.835938 21.4375 L 21.929688 21.4375 C 22.496094 21.4375 22.957031 20.976562 22.957031 20.402344 L 22.957031 13.070312 C 22.957031 12.5 22.496094 12.035156 21.929688 12.035156 " fill-opacity="1" fill-rule="nonzero"/><path fill="#000000" d="M 15.410156 10.566406 C 15.410156 9.191406 16.519531 8.074219 17.882812 8.074219 C 19.246094 8.074219 20.359375 9.191406 20.359375 10.566406 L 20.359375 11.597656 L 21.5 11.597656 L 21.5 10.566406 C 21.5 8.558594 19.878906 6.921875 17.882812 6.921875 C 15.886719 6.921875 14.265625 8.558594 14.265625 10.566406 L 14.265625 11.597656 L 15.410156 11.597656 L 15.410156 10.566406 " fill-opacity="1" fill-rule="nonzero"/><path fill="#000000" d="M 14.554688 22.304688 L 21.210938 22.304688 C 21.472656 22.304688 21.6875 22.121094 21.742188 21.875 L 14.027344 21.875 C 14.078125 22.121094 14.296875 22.304688 14.554688 22.304688 " fill-opacity="1" fill-rule="nonzero"/></svg>