<svg xmlns="http://www.w3.org/2000/svg" xmlns:xlink="http://www.w3.org/1999/xlink" width="48" zoomAndPan="magnify" viewBox="0 0 36 36.000001" height="48" preserveAspectRatio="xMidYMid meet" version="1.0"><defs><clipPath id="8769f04e52"><path d="M 0.488281 22 L 7 22 L 7 33 L 0.488281 33 Z M 0.488281 22 " clip-rule="nonzero"/></clipPath><clipPath id="0c4fe52fb1"><path d="M 5 24 L 28 24 L 28 34.777344 L 5 34.777344 Z M 5 24 " clip-rule="nonzero"/></clipPath><clipPath id="0aee68142f"><path d="M 29 3 L 35.511719 3 L 35.511719 14 L 29 14 Z M 29 3 " clip-rule="nonzero"/></clipPath><clipPath id="b99e17bcfa"><path d="M 8 0.480469 L 31 0.480469 L 31 11 L 8 11 Z M 8 0.480469 " clip-rule="nonzero"/></clipPath></defs><g clip-path="url(#8769f04e52)"><path fill="#000000" d="M 5.992188 32.273438 L 1.035156 32.273438 C 0.730469 32.273438 0.488281 32.027344 0.488281 31.722656 L 0.488281 22.652344 C 0.488281 22.347656 0.730469 22.101562 1.035156 22.101562 L 5.992188 22.101562 C 6.296875 22.101562 6.542969 22.347656 6.542969 22.652344 L 6.542969 31.722656 C 6.542969 32.027344 6.296875 32.273438 5.992188 32.273438 Z M 1.582031 31.171875 L 5.445312 31.171875 L 5.445312 23.203125 L 1.582031 23.203125 Z M 1.582031 31.171875 " fill-opacity="1" fill-rule="nonzero"/></g><g clip-path="url(#0c4fe52fb1)"><path fill="#000000" d="M 15.867188 34.777344 C 15.511719 34.777344 15.152344 34.714844 14.8125 34.585938 L 5.800781 31.152344 C 5.515625 31.042969 5.375 30.726562 5.480469 30.441406 C 5.589844 30.15625 5.90625 30.011719 6.1875 30.121094 L 15.195312 33.554688 C 15.726562 33.753906 16.316406 33.707031 16.816406 33.425781 L 26.253906 27.546875 C 26.261719 27.542969 26.265625 27.539062 26.273438 27.535156 C 26.507812 27.402344 26.667969 27.183594 26.730469 26.917969 C 26.792969 26.652344 26.742188 26.382812 26.59375 26.15625 C 26.414062 25.890625 26.117188 25.730469 25.796875 25.730469 C 25.65625 25.730469 25.519531 25.761719 25.390625 25.824219 L 20.082031 28.339844 C 19.808594 28.46875 19.480469 28.351562 19.355469 28.074219 C 19.226562 27.800781 19.34375 27.472656 19.617188 27.34375 L 24.925781 24.828125 C 25.199219 24.695312 25.496094 24.628906 25.796875 24.628906 C 26.484375 24.628906 27.121094 24.96875 27.5 25.542969 C 27.820312 26.019531 27.925781 26.613281 27.796875 27.167969 C 27.667969 27.722656 27.3125 28.203125 26.824219 28.488281 L 17.382812 34.367188 C 17.375 34.371094 17.371094 34.375 17.363281 34.378906 C 16.902344 34.644531 16.386719 34.777344 15.867188 34.777344 Z M 15.867188 34.777344 " fill-opacity="1" fill-rule="nonzero"/></g><path fill="#000000" d="M 12.84375 29.589844 C 12.605469 29.589844 12.382812 29.429688 12.316406 29.1875 C 12.234375 28.894531 12.402344 28.589844 12.695312 28.507812 C 13.566406 28.261719 14.464844 28.136719 15.367188 28.136719 L 18.476562 28.136719 C 18.742188 28.136719 18.992188 28.03125 19.179688 27.839844 C 19.253906 27.769531 19.316406 27.683594 19.363281 27.589844 C 19.4375 27.441406 19.46875 27.328125 19.46875 27.1875 C 19.476562 26.925781 19.375 26.671875 19.1875 26.480469 C 18.992188 26.28125 18.71875 26.164062 18.445312 26.164062 L 14.097656 26.164062 C 13.722656 26.164062 13.351562 26.074219 13.015625 25.90625 L 9.546875 24.15625 C 9.367188 24.066406 9.160156 24.015625 8.957031 24.015625 L 5.992188 24.015625 C 5.691406 24.015625 5.445312 23.769531 5.445312 23.464844 C 5.445312 23.160156 5.691406 22.914062 5.992188 22.914062 L 8.957031 22.914062 C 9.332031 22.914062 9.703125 23.003906 10.039062 23.171875 L 13.507812 24.921875 C 13.6875 25.015625 13.894531 25.0625 14.097656 25.0625 L 18.445312 25.0625 C 19.011719 25.0625 19.566406 25.296875 19.96875 25.707031 C 20.363281 26.113281 20.574219 26.648438 20.566406 27.207031 C 20.558594 27.515625 20.484375 27.796875 20.335938 28.09375 C 20.238281 28.285156 20.109375 28.464844 19.953125 28.621094 C 19.558594 29.019531 19.03125 29.238281 18.476562 29.238281 L 15.367188 29.238281 C 14.566406 29.238281 13.765625 29.347656 12.992188 29.570312 C 12.941406 29.582031 12.890625 29.589844 12.84375 29.589844 Z M 12.84375 29.589844 " fill-opacity="1" fill-rule="nonzero"/><g clip-path="url(#0aee68142f)"><path fill="#000000" d="M 34.964844 13.28125 L 29.980469 13.28125 C 29.675781 13.28125 29.433594 13.035156 29.433594 12.730469 L 29.433594 3.660156 C 29.433594 3.355469 29.675781 3.109375 29.980469 3.109375 L 34.964844 3.109375 C 35.269531 3.109375 35.511719 3.355469 35.511719 3.660156 L 35.511719 12.730469 C 35.511719 13.035156 35.269531 13.28125 34.964844 13.28125 Z M 30.527344 12.179688 L 34.417969 12.179688 L 34.417969 4.210938 L 30.527344 4.210938 Z M 30.527344 12.179688 " fill-opacity="1" fill-rule="nonzero"/></g><g clip-path="url(#b99e17bcfa)"><path fill="#000000" d="M 10.175781 10.753906 C 9.492188 10.753906 8.855469 10.414062 8.472656 9.84375 C 8.152344 9.367188 8.046875 8.773438 8.175781 8.214844 C 8.304688 7.660156 8.660156 7.179688 9.148438 6.898438 L 18.589844 1.015625 C 18.597656 1.011719 18.601562 1.007812 18.609375 1.007812 C 19.390625 0.558594 20.320312 0.484375 21.160156 0.796875 L 30.171875 4.234375 C 30.457031 4.339844 30.597656 4.660156 30.492188 4.945312 C 30.382812 5.230469 30.070312 5.371094 29.785156 5.265625 L 20.777344 1.832031 C 20.246094 1.632812 19.65625 1.679688 19.15625 1.960938 L 9.71875 7.839844 C 9.710938 7.84375 9.707031 7.847656 9.699219 7.847656 C 9.46875 7.984375 9.304688 8.203125 9.242188 8.46875 C 9.179688 8.730469 9.230469 9 9.378906 9.226562 C 9.558594 9.492188 9.855469 9.652344 10.175781 9.652344 C 10.316406 9.652344 10.453125 9.621094 10.582031 9.5625 L 15.890625 7.046875 C 16.164062 6.914062 16.492188 7.035156 16.621094 7.308594 C 16.75 7.585938 16.632812 7.914062 16.359375 8.042969 L 11.050781 10.558594 C 10.773438 10.6875 10.480469 10.753906 10.175781 10.753906 Z M 10.175781 10.753906 " fill-opacity="1" fill-rule="nonzero"/></g><path fill="#000000" d="M 29.980469 12.46875 L 27.015625 12.46875 C 26.640625 12.46875 26.269531 12.382812 25.933594 12.214844 L 22.464844 10.460938 C 22.285156 10.371094 22.082031 10.320312 21.878906 10.320312 L 17.527344 10.320312 C 16.960938 10.320312 16.40625 10.085938 16.003906 9.675781 C 15.609375 9.269531 15.398438 8.738281 15.410156 8.175781 C 15.414062 7.867188 15.488281 7.585938 15.636719 7.292969 C 15.734375 7.097656 15.863281 6.921875 16.019531 6.765625 C 16.414062 6.367188 16.941406 6.148438 17.5 6.148438 L 20.605469 6.148438 C 21.410156 6.148438 22.207031 6.035156 22.980469 5.816406 C 23.273438 5.734375 23.574219 5.902344 23.65625 6.195312 C 23.738281 6.488281 23.570312 6.792969 23.277344 6.875 C 22.410156 7.125 21.507812 7.25 20.605469 7.25 L 17.5 7.25 C 17.234375 7.25 16.984375 7.351562 16.792969 7.542969 C 16.71875 7.617188 16.660156 7.703125 16.613281 7.796875 C 16.535156 7.941406 16.503906 8.058594 16.503906 8.199219 C 16.496094 8.460938 16.597656 8.710938 16.789062 8.90625 C 16.984375 9.105469 17.253906 9.21875 17.527344 9.21875 L 21.878906 9.21875 C 22.25 9.21875 22.625 9.308594 22.957031 9.476562 L 26.425781 11.226562 C 26.609375 11.320312 26.8125 11.367188 27.015625 11.367188 L 29.980469 11.367188 C 30.28125 11.367188 30.527344 11.613281 30.527344 11.917969 C 30.527344 12.222656 30.28125 12.46875 29.980469 12.46875 Z M 29.980469 12.46875 " fill-opacity="1" fill-rule="nonzero"/><path fill="#000000" d="M 17.199219 24.019531 C 17.054688 24.019531 16.914062 23.960938 16.8125 23.855469 L 11.617188 18.625 C 10.820312 17.820312 10.378906 16.753906 10.378906 15.617188 C 10.378906 14.480469 10.820312 13.414062 11.617188 12.609375 C 12.414062 11.808594 13.472656 11.367188 14.601562 11.367188 C 15.554688 11.367188 16.460938 11.683594 17.199219 12.265625 C 17.9375 11.683594 18.84375 11.367188 19.796875 11.367188 C 20.925781 11.367188 21.984375 11.808594 22.785156 12.609375 C 23.582031 13.414062 24.019531 14.480469 24.019531 15.617188 C 24.019531 16.753906 23.582031 17.820312 22.785156 18.625 L 17.585938 23.855469 C 17.484375 23.960938 17.34375 24.019531 17.199219 24.019531 Z M 14.601562 12.46875 C 13.765625 12.46875 12.980469 12.796875 12.390625 13.390625 C 11.171875 14.617188 11.171875 16.617188 12.390625 17.84375 L 17.199219 22.6875 L 22.007812 17.84375 C 22.601562 17.25 22.925781 16.457031 22.925781 15.617188 C 22.925781 14.777344 22.601562 13.984375 22.007812 13.390625 C 21.417969 12.796875 20.632812 12.46875 19.796875 12.46875 C 18.964844 12.46875 18.179688 12.796875 17.585938 13.390625 C 17.375 13.605469 17.027344 13.605469 16.8125 13.390625 C 16.222656 12.796875 15.4375 12.46875 14.601562 12.46875 Z M 14.601562 12.46875 " fill-opacity="1" fill-rule="nonzero"/></svg>