<svg xmlns="http://www.w3.org/2000/svg" xmlns:xlink="http://www.w3.org/1999/xlink" width="48" zoomAndPan="magnify" viewBox="0 0 36 36.000001" height="48" preserveAspectRatio="xMidYMid meet" version="1.0"><defs><clipPath id="e68c99e507"><path d="M 0.859375 0 L 35 0 L 35 35.027344 L 0.859375 35.027344 Z M 0.859375 0 " clip-rule="nonzero"/></clipPath></defs><g clip-path="url(#e68c99e507)"><path fill="#000000" d="M 32.625 3.46875 C 31.382812 1.875 29.5625 1.09375 27.359375 1.199219 C 26.660156 -0.0117188 25.199219 0.648438 24.484375 0.980469 C 24.402344 1.019531 24.320312 1.058594 24.246094 1.089844 C 24.152344 1.128906 24.058594 1.167969 23.957031 1.207031 C 23.367188 1.453125 22.625 1.757812 22.347656 2.460938 C 22.175781 2.902344 22.222656 3.417969 22.492188 3.996094 L 22.523438 4.070312 C 22.796875 4.660156 23.167969 5.019531 23.617188 5.136719 C 23.734375 5.167969 23.84375 5.179688 23.957031 5.179688 C 24.554688 5.179688 25.105469 4.785156 25.5625 4.460938 C 25.652344 4.398438 25.734375 4.339844 25.820312 4.28125 C 25.890625 4.234375 25.964844 4.1875 26.042969 4.132812 C 26.582031 3.777344 27.46875 3.195312 27.621094 2.359375 C 29.355469 2.328125 30.722656 2.941406 31.695312 4.1875 C 33.601562 6.632812 33.519531 10.816406 32.632812 13.667969 C 31.894531 16.046875 30.660156 17.941406 29.777344 19.085938 C 29.273438 18.953125 28.71875 19.101562 28.351562 19.519531 C 26.757812 21.332031 22.8125 23.628906 20.792969 24.703125 C 18.789062 23.628906 14.890625 21.332031 13.296875 19.519531 C 12.9375 19.109375 12.394531 18.957031 11.902344 19.078125 C 11.019531 17.929688 9.789062 16.039062 9.054688 13.667969 C 8.160156 10.789062 8.085938 6.589844 10.023438 4.148438 C 10.964844 2.960938 12.28125 2.359375 13.929688 2.355469 C 14.078125 3.191406 14.96875 3.777344 15.507812 4.128906 C 15.582031 4.179688 15.660156 4.226562 15.730469 4.277344 C 15.8125 4.335938 15.902344 4.398438 15.984375 4.457031 C 16.441406 4.78125 16.996094 5.175781 17.589844 5.175781 C 17.703125 5.175781 17.816406 5.160156 17.929688 5.132812 C 18.386719 5.015625 18.753906 4.65625 19.023438 4.070312 L 19.0625 3.992188 C 19.328125 3.414062 19.375 2.898438 19.203125 2.457031 C 18.929688 1.75 18.1875 1.449219 17.59375 1.203125 C 17.5 1.160156 17.402344 1.121094 17.308594 1.085938 C 17.230469 1.050781 17.152344 1.015625 17.066406 0.976562 C 16.351562 0.648438 14.890625 -0.015625 14.191406 1.191406 C 12.070312 1.125 10.316406 1.894531 9.101562 3.421875 C 7.507812 5.433594 6.523438 9.488281 7.9375 14.019531 C 8.734375 16.585938 10.039062 18.589844 10.980469 19.816406 C 10.730469 20.3125 10.789062 20.9375 11.179688 21.382812 C 13.691406 24.242188 19.890625 27.421875 20.152344 27.554688 L 20.238281 27.601562 C 20.4375 30.082031 19.777344 32.054688 18.355469 33.117188 C 17.203125 33.976562 15.726562 34.089844 14.390625 33.421875 C 12.433594 32.441406 11.269531 30.003906 11.265625 26.894531 C 11.265625 26.886719 11.265625 26.882812 11.265625 26.878906 C 11.265625 26.878906 11.265625 26.875 11.265625 26.875 C 11.261719 24.6875 10.410156 22.972656 8.921875 22.164062 C 7.832031 21.578125 6.59375 21.609375 5.609375 22.25 C 4.558594 22.933594 3.988281 24.199219 3.984375 25.769531 C 2.238281 26.058594 0.898438 27.578125 0.898438 29.40625 C 0.898438 31.441406 2.558594 33.09375 4.589844 33.09375 C 6.625 33.09375 8.285156 31.4375 8.285156 29.40625 C 8.285156 27.5625 6.921875 26.035156 5.15625 25.761719 C 5.160156 24.597656 5.546875 23.691406 6.25 23.230469 C 6.867188 22.832031 7.65625 22.816406 8.359375 23.199219 C 9.453125 23.789062 10.082031 25.128906 10.082031 26.878906 C 10.082031 30.503906 11.460938 33.269531 13.855469 34.472656 C 14.585938 34.839844 15.371094 35.019531 16.140625 35.019531 C 17.179688 35.019531 18.195312 34.695312 19.050781 34.058594 C 20.792969 32.753906 21.625 30.429688 21.410156 27.5625 L 21.421875 27.554688 C 21.683594 27.421875 27.957031 24.242188 30.46875 21.382812 C 30.851562 20.949219 30.914062 20.339844 30.683594 19.847656 C 31.628906 18.625 32.949219 16.605469 33.75 14.019531 C 35.148438 9.527344 34.191406 5.480469 32.625 3.46875 Z M 26.386719 1.867188 L 26.414062 1.921875 C 26.570312 2.253906 26.328125 2.542969 25.394531 3.15625 C 25.3125 3.207031 25.230469 3.261719 25.160156 3.3125 C 25.066406 3.371094 24.976562 3.441406 24.878906 3.507812 C 24.574219 3.722656 24.117188 4.054688 23.921875 4 C 23.847656 3.980469 23.726562 3.859375 23.589844 3.570312 L 23.558594 3.5 C 23.46875 3.3125 23.382812 3.050781 23.445312 2.886719 C 23.539062 2.652344 24 2.460938 24.410156 2.292969 C 24.515625 2.25 24.621094 2.203125 24.71875 2.160156 C 24.800781 2.128906 24.886719 2.085938 24.976562 2.046875 C 26.03125 1.5625 26.257812 1.59375 26.378906 1.839844 M 15.132812 1.917969 L 15.164062 1.847656 C 15.21875 1.738281 15.289062 1.667969 15.445312 1.667969 C 15.644531 1.667969 15.976562 1.78125 16.566406 2.050781 C 16.652344 2.09375 16.742188 2.132812 16.824219 2.164062 C 16.921875 2.210938 17.027344 2.253906 17.132812 2.296875 C 17.539062 2.464844 18 2.65625 18.09375 2.890625 C 18.160156 3.054688 18.070312 3.316406 17.980469 3.503906 L 17.945312 3.578125 C 17.816406 3.863281 17.691406 3.984375 17.617188 4.003906 C 17.417969 4.054688 16.964844 3.722656 16.65625 3.511719 C 16.5625 3.441406 16.472656 3.375 16.378906 3.316406 C 16.300781 3.265625 16.222656 3.210938 16.140625 3.160156 C 15.214844 2.542969 14.976562 2.257812 15.132812 1.917969 Z M 7.109375 29.40625 C 7.109375 30.789062 5.980469 31.921875 4.589844 31.921875 C 3.203125 31.921875 2.070312 30.789062 2.070312 29.40625 C 2.070312 28.019531 3.203125 26.886719 4.589844 26.886719 C 5.980469 26.886719 7.109375 28.019531 7.109375 29.40625 Z M 7.109375 29.40625 " fill-opacity="1" fill-rule="nonzero"/></g><path fill="#000000" d="M 21.941406 11.472656 C 22.46875 11.667969 22.929688 11.511719 23.324219 11.148438 C 23.882812 10.632812 24.101562 9.976562 24.007812 9.226562 C 23.949219 8.769531 23.761719 8.371094 23.355469 8.125 C 23.199219 8.027344 23.003906 7.996094 22.824219 7.929688 C 22.753906 7.929688 22.6875 7.929688 22.613281 7.929688 C 22.59375 7.9375 22.574219 7.945312 22.554688 7.949219 C 22.300781 7.984375 22.074219 8.085938 21.875 8.242188 C 21.203125 8.765625 20.894531 9.730469 21.136719 10.546875 C 21.269531 10.96875 21.507812 11.3125 21.941406 11.472656 Z M 21.941406 11.472656 " fill-opacity="1" fill-rule="nonzero"/><path fill="#000000" d="M 18.699219 7.929688 C 18.628906 7.929688 18.5625 7.929688 18.488281 7.929688 C 18.476562 7.933594 18.460938 7.945312 18.449219 7.945312 C 18.09375 7.988281 17.816406 8.164062 17.609375 8.449219 C 17.320312 8.855469 17.234375 9.3125 17.300781 9.792969 C 17.386719 10.441406 17.675781 10.980469 18.246094 11.339844 C 18.835938 11.714844 19.535156 11.589844 19.933594 11.027344 C 20.265625 10.5625 20.320312 10.039062 20.203125 9.496094 C 20.0625 8.878906 19.75 8.375 19.167969 8.082031 C 19.023438 8.011719 18.855469 7.980469 18.699219 7.929688 Z M 18.699219 7.929688 " fill-opacity="1" fill-rule="nonzero"/><path fill="#000000" d="M 17.941406 13.777344 C 18.269531 12.878906 17.839844 11.742188 17.003906 11.269531 C 16.269531 10.851562 15.46875 11.113281 15.15625 11.875 C 15.09375 12.027344 15.066406 12.191406 15.023438 12.351562 C 15.023438 12.488281 15.023438 12.617188 15.023438 12.75 C 15.03125 12.777344 15.039062 12.804688 15.042969 12.832031 C 15.121094 13.394531 15.363281 13.878906 15.796875 14.246094 C 16.097656 14.503906 16.441406 14.660156 16.835938 14.636719 C 17.394531 14.601562 17.753906 14.285156 17.941406 13.777344 Z M 17.941406 13.777344 " fill-opacity="1" fill-rule="nonzero"/><path fill="#000000" d="M 19.214844 12.835938 C 19.023438 13.117188 18.925781 13.441406 18.851562 13.769531 C 18.757812 14.230469 18.605469 14.664062 18.300781 15.027344 C 18.074219 15.296875 17.816406 15.546875 17.558594 15.792969 C 17.171875 16.167969 16.890625 16.601562 16.832031 17.152344 C 16.796875 17.535156 16.894531 17.875 17.199219 18.125 C 17.617188 18.46875 18.113281 18.570312 18.628906 18.472656 C 19.488281 18.308594 20.34375 18.210938 21.210938 18.269531 C 21.71875 18.304688 22.226562 18.367188 22.726562 18.453125 C 23.121094 18.523438 23.492188 18.511719 23.863281 18.375 C 24.398438 18.1875 24.691406 17.769531 24.660156 17.222656 C 24.644531 16.871094 24.542969 16.539062 24.324219 16.261719 C 24.136719 16.019531 23.933594 15.792969 23.707031 15.59375 C 23.148438 15.085938 22.769531 14.484375 22.632812 13.730469 C 22.597656 13.550781 22.539062 13.375 22.476562 13.203125 C 22.199219 12.46875 21.539062 12.011719 20.753906 12.011719 C 20.101562 12.015625 19.582031 12.292969 19.214844 12.835938 Z M 19.214844 12.835938 " fill-opacity="1" fill-rule="nonzero"/><path fill="#000000" d="M 23.699219 14.304688 C 24.097656 14.703125 24.726562 14.746094 25.257812 14.425781 C 25.980469 13.996094 26.410156 13.058594 26.253906 12.234375 C 26.1875 11.847656 26.027344 11.507812 25.691406 11.285156 C 25.222656 10.964844 24.738281 11.003906 24.277344 11.289062 C 23.585938 11.710938 23.289062 12.359375 23.25 13.066406 C 23.261719 13.585938 23.382812 13.984375 23.699219 14.304688 Z M 23.699219 14.304688 " fill-opacity="1" fill-rule="nonzero"/><path fill="#000000" d="M 5.664062 29.40625 C 5.664062 29.546875 5.636719 29.683594 5.582031 29.816406 C 5.527344 29.945312 5.453125 30.0625 5.351562 30.164062 C 5.25 30.265625 5.132812 30.339844 5.003906 30.394531 C 4.871094 30.449219 4.734375 30.476562 4.589844 30.476562 C 4.449219 30.476562 4.3125 30.449219 4.179688 30.394531 C 4.046875 30.339844 3.933594 30.265625 3.832031 30.164062 C 3.730469 30.0625 3.652344 29.945312 3.597656 29.816406 C 3.542969 29.683594 3.515625 29.546875 3.515625 29.40625 C 3.515625 29.261719 3.542969 29.125 3.597656 28.992188 C 3.652344 28.863281 3.730469 28.746094 3.832031 28.644531 C 3.933594 28.542969 4.046875 28.46875 4.179688 28.414062 C 4.3125 28.359375 4.449219 28.332031 4.589844 28.332031 C 4.734375 28.332031 4.871094 28.359375 5.003906 28.414062 C 5.132812 28.46875 5.25 28.542969 5.351562 28.644531 C 5.453125 28.746094 5.527344 28.863281 5.582031 28.992188 C 5.636719 29.125 5.664062 29.261719 5.664062 29.40625 Z M 5.664062 29.40625 " fill-opacity="1" fill-rule="nonzero"/></svg>